<svg id="Layer_1" data-name="Layer 1" xmlns="http://www.w3.org/2000/svg" xmlns:xlink="http://www.w3.org/1999/xlink" viewBox="0 0 156 156"><defs><style>.cls-1{fill:none;}.cls-2{clip-path:url(#clip-path);}.cls-3{fill:#2d69a9;}.cls-4{fill:#fff;}</style><clipPath id="clip-path"><rect class="cls-1" width="156" height="156"/></clipPath></defs><title>A_7 六合彩</title><g id="blue_circle" data-name="blue circle"><g class="cls-2"><g class="cls-2"><path class="cls-3" d="M156,78A78,78,0,1,1,78,0a78,78,0,0,1,78,78"/></g></g></g><path class="cls-4" d="M61,50v-.7l8.62-.93V49l3.15-.34v-8a9.88,9.88,0,0,0,1.41.23c.11-.22.25-.51.41-.89.34-.7.61-1.3.83-1.79A18.75,18.75,0,0,1,68.65,37l6.21-.67V34.05l-8,.86V33.83q3.48-.37,6.79-.89l-.41-2.34q-5.72.84-16.33,2.15.16.6.33,1.5a4.25,4.25,0,0,0,.17.76c.72-.08,1.79-.22,3.23-.43l3.07-.33v1l-7.88.85v2.31l6-.65a24.9,24.9,0,0,1-6.79,2.82,7.86,7.86,0,0,0,.66,1.23c.28.54.47.93.58,1.17.17-.06.42-.14.75-.23l.74-.31V50.3Zm8.62-4.63v.92L61,47.18v-.92Zm0-2.78v.85L61,44.33v-.85Zm-9.36-1.22A18.43,18.43,0,0,0,63.76,39v1.54l3.15-.34V38.69a12,12,0,0,0,3.56,1.54Z"/><path class="cls-4" d="M76.85,31c.28.43.67,1.06,1.16,1.88.39.63.69,1.11.91,1.44l2.91-1.62v.69l2.4-.26V34.5l-3.07.33v2.39l3.32-.36a12.49,12.49,0,0,1-4.06,3.37c0,.1.13.24.24.43a2.14,2.14,0,0,0,.17.45l-2.4-.36q-.68,3-1.74,6.66l3.15.43c.16-.68.41-1.63.74-2.85l.66-2.85a2.63,2.63,0,0,1,.17.37,1.63,1.63,0,0,1,.08.45,15.86,15.86,0,0,0,1.33-1.06v2.92c0,1.6.91,2.29,2.73,2.1l6.63-.72c1.94-.16,3-.87,3.32-2.13a8.48,8.48,0,0,0,.33-1.73,2.9,2.9,0,0,0,.08-.63q-1.41-.32-2.07-.39a2.5,2.5,0,0,1-.58-.09A11.82,11.82,0,0,1,93,43a1.39,1.39,0,0,1-1.32,1.07l-4.81.52c-.83.14-1.22-.15-1.16-.88v-.23l7-.76V39.59a13.63,13.63,0,0,0,2.66,1.17,4.87,4.87,0,0,0,.41-.81c.39-.92.69-1.59.91-2a6.39,6.39,0,0,1-3.89-2l3.48-.38V33.19l-3.15.34V32.14l2.4-.26V29.49l-2.4.26V28.06l-3.07.33v1.7l-2.9.31V28.7l-3,.33v1.69l-2.4.26v1.47c-.72-1.16-1.39-2.17-2-3Zm-.41,5.44c.83,1.25,1.52,2.38,2.07,3.4l3-1.71a32.13,32.13,0,0,0-2.23-3.3Zm13.42,3.4V41l-4.14.45V40.27Zm.25-7.34v1.38l-2.9.32V32.79Zm-.49,3.82a7,7,0,0,0,.91,1.29L86.71,38l.75-1a2.91,2.91,0,0,0,.33-.5Z"/><path class="cls-4" d="M23.7,62.23v8.29l33.81-3.93,2.14-8.54L45,59.76l-.12-1.27a9.42,9.42,0,0,0-.51-1.93A5.05,5.05,0,0,0,43,54.43a2.49,2.49,0,0,0-2-.71,3.48,3.48,0,0,0-2,1.2,6.45,6.45,0,0,0-1.35,2.31,11.58,11.58,0,0,0-.5,2c-.06.44-.11,1-.15,1.51Zm5.13,12-5,45.1,6.8-.79,5-45.1Zm22.38,41.93,6.78-.79L53,71.43l-6.78.79Z"/><path class="cls-4" d="M61.7,76.22v7.15l32.88-3.82,1.73-7.35Zm.65,37.84,26.55-3,6.51-8.64V84.27L62.35,88.11ZM89,103.15,68.76,105.5v-11L89,92.13Zm-14.19-51L61.37,71.74l9.17-1.06,8.57-12.29L87.3,68.7l9.07-1.06L83.44,51.15Z"/><path class="cls-4" d="M100.81,84l8.07-.94V111l5.72-4.64v-24l6.37-.74,2-8-8.32,1V71.73l-5.72.66v2.87l-8.07.93ZM121,54.1l1.64-8.59-21.86,5.17V59Zm-14.35,5.84-5.63.66,1.58,11.27,5.62-.65Zm6.72-.78-5.5.64,1.56,11.28,5.49-.64Zm8.73-1-5.43.63-1.17,11.59,5.42-.63Zm7.1,6.59,6.3-20.58-6.08.7-6.72,20.63Zm0,20,6.3-19.54-6.08.71-6.72,19.59Zm.08,22.61,6.43-21.92-6.08.71-6.74,22Zm-22.82.59,1.87-22.43-5.44.63-2.36,22.49Zm16-1.76-1.89-22-5.33.62,1.43,22Z"/><path class="cls-4" d="M105,34.56a3.76,3.76,0,1,1-3.76,3.76A3.75,3.75,0,0,1,105,34.56Z"/><path class="cls-4" d="M47.63,42.07a3.75,3.75,0,1,1-3.75,3.75A3.75,3.75,0,0,1,47.63,42.07Z"/><rect class="cls-1" width="156" height="156"/></svg>