<svg xmlns="http://www.w3.org/2000/svg" viewBox="0 0 156 156"><defs><style>.cls-2{clip-path:url(#clip-path)}.cls-3{fill:#386db6}</style><clipPath id="clip-path"><path fill="none" d="M0 0h156v156H0z"/></clipPath></defs><g class="cls-2" id="Layer_1" data-name="Layer 1"><g class="cls-2"><path class="cls-3" d="M78 2.4A75.6 75.6 0 1 1 2.4 78 75.68 75.68 0 0 1 78 2.4M78 0a78 78 0 1 0 78 78A78 78 0 0 0 78 0"/></g></g><g id="_Layer_" data-name="&lt;Layer&gt;"><g id="重庆幸运农场"><path d="M26.08 78.61l3 9.08a118.82 118.82 0 0 0 1-13l-6.76 1v-7.33l10.49-1.6a166.14 166.14 0 0 1-2.18 28.69l2.91 9.12-3.3 4.51c-.44-1.55-.94-3.31-1.52-5.27a79.1 79.1 0 0 1-5 13.38q-1-4.31-1.89-7.83a72 72 0 0 0 4.62-12.9q-1.86-6.17-4.45-14.1zm13.83.65l3.65-.56c0 3-.09 5.86-.27 8.59q2.48 16 7.87 19.7c-.73 2.26-1.51 4.88-2.32 7.87q-4.7-4.68-6.9-16.36-2.2 11.77-7.35 19.61a55 55 0 0 0-3.19-6.28 35.8 35.8 0 0 0 6.47-13.44 76.89 76.89 0 0 0 2.04-19.13zm10.57-12V74l-1.33 10.78-3.64-.9 1.27-9.12L39.07 76Q38 82.66 36.74 88.38a28 28 0 0 0-3.36-3.27 226.78 226.78 0 0 0 4-23.85l3.76.55q-.47 3.63-.94 7zM58 90l3.65 3.28a159.24 159.24 0 0 1-6.59 18.56 42.13 42.13 0 0 0-3.16-4.76A126.55 126.55 0 0 0 58 90zm6.48-19.28l4.24-.65v9.48l10-1.52v7.45l-10 1.52v15a19.22 19.22 0 0 1-1 7 4.63 4.63 0 0 1-2.79 3 45.07 45.07 0 0 1-5 1c-.32-3.26-.64-6-1-8.26a16 16 0 0 0 3.59-.1c1.29-.2 1.93-1.42 1.93-3.68V87.68l-11.23 1.73 2.07-27a110.74 110.74 0 0 0 20.55-6l1.44 7.29a107.74 107.74 0 0 1-18.12 5.1l-1 12.41 6.36-1zm9.47 17q2.43 5.22 6 14.83-1.92 2.73-3.7 5.48-3.06-10-5.4-15.65zm8.05 12.4l11.91-1.83V88.7L85.54 90v-7.64l8.37-1.28v-9.37l-6.85 1.05Q85.22 80.32 82.91 87 82 82.46 81 77.59a119.58 119.58 0 0 0 4.94-21.36l4.22 1.44q-.63 3.67-1.33 7.2l5.09-.78V52.92l4.24-.65v11.17l9.37-1.44v7.62l-9.38 1.44v9.37l8.28-1.27v7.62l-8.28 1.27v9.59l10.4-1.59v7.84L82 108zm33-50.21q2.18 4.13 4.49 8.46l-2.82 5.57q-2.33-4.84-4.47-9zm2 55.09l-4.07.62V65.41l8.77-1.35V48.43l4.18-.64v15.63L135 62v31.63q0 7.84-3.87 8.89a43 43 0 0 1-5.23 1.08c-.19-2.11-.56-4.71-1.1-7.78 1.51-.08 2.88-.2 4.13-.36s2-1.32 2-3.46v-1L117 93.11zm13.91-35.55L117 71.56v4.57L130.91 74zM117 86.91l13.91-2.14V80.2L117 82.33zm15.47-39.29l3.19 4.2q-2.82 6.3-4.8 10.27l-2.69-4.66c1.09-2.17 2.53-5.43 4.3-9.81z"/><path class="cls-3" d="M26.08 78.61l3 9.08a118.82 118.82 0 0 0 1-13l-6.76 1v-7.33l10.49-1.6a166.14 166.14 0 0 1-2.18 28.69l2.91 9.12-3.3 4.51c-.44-1.55-.94-3.31-1.52-5.27a79.1 79.1 0 0 1-5 13.38q-1-4.31-1.89-7.83a72 72 0 0 0 4.62-12.9q-1.86-6.17-4.45-14.1zm13.83.65l3.65-.56c0 3-.09 5.86-.27 8.59q2.48 16 7.87 19.7c-.73 2.26-1.51 4.88-2.32 7.87q-4.7-4.68-6.9-16.36-2.2 11.77-7.35 19.61a55 55 0 0 0-3.19-6.28 35.8 35.8 0 0 0 6.47-13.44 76.89 76.89 0 0 0 2.04-19.13zm10.57-12V74l-1.33 10.78-3.64-.9 1.27-9.12L39.07 76Q38 82.66 36.74 88.38a28 28 0 0 0-3.36-3.27 226.78 226.78 0 0 0 4-23.85l3.76.55q-.47 3.63-.94 7zM58 90l3.65 3.28a159.24 159.24 0 0 1-6.59 18.56 42.13 42.13 0 0 0-3.16-4.76A126.55 126.55 0 0 0 58 90zm6.48-19.28l4.24-.65v9.48l10-1.52v7.45l-10 1.52v15a19.22 19.22 0 0 1-1 7 4.63 4.63 0 0 1-2.79 3 45.07 45.07 0 0 1-5 1c-.32-3.26-.64-6-1-8.26a16 16 0 0 0 3.59-.1c1.29-.2 1.93-1.42 1.93-3.68V87.68l-11.23 1.73 2.07-27a110.74 110.74 0 0 0 20.55-6l1.44 7.29a107.74 107.74 0 0 1-18.12 5.1l-1 12.41 6.36-1zm9.47 17q2.43 5.22 6 14.83-1.92 2.73-3.7 5.48-3.06-10-5.4-15.65zm8.05 12.4l11.91-1.83V88.7L85.54 90v-7.64l8.37-1.28v-9.37l-6.85 1.05Q85.22 80.32 82.91 87 82 82.46 81 77.59a119.58 119.58 0 0 0 4.94-21.36l4.22 1.44q-.63 3.67-1.33 7.2l5.09-.78V52.92l4.24-.65v11.17l9.37-1.44v7.62l-9.38 1.44v9.37l8.28-1.27v7.62l-8.28 1.27v9.59l10.4-1.59v7.84L82 108zm33-50.21q2.18 4.13 4.49 8.46l-2.82 5.57q-2.33-4.84-4.47-9zm2 55.09l-4.07.62V65.41l8.77-1.35V48.43l4.18-.64v15.63L135 62v31.63q0 7.84-3.87 8.89a43 43 0 0 1-5.23 1.08c-.19-2.11-.56-4.71-1.1-7.78 1.51-.08 2.88-.2 4.13-.36s2-1.32 2-3.46v-1L117 93.11zm13.91-35.55L117 71.56v4.57L130.91 74zM117 86.91l13.91-2.14V80.2L117 82.33zm15.47-39.29l3.19 4.2q-2.82 6.3-4.8 10.27l-2.69-4.66c1.09-2.17 2.53-5.43 4.3-9.81z"/></g><path class="cls-3" d="M55.79 32.17V30.4h10.55a29.15 29.15 0 0 0 7-.71v1.86a24.47 24.47 0 0 1-6.38.62h-.71v1.15h8.59V35h-8.59v1.07h6.64v4.34q.18 3.11-2.74 2.92h-3.9v1.24h7.27v1.69h-7.27v1.32h8.59v1.6H54.29v-1.6h8.59v-1.32h-7.26v-1.69h7.26v-1.24h-6.64v-7.26h6.64V35h-8.59v-1.68h8.59v-1.15zm3.46 5.58V39h3.63v-1.25zm0 3.9h3.63V40.5h-3.63zM70 37.75h-3.75V39H70zm-1.06 3.9c.76.06 1.12-.33 1.06-1.15h-3.75v1.15zM77.06 50v-2.24q1.59-1.59 1.42-5.76V31.37h8.06V29.6h3.81v1.77h7.09v2.3H82v7.62q.29 6.39-4.94 8.71zm5.67-9.84v-2.3h5.14v-3.39h3.54v3.37H97v2.3h-5.5q.7 5.05 5.94 7.62v2.13Q91.59 48 89.73 44.4q-2.4 3.9-8.15 5.49v-2.13q5.67-2.74 6.2-7.62zm17.98 83.28l-4.17-1.93-3.3 3.18.56-4.55-4.06-2.14 4.51-.88.79-4.51 2.23 4 4.55-.64-3.13 3.35zM67.84 129l-4.17-1.94-3.3 3.19.56-4.55-4.06-2.15 4.51-.87.79-4.51 2.23 4 4.55-.64-3.13 3.35zm16.43-2.79l-4.16-1.93-3.3 3.18.56-4.54-4.07-2.15 4.51-.87.79-4.52 2.23 4 4.55-.64-3.13 3.35z"/></g></svg>