<svg id="Layer_1" data-name="Layer 1" xmlns="http://www.w3.org/2000/svg" viewBox="0 0 156 156"><defs><style>.cls-2{clip-path:url(#clip-path)}.cls-3{fill:#386db6}</style><clipPath id="clip-path"><path fill="none" d="M0 0h156v156H0z"/></clipPath></defs><g class="cls-2"><g class="cls-2"><path class="cls-3" d="M78 2.4A75.6 75.6 0 1 1 2.4 78 75.68 75.68 0 0 1 78 2.4M78 0a78 78 0 1 0 78 78A78 78 0 0 0 78 0"/></g></g><path class="cls-3" d="M41.73 68.78v4l-12.15 1.43v8.05l8.77-1-3.13 1.87 1.88 4.57-5.64.65v7.8l10.27-1.19v4.27l-12.4 1.44V109l12.4-1.44v8.55l5.52-.64v-8.55l12.4-1.44v-8.3l-12.4 1.44V94.3l10.4-1.21v-7.8l-5.77.71 2-5.26-3.14-.9 8.65-1v-8l-12.14 1.32v-4L57 67v-7.54l-9.77 1.13v-5.28l-5.5.69v5.28L32 62.36v7.55zm6.77 11.28l-2.38 6.57-3.26.37-2.38-6zm33.58 2.14c.16.49.41 1.21.75 2.18.42 1.29.71 2.27.88 2.92a23.7 23.7 0 0 0-2.89.58 14.54 14.54 0 0 0-3 .6q1.62-4 3.88-10.51l9.65-1.12v-9l-20.8 2.41v9.05l5.39-.62a59.75 59.75 0 0 1-2.13 6.28 5.37 5.37 0 0 1-.25.79 19.93 19.93 0 0 1-2.88 5.11l1.87 8.33a1.31 1.31 0 0 0 .51-.3 13.43 13.43 0 0 1 3.75-1.2q5.64-1.16 9.28-1.83l1.12 3.65 4.26-5.28Q88.85 85.7 86 78zM69.3 96.26V72.62l-7.9.92v9.8l2.89-.34v14.35c-1 1.62-2 3.34-3 5.13l1.88 11.35a89 89 0 0 1 3.83-8.75q2.13 5.79 7 5.47c2.08-.08 4.3-.16 6.64-.27l9.77-1.13q.75-5.62 1.5-9.48-5.88.93-16.66 2.18-4.26.25-6-5.59zm2.88-32l17.54-2v-9.12l-17.54 2zm-10-6.64q2 6.32 2.88 9.22c.41 1.47.75 2.6 1 3.41l4.51-5.55c-.33-1-.84-2.42-1.5-4.36q-1.76-5.07-2.76-7.73zm-1.72-25.79a4.79 4.79 0 0 1-.09.76 5.34 5.34 0 0 1-.18.85l-4.46.48V35a63.06 63.06 0 0 1-3.57-2L50 35.37q2.33 1.5 3.57 2.44l2.15-2.56v10l3-.33v-.75l.71.84a19.75 19.75 0 0 0 2.32-1.67v1.17l2.68-.29v-1.28l.36.13c.83.41 1.46.73 1.87 1l.81-1.09v1l3.12-.34V32.31l-6.73.69.53-1.38zM55.1 48.69l5.54-.6q-.54 1-6.16 2.24a1.68 1.68 0 0 1 .27.39A9.67 9.67 0 0 1 56 52.41c3.69-.89 6-2 7-3.25q1.78 1.55 7.06 1.56c.36-.7.8-1.53 1.34-2.47-3.1.17-5.09-.06-6-.68l5.78-.57v-2.29l-6.43.69v-1l-3.39.36v1l-6.26.68zM51.26 46q-1 4.34-1.52 6.14l3.31.48q.8-3.59 1.7-7.41l-3.22-.57c-.06.34-.15.79-.27 1.36zm14.11-8.26a6.27 6.27 0 0 1-.89.93v-1.54l2.06-.39-.54-1.69c-1 .22-2.86.53-5.72 1l-.89.1c.18.59.33 1.16.45 1.7.65-.08 1.31-.17 2-.3v1.41l-1.34-1.1-1.34 1 1.07 1-1.07.12v2l1.88-.2a10 10 0 0 1-2.23 1.48v-7.59l8.75-1V42l-2-.87 1.6-.13v-2l-1.07.11 1.07-1.19-1.34-.69-.45.46zM49.57 41a3.35 3.35 0 0 0 .53.36c1.25.86 2.17 1.54 2.77 2l2.32-2.66c-.35-.24-.92-.6-1.69-1.07s-1.29-.82-1.7-1.06zm14.91 1.3v-1l1-.11zm0-3v-.6l.81.5zM61.8 39v.59l-.8.08zm15.63-.2c-.18-.37-.47-.92-.89-1.65l-.72-1.25-2.94 1.48c.12.27.32.69.62 1.26.6 1.21 1 2 1.25 2.52l2.41-1.25a2.26 2.26 0 0 0-.17.43q-.27.61-.36.87l2.23.67c.06-.28.18-.71.36-1.28.3-1.2.53-2.05.71-2.57v1.41a12.72 12.72 0 0 1-2.5 8.66c.9.57 1.79 1.19 2.68 1.87q3.23-4 3-10.62v-1.74c.18.37.42.89.71 1.58s.51 1.3.63 1.68l.71-.33v7.39l3.13-.34V37.05c.18.42.42 1.06.71 1.91.24.53.42.95.54 1.27l.8-.42v8.48l3.22-.35v-19.1l-3.22.34v7.56c-.41-.84-.8-1.66-1.16-2.45l-.89.43v-4.65l-3.13.34v6.73c-.12-.27-.26-.64-.44-1.12s-.42-.89-.54-1.1l-1.07.53v-5.57l-3.13.34v5.48l-1.51-.33c-.3 1.14-.63 2.28-1 3.43zm-4.55 10.71l3.21.4c.24-.86.54-2.06.9-3.59s.62-2.81.8-3.66l-3.13-.57a69.09 69.09 0 0 1-1.78 7.42zm.35-17.73c.18.37.51 1 1 1.88s.71 1.53.89 1.9L78.33 34c-.24-.48-.69-1.26-1.34-2.35a12.07 12.07 0 0 0-.72-1.25zm29.02 90.32L98 119.81l-3.65 3.13.87-4.72-4.11-2.5 4.77-.63 1.12-4.67 2.08 4.33 4.79-.39-3.48 3.31zm-17.34 1.66l-4.23-2.29-3.68 3.12.87-4.71-4.11-2.5 4.77-.63 1.1-4.67 2.08 4.33 4.8-.39-3.49 3.31zm-17.36 1.86l-4.23-2.28-3.65 3.12.87-4.72-4.11-2.5 4.77-.63 1.11-4.61 2.08 4.32 4.79-.38-3.48 3.3z"/><path class="cls-3" d="M132.33 94.19c-1.88 3.54-5.5 7-11.71 9s-11.42 1.09-14.81-.74c-4.82-2.6-7-6.75-8.65-11L108.08 88c2 4.57 5 6.61 9.55 5.22a7.39 7.39 0 0 0 4.63-3.54c1.34-2.55.79-5.89-.36-9.71-2.09-7-5.28-10.23-10.57-8.61-4.45 1.36-5.7 4.53-5.74 7.13l-10 3.06-10.25-34.06L119.44 37l3 9.92-24.2 7.45 3.9 13c1.13-2 4-4.57 8.07-5.81 5-1.52 9.22-1.06 12.39.65 6.13 3.3 8.51 8.78 10.22 14.45 2.04 6.76 2.55 11.79-.49 17.53zm-11.42 4.37c7.92-2.87 10.29-10 7-21.15-2.74-9.43-9.13-13.86-17.08-11.85a13.74 13.74 0 0 0-9 7.93l-2.31.74-7-23.4 23.49-7-.3-1-24.48 7.3 7.62 25.42 3.79-1.22.09-.24c0-.06 2.23-6 8.38-7.52 3.53-.89 12.13-1.57 15.89 11.13 3.11 10.69 1 17.19-6.39 19.87-7.6 2.76-13.7-.56-15.43-3.66l-.9.51c1.45 2.6 5.36 5.25 10.63 5.25a17.73 17.73 0 0 0 6-1.11z"/></svg>