<svg id="Layer_1" data-name="Layer 1" xmlns="http://www.w3.org/2000/svg" xmlns:xlink="http://www.w3.org/1999/xlink" viewBox="0 0 156 156"><defs><style>.cls-1{fill:none;}.cls-2{clip-path:url(#clip-path);}.cls-3{fill:#2d69a9;}.cls-4{fill:#fff;}</style><clipPath id="clip-path"><rect class="cls-1" width="156" height="156"/></clipPath></defs><title>A_21.5吉林快3</title><g id="blue_circle" data-name="blue circle"><g class="cls-2"><g class="cls-2"><path class="cls-3" d="M156,78A78,78,0,1,1,78,0a78,78,0,0,1,78,78"/></g></g></g><rect class="cls-1" width="156" height="156"/><path class="cls-4" d="M71.38,97.34l-2.73-1V83.49l1.69.62a1.25,1.25,0,0,1,.71.65,2,2,0,0,1,.3,1v11.6ZM35.64,84.53a1.13,1.13,0,0,0,.36,1,1.23,1.23,0,0,0,.78.36,1.42,1.42,0,0,0,.72-.13c.23-.07.55-.14.71-.2V73.7a56.48,56.48,0,0,0-1.69,5.69C36.13,81.25,35.81,82.94,35.64,84.53ZM130.56,65c-.07,5.4-.85,17.46-1.4,25.39-.3,0-.62-.06-.91-.06a12.74,12.74,0,0,0-2.18.06,16.08,16.08,0,0,0-.23-7.31,4.34,4.34,0,0,0-4.06-3.22,43.06,43.06,0,0,0,2-6,20.55,20.55,0,0,0,.62-5.4,7.47,7.47,0,0,0-1-3.73,3.7,3.7,0,0,0-2.6-1.7,8.37,8.37,0,0,0-4.1.78,26.48,26.48,0,0,0-4.84,2.8,36.15,36.15,0,0,0-4.52,3.87,41.92,41.92,0,0,0-4.23,5.07A39.86,39.86,0,0,0,98.46,84a29,29,0,0,0-2,8.1L105,85.7a21.76,21.76,0,0,1,.13-4.58,18.19,18.19,0,0,1,1-4.42,9,9,0,0,1,2-3.32,22,22,0,0,1,2.4-2.37,5.23,5.23,0,0,1,2.11-1,1.86,1.86,0,0,1,1.63.42,3.89,3.89,0,0,1,1,1.88,18.13,18.13,0,0,1,.35,2.9,18.55,18.55,0,0,1-.13,3.31c-.13,1.08-.29,2.18-.48,3.16a18.79,18.79,0,0,0-2.8,1.56,31.39,31.39,0,0,0-2.67,2,27.32,27.32,0,0,0-2.4,2.11c-.72.72-1.34,1.47-1.89,2.12A21.11,21.11,0,0,0,103,92.89a5.38,5.38,0,0,0-.71,2.83,1.64,1.64,0,0,0,.71,1.56,2.35,2.35,0,0,0,2-.2,13.5,13.5,0,0,0,2.37-1.27,33,33,0,0,0,2.8-2,26.9,26.9,0,0,0,3-2.53c1-1,2-2,2.89-3a10.87,10.87,0,0,1,.55,2.17,18.09,18.09,0,0,1,.2,2.74c-1.21.61-2.6,1.46-4.23,2.4A55.45,55.45,0,0,0,107.73,99a56.12,56.12,0,0,0-4.42,3.94,26.55,26.55,0,0,0-3.74,4.48,22.66,22.66,0,0,0-2,3.68,10.6,10.6,0,0,0-.91,3.8,4.41,4.41,0,0,0,.61,2.9A2.91,2.91,0,0,0,99.83,119a8.58,8.58,0,0,0,4.42-1.21,39.84,39.84,0,0,0,4.91-3.22,39.73,39.73,0,0,0,3.38-2.73c1.21-1,2.38-2.11,3.51-3.25s2.25-2.41,3.26-3.67a38.51,38.51,0,0,0,2.82-3.94,15.21,15.21,0,0,0,1.56.42,7.69,7.69,0,0,1,1.5.56s.85.29,2,.78a37.5,37.5,0,0,1-9.3,13.59,203.11,203.11,0,0,1-19.34,16.52c-8.94,6.82-21.3,2.89-21.3,2.89A207.12,207.12,0,0,1,42.7,122.28c-14.27-6.83-14-23-14-23l-2.47-33.1A20.68,20.68,0,0,1,27.55,56,20.4,20.4,0,0,1,36.2,45.84c4.29-2.31,8.22-4.26,11.61-5.82,0-.1,0-.2,0-.33V36.8a2.65,2.65,0,0,1,.33-1.33,3,3,0,0,1-2.28-2.86v-3a2.91,2.91,0,0,1,2.93-2.92h8.61a2.93,2.93,0,0,1,2.87-2.31H65.1A3,3,0,0,1,68,26.66h8.65A2.86,2.86,0,0,1,79.05,28a3,3,0,0,1,1-.16h1v-.56a2.91,2.91,0,0,1,2.93-2.92h4.16A2.91,2.91,0,0,1,91,27.27v.56h.26a2.74,2.74,0,0,1,.49,0,2.58,2.58,0,0,1,.48,0h2.21v-.56a2.91,2.91,0,0,1,2.93-2.92h4.16a2.91,2.91,0,0,1,2.93,2.92v.56h2.7a2.91,2.91,0,0,1,2.92,2.92v2.8a2.91,2.91,0,0,1-2.92,2.92h-1c.22.75.48,1.5.74,2.22l7.94,1.75c8.94,2,11.48,5.92,11.48,5.92C131.66,52.24,130.56,65,130.56,65ZM47.45,115.81V81.18a24.44,24.44,0,0,1,1.27,3.38c.29,1.21.61,2.41.84,3.68l4.72-3.32a42.77,42.77,0,0,0-3-4.65,51.29,51.29,0,0,0-3.94-4.58V65.61l-9.2-3.32V72l-4.71-1.75c-.13.65-.3,1.49-.49,2.53s-.36,2.12-.49,3.26-.23,2.37-.29,3.57A30.28,30.28,0,0,0,32.13,83a6.48,6.48,0,0,0,.56,2.31A4.14,4.14,0,0,0,34,86.94a4.82,4.82,0,0,0,2.12,1,3.67,3.67,0,0,0,2.24-.35v25Zm36.15,7.51a52.56,52.56,0,0,0-2.6-5.69,45,45,0,0,0-3.15-5.14,41.38,41.38,0,0,0-4.49-5.26,33.69,33.69,0,0,0-5.14-4.07,29.33,29.33,0,0,0,.36-3.64l14.21,5.2v-3.51l-2.24-.78V89.54a8,8,0,0,0-5.4-7.38l-6.6-2.41V73.09l-9.14-3.25V76.5l-7.74-2.83v3.51L59.41,80V92.82l-9.62-3.51v3.51l9.62,3.51v2a17.57,17.57,0,0,1-.13,2,9.49,9.49,0,0,0-4,.56,9.83,9.83,0,0,0-3.25,2,10.16,10.16,0,0,0-2.4,3.44,11.29,11.29,0,0,0-1,4.23,7.18,7.18,0,0,0,.65,3.64,8.28,8.28,0,0,0,2,2.54A6.81,6.81,0,0,0,54,118.18a7.9,7.9,0,0,0,3,.07A11.68,11.68,0,0,0,62.89,115a15,15,0,0,0,2.83-3.8,23.15,23.15,0,0,0,1.89-4.59,36.11,36.11,0,0,1,4.22,8.72,50.19,50.19,0,0,1,2.38,10.47ZM118.85,51.4s-4.94,1.14-18.44,11.18c0,0-8.35,5.82-23.41,3.22L48,58.13s31.22,9.92,34.89,15.74,6.34,21,6.89,39.89c0,0,1-31.8,5-41.06C94.82,72.66,97.2,66.32,118.85,51.4Zm-12,52.9a36.39,36.39,0,0,0-3.58,2.47,26.86,26.86,0,0,0-3.15,3.16A6.69,6.69,0,0,0,98.82,112a7.71,7.71,0,0,0-.49,1.95,2.6,2.6,0,0,0,.23,1.4,1,1,0,0,0,1,.49,6,6,0,0,0,2.11-.65,17.82,17.82,0,0,0,2.61-1.5,24.31,24.31,0,0,0,2.73-2c.91-.78,1.75-1.49,2.53-2.18a26.82,26.82,0,0,0,3.65-4.09,17.49,17.49,0,0,0,2.4-4.52,31.43,31.43,0,0,0-4.1,1.13A42.83,42.83,0,0,0,106.82,104.3Zm-51.21-1.59a8.84,8.84,0,0,0-2.73,1.69,8.59,8.59,0,0,0-2.12,2.89,10.43,10.43,0,0,0-.71,3.45,2.63,2.63,0,0,0,.36,1.69,3.16,3.16,0,0,0,1,1.27,2.27,2.27,0,0,0,2.89.06,10.94,10.94,0,0,0,3.15-4.35,23.72,23.72,0,0,0,1.7-7.25A8.82,8.82,0,0,0,55.61,102.71ZM105,91.36a5.81,5.81,0,0,0-1.07,1.56,4,4,0,0,0-.36,1.4c-.07,1,.36,1.33,1.2,1a15.69,15.69,0,0,0,3.94-2.6,23.4,23.4,0,0,0,2.6-2.83,16.54,16.54,0,0,0,2-3.38,8.23,8.23,0,0,0-4,1.4A16.22,16.22,0,0,0,105,91.36ZM60.23,32.61v4.16H50.7v2.89h24V36.77H65.14V32.61H76.61v-3H65.14V27.27H60.26v2.31H48.78v3Zm9.3,20.64q4.53.11,4.38-4.29V42.13H51.41V53.25ZM55.84,45.12H69.53v3.71c.06,1.24-.53,1.82-1.83,1.72H55.84ZM83.47,33.55a32.83,32.83,0,0,1-3.9,11.25V49A18.18,18.18,0,0,0,84,42.46V54h4.16V40.7a29.1,29.1,0,0,0,3.32,4.07V41.06a27.32,27.32,0,0,1-3.32-7.54h3.19v-2.8H88.12V27.24H84v3.48h-3.9v2.8h3.41Zm12.81,0a28.35,28.35,0,0,1-5.49,13.1v3.58a22.29,22.29,0,0,0,6.6-8.68V54.07h4.16V41.55a21.41,21.41,0,0,0,6.6,8.68V46.52a26.34,26.34,0,0,1-5.62-13h4.65v-2.8h-5.63V27.27H97.39v3.48H92.25v2.8Z"/></svg>