<svg id="Layer_1" data-name="Layer 1" xmlns="http://www.w3.org/2000/svg" viewBox="0 0 156 156"><defs><style>.cls-2{clip-path:url(#clip-path)}.cls-3{fill:#386db6}</style><clipPath id="clip-path"><path fill="none" d="M0 0h156v156H0z"/></clipPath></defs><g class="cls-2"><g class="cls-2"><path class="cls-3" d="M78 2.4A75.6 75.6 0 1 1 2.4 78 75.68 75.68 0 0 1 78 2.4M78 0a78 78 0 1 0 78 78A78 78 0 0 0 78 0"/></g></g><path class="cls-3" d="M69.76 82a1.93 1.93 0 0 0-.29-1 1.4 1.4 0 0 0-.74-.67L67 79.79v12.79l2.75 1zM54 99a8.49 8.49 0 0 0-2.71 1.68 8.8 8.8 0 0 0-2.14 2.9 9 9 0 0 0-.71 3.42 3.15 3.15 0 0 0 .34 1.71 3.93 3.93 0 0 0 1 1.28 2.55 2.55 0 0 0 1.48.57 2 2 0 0 0 1.37-.49 11.22 11.22 0 0 0 3.17-4.37 24.67 24.67 0 0 0 1.69-7.23A8.66 8.66 0 0 0 54 99zm37.51-53c-1 .27-2 .5-3 .69s-2.06.36-3.08.5l-.16-.46a21.56 21.56 0 0 0 3.12-1.26 22.28 22.28 0 0 0 2.71-1.65l3.68-2.63-1.78-.38-11.15 8 12 2.76a3.33 3.33 0 0 0 1.26 0 2.48 2.48 0 0 0 1.06-.41l2.37-1.69-3.66-.84a1.87 1.87 0 0 1-.77-.32.67.67 0 0 1-.25-.46.89.89 0 0 1 .22-.56 2.64 2.64 0 0 1 .59-.55l5.87-4.2-1.77-.4-2.43 1.74a11.17 11.17 0 0 1-2.22 1.22 23.5 23.5 0 0 1-2.61.9zM34.07 80.8a1.08 1.08 0 0 0 .34.94 1.06 1.06 0 0 0 .8.38A2.52 2.52 0 0 0 36 82l.74-.21V70A57.45 57.45 0 0 0 35 75.66a37.64 37.64 0 0 0-.93 5.14zm70.96-41.44l-1.77-.4-3.16 2.26 1.77.4 3.16-2.26zm-4.87 7.29c-.11.08-.17.16-.17.24s.08.13.24.17l1.31.3 3.87-2.77c.3-.22.45-.41.43-.59s-.2-.3-.56-.38l-.67-.15zm3.23 40.99a5.3 5.3 0 0 0-1.06 1.55 4.71 4.71 0 0 0-.38 1.38c0 1 .37 1.35 1.21 1a14.29 14.29 0 0 0 3.92-2.62 23.67 23.67 0 0 0 2.59-2.85 17.23 17.23 0 0 0 2-3.38 8.08 8.08 0 0 0-4 1.37 19.61 19.61 0 0 0-4.28 3.55zm1.84 12.93a30 30 0 0 0-3.54 2.51 23.38 23.38 0 0 0-3.13 3.16 8.46 8.46 0 0 0-1.3 2.14 6.4 6.4 0 0 0-.49 2 2.43 2.43 0 0 0 .26 1.41 1 1 0 0 0 1 .48 6.16 6.16 0 0 0 2.1-.64 20.93 20.93 0 0 0 2.59-1.49 33.51 33.51 0 0 0 2.73-2c.93-.75 1.77-1.48 2.54-2.19a28.39 28.39 0 0 0 3.65-4.08 18 18 0 0 0 2.45-4.53A29.26 29.26 0 0 0 110 98.4a30.5 30.5 0 0 0-4.77 2.17z"/><path class="cls-3" d="M123.51 97.44c-.52-.12-1.05-.26-1.58-.4a42 42 0 0 1-2.82 3.95q-1.56 1.92-3.28 3.68t-3.49 3.27q-1.75 1.52-3.36 2.73a34.89 34.89 0 0 1-4.9 3.18 9.16 9.16 0 0 1-4.43 1.23 2.78 2.78 0 0 1-2.53-1.18 4.71 4.71 0 0 1-.64-2.91 11.76 11.76 0 0 1 .9-3.8 21.18 21.18 0 0 1 2-3.67A31.29 31.29 0 0 1 103.1 99a51.15 51.15 0 0 1 4.44-3.93 53.25 53.25 0 0 1 4.89-3.42q2.41-1.47 4.26-2.4a17.85 17.85 0 0 0-.2-2.7 12 12 0 0 0-.55-2.2c-.92 1-1.89 2-2.91 3s-2 1.81-3 2.57-1.91 1.43-2.79 2a15 15 0 0 1-2.36 1.28 2.31 2.31 0 0 1-2.07.15 1.83 1.83 0 0 1-.75-1.58 6.22 6.22 0 0 1 .72-2.86 18.39 18.39 0 0 1 2.22-3.49 19.81 19.81 0 0 1 1.9-2.1 31.28 31.28 0 0 1 2.38-2.11c.87-.7 1.76-1.34 2.68-1.94a27.89 27.89 0 0 1 2.76-1.59 30.72 30.72 0 0 0 .46-3.18 23.49 23.49 0 0 0 .12-3.33 14.4 14.4 0 0 0-.37-2.9 3.86 3.86 0 0 0-.95-1.87 1.79 1.79 0 0 0-1.62-.41 5.25 5.25 0 0 0-2.18 1.01 17.29 17.29 0 0 0-2.41 2.34 10.81 10.81 0 0 0-2 3.3 18.46 18.46 0 0 0-1 4.41 29 29 0 0 0-.14 4.57l-8.43 6.45a31.26 31.26 0 0 1 2-8.11 40.75 40.75 0 0 1 4.64-8.51 36.34 36.34 0 0 1 4.23-5.06 35 35 0 0 1 4.52-3.85 25.24 25.24 0 0 1 4.86-2.77 8.54 8.54 0 0 1 4.12-.77 3.39 3.39 0 0 1 2.59 1.72 8.4 8.4 0 0 1 1 3.78 20.35 20.35 0 0 1-.58 5.41 33.82 33.82 0 0 1-2 6 4.39 4.39 0 0 1 4.06 3.19 15.83 15.83 0 0 1 .26 7.33 15.73 15.73 0 0 1 2.19-.08l.9.06c.55-8 1.34-20 1.37-25.43 0 0 1.1-12.76-4.22-18.61 0 0-2.54-3.94-11.51-5.94l-31.14-6.89a39.16 39.16 0 0 0-24.36 1.54 192.43 192.43 0 0 0-23.21 10.74A20.36 20.36 0 0 0 27.29 52 21.29 21.29 0 0 0 26 62.15l2.49 33.19s-.23 16.2 14 23A209.52 209.52 0 0 0 77 131.78s12.36 3.93 21.29-2.87a204.17 204.17 0 0 0 19.38-16.5A37.52 37.52 0 0 0 127 98.78c-1.12-.48-2-.79-2-.79a6.18 6.18 0 0 0-1.49-.55zM93.74 36.16l1.26-.92 23.74 5.43-1.29.92-7-1.59-3.17 2.26 2.89.66c1.3.3 1.93.7 1.9 1.22s-.42.85-1.14 1.37l-8.72 6.23a9.29 9.29 0 0 1-1.09.66 5.77 5.77 0 0 1-1.27.47 6.84 6.84 0 0 1-1.61.18 8.51 8.51 0 0 1-1.9-.24l-18.85-4.33 13.84-9.88L97.5 40l3.17-2.26zM80.29 53.62l3.81.94 2.92-2-.4 2.61 3.72 1.07-4.06.76-.62 2.6-2.1-2.19-4.11.55 2.76-2zM52.49 41c.69-.33 1.34-.67 2-1s1.17-.67 1.66-1 .89-.58 1.21-.81l9.82-7 9.63 2.2q.2-.42.39-1a5.52 5.52 0 0 0 .25-1l5.67.57a5.4 5.4 0 0 1-.08.88 1.36 1.36 0 0 1-.27.65 1.38 1.38 0 0 1-.64.52 4.84 4.84 0 0 1-1.07.3l8.58 2-1.27.9-17.95-4.1-5.81 4.15a21.57 21.57 0 0 1-3 1.78 35.37 35.37 0 0 1-3.49 1.44c-1.18.41-2.39.76-3.61 1.06s-2.43.56-3.62.78l-.5-.43q1.07-.4 2.1-.89zm11.22 8.06l3.8 1 2.95-1.9-.46 2.61 3.7 1.12-4.07.61-.63 2.59-2.07-2.23-4.11.47 2.79-2zm-16.64-4.47l3.8 1 2.94-1.91-.43 2.6 3.71 1.11L53 48l-.64 2.59-2.09-2.22-4.11.5 2.79-2zm.25 67.3l-9.19-3.35v-25a3.43 3.43 0 0 1-2.23.38 4.74 4.74 0 0 1-3.37-2.62A6.23 6.23 0 0 1 32 79a32.63 32.63 0 0 1 .06-3.38c.07-1.21.18-2.4.31-3.56s.3-2.25.49-3.28.36-1.87.51-2.53L38.13 68v-9.75l9.19 3.35v10.08a52.59 52.59 0 0 1 3.92 4.6 37.21 37.21 0 0 1 2.94 4.64l-4.74 3.31c-.23-1.25-.52-2.49-.86-3.71a21 21 0 0 0-1.26-3.4zm26.73 9.91a49.77 49.77 0 0 0-2.37-10.49 35.63 35.63 0 0 0-4.25-8.68 22 22 0 0 1-1.86 4.61 16.14 16.14 0 0 1-2.83 3.81 11.74 11.74 0 0 1-5.94 3.22 6.72 6.72 0 0 1-3-.07 6.84 6.84 0 0 1-2.72-1.39 7.85 7.85 0 0 1-2-2.56 7.12 7.12 0 0 1-.65-3.61 11.47 11.47 0 0 1 1-4.21A11.25 11.25 0 0 1 51.89 99a9.41 9.41 0 0 1 3.29-2 9.5 9.5 0 0 1 4-.54 16.78 16.78 0 0 0 .11-1.91v-2.09L49.67 89v-3.55l9.59 3.49V76.15l-7.77-2.84V69.8l7.77 2.83V66l9.19 3.36V76L75 78.38a8 8 0 0 1 3.94 3 7.59 7.59 0 0 1 1.43 4.43v10.84l2.23.81V101l-14.2-5.21a27.11 27.11 0 0 1-.35 3.61 31.54 31.54 0 0 1 5.14 4.08 38.8 38.8 0 0 1 4.46 5.25 51 51 0 0 1 3.17 5.15 49.7 49.7 0 0 1 2.59 5.68zm15.58-12.08c-.54-18.94-3.19-34.09-6.9-39.9S47.81 54.1 47.81 54.1l29 7.67c15.08 2.62 23.4-3.2 23.4-3.2 13.49-10 18.42-11.19 18.42-11.19-21.65 14.91-24 21.29-24 21.29-4.01 9.26-5 41.05-5 41.05z"/></svg>