<svg id="Layer_1" data-name="Layer 1" xmlns="http://www.w3.org/2000/svg" xmlns:xlink="http://www.w3.org/1999/xlink" viewBox="0 0 156 156"><defs><style>.cls-1{fill:none;}.cls-2{clip-path:url(#clip-path);}.cls-3{fill:#2d69a9;}.cls-4{fill:#fff;}</style><clipPath id="clip-path"><rect class="cls-1" width="156" height="156"/></clipPath></defs><title>A_18 PC蛋蛋</title><g id="blue_circle" data-name="blue circle"><g class="cls-2"><g class="cls-2"><path class="cls-3" d="M156,78A78,78,0,1,1,78,0a78,78,0,0,1,78,78"/></g></g></g><path class="cls-4" d="M52.23,56.91l5.13-1.77v-3.4l8.24-.89a9.75,9.75,0,0,0,2.07-.38,4,4,0,0,0,1.43-.84,4.17,4.17,0,0,0,1-1.64,9.64,9.64,0,0,0,.44-3q0-1.32,0-2.55a10.83,10.83,0,0,0-.22-2,3.88,3.88,0,0,0-.61-1.37,3.27,3.27,0,0,0-1.39-1,5.74,5.74,0,0,0-2.8-.23L52.23,39.23ZM63.52,42.1a1.63,1.63,0,0,1,1.51.41,3,3,0,0,1,.49,1.73,3.27,3.27,0,0,1-.4,2,2.22,2.22,0,0,1-1.6.73l-6.16.66V42.77Z"/><path class="cls-4" d="M92.75,41l-.15-2.35a3.37,3.37,0,0,0-.64-2,2.86,2.86,0,0,0-1.26-.84,9.56,9.56,0,0,0-1.47-.34,7,7,0,0,0-1.65,0l-8.83,1a8,8,0,0,0-1.9.46,6,6,0,0,0-1.72,1A6.14,6.14,0,0,0,74,39a3.1,3.1,0,0,0-.49,1.19,7.14,7.14,0,0,0-.11,1.13v8.54a6.34,6.34,0,0,0,.14,1.22A3,3,0,0,0,74,52.27a3.76,3.76,0,0,0,1.13,1,4.42,4.42,0,0,0,2,.57,12.47,12.47,0,0,0,2,0l8.31-.9a10.13,10.13,0,0,0,3.79-1.31,3.46,3.46,0,0,0,1.07-1.05,2.62,2.62,0,0,0,.42-1.34l.12-3.47-5.44.59-.09,1.39a1.52,1.52,0,0,1-.34.84c-.21.31-.91.52-2.09.65l-3.33.36a8.25,8.25,0,0,1-1.64.08,1.49,1.49,0,0,1-.66-.25,1.71,1.71,0,0,1-.51-.65,4,4,0,0,1-.24-1.69V42.85a3.84,3.84,0,0,1,.23-1.49,1.83,1.83,0,0,1,.5-.74,2.55,2.55,0,0,1,.84-.38A8.15,8.15,0,0,1,81.71,40L85,39.6c.81-.09,1.33,0,1.56.25a1.68,1.68,0,0,1,.42.8c0,.28.09.6.13,1Z"/><path class="cls-4" d="M33.1,78.46l-5.58-3.53V70.08L22,70.72v15.7l5.52-4.17,2.68,1.89,22.42-2.6,2-5.6-14.7,1.73V75.18l12.65-1.44,1.69-5.28L39.88,70.12V66.41l7.36-.83,0,3,5.94-2.87,0-5.87L20.33,63.65v5L34,67.09V78.36Zm1.5,22.22v3l-14,1.63v5.19l26.33-3,1.28-3.24.65,3.71,5.45-.63-1.55-7.89-5.53.64.48,2.1-7.25.79v-3l8.35-1,4.62-6.14V84.2l-13,1.5V83.89l-5.87.68v1.81L21.17,87.94v14.3Zm-7.86-4.33,0-3.87,7.84-.91,0,3.85ZM48,93.86l-7.49.87V90.89L48,90Z"/><path class="cls-4" d="M68.87,74.31l-5.58-3.53V65.93l-5.52.64v15.7l5.52-4.17L66,80l22.42-2.6,2-5.6L75.65,73.52V71L88.3,69.59,90,64.31,75.65,66V62.26L83,61.43l0,3,5.94-2.87,0-5.87L56.1,59.49v5l13.68-1.59V74.2Zm1.5,22.22v3l-14,1.62v5.19l26.33-3L84,100.09l.65,3.71,5.44-.63-1.54-7.89L83,95.92l.48,2.1-7.25.79v-3l8.34-1,4.63-6.14V80l-13,1.51V79.73l-5.87.68v1.82L56.94,83.79v14.3ZM62.51,92.2l0-3.87,7.84-.91,0,3.85Zm21.22-2.49-7.49.87V86.74l7.49-.87Z"/><path class="cls-4" d="M99,66.64v-1c0-.33,0-1.28.09-2.84a8.91,8.91,0,0,1,.38-2.8,3.62,3.62,0,0,1,.8-.9,2.52,2.52,0,0,1,1.32-.53l1.9-.22a9.48,9.48,0,0,1,1.46-.09c.26,0,.53.23.84.61s.47,1.77.38,3.86l-.07,2.4a5.63,5.63,0,0,1-.37,2,1.87,1.87,0,0,1-.7.88,13.89,13.89,0,0,1-1.88.71l-.7.27c-.26.11-.89.3-1.89.58a15.86,15.86,0,0,0-2.55.89,8.79,8.79,0,0,0-1.74,1A8,8,0,0,0,95,72.83a8.82,8.82,0,0,0-1.13,2,12.31,12.31,0,0,0-.79,2.7c-.17,1-.31,1.83-.4,2.55a37.08,37.08,0,0,0-.15,4.17V94.74l18.21-2.11,2.66-9.12-12.19,1.41c-.56.07-.89.1-1,.1a.6.6,0,0,1-.33-.1.73.73,0,0,1-.26-.29,1.56,1.56,0,0,1-.16-.89l0-.66L99.51,81a4.56,4.56,0,0,1,.34-1.4,2.56,2.56,0,0,1,.7-1,4.1,4.1,0,0,1,1.48-.68l3.18-1c2.09-.58,3.27-.93,3.54-1a6.93,6.93,0,0,0,1.25-.81,4.78,4.78,0,0,0,1.32-1.49,12.17,12.17,0,0,0,.83-1.86,18.56,18.56,0,0,0,.59-2,19.73,19.73,0,0,0,.37-2.44c.1-1,.16-2.63.17-4.91,0-1.43,0-2.35,0-2.75s-.07-1.1-.14-2.08a13.44,13.44,0,0,0-.24-2c-.09-.37-.25-.91-.49-1.59a8.77,8.77,0,0,0-.76-1.69,7.24,7.24,0,0,0-.91-1.23,3.68,3.68,0,0,0-1.19-.89,8.29,8.29,0,0,0-1.75-.54,5.89,5.89,0,0,0-1.72-.14l-6.43.74a7.69,7.69,0,0,0-1.8.46,11.18,11.18,0,0,0-1.66.8,6.23,6.23,0,0,0-1.43,1.23,8.21,8.21,0,0,0-1.37,2.57,12.66,12.66,0,0,0-.77,3.83c-.08,1.39-.11,3.35-.11,5.89v2.42L99,66.64Z"/><path class="cls-4" d="M133.1,89.45a7.1,7.1,0,0,0,1.56-1.91,11.18,11.18,0,0,0,1.06-2.2,17.76,17.76,0,0,0,.51-2.39c.15-1,.25-2,.31-3,.05-.83,0-2.29,0-4.41a34.56,34.56,0,0,0-.21-3.86c-.09-.46-.23-1-.4-1.58a10.47,10.47,0,0,0-.72-1.79,4.79,4.79,0,0,1-.46-1,1.23,1.23,0,0,1,0-.47c0-.13.23-.65.61-1.57a10.71,10.71,0,0,0,.73-2.87c.11-1,.19-2,.24-3s0-2.12,0-3.51a21.15,21.15,0,0,0-.43-3.78,12.68,12.68,0,0,0-.81-2.64,5.26,5.26,0,0,0-.86-1.38,5.05,5.05,0,0,0-1-.78,3.73,3.73,0,0,0-1.07-.44,8.42,8.42,0,0,0-2,.09l-8.49,1a4.6,4.6,0,0,0-1.14.3,5.83,5.83,0,0,0-1.11.59,5.64,5.64,0,0,0-1.1,1.1,8.51,8.51,0,0,0-1.17,2.14,11.32,11.32,0,0,0-.73,2.57c-.12.8-.21,1.53-.26,2.2s-.09,1.23-.1,1.7c-.06,1.12-.06,2.35,0,3.71a21.8,21.8,0,0,0,.23,2.77c.1.5.25,1.09.44,1.8a14.53,14.53,0,0,0,.58,1.71,4.16,4.16,0,0,1,.3.87,3.7,3.7,0,0,1-.52,1.34,9.83,9.83,0,0,0-.8,2.15,22.77,22.77,0,0,0-.41,3.74,43.58,43.58,0,0,0,0,6.78c.16,1.42.34,2.55.52,3.4a7.71,7.71,0,0,0,.87,2.26,5,5,0,0,0,2.86,2.22,9.85,9.85,0,0,0,2.35-.1l8.92-1A3.39,3.39,0,0,0,133.1,89.45Zm-3.65-16.21c.4.54.57,2,.51,4.25l0,1a13.29,13.29,0,0,1-.16,1.73,4.31,4.31,0,0,1-.32,1,1.68,1.68,0,0,1-.77.74,4.4,4.4,0,0,1-1.5.41l-2.44.28A1.84,1.84,0,0,1,122.9,82a5.73,5.73,0,0,1-.54-3.15c0-1.55.06-2.58.09-3.11a3.78,3.78,0,0,1,.39-1.49,2.28,2.28,0,0,1,.79-1,3.78,3.78,0,0,1,1.53-.42l2.55-.29A1.73,1.73,0,0,1,129.45,73.24Zm-5.31-9c-.66.08-1.08-.07-1.27-.45a4.13,4.13,0,0,1-.39-1.26,15.11,15.11,0,0,1-.14-2,6.73,6.73,0,0,1,.47-3.25,2.17,2.17,0,0,1,1.76-1.23l3.14-.37a1.51,1.51,0,0,1,1.47.68,5.7,5.7,0,0,1,.51,3.2,10.2,10.2,0,0,1-.36,3,2.15,2.15,0,0,1-.59.84,3,3,0,0,1-.76.41Z"/><path class="cls-4" d="M102.46,105.69a5,5,0,1,1-5,5A5,5,0,0,1,102.46,105.69Z"/><path class="cls-4" d="M80.74,108a5,5,0,1,1-5,5A5,5,0,0,1,80.74,108Z"/><path class="cls-4" d="M59.28,110.29a5,5,0,1,1-5,5A5,5,0,0,1,59.28,110.29Z"/><rect class="cls-1" width="156" height="156"/></svg>