<svg xmlns="http://www.w3.org/2000/svg" viewBox="0 0 156 156"><defs><style>.cls-2{clip-path:url(#clip-path)}.cls-3{fill:#386db6}.cls-4{fill:#fff}</style><clipPath id="clip-path"><path fill="none" d="M0 0h156v156H0z"/></clipPath></defs><g class="cls-2" id="Layer_1" data-name="Layer 1"><g class="cls-2"><path class="cls-3" d="M78 2.4A75.6 75.6 0 1 1 2.4 78 75.68 75.68 0 0 1 78 2.4M78 0a78 78 0 1 0 78 78A78 78 0 0 0 78 0"/></g></g><g id="Isolation_Mode" data-name="Isolation Mode"><g id="极速飞艇"><path class="cls-4" d="M88 46.8c0-4.42 0-10 .13-16.84l-17.78 2.57v12l12.46-1.82q0 24.07 1.08 33.22c1.45 14.23 4.42 20.89 9 20q3.6-.54 4.78-7.32a129.44 129.44 0 0 0 1.91-13.8 47.87 47.87 0 0 1-4-3.92L98 60.67c-1.12-1.65-2.7-3.73-4.78-6.23-.72-.89-1.25-1.52-1.55-1.88q3-5.84 6.36-13l-3.82-8.17C92 37.21 89.92 42.31 88 46.8zm4.91 36.27c-2-.1-3.36-4-4.09-11.73-.07-1.18-.2-3-.36-5.37-.07-1.78-.17-3.19-.23-4.18q3.6 4.89 6.72 10.15c-.07 1-.23 2.43-.5 4.28-.16 1.42-.23 2.44-.23 3-.39 2.47-.85 3.76-1.31 3.82zm19.58-20.72l-.13-3.3c-.06 0-.2 0-.36.07V34.47l-3.36.5c.33-2 .59-4.09.82-6.13h-4.08c-.07.82-.17 1.81-.23 3-.17 1.61-.3 2.83-.37 3.66l-2.4.36v26.19a5.46 5.46 0 0 1-1.81.56l.23 9 1.55-.23a168 168 0 0 1-1.45 23.36c.95 2.67 1.91 5.14 2.86 7.41a220.14 220.14 0 0 0 1.91-31.83l.5-.36v15.62l1.91-.27V69.4l.49-.36v18.32c.07 2.2-.29 3.46-1.08 3.75a4 4 0 0 1-1.92 0c.33 3.36.6 6.42.83 9.19a11.63 11.63 0 0 0 2.63-.69c2-.49 3-3.52 2.87-9.13V67.92l.59-.1v-2.11l2.41-.36-2.41 6.36a112.71 112.71 0 0 0 2.05 13.83 42.15 42.15 0 0 1-2.41 7l2.77 7.71c.33-1.06.76-2.61 1.32-4.72a31 31 0 0 1 .82-3.13c1.19 2.64 3 3.89 5.27 3.76a46.94 46.94 0 0 0 7.19-.43c.06-.82.19-1.94.36-3.36.23-2.83.49-5 .72-6.42l-7.05 1c-2.07.49-3.66-.56-4.78-3.2a145.93 145.93 0 0 0 1.45-21V52.56l-2.27.33 2-11.43V31.24l-7 1v9.92l3.13-.46zm8.27-1.48l2.64-.4V72.2l-2 .3V83l8.14-1.19v-10.5l-2.15.3V59.88l2.77-.4V49.27l-2.77.39V39.45l2.77-1-.49-10.15a48.38 48.38 0 0 1-7.55 2.6 8.08 8.08 0 0 1-1.68.56c.23 3.56.4 7 .5 10.15l2.5-.66v9.33l-2.64.39zm-15-11.37V45l2.87-.42v7.8l-1.32-5.53zm2.9 6.49v4.22l-2.86 1v-7.49c.39 1.74.72 3.49 1 5.27zm7.34 9.16l.37-2.14.49-.07c-.07 4.22-.23 7.94-.49 11.2-.33-2.37-.56-4.41-.73-6.19-.06-1.19-.16-2.08-.23-2.67zm-68.68 49.63s22.55-22.29 37.94-10a79.21 79.21 0 0 0-13.46 3.56h-.12c-6.54 2.52-6.57-2.44-24.36 6.44zm.38 17.58s9-14.4 44.55 1.81c0 0-30.25-10.57-44.55-1.81z"/><path class="cls-4" d="M31.92 131.37s17.88-12 40-10c0 0 6.64-.09 18 3 0 0 23.84 9.32 33.36-2 0 0-5.2 13.23-24 9.2 0 0-2.49-.44-11.19-3.39-.02.01-25.93-11.3-56.17 3.19z"/><path class="cls-4" d="M40.51 123.39s26.38-18.63 79.93-23.19c0 0 .08 12.44-18.58 25.18 0 0-16.71-9.87-41-6.19 0 0 25.91-11.19 47.56-11 .01.01-28.15-2.47-67.91 15.2zm8.56-14.19l-15 10.51 7.39-8.47z"/><path class="cls-3" d="M88 46.8c0-4.42 0-10 .13-16.84l-17.78 2.57v12l12.46-1.82q0 24.07 1.08 33.22c1.45 14.23 4.42 20.89 9 20q3.6-.54 4.78-7.32a129.44 129.44 0 0 0 1.91-13.8 47.87 47.87 0 0 1-4-3.92L98 60.67c-1.12-1.65-2.7-3.73-4.78-6.23-.72-.89-1.25-1.52-1.55-1.88q3-5.84 6.36-13l-3.82-8.17C92 37.21 89.92 42.31 88 46.8zm4.91 36.27c-2-.1-3.36-4-4.09-11.73-.07-1.18-.2-3-.36-5.37-.07-1.78-.17-3.19-.23-4.18q3.6 4.89 6.72 10.15c-.07 1-.23 2.43-.5 4.28-.16 1.42-.23 2.44-.23 3-.39 2.47-.85 3.76-1.31 3.82zm19.58-20.72l-.13-3.3c-.06 0-.2 0-.36.07V34.47l-3.36.5c.33-2 .59-4.09.82-6.13h-4.08c-.07.82-.17 1.81-.23 3-.17 1.61-.3 2.83-.37 3.66l-2.4.36v26.19a5.46 5.46 0 0 1-1.81.56l.23 9 1.55-.23a168 168 0 0 1-1.45 23.36c.95 2.67 1.91 5.14 2.86 7.41a220.14 220.14 0 0 0 1.91-31.83l.5-.36v15.62l1.91-.27V69.4l.49-.36v18.32c.07 2.2-.29 3.46-1.08 3.75a4 4 0 0 1-1.92 0c.33 3.36.6 6.42.83 9.19a11.63 11.63 0 0 0 2.63-.69c2-.49 3-3.52 2.87-9.13V67.92l.59-.1v-2.11l2.41-.36-2.41 6.36a112.71 112.71 0 0 0 2.05 13.83 42.15 42.15 0 0 1-2.41 7l2.77 7.71c.33-1.06.76-2.61 1.32-4.72a31 31 0 0 1 .82-3.13c1.19 2.64 3 3.89 5.27 3.76a46.94 46.94 0 0 0 7.19-.43c.06-.82.19-1.94.36-3.36.23-2.83.49-5 .72-6.42l-7.05 1c-2.07.49-3.66-.56-4.78-3.2a145.93 145.93 0 0 0 1.45-21V52.56l-2.27.33 2-11.43V31.24l-7 1v9.92l3.13-.46zm8.27-1.48l2.64-.4V72.2l-2 .3V83l8.14-1.19v-10.5l-2.15.3V59.88l2.77-.4V49.27l-2.77.39V39.45l2.77-1-.49-10.15a48.38 48.38 0 0 1-7.55 2.6 8.08 8.08 0 0 1-1.68.56c.23 3.56.4 7 .5 10.15l2.5-.66v9.33l-2.64.39zm-15-11.37V45l2.87-.42v7.8l-1.32-5.53zm2.9 6.49v4.22l-2.86 1v-7.49c.39 1.74.72 3.49 1 5.27zm7.34 9.16l.37-2.14.49-.07c-.07 4.22-.23 7.94-.49 11.2-.33-2.37-.56-4.41-.73-6.19-.06-1.19-.16-2.08-.23-2.67zm-68.68 49.63s22.55-22.29 37.94-10a79.21 79.21 0 0 0-13.46 3.56h-.12c-6.54 2.52-6.57-2.44-24.36 6.44zm.38 17.58s9-14.4 44.55 1.81c0 0-30.25-10.57-44.55-1.81z"/><path class="cls-3" d="M31.92 131.37s17.88-12 40-10c0 0 6.64-.09 18 3 0 0 23.84 9.32 33.36-2 0 0-5.2 13.23-24 9.2 0 0-2.49-.44-11.19-3.39-.02.01-25.93-11.3-56.17 3.19z"/><path class="cls-3" d="M40.51 123.39s26.38-18.63 79.93-23.19c0 0 .08 12.44-18.58 25.18 0 0-16.71-9.87-41-6.19 0 0 25.91-11.19 47.56-11 .01.01-28.15-2.47-67.91 15.2zm8.56-14.19l-15 10.51 7.39-8.47z"/></g><path class="cls-3" d="M44.7 67.16l-7.43 1c.59 1.51 1.12 3 1.61 4.3L37.76 74l5.13-.72q.95-2.96 1.81-6.12z"/><path class="cls-3" d="M79.47 83.19a2.43 2.43 0 0 0-.3-.26l.29-.41A3.53 3.53 0 0 0 80 79.6c-1-4-2.06-7.76-3.12-11.28h.23a3.5 3.5 0 0 0 3-3.46V58A3.48 3.48 0 0 0 79 55.4l-.12-.1a3.4 3.4 0 0 0 0-.45v-6.78a3.49 3.49 0 0 0-4-3.46l-12.5 1.76h-.06c-.32-.93-.65-1.83-1-2.72a3.52 3.52 0 0 0-2.94-2.28 3.47 3.47 0 0 0-3.3 1.63l-2.55 4.2a4 4 0 0 0-.17.36 3.4 3.4 0 0 0-2.42-.56l-3.79.53v-.14a3.49 3.49 0 0 0-4-3.47l-3.15.43a3.5 3.5 0 0 0-3 3.47V49l-4.76.67a3.49 3.49 0 0 0-3 3.46v6.05a3.35 3.35 0 0 0 .13.95 3.51 3.51 0 0 0-1.63 3v6.15a3.45 3.45 0 0 0 2.31 3.29 3.47 3.47 0 0 0-1 2.42v6a3.47 3.47 0 0 0 .35 1.53 3.5 3.5 0 0 0-1.8 3.06v6.15a3.5 3.5 0 0 0 4 3.47l5.4-.81v4.47a3.51 3.51 0 0 0 3.5 3.5 4 4 0 0 0 .49 0l3.13-.45a3.49 3.49 0 0 0 3-3.46V93l5.62-.79.82 5.24a3.5 3.5 0 0 0 3.11 2.94h.35a3.51 3.51 0 0 0 3.28-2.28l.43-1.11.47.22c1.41.59 3.71 1 16.4-1a3.51 3.51 0 0 0 2.92-3l1-7a3.5 3.5 0 0 0-1.05-3.03zm-16.6-33.36l12.49-1.76v6.78l-12.49 1.76zm-1.41 10.35L76.66 58v6.78l-7.88 1.11q-1.29 5.38-2.87 10.36c1.47-.33 3.37-.83 5.68-1.5q-.75-2.75-1.53-5.35l2.42-3.52q2.14 6.63 4.15 14.58l-2.7 3.72c-.28-1.21-.57-2.41-.86-3.58A78.65 78.65 0 0 0 62.69 84l-1.21-5.67a55 55 0 0 0 3.66-11.93l-3.68.6zm-3.4-15.32q1.68 4.56 3.24 9.56L58.55 59q-1.41-5.28-3-10zM51.57 87.5a3.82 3.82 0 0 0-.28 1.2l-8.66 1.22v8.5l-3.13.44v-8.5l-9.36 1.32v-6.15l9.36-1.32v-4.38l-7.91 1.11v-6l3.93-.56c-.43-1.36-.9-2.74-1.4-4.13l1.45-1.77-5.32.75V63l9.27-1.3V58l-7.77 1.1v-6.02L39.52 52v-4.18l3.13-.44v4.17l7.78-1.1v6l-7.78 1.09v3.76L52 60v1.43a3.44 3.44 0 0 0-.51 1.82v3l-5.42.75 2.08 1.58-1.59 4.24 4-.57v6l-8 1.12v4.38l9.44-1.3v4.12zm24.48 5.19Q63.3 94.7 61.56 94c-1.16-.48-2.11-1.78-2.83-3.89q-1.38 3.27-2.7 6.8l-1.25-8c.69-1.58 1.43-3.13 2.21-4.67V69.83l-2 .29v-6.89l5.11-.72v21.22a8.88 8.88 0 0 0 1.62 2.88 3.15 3.15 0 0 0 1.86 1.09 19.35 19.35 0 0 0 4.13-.35c2.33-.32 5.45-.87 9.38-1.63z"/></g></svg>