<svg id="Layer_1" data-name="Layer 1" xmlns="http://www.w3.org/2000/svg" viewBox="0 0 156 156"><defs><style>.cls-2{clip-path:url(#clip-path)}.cls-3{fill:#386db6}</style><clipPath id="clip-path"><path fill="none" d="M0 0h156v156H0z"/></clipPath></defs><g class="cls-2"><g class="cls-2"><path class="cls-3" d="M78 2.4A75.6 75.6 0 1 1 2.4 78 75.68 75.68 0 0 1 78 2.4M78 0a78 78 0 1 0 78 78A78 78 0 0 0 78 0"/></g></g><path d="M72.84 44.17c-.4-.45-.81-.87-1.24-1.28s-.87-.81-1.32-1.2a23 23 0 0 0 1.13-2.34 21.84 21.84 0 0 0 .86-2.59 1.48 1.48 0 0 0-.27-1.39 1.62 1.62 0 0 0-.73-.47 2.53 2.53 0 0 0-1.15 0l-2.26.36c.77-.83 1.43-1.61 2-2.34a21.78 21.78 0 0 0 1.47-2.16 1 1 0 0 0 .16-.64 1 1 0 0 0-.24-.58 1.29 1.29 0 0 0-.5-.35 1.51 1.51 0 0 0-.78 0l-12.33 2v1.25l2-.31v8.89a13.1 13.1 0 0 1-.33 2.93 15.25 15.25 0 0 0-.41-2.38 12.24 12.24 0 0 0-.95-2.66 6.9 6.9 0 0 0-.95-1.56 2.61 2.61 0 0 0-1.23-.81v-1.68l2.86-.45v-1.25l-2.86.45v-2.52l-4 .64v2.52l-3.32.53V36l3.32-.53v1.63c-.15.08-.28.15-.4.23l-.37.27v-1.15l-1.94.3v2.84a7.16 7.16 0 0 0-.86 2 20.06 20.06 0 0 0-.39 2 11.77 11.77 0 0 0-.07 2.12 6.6 6.6 0 0 0 .37 1.81.78.78 0 0 0 .39.41 1 1 0 0 0 .56 0 1.22 1.22 0 0 0 .52-.26 2.76 2.76 0 0 0 .41-.51 4.56 4.56 0 0 0 .47-1.1c.12-.4.22-.8.3-1.21a10.85 10.85 0 0 0 .24-1.09v-5.52a6 6 0 0 1 .76-.54v11.95l4-.63V37.55a3.22 3.22 0 0 1 .49 1.3 18.19 18.19 0 0 1 .3 2.08c0 .47.09 1 .11 1.48s0 1 0 1.51v2.58l2.07-1a12.15 12.15 0 0 1-1.8 3.05l.84.19a18.14 18.14 0 0 0 2.52-2.73A19.12 19.12 0 0 0 62.22 43a15 15 0 0 0 1.2-3 10.17 10.17 0 0 0 .41-2.68v-6l3.13-.5a.26.26 0 0 1 .27.07.3.3 0 0 1 0 .27 22.54 22.54 0 0 1-1.1 2.35c-.43.78-.89 1.58-1.38 2.41v1l2.61-.41a.35.35 0 0 1 .34.09.29.29 0 0 1 .1.28q-.06.75-.15 1.41c-.06.43-.14.85-.23 1.25a2.45 2.45 0 0 0-1.06-.52 2.73 2.73 0 0 0-1.17 0 2 2 0 0 0-.86.4 3.05 3.05 0 0 0-.64.7 4.48 4.48 0 0 0-.42.85c-.12.31-.23.61-.32.91a6.82 6.82 0 0 0-.2.85c-.05.27-.09.49-.12.67a8.08 8.08 0 0 0 .16 3.4 1 1 0 0 0 .41.6 1.35 1.35 0 0 0 .71.21 2.64 2.64 0 0 0 1.71-.61 18.85 18.85 0 0 0 2.54-2.34q.3.6.57 1.2c.18.4.35.81.51 1.21zm-7.17-.34c-.38.59-.81 1.22-1.3 1.91a.51.51 0 0 1-.45.2.43.43 0 0 1-.42-.19 2.59 2.59 0 0 1-.28-1 6.78 6.78 0 0 1 .06-1.37 11.08 11.08 0 0 1 .32-1.41 8.35 8.35 0 0 1 .5-1.32.63.63 0 0 1 .45-.34.61.61 0 0 1 .53.12c.25.22.51.46.78.74a10.21 10.21 0 0 1 .77.91 14.71 14.71 0 0 1-.96 1.75zm-16.54-.29v1.8a13.43 13.43 0 0 1-.13 1.59.2.2 0 0 1-.19.19.17.17 0 0 1-.21-.12 7.54 7.54 0 0 1-.17-1.32 11.62 11.62 0 0 1 0-1.44c0-.57.1-1.14.19-1.69a7.18 7.18 0 0 1 .49-1.67zm50.68-6.45c-.13-.28 6.48-1.05 6.48-1.05s-7.42-.12-7.69-.29a6.34 6.34 0 0 0-1.83-.8 8.19 8.19 0 0 0-1.68-.26h-1.84v-1.14l3.11-.49a3.34 3.34 0 0 0 1.79-.73 1.73 1.73 0 0 0 .58-1.33v-1.36a1.14 1.14 0 0 0-.63-1.05 2.48 2.48 0 0 0-1.74-.25l-3.11.49v-1.06l14.9-3.77-14.9 2.48v-1.3l-4.25.67v1.33l-6.23 1v1.25l6.23-1v1.07l-5.58.89v4.72l5.58-.89v1.11l-.49.12c-.16 0-.32.08-.49.14V35l-3.37.54V37a7.43 7.43 0 0 0-1 .74 3.16 3.16 0 0 0-.71.87 2.83 2.83 0 0 0-.29.83 1.28 1.28 0 0 0 0 .76 1 1 0 0 0 .41.53 1.57 1.57 0 0 0 .9.21 3.83 3.83 0 0 0 1.18-.17 3.44 3.44 0 0 0 1.05-.52 4 4 0 0 0 .87-.89 5 5 0 0 0 .54-1 4 4 0 0 0 .4-1.11c0-.37.08-.73.09-1.1l.49-.1c.17 0 .33-.06.49-.09v4.37l4.22-.67v-4a7.54 7.54 0 0 1 .88.23 2.37 2.37 0 0 1 .73.44 2.76 2.76 0 0 1 .74 1.05 4.71 4.71 0 0 1 .32 1.5zm-18.29-8.71a14.11 14.11 0 0 0-1.78-.62 13.86 13.86 0 0 0-1.74-.37l-2.62 2.69c.64.16 1.28.36 1.94.59s1.26.49 1.82.75a.22.22 0 0 1 .12.32.82.82 0 0 1-.34.38l.74.35a14.41 14.41 0 0 0 1.18-.92 9.4 9.4 0 0 0 1-1 2 2 0 0 0 .42-.66 1.24 1.24 0 0 0 .07-.62 1.17 1.17 0 0 0-.82-.86zm20.54 10.37s-3.74.45-4.55.63-1.63.33-2.49.46l-9.33 1.49a7.66 7.66 0 0 1-2 .11 5.32 5.32 0 0 1-.76-.17l-.74-.22v-6.57a1.69 1.69 0 0 0-.11-.64 1.05 1.05 0 0 0-.35-.48 2.32 2.32 0 0 0-1.8-.3l-4.46.71V35l1.77-.28a.69.69 0 0 1 .49.09.43.43 0 0 1 .22.34v5.2a4 4 0 0 0-.9.22 2.78 2.78 0 0 0-.82.46 2.65 2.65 0 0 0-1 1.6 3.58 3.58 0 0 0-.09 1 1.87 1.87 0 0 0 .25.85 1.93 1.93 0 0 0 .63.68 2.64 2.64 0 0 0 1.06.41 4.66 4.66 0 0 0 1.49 0 4.86 4.86 0 0 0 2.59-1.23 2.93 2.93 0 0 0 .76-1l.7.31a4.67 4.67 0 0 0 .72.25 6.73 6.73 0 0 0 1.39.22 7.23 7.23 0 0 0 1.63-.1l32.3-7.6zm-7.31-7.21a.59.59 0 0 1-.2.42 1.1 1.1 0 0 1-.51.24l-.79.12v-2.26l.79-.12a.85.85 0 0 1 .51 0 .34.34 0 0 1 .2.32zM89 33l-1.57.25V31l1.57-.27zm-4.65 6.73a.62.62 0 0 1-.52.44.64.64 0 0 1-.34 0 .32.32 0 0 1-.17-.29 1.81 1.81 0 0 1 .21-1.16 3.43 3.43 0 0 1 1.12-1.13 10 10 0 0 1-.3 2.17zM78 43.44a.92.92 0 0 1-.55.85 1.36 1.36 0 0 1-.67.14.9.9 0 0 1-.61-.22 1.23 1.23 0 0 1-.28-.42 1 1 0 0 1-.1-.59 1.84 1.84 0 0 1 .6-1.26 2 2 0 0 1 .68-.4 2.56 2.56 0 0 1 .93-.12zm-54.15 18.2v8l32.68-3.79 2.07-8.25-14.2 1.65-.11-1.25a8.63 8.63 0 0 0-.5-1.87 4.87 4.87 0 0 0-1.33-2.06 2.41 2.41 0 0 0-1.94-.69 3.33 3.33 0 0 0-2 1.16 6.21 6.21 0 0 0-1.31 2.24 11.43 11.43 0 0 0-.48 1.88c-.06.43-.1.92-.14 1.47zm5 11.6L24 116.84l6.57-.76 4.84-43.6zm21.63 40.53L57 113l-4.84-42.47-6.55.77zm10.1-38.61v6.91l31.78-3.69 1.64-7.1zm.63 36.58l25.66-2.92 6.29-8.35V82.94l-31.95 3.71zM87 101.19l-19.54 2.27V92.81L87 90.54zM73.23 51.9l-13 18.93 8.87-1 8.28-11.87 7.91 10 8.78-1-12.48-16.03zm25.16 30.73l7.8-.91v27l5.52-4.48V81.08l6.16-.71 1.89-7.71-8.05.93v-2.77l-5.52.64v2.77l-7.8.91zm19.54-28.85l1.58-8.3-21.12 5v8.07zm-13.87 5.65l-5.45.63L100.14 71l5.43-.63zm6.5-.76l-5.32.62 1.51 10.9 5.3-.61zm8.43-1l-5.24.61-1.14 11.21 5.24-.61zm6.87 6.37l6.08-19.89-5.88.68-6.49 19.94zm0 19.36l6.08-18.89-5.88.68-6.49 18.94zm.07 21.85l6.22-21.18-5.88.68-6.51 21.25zm-22.06.57l1.81-21.68-5.26.61-2.27 21.74zm15.49-1.7l-1.83-21.22-5.15.59 1.39 21.28z" fill="#fff"/><path class="cls-3" d="M72.84 44.17c-.4-.45-.81-.87-1.24-1.28s-.87-.81-1.32-1.2a23 23 0 0 0 1.13-2.34 21.84 21.84 0 0 0 .86-2.59 1.48 1.48 0 0 0-.27-1.39 1.62 1.62 0 0 0-.73-.47 2.53 2.53 0 0 0-1.15 0l-2.26.36c.77-.83 1.43-1.61 2-2.34a21.78 21.78 0 0 0 1.47-2.16 1 1 0 0 0 .16-.64 1 1 0 0 0-.24-.58 1.29 1.29 0 0 0-.5-.35 1.51 1.51 0 0 0-.78 0l-12.33 2v1.25l2-.31v8.89a13.1 13.1 0 0 1-.33 2.93 15.25 15.25 0 0 0-.41-2.38 12.24 12.24 0 0 0-.95-2.66 6.9 6.9 0 0 0-.95-1.56 2.61 2.61 0 0 0-1.23-.81v-1.68l2.86-.45v-1.25l-2.86.45v-2.52l-4 .64v2.52l-3.32.53V36l3.32-.53v1.63c-.15.08-.28.15-.4.23l-.37.27v-1.15l-1.94.3v2.84a7.16 7.16 0 0 0-.86 2 20.06 20.06 0 0 0-.39 2 11.77 11.77 0 0 0-.07 2.12 6.6 6.6 0 0 0 .37 1.81.78.78 0 0 0 .39.41 1 1 0 0 0 .56 0 1.22 1.22 0 0 0 .52-.26 2.76 2.76 0 0 0 .41-.51 4.56 4.56 0 0 0 .47-1.1c.12-.4.22-.8.3-1.21a10.85 10.85 0 0 0 .24-1.09v-5.52a6 6 0 0 1 .76-.54v11.95l4-.63V37.55a3.22 3.22 0 0 1 .49 1.3 18.19 18.19 0 0 1 .3 2.08c0 .47.09 1 .11 1.48s0 1 0 1.51v2.58l2.07-1a12.15 12.15 0 0 1-1.8 3.05l.84.19a18.14 18.14 0 0 0 2.52-2.73A19.12 19.12 0 0 0 62.22 43a15 15 0 0 0 1.2-3 10.17 10.17 0 0 0 .41-2.68v-6l3.13-.5a.26.26 0 0 1 .27.07.3.3 0 0 1 0 .27 22.54 22.54 0 0 1-1.1 2.35c-.43.78-.89 1.58-1.38 2.41v1l2.61-.41a.35.35 0 0 1 .34.09.29.29 0 0 1 .1.28q-.06.75-.15 1.41c-.06.43-.14.85-.23 1.25a2.45 2.45 0 0 0-1.06-.52 2.73 2.73 0 0 0-1.17 0 2 2 0 0 0-.86.4 3.05 3.05 0 0 0-.64.7 4.48 4.48 0 0 0-.42.85c-.12.31-.23.61-.32.91a6.82 6.82 0 0 0-.2.85c-.05.27-.09.49-.12.67a8.08 8.08 0 0 0 .16 3.4 1 1 0 0 0 .41.6 1.35 1.35 0 0 0 .71.21 2.64 2.64 0 0 0 1.71-.61 18.85 18.85 0 0 0 2.54-2.34q.3.6.57 1.2c.18.4.35.81.51 1.21zm-7.17-.34c-.38.59-.81 1.22-1.3 1.91a.51.51 0 0 1-.45.2.43.43 0 0 1-.42-.19 2.59 2.59 0 0 1-.28-1 6.78 6.78 0 0 1 .06-1.37 11.08 11.08 0 0 1 .32-1.41 8.35 8.35 0 0 1 .5-1.32.63.63 0 0 1 .45-.34.61.61 0 0 1 .53.12c.25.22.51.46.78.74a10.21 10.21 0 0 1 .77.91 14.71 14.71 0 0 1-.96 1.75zm-16.54-.29v1.8a13.43 13.43 0 0 1-.13 1.59.2.2 0 0 1-.19.19.17.17 0 0 1-.21-.12 7.54 7.54 0 0 1-.17-1.32 11.62 11.62 0 0 1 0-1.44c0-.57.1-1.14.19-1.69a7.18 7.18 0 0 1 .49-1.67zm50.68-6.45c-.13-.28 6.48-1.05 6.48-1.05s-7.42-.12-7.69-.29a6.34 6.34 0 0 0-1.83-.8 8.19 8.19 0 0 0-1.68-.26h-1.84v-1.14l3.11-.49a3.34 3.34 0 0 0 1.79-.73 1.73 1.73 0 0 0 .58-1.33v-1.36a1.14 1.14 0 0 0-.63-1.05 2.48 2.48 0 0 0-1.74-.25l-3.11.49v-1.06l14.9-3.77-14.9 2.48v-1.3l-4.25.67v1.33l-6.23 1v1.25l6.23-1v1.07l-5.58.89v4.72l5.58-.89v1.11l-.49.12c-.16 0-.32.08-.49.14V35l-3.37.54V37a7.43 7.43 0 0 0-1 .74 3.16 3.16 0 0 0-.71.87 2.83 2.83 0 0 0-.29.83 1.28 1.28 0 0 0 0 .76 1 1 0 0 0 .41.53 1.57 1.57 0 0 0 .9.21 3.83 3.83 0 0 0 1.18-.17 3.44 3.44 0 0 0 1.05-.52 4 4 0 0 0 .87-.89 5 5 0 0 0 .54-1 4 4 0 0 0 .4-1.11c0-.37.08-.73.09-1.1l.49-.1c.17 0 .33-.06.49-.09v4.37l4.22-.67v-4a7.54 7.54 0 0 1 .88.23 2.37 2.37 0 0 1 .73.44 2.76 2.76 0 0 1 .74 1.05 4.71 4.71 0 0 1 .32 1.5zm-18.29-8.71a14.11 14.11 0 0 0-1.78-.62 13.86 13.86 0 0 0-1.74-.37l-2.62 2.69c.64.16 1.28.36 1.94.59s1.26.49 1.82.75a.22.22 0 0 1 .12.32.82.82 0 0 1-.34.38l.74.35a14.41 14.41 0 0 0 1.18-.92 9.4 9.4 0 0 0 1-1 2 2 0 0 0 .42-.66 1.24 1.24 0 0 0 .07-.62 1.17 1.17 0 0 0-.82-.86zm20.54 10.37s-3.74.45-4.55.63-1.63.33-2.49.46l-9.33 1.49a7.66 7.66 0 0 1-2 .11 5.32 5.32 0 0 1-.76-.17l-.74-.22v-6.57a1.69 1.69 0 0 0-.11-.64 1.05 1.05 0 0 0-.35-.48 2.32 2.32 0 0 0-1.8-.3l-4.46.71V35l1.77-.28a.69.69 0 0 1 .49.09.43.43 0 0 1 .22.34v5.2a4 4 0 0 0-.9.22 2.78 2.78 0 0 0-.82.46 2.65 2.65 0 0 0-1 1.6 3.58 3.58 0 0 0-.09 1 1.87 1.87 0 0 0 .25.85 1.93 1.93 0 0 0 .63.68 2.64 2.64 0 0 0 1.06.41 4.66 4.66 0 0 0 1.49 0 4.86 4.86 0 0 0 2.59-1.23 2.93 2.93 0 0 0 .76-1l.7.31a4.67 4.67 0 0 0 .72.25 6.73 6.73 0 0 0 1.39.22 7.23 7.23 0 0 0 1.63-.1l32.3-7.6zm-7.31-7.21a.59.59 0 0 1-.2.42 1.1 1.1 0 0 1-.51.24l-.79.12v-2.26l.79-.12a.85.85 0 0 1 .51 0 .34.34 0 0 1 .2.32zM89 33l-1.57.25V31l1.57-.27zm-4.65 6.73a.62.62 0 0 1-.52.44.64.64 0 0 1-.34 0 .32.32 0 0 1-.17-.29 1.81 1.81 0 0 1 .21-1.16 3.43 3.43 0 0 1 1.12-1.13 10 10 0 0 1-.3 2.17zM78 43.44a.92.92 0 0 1-.55.85 1.36 1.36 0 0 1-.67.14.9.9 0 0 1-.61-.22 1.23 1.23 0 0 1-.28-.42 1 1 0 0 1-.1-.59 1.84 1.84 0 0 1 .6-1.26 2 2 0 0 1 .68-.4 2.56 2.56 0 0 1 .93-.12z"/><path class="cls-3" d="M110.1 26.73a3.63 3.63 0 1 1-3.63 3.63 3.63 3.63 0 0 1 3.63-3.63zM40.58 38.31A3.63 3.63 0 1 1 37 41.93a3.62 3.62 0 0 1 3.58-3.62zM23.85 61.64v8l32.68-3.79 2.07-8.25-14.2 1.65-.11-1.25a8.63 8.63 0 0 0-.5-1.87 4.87 4.87 0 0 0-1.33-2.06 2.41 2.41 0 0 0-1.94-.69 3.33 3.33 0 0 0-2 1.16 6.21 6.21 0 0 0-1.31 2.24 11.43 11.43 0 0 0-.48 1.88c-.06.43-.1.92-.14 1.47zm5 11.6L24 116.84l6.57-.76 4.84-43.6zm21.63 40.53L57 113l-4.84-42.47-6.55.77zm10.1-38.61v6.91l31.78-3.69 1.64-7.1zm.63 36.58l25.66-2.92 6.29-8.35V82.94l-31.95 3.71zM87 101.19l-19.54 2.27V92.81L87 90.54zM73.23 51.9l-13 18.93 8.87-1 8.28-11.87 7.91 10 8.78-1-12.48-16.03zm25.16 30.73l7.8-.91v27l5.52-4.48V81.08l6.16-.71 1.89-7.71-8.05.93v-2.77l-5.52.64v2.77l-7.8.91zm19.54-28.85l1.58-8.3-21.12 5v8.07zm-13.87 5.65l-5.45.63L100.14 71l5.43-.63zm6.5-.76l-5.32.62 1.51 10.9 5.3-.61zm8.43-1l-5.24.61-1.14 11.21 5.24-.61zm6.87 6.37l6.08-19.89-5.88.68-6.49 19.94zm0 19.36l6.08-18.89-5.88.68-6.49 18.94zm.07 21.85l6.22-21.18-5.88.68-6.51 21.25zm-22.06.57l1.81-21.68-5.26.61-2.27 21.74zm15.49-1.7l-1.83-21.22-5.15.59 1.39 21.28zM95.27 120.4l15.6-3.4-18.83 1.77-1.54-3.2 24.57-4.85-25.24 3.46-.12-.24-1.25 5.22-5.36.71 4.62 2.8-.98 5.29 4.11-3.5 4.76 2.56-.75-1.78 8.55-3.13-9.32 1.29-.57-1.35 1.75-1.65z"/><path class="cls-3" d="M75.98 122.29l6.05-2.25-9.49.83-1.16-2.4 14.54-3.56-15.6 1.36-.12-.24-1.24 5.22-5.37.71 4.63 2.8-.98 5.29 4.1-3.5 4.76 2.56-.61-1.46 5.06-2.76-5.85.87-.68-1.62 1.96-1.85zm-19.47 2.04l5.91-2.19-9.4.82-1.14-2.37 11.88-3.13-12.95.92-.12-.26-1.25 5.23-5.36.7 4.62 2.8-.98 5.29 4.11-3.5 4.76 2.56-.6-1.41 5.21-3.04-6.02 1.11-.68-1.62 2.01-1.91z"/></svg>