<svg id="Layer_1" data-name="Layer 1" xmlns="http://www.w3.org/2000/svg" viewBox="0 0 156 156"><defs><style>.cls-2{fill:#386db6}.cls-3{clip-path:url(#clip-path)}</style><clipPath id="clip-path"><path fill="none" d="M0 0h156v156H0z"/></clipPath></defs><g id="天津时时彩"><path class="cls-2" d="M55.4 41.63v-2.05h3.07a9 9 0 0 1-.61-2h3.25a5.53 5.53 0 0 0 .53 2h4.84a9.48 9.48 0 0 0 .62-2h3.25a5.48 5.48 0 0 1-.7 2h3.25v2.05h-7v2h8.5v2h-8.54v3.36h-3.51v-3.27H53.9v-2h8.45v-2zm.26-8.19v-2h6.69v-1.27h3.51v1.31h6.78v2h-6.78v1.64h8.36v2H54v-2h8.36v-1.68zm20.85 15.48V47.2a2.22 2.22 0 0 0 1.85-2.38v-6.63h-1.94v-2h5.19V44c.12 1.7 1.09 2.6 2.91 2.71h12.22v1.88H84.08a4.39 4.39 0 0 1-3.7-1.47 6 6 0 0 1-3.87 1.8zm2.29-14.25a20.56 20.56 0 0 0-1.32-4.09h2.9a13.72 13.72 0 0 1 1.5 4.09zm3.78 3.19v-2h14.08v2h-7a16 16 0 0 1-3.17 4.51A49 49 0 0 0 92.7 42a13.1 13.1 0 0 0-1.06-2.54h2.73a24.17 24.17 0 0 1 2.11 5.73h-3l-.18-1.06a76.82 76.82 0 0 1-10.11.57v-2.33a11.72 11.72 0 0 0 2.72-4.51zm1.14-4.66v-2.05h11.79v2.05zM27.17 84.42l2.77-.4V70.36s.2-1.06-1.39-.8l-1.38.2zM29.94 102V87.39l-2.77.39v15.65l1.78-.2c1.19-.23.99-1.23.99-1.23zm93.22-43a3.87 3.87 0 0 0-2.11 1 7 7 0 0 0-1.12 1.33 5.63 5.63 0 0 0-.65 1.26 2.07 2.07 0 0 0-.12 1 1.2 1.2 0 0 0 .31.7.74.74 0 0 0 .65.24 1.1 1.1 0 0 0 .73-.56 16.9 16.9 0 0 0 1.25-2.35c.38-.81.73-1.71 1.06-2.62zm1.54 12.5a2.58 2.58 0 0 0-1.73.32 6.73 6.73 0 0 0-1.65 1.18 6.53 6.53 0 0 0-1.85 3.3 2.19 2.19 0 0 0 .34 2.12 1 1 0 0 0 .77.25 1.28 1.28 0 0 0 .89-.61 14.81 14.81 0 0 0 1.73-2.88 45.55 45.55 0 0 0 1.5-3.68zM99 89.35a12.28 12.28 0 0 0-.23 4.52c.08.7.28 1 .62.88a.82.82 0 0 0 .36-.42 3 3 0 0 0 .25-1 35.2 35.2 0 0 0 .33-3.71c.06-1.47.12-3 .17-4.6a13.63 13.63 0 0 0-.86 2.09c-.22.72-.43 1.48-.64 2.24zM65.58 78.48l2.77-.4V64.42s.2-1.06-1.38-.8l-1.39.2zm2.77 17.62V81.45l-2.77.39v15.65l1.78-.2c1.19-.29.99-1.19.99-1.19zm53.27-12.3a5.15 5.15 0 0 1-1 0 4.81 4.81 0 0 1-1.34-.36 22.3 22.3 0 0 1 .97 2.68c.45-.78.92-1.55 1.37-2.32zM116 78.28v-.7l-.69.08a8.07 8.07 0 0 1 .69.62z"/><path class="cls-2" d="M134.86 74.35a9.44 9.44 0 0 0-1.13-2.77c-.15-.25-.32-.48-.49-.71.27-.66.52-1.36.76-2.08a22.18 22.18 0 0 0 .95-4.12 13 13 0 0 0-.22-4.56 7.55 7.55 0 0 0-1.54-3 5.82 5.82 0 0 0-.6-.62c.31-.86.6-1.73.86-2.62.47-1.58.9-3.29 1.27-5.09a2.58 2.58 0 0 0-2.84-3.08l-6.77.84a2.56 2.56 0 0 0-2.24 2.26 51.52 51.52 0 0 1-.63 4c-.19 1-.42 2-.68 3-.26.13-.52.26-.78.41a11.94 11.94 0 0 0-1.36.91l-.12-.17a2.57 2.57 0 0 0 .27-4.14l-5.77-4.84a2.59 2.59 0 0 0-3.22-.07c-.77.59-1.58 1.17-2.42 1.72s-1.8 1.14-2.8 1.73-2.28 1.22-3.53 1.83-2.58 1.17-4 1.72a2.57 2.57 0 0 0-1.65 2.79l.27 1.82a2.55 2.55 0 0 0 .65 1.36 2.55 2.55 0 0 0-.59.76v-.31a2.6 2.6 0 0 0-.92-2 2.73 2.73 0 0 0-1.26-.57v-4.83a2.58 2.58 0 0 0-3-2.54l-5.94 1a2.58 2.58 0 0 0-2.16 2.54v5.33l-7.44 1.2a5.79 5.79 0 0 0-1.14-2 5.4 5.4 0 0 0-4.26-1.81 8.41 8.41 0 0 0-1.46.13l-9.11 1.59a2.57 2.57 0 0 0-2.13 2.53v4a2.53 2.53 0 0 0-1.78-1.17v-4.86a2.57 2.57 0 0 0-.91-2 2.6 2.6 0 0 0-2.09-.58l-5.94 1a2.58 2.58 0 0 0-2.15 2.54v5.33l-7.45 1.2a5.76 5.76 0 0 0-1.13-2A5.42 5.42 0 0 0 32 63.53a8.41 8.41 0 0 0-1.46.13l-9.11 1.59a2.57 2.57 0 0 0-2.13 2.53V108a2.56 2.56 0 0 0 .89 2 2.6 2.6 0 0 0 1.68.62 2.3 2.3 0 0 0 .37 0l9.48-1.38c2.07-.28 6-2.25 6-7.7v-5.78l4-3.82 3.15 1.47V99a2.59 2.59 0 0 0-1.64-.54 2.55 2.55 0 0 0-2 1.07l-1 1.39a2.55 2.55 0 0 0-.26 2.53c.63 1.43 3.08 6.1 8.1 6.1h.3c5.58-.06 7.62-5.11 7.62-8.51V72.9a2.56 2.56 0 0 0 1.78-1.18V102a2.56 2.56 0 0 0 2.57 2.57 2.42 2.42 0 0 0 .38 0l9.47-1.38c2.07-.28 6-2.25 6-7.7v-5.67l4-3.82 3.15 1.47v5.61a2.58 2.58 0 0 0-3.67.53l-1 1.39a2.58 2.58 0 0 0-.27 2.53c.63 1.43 3.08 6.1 8.11 6.1h.29c5.59-.06 7.62-5.11 7.62-8.51V67a2.58 2.58 0 0 0 2.14-2.06c.09.7.2 1.39.32 2.07a24.89 24.89 0 0 0 .83 3.48 4.79 4.79 0 0 0 .4.91 2.58 2.58 0 0 0-1.87 2.48v3.27A2.59 2.59 0 0 0 97 79a2.5 2.5 0 0 0 1 .55v3.13a18.14 18.14 0 0 0-2 4.83 23.46 23.46 0 0 0-.57 3.14 20.89 20.89 0 0 0-.08 3.38c.16 2.66 1.11 4.37 2.84 5.09a4.11 4.11 0 0 0 3.93-.44 6.19 6.19 0 0 0 1.11-1v.56a2.59 2.59 0 0 0 .87 1.93 2.55 2.55 0 0 0 1.7.64 1.72 1.72 0 0 0 .32 0l5.85-.72a2.55 2.55 0 0 0 1.9-1.25 2.57 2.57 0 0 0 3.5.91 65.41 65.41 0 0 0 5.48-3.57 41.34 41.34 0 0 0 4.9-4.18 35.79 35.79 0 0 0 3.25-3.71 27.76 27.76 0 0 0 2.6-4.25 16.13 16.13 0 0 0 1.46-4.7 12.49 12.49 0 0 0-.2-4.99zM35.09 88.93l-.77 6.13a1.59 1.59 0 0 0 .77 1.56v4.43c0 4.64-3.77 5.15-3.77 5.15l-9.5 1.38V67.39l9.11-1.59c4.83-.8 4.16 4.2 4.16 4.2v11.72l-5.23 1a1.58 1.58 0 0 0-.44 3l5.67 3zm5.84.72l-5.43 5.21.93-7.45-6.67-3.53 7.41-1.42 1.31-7.39 3.65 6.57 7.48-1-5.16 5.49 3.31 6.75zm-.36-14.41l4.22-.67v5.56l-1.4.19zM55.48 70l-2.18.2v30.49s0 5.94-5.14 5.94c0 0-3.77.39-5.94-4.55l1-1.39s1.7 2.17 3.16 2.18c0 0 1 .07 1-2v-6.26l.13.06a1.81 1.81 0 0 0 .68.15 1.59 1.59 0 0 0 1.58-1.59 1.6 1.6 0 0 0-.24-.83L47.36 88v-1.88l3.8-4a1.58 1.58 0 0 0-1.38-2.65l-2.42.34v-8.66l-11.09 1.78v-3.17L47.36 68v-7.54l5.94-1v7.72l2.18-.4zm18 13l-.76 6.13a1.58 1.58 0 0 0 .76 1.56v4.43c0 4.64-3.76 5.15-3.76 5.15l-9.51 1.38v-40.2l9.11-1.59C74.17 59 73.5 64 73.5 64v11.78l-5.22 1a1.59 1.59 0 0 0-.45 3l5.67 3zm5.84.72l-5.43 5.21.93-7.45-6.66-3.53 7.41-1.42 1.31-7.39 3.65 6.57 7.47-1-5.15 5.48 3.31 6.76zM79 69.3l4.22-.67v5.55l-1.4.2zM93.9 64l-2.18.2v30.51s0 5.94-5.15 5.94c0 0-3.76.39-5.94-4.55l1-1.39s1.7 2.17 3.17 2.18c0 0 1 .07 1-2v-6.22l.12.06a1.65 1.65 0 0 0 .69.15 1.6 1.6 0 0 0 1.34-2.42l-2.15-4.39v-1.89l3.79-4a1.58 1.58 0 0 0-1.37-2.65l-2.42.34v-8.66L74.69 67v-3.18L85.78 62v-7.48l5.94-1v7.72l2.18-.4zm9.1-9c1.29-.63 2.52-1.27 3.67-1.9s2-1.23 2.93-1.82 1.75-1.19 2.58-1.82l5.77 4.84c-1.39.56-2.86 1.08-4.41 1.57s-3.17.93-4.87 1.31-3.16.68-4.79.94-3.26.43-4.91.52l-.27-1.81A45.2 45.2 0 0 0 103 55zm9.81 6.56c-.06 0-.12 0-.17.05-.52.84-1 1.74-1.54 2.7s-1.07 2-1.66 3a2.22 2.22 0 0 1-.71.77 1.79 1.79 0 0 1-.79.31 1.18 1.18 0 0 1-.85-.21 1.62 1.62 0 0 1-.57-.83 15.35 15.35 0 0 1-.43-1.56c-.1-.49-.2-1-.3-1.57a.31.31 0 0 0-.22-.21.19.19 0 0 0-.25.11c-.36.68-.73 1.39-1.11 2.14s-.73 1.5-1 2.25a3.45 3.45 0 0 1-.73 1.12 2.85 2.85 0 0 1-.85.55 1 1 0 0 1-.92-.1 1.49 1.49 0 0 1-.62-.87 23 23 0 0 1-.75-3.13 51.12 51.12 0 0 1-.52-3.8l4.66-2.84c.08.76.17 1.51.29 2.23s.23 1.38.36 2a.18.18 0 0 0 .27.12.46.46 0 0 0 .27-.24 46 46 0 0 1 2.54-4.44 1.53 1.53 0 0 1 1.58-.77 1.42 1.42 0 0 1 .79.38 1.58 1.58 0 0 1 .48.89c.1.48.21 1 .31 1.49s.2 1 .31 1.34q.07.2.21.18a.27.27 0 0 0 .21-.13q.49-1 1.17-2.13l1.39-2.36a2 2 0 0 1 1-.83 2.21 2.21 0 0 1 1.11-.11 2.4 2.4 0 0 1 1 .41 2.33 2.33 0 0 1 .71.86 4.2 4.2 0 0 1 .44 1.93 10.59 10.59 0 0 1-.25 2.38c-.26 1.27-.54 2.44-.85 3.54s-.64 2.14-1 3.13l-4.58-1.6q.47-1.38.87-2.85c.27-1 .53-2 .79-3.06a.22.22 0 0 0-.11-.22zm.4 32.58c.06-1.35 0-2.77 0-4.28a39.4 39.4 0 0 0-.52-4.74 11.06 11.06 0 0 0-1-3.1V97.2l-5.85.72V80.17a10.35 10.35 0 0 0-1.23.63c0 1.1-.11 2.13-.19 3.11s-.18 2-.31 3.18c0 .43-.13 1-.25 1.59s-.26 1.31-.44 2-.4 1.45-.65 2.17a13.29 13.29 0 0 1-.85 1.92 4.19 4.19 0 0 1-1.23 1.45 1.52 1.52 0 0 1-1.5.16c-.72-.3-1.13-1.25-1.24-2.86a19 19 0 0 1 .05-2.9 19.86 19.86 0 0 1 .5-2.79 15.59 15.59 0 0 1 2.08-4.69v-2.86c0-.86 0-1.66-.06-2.37l4.12-.5v2.08a5.65 5.65 0 0 0 .6-.31c.19-.11.39-.21.59-.31v-3l-7.12.87v-3.3l7.12-.88v-3.17l5.85-.72v3.17l6.66-.82v3.27l-6.66.83v3.17a7.48 7.48 0 0 1 1.76.84 5.49 5.49 0 0 1 1.48 1.45 17.91 17.91 0 0 1 2.4 4.49 25.65 25.65 0 0 1 1.33 5.41zM116 78.28a8.07 8.07 0 0 0-.71-.62l.69-.08c-.05.23-.05.47.02.7zm16.6.28a13.39 13.39 0 0 1-1.23 4 24.52 24.52 0 0 1-2.37 3.79 31.74 31.74 0 0 1-3 3.49 39.49 39.49 0 0 1-4.59 3.92 59.42 59.42 0 0 1-5.26 3.42l-.54-1.62a48.88 48.88 0 0 0 3.35-3.72c1-1.23 1.93-2.46 2.77-3.69s1.64-2.5 2.39-3.81 1.47-2.66 2.19-4a9.14 9.14 0 0 0 1.16-4.53 21.54 21.54 0 0 1-2 2.45 17.58 17.58 0 0 1-2.2 1.93 3 3 0 0 1-2.23.67 2.31 2.31 0 0 1-1.69-1 4 4 0 0 1-.7-1.89 6.37 6.37 0 0 1 .27-2.6 8 8 0 0 1 1.12-2.41 7.62 7.62 0 0 1 1.66-1.73 7 7 0 0 1 1.82-1 8.74 8.74 0 0 1 1.91-.47c.28-.88.52-1.76.73-2.65s.4-1.75.58-2.58a7.15 7.15 0 0 0 .11-2.45c-.25.35-.56.75-.92 1.2s-.74.88-1.14 1.3a14.41 14.41 0 0 1-1.21 1.15 4.48 4.48 0 0 1-1.15.75 3.21 3.21 0 0 1-1.77.25 2.54 2.54 0 0 1-1.39-.65 2.94 2.94 0 0 1-.79-1.8 5.07 5.07 0 0 1 .21-2.2 7 7 0 0 1 1.89-2.87 9.63 9.63 0 0 1 1.6-1.15 8.61 8.61 0 0 1 1.63-.73 43.21 43.21 0 0 0 1.08-4.39c.28-1.46.5-2.87.65-4.22l6.78-.84c-.36 1.74-.77 3.36-1.21 4.88a42.9 42.9 0 0 1-1.56 4.39 4.68 4.68 0 0 1 1.81 1.26 5 5 0 0 1 1 2 10.61 10.61 0 0 1 .04 3.59 19.66 19.66 0 0 1-.85 3.64 28.87 28.87 0 0 1-1.34 3.36 6.41 6.41 0 0 1 1.32 1.55 6.84 6.84 0 0 1 .83 2 9.73 9.73 0 0 1 .19 4.01zm-13.36 4.84a4.81 4.81 0 0 0 1.34.36 5.15 5.15 0 0 0 1 0c-.45.77-.92 1.54-1.41 2.28-.15-.51-.32-1-.5-1.51s-.26-.74-.43-1.13zm-18.53 32.04l-4.17-1.93-3.3 3.18.56-4.55-4.06-2.14 4.51-.88.79-4.51 2.23 4 4.55-.64-3.13 3.35zM67.84 121l-4.17-1.94-3.3 3.19.56-4.55-4.06-2.15 4.51-.87.79-4.51 2.23 4 4.55-.64-3.13 3.35zm16.43-2.79l-4.16-1.93-3.3 3.18.56-4.54-4.07-2.15 4.51-.87.79-4.52 2.23 4 4.55-.64-3.13 3.35zM55.4 41.63v-2.05h3.07a9 9 0 0 1-.61-2h3.25a5.53 5.53 0 0 0 .53 2h4.84a9.48 9.48 0 0 0 .62-2h3.25a5.48 5.48 0 0 1-.7 2h3.25v2.05h-7v2h8.5v2h-8.54v3.36h-3.51v-3.27H53.9v-2h8.45v-2zm.26-8.19v-2h6.69v-1.27h3.51v1.31h6.78v2h-6.78v1.64h8.36v2H54v-2h8.36v-1.68zm20.85 15.48V47.2a2.22 2.22 0 0 0 1.85-2.38v-6.63h-1.94v-2h5.19V44c.12 1.7 1.09 2.6 2.91 2.71h12.22v1.88H84.08a4.39 4.39 0 0 1-3.7-1.47 6 6 0 0 1-3.87 1.8zm2.29-14.25a20.56 20.56 0 0 0-1.32-4.09h2.9a13.72 13.72 0 0 1 1.5 4.09zm3.78 3.19v-2h14.08v2h-7a16 16 0 0 1-3.17 4.51A49 49 0 0 0 92.7 42a13.1 13.1 0 0 0-1.06-2.54h2.73a24.17 24.17 0 0 1 2.11 5.73h-3l-.18-1.06a76.82 76.82 0 0 1-10.11.57v-2.33a11.72 11.72 0 0 0 2.72-4.51zm1.14-4.66v-2.05h11.79v2.05z"/></g><g class="cls-3"><g class="cls-3"><path class="cls-2" d="M78 2.4A75.6 75.6 0 1 1 2.4 78 75.68 75.68 0 0 1 78 2.4M78 0a78 78 0 1 0 78 78A78 78 0 0 0 78 0"/></g></g></svg>