<svg id="Layer_1" data-name="Layer 1" xmlns="http://www.w3.org/2000/svg" viewBox="0 0 156 156"><defs><style>.cls-2{clip-path:url(#clip-path)}.cls-3{fill:#386db6}</style><clipPath id="clip-path"><path fill="none" d="M0 0h156v156H0z"/></clipPath></defs><g class="cls-2"><g class="cls-2"><path class="cls-3" d="M78 2.4A75.6 75.6 0 1 1 2.4 78 75.68 75.68 0 0 1 78 2.4M78 0a78 78 0 1 0 78 78A78 78 0 0 0 78 0"/></g></g><path d="M101.28 122.11l-4.13-1.91-3.27 3.15.56-4.5-4-2.12 4.47-.87.78-4.47 2.21 4 4.5-.64-3.13 3.25zM85 124.66l-4.12-1.91-3.27 3.15.55-4.5-4-2.13 4.46-.86.79-4.47 2.2 4 4.51-.64-3.12 3.29zm-16.28 2.75l-4.12-1.92-3.27 3.16.55-4.51-4-2.12 4.47-.87.78-4.47 2.21 4 4.5-.63-3.1 3.31zM46.74 38.83l.71-3.4 3-.4.9-4.35 4.5-.6-.85 4.36 2.78-.37-.71 3.4-2.78.37a21.37 21.37 0 0 0 1.39 7.62l-1 4.89a1.37 1.37 0 0 0-.28-.49 13.83 13.83 0 0 1-1.8-3.73l-3.18 15.24-4.5.59L47.59 49a48.9 48.9 0 0 1-5.05 7l1-4.63a76.41 76.41 0 0 0 6.3-13zm9.39 21.78l.68-3.26a22.11 22.11 0 0 0 6-4A14 14 0 0 1 61 47.14Q58.49 54.22 51.43 61l.84-4.08a33.27 33.27 0 0 0 4.12-8.09 93.78 93.78 0 0 0 3.19-12.33l.48-2.31-1.85.25.68-3.27 16.66-2.2-.67 3.26a29.47 29.47 0 0 1-4.41 6.41l5.15-.68-.62 3q-2.9 7.78-7.23 11.93a8.84 8.84 0 0 0 4.91 2.4L72 58.38a22.08 22.08 0 0 1-7.39-2.86 91.43 91.43 0 0 1-8.48 5.09zM64 36.42a81.76 81.76 0 0 1-2.06 8.08l3.18-.42a17 17 0 0 0 1 6 27.65 27.65 0 0 0 4.47-8.53l-4.63.62.62-3a27.08 27.08 0 0 0 3.62-6.3l-5.56.74zm11.4 21.25l.6-2.86a5.33 5.33 0 0 0 3.3-4.14l2.28-11-2.52.33.7-3.4 7.41-1-2.67 12.93c-.52 2.89.63 4.19 3.43 3.91L106.72 50l-.72 3.22-19.27 2.55q-4 .52-5-1.71a12.11 12.11 0 0 1-6.33 3.61zm8.44-24a28.86 28.86 0 0 0-.58-6.54l4.5-.6a24.7 24.7 0 0 1 .71 6.52zm5.8-3.15l.67-3.27 8.47-1.11.39-1.91 4.37-.58-.39 1.91 8.59-1.14-.67 3.27-8.6 1.13-.42 2 7.41-1-1.07 5.17q-.86 4.76-5.06 5.17l-1.72.23a10.81 10.81 0 0 0 5.51 5.09l-.62 3q-5.27-1.29-7.29-3.93l-1.16 5.58-4.36.57 1.12-5.44a34.81 34.81 0 0 1-9.48 6l.62-3a35.4 35.4 0 0 0 8-6.88l-5.69.75 2-9.79 7.41-1 .42-2zM93 38.41l3.33-.41.7-3.4-3.3.44zm11.69-4.86l-3.29.45-.7 3.4 1.58-.21a2.05 2.05 0 0 0 2.09-2z" fill="#fff"/><path class="cls-3" d="M101.28 122.11l-4.13-1.91-3.27 3.15.56-4.5-4-2.12 4.47-.87.78-4.47 2.21 4 4.5-.64-3.13 3.25zM85 124.66l-4.12-1.91-3.27 3.15.55-4.5-4-2.13 4.46-.86.79-4.47 2.2 4 4.51-.64-3.12 3.29zm-16.28 2.75l-4.12-1.92-3.27 3.16.55-4.51-4-2.12 4.47-.87.78-4.47 2.21 4 4.5-.63-3.1 3.31zM46.74 38.83l.71-3.4 3-.4.9-4.35 4.5-.6-.85 4.36 2.78-.37-.71 3.4-2.78.37a21.37 21.37 0 0 0 1.39 7.62l-1 4.89a1.37 1.37 0 0 0-.28-.49 13.83 13.83 0 0 1-1.8-3.73l-3.18 15.24-4.5.59L47.59 49a48.9 48.9 0 0 1-5.05 7l1-4.63a76.41 76.41 0 0 0 6.3-13zm9.39 21.78l.68-3.26a22.11 22.11 0 0 0 6-4A14 14 0 0 1 61 47.14Q58.49 54.22 51.43 61l.84-4.08a33.27 33.27 0 0 0 4.12-8.09 93.78 93.78 0 0 0 3.19-12.33l.48-2.31-1.85.25.68-3.27 16.66-2.2-.67 3.26a29.47 29.47 0 0 1-4.41 6.41l5.15-.68-.62 3q-2.9 7.78-7.23 11.93a8.84 8.84 0 0 0 4.91 2.4L72 58.38a22.08 22.08 0 0 1-7.39-2.86 91.43 91.43 0 0 1-8.48 5.09zM64 36.42a81.76 81.76 0 0 1-2.06 8.08l3.18-.42a17 17 0 0 0 1 6 27.65 27.65 0 0 0 4.47-8.53l-4.63.62.62-3a27.08 27.08 0 0 0 3.62-6.3l-5.56.74zm11.4 21.25l.6-2.86a5.33 5.33 0 0 0 3.3-4.14l2.28-11-2.52.33.7-3.4 7.41-1-2.67 12.93c-.52 2.89.63 4.19 3.43 3.91L106.72 50l-.72 3.22-19.27 2.55q-4 .52-5-1.71a12.11 12.11 0 0 1-6.33 3.61zm8.44-24a28.86 28.86 0 0 0-.58-6.54l4.5-.6a24.7 24.7 0 0 1 .71 6.52zm5.8-3.15l.67-3.27 8.47-1.11.39-1.91 4.37-.58-.39 1.91 8.59-1.14-.67 3.27-8.6 1.13-.42 2 7.41-1-1.07 5.17q-.86 4.76-5.06 5.17l-1.72.23a10.81 10.81 0 0 0 5.51 5.09l-.62 3q-5.27-1.29-7.29-3.93l-1.16 5.58-4.36.57 1.12-5.44a34.81 34.81 0 0 1-9.48 6l.62-3a35.4 35.4 0 0 0 8-6.88l-5.69.75 2-9.79 7.41-1 .42-2zM93 38.41l3.33-.41.7-3.4-3.3.44zm11.69-4.86l-3.29.45-.7 3.4 1.58-.21a2.05 2.05 0 0 0 2.09-2zM138 72l-4.44-16a2.55 2.55 0 0 0-2.8-1.85l-11.71 1.6a2.71 2.71 0 0 0-.41.09h-.42l-6.19.85a2.55 2.55 0 0 0-2.12 1.86l-4.22 15.65-7.61 1V60.92a2.55 2.55 0 0 0-2.89-2.53l-5.66.77a2.55 2.55 0 0 0-2.21 2.53v15.07L78.22 78a2.56 2.56 0 0 0-2.08 1.77l-7.44 1v-4.53a2.55 2.55 0 0 0-.87-1.92 2.79 2.79 0 0 0-.71-.44l7.93-1.08a2.57 2.57 0 0 0 2.1-1.8l1.74-5.8a2.59 2.59 0 0 0-.51-2.39 2.53 2.53 0 0 0-2.28-.87l-25.44 3.47a2.55 2.55 0 0 0-2.21 2.52v1.64a2.74 2.74 0 0 0-.81 0l-4 .54v-1.84a2.54 2.54 0 0 0-2.89-2.52L36 66.4a2.57 2.57 0 0 0-2.21 2.53v2.51l-1 .15v-1.77a2.54 2.54 0 0 0-2.89-2.52l-4.57.62a2.55 2.55 0 0 0-2.2 2.53v1.15l-2.78.4a2.55 2.55 0 0 0-2.21 2.52v36A2.55 2.55 0 0 0 21 113l2-.27v1.82a2.55 2.55 0 0 0 2.55 2.55 2 2 0 0 0 .34 0l4.57-.62a2.47 2.47 0 0 0 1-.38 2.42 2.42 0 0 0 .93-.3 19.66 19.66 0 0 0 7.58-8l1.33 4.77a2.55 2.55 0 0 0 2.8 1.84l4.22-.57a2.57 2.57 0 0 0 1.92-1.36 3 3 0 0 0 .67 0l4.63-.63a2.56 2.56 0 0 0 2-1.44l.06.23a2.55 2.55 0 0 0 2.46 1.88 2 2 0 0 0 .34 0l6-.82a2.55 2.55 0 0 0 2.2-2.53V98.56l1.08 8.73a2.55 2.55 0 0 0 2.87 2.22l4.6-.63a2.55 2.55 0 0 0 2.17-2.11l1-6.06a2.56 2.56 0 0 0-.68-2.2 2.63 2.63 0 0 0-1.12-.67l-.84-7a2.45 2.45 0 0 0-.23-.8 2.54 2.54 0 0 0 1.65-1.72l8.11-1.11v18.41a2.55 2.55 0 0 0 2.55 2.55 1.94 1.94 0 0 0 .34 0l5.67-.77a2.55 2.55 0 0 0 2.2-2.53V85.72l9.03-1.21a2.36 2.36 0 0 0 .59.75 2.52 2.52 0 0 0 2 .61l.39-.05-1.67 9.3h-.13a2.56 2.56 0 0 0-2.18 2.96l.9 5.39a2.56 2.56 0 0 0 2.51 2.13h.35l6.24-.85a2.56 2.56 0 0 0 2.17-2.11l3.1-18.34 3.43-.47v9l-1.2.16a2.54 2.54 0 0 0-2.1 3.27l1.65 5.4a2.55 2.55 0 0 0 2.78 1.79l7.55-1a2.55 2.55 0 0 0 2.2-2.53v-24.7h.29a2.58 2.58 0 0 0 1.78-1.12A2.61 2.61 0 0 0 138 72zM41.13 89.54l2-.28V78l-2 .28zM24.83 110l-4.14.56v-36l4.14-.56zm5.35-22.89V114l-4.57.62V70.45l4.57-.63v10.26l1.44-.2v7zm17.89 24.22l-4.22.58-3.47-12.49c-1.59 7.57-5.46 12.12-9.13 14.16v-7.23a16.71 16.71 0 0 0 4.88-10.2l-4.65.63v-5.92l4.82-.66V78.88l-4 .56v-5.22l4-.55v-4.74l4.83-.66V73l6.87-.92v16.53l1.13-.15v5.92L44.4 95l3.6 11.8.9-.12zm.87-10.11l-1.23-4 1.74-.23zm6.34 8.12l-4.62.63-1-5.79 1.51-.21 1.15-9.69 4.8-.66zM66.15 89v20.08l-6 .83-1.3-4.74 2.14-.3V89.75L51 91.1V67.93l25.44-3.46-1.73 5.8-18.65 2.54v12.27l4.94-.67V77l5.2-.71v7.41l10.61-1.44v5.33zm11.77 11.25l-1 6.06-4.6.63-1.89-15.17 4.83-.66 1.13 9.39zM106.84 82l-11.3 1.54v21.33l-5.67.77V84.26l-11.3 1.54v-5.27L89.87 79V61.69l5.67-.77v17.3l11.3-1.54zm5.53-22.68l6.19-.84-4.37 17.3-6.5.89zM133 99.83l-7.54 1-1.65-5.4 3.41-.47V80.89L119.05 82l-3.41 20.2-6.24.85-.9-5.39 2-.27 2.63-14.57-3.88.52v-5.62L133 74.47zm-15.75-25.78l1.94-7.68 5-.69 1.85 7.17zm11.63-.5l-2.77-10.7-8 1.1 1.33-5.63 11.71-1.6 4.39 15.93z"/></svg>