<svg id="Layer_1" data-name="Layer 1" xmlns="http://www.w3.org/2000/svg" viewBox="0 0 156 156"><defs><style>.cls-2{clip-path:url(#clip-path)}.cls-3{fill:#386db6}.cls-4{fill:#fff}</style><clipPath id="clip-path"><path fill="none" d="M0 0h156v156H0z"/></clipPath></defs><g class="cls-2"><g class="cls-2"><path class="cls-3" d="M78 2.4A75.6 75.6 0 1 1 2.4 78 75.68 75.68 0 0 1 78 2.4M78 0a78 78 0 1 0 78 78A78 78 0 0 0 78 0"/></g></g><path class="cls-4" d="M53.77 32.4L40.4 34.5l-3.51 7.31-.31-2.15-12.99 3.44-3.43 10.88 9.16-2.48 6.31 43.55 8.59-2.48-7.03-48.73 8.37-1.32 3.06 40.12 8.78-1.34-3.63-48.9zm8.29 21.72c1.86-1.74 4.55-1.9 6-.35s1.11 4.22-.76 6-4.55 1.9-6 .35-1.1-4.25.76-6z"/><path class="cls-4" d="M135.72 55.7l.38-12.79-28.84 1.52-4 17.89v-1.08L92.74 63v-5l9.36-1.34v-5.73l-9.36 1.34v-4l-7.83 1.34v4l-4.39.58a10.67 10.67 0 0 0 .76-3.63l-6.49 1s-.68 4.15-3.25 6.5v6.68s4.73-1.84 6.3-4.39l4-.57a2.57 2.57 0 0 1 3.06 2.67v1.72l-12.6 2.04v5.73l5.16-.76-5.16 14.51 8.22-1.52 5.15-14.33 1.91-.19s2.3-.63 2.3 2.29V79s-.5 3.76 4.77 3l4.35-.58-.47 2.1-26.42 4.08s-2.86.59-2.86-1.72V66.59s0-3.87-4.59-3.24l-5.54.95V70l2.49-.38v25.4s7.71.14 7.64-3.82a4.57 4.57 0 0 0 4.58 2.1L101 89.13a4.53 4.53 0 0 0 3-2.49l3.46.77c3.58-5.57 8.59-5 8.59-5 7.85 1.17 7.45 10.31 7.45 10.31-.62 13.08-10.5 13.18-10.5 13.18-6.1.54-8.22-6.49-8.22-6.49l-12.23.59c3.31 20 18.91 18.72 18.91 18.72a20.73 20.73 0 0 0 15.09-6.88C139.87 96.67 133 80.73 133 80.73c-6.8-15.9-20.62-10.51-20.62-10.51l3-13.56zM98.66 75.76a1 1 0 0 1-1.14-1.14v-6.5l4.6-.77-1.83 8.16z"/><path class="cls-4" d="M41 106.18l.56-2.67 2.44-.31.71-3.41 3.52-.47-.71 3.41 2.18-.29-.55 2.67-2.15.29a17 17 0 0 0 1.09 6l-.8 3.84a1 1 0 0 0-.22-.39 10.82 10.82 0 0 1-1.41-2.92l-2.47 11.93-3.53.47 2.1-10.13a38.54 38.54 0 0 1-4 5.5l.75-3.62a60.08 60.08 0 0 0 4.93-10.19zm7.36 17.06l.53-2.56a17.17 17.17 0 0 0 4.68-3.1 11 11 0 0 1-1.41-4.9 28.31 28.31 0 0 1-7.49 10.84l.67-3.2A25.93 25.93 0 0 0 48.6 114a74.8 74.8 0 0 0 2.51-9.66l.37-1.81-1.45.19.53-2.56 13.06-1.73-.53 2.57a22.94 22.94 0 0 1-3.46 5l4-.53-.49 2.34a24.44 24.44 0 0 1-5.67 9.35 6.92 6.92 0 0 0 3.9 1.84l-.51 2.45a17.19 17.19 0 0 1-5.78-2.24 71.21 71.21 0 0 1-6.68 4.03zm6.14-18.95a62.17 62.17 0 0 1-1.61 6.33l2.49-.33a13.31 13.31 0 0 0 .75 4.67 22 22 0 0 0 3.5-6.68l-3.63.48.48-2.35a21.18 21.18 0 0 0 2.84-4.93l-4.35.57zm9 16.65l.5-2.24a4.16 4.16 0 0 0 2.59-3.25l1.79-8.63-2 .26.55-2.66 5.8-.77-2.09 10.13c-.4 2.26.49 3.28 2.69 3.06l14.72-2-.53 2.56-15.13 2q-3.12.42-4-1.34a9.52 9.52 0 0 1-4.89 2.88zm6.61-18.81a22.48 22.48 0 0 0-.45-5.13l3.53-.46a19.39 19.39 0 0 1 .55 5.11zm4.55-2.47l.53-2.56 6.63-.87.31-1.49 3.42-.46-.31 1.49 6.76-.89-.53 2.56-6.74.89-.33 1.6 5.81-.77-.84 4q-.67 3.72-4 4.05l-1.35.18a8.44 8.44 0 0 0 4.31 4l-.48 2.35c-2.75-.68-4.66-1.7-5.72-3.08l-.9 4.37-3.42.45.88-4.26a27.43 27.43 0 0 1-7.41 4.78l.49-2.35a27.65 27.65 0 0 0 6.23-5.41l-4.46.58 1.59-7.67 5.8-.77.33-1.59zm2.65 6.18l2.59-.34.55-2.66-2.59.34zm9.16-3.8l-2.6.34-.55 2.67 1.25-.17a1.6 1.6 0 0 0 1.63-1.56z"/><path class="cls-3" d="M53.77 32.4L40.4 34.5l-3.51 7.31-.31-2.15-12.99 3.44-3.43 10.88 9.16-2.48 6.31 43.55 8.59-2.48-7.03-48.73 8.37-1.32 3.06 40.12 8.78-1.34-3.63-48.9zm8.29 21.72c1.86-1.74 4.55-1.9 6-.35s1.11 4.22-.76 6-4.55 1.9-6 .35-1.1-4.25.76-6z"/><path class="cls-3" d="M135.72 55.7l.38-12.79-28.84 1.52-4 17.89v-1.08L92.74 63v-5l9.36-1.34v-5.73l-9.36 1.34v-4l-7.83 1.34v4l-4.39.58a10.67 10.67 0 0 0 .76-3.63l-6.49 1s-.68 4.15-3.25 6.5v6.68s4.73-1.84 6.3-4.39l4-.57a2.57 2.57 0 0 1 3.06 2.67v1.72l-12.6 2.04v5.73l5.16-.76-5.16 14.51 8.22-1.52 5.15-14.33 1.91-.19s2.3-.63 2.3 2.29V79s-.5 3.76 4.77 3l4.35-.58-.47 2.1-26.42 4.08s-2.86.59-2.86-1.72V66.59s0-3.87-4.59-3.24l-5.54.95V70l2.49-.38v25.4s7.71.14 7.64-3.82a4.57 4.57 0 0 0 4.58 2.1L101 89.13a4.53 4.53 0 0 0 3-2.49l3.46.77c3.58-5.57 8.59-5 8.59-5 7.85 1.17 7.45 10.31 7.45 10.31-.62 13.08-10.5 13.18-10.5 13.18-6.1.54-8.22-6.49-8.22-6.49l-12.23.59c3.31 20 18.91 18.72 18.91 18.72a20.73 20.73 0 0 0 15.09-6.88C139.87 96.67 133 80.73 133 80.73c-6.8-15.9-20.62-10.51-20.62-10.51l3-13.56zM98.66 75.76a1 1 0 0 1-1.14-1.14v-6.5l4.6-.77-1.83 8.16zM41 106.18l.56-2.67 2.44-.31.71-3.41 3.52-.47-.71 3.41 2.18-.29-.55 2.67-2.15.29a17 17 0 0 0 1.09 6l-.8 3.84a1 1 0 0 0-.22-.39 10.82 10.82 0 0 1-1.41-2.92l-2.47 11.93-3.53.47 2.1-10.13a38.54 38.54 0 0 1-4 5.5l.75-3.62a60.08 60.08 0 0 0 4.93-10.19zm7.36 17.06l.53-2.56a17.17 17.17 0 0 0 4.68-3.1 11 11 0 0 1-1.41-4.9 28.31 28.31 0 0 1-7.49 10.84l.67-3.2A25.93 25.93 0 0 0 48.6 114a74.8 74.8 0 0 0 2.51-9.66l.37-1.81-1.45.19.53-2.56 13.06-1.73-.53 2.57a22.94 22.94 0 0 1-3.46 5l4-.53-.49 2.34a24.44 24.44 0 0 1-5.67 9.35 6.92 6.92 0 0 0 3.9 1.84l-.51 2.45a17.19 17.19 0 0 1-5.78-2.24 71.21 71.21 0 0 1-6.68 4.03zm6.14-18.95a62.17 62.17 0 0 1-1.61 6.33l2.49-.33a13.31 13.31 0 0 0 .75 4.67 22 22 0 0 0 3.5-6.68l-3.63.48.48-2.35a21.18 21.18 0 0 0 2.84-4.93l-4.35.57z"/><path class="cls-3" d="M63.5 120.94l.5-2.24a4.16 4.16 0 0 0 2.59-3.25l1.79-8.63-2 .26.55-2.66 5.8-.77-2.09 10.13c-.4 2.26.49 3.28 2.69 3.06l14.72-2-.53 2.56-15.13 2q-3.12.42-4-1.34a9.52 9.52 0 0 1-4.89 2.88zm6.61-18.81a22.48 22.48 0 0 0-.45-5.13l3.53-.46a19.39 19.39 0 0 1 .55 5.11zm4.55-2.47l.53-2.56 6.63-.87.31-1.49 3.42-.46-.31 1.49 6.76-.89-.53 2.56-6.74.89-.33 1.6 5.81-.77-.84 4q-.67 3.72-4 4.05l-1.35.18a8.44 8.44 0 0 0 4.31 4l-.48 2.35c-2.75-.68-4.66-1.7-5.72-3.08l-.9 4.37-3.42.45.88-4.26a27.43 27.43 0 0 1-7.41 4.78l.49-2.35a27.65 27.65 0 0 0 6.23-5.41l-4.46.58 1.59-7.67 5.8-.77.33-1.59zm2.65 6.18l2.59-.34.55-2.66-2.59.34zm9.16-3.8l-2.6.34-.55 2.67 1.25-.17a1.6 1.6 0 0 0 1.63-1.56z"/></svg>