<svg xmlns="http://www.w3.org/2000/svg" width="156" height="156"><defs><style>.b{fill:#386db6}</style></defs><path fill="none" d="M.001 0h156v156h-156z"/><path class="b" d="M78 2.395a75.6 75.6 0 1 1-75.6 75.6A75.686 75.686 0 0 1 78 2.395m0-2.4a78 78 0 1 0 78 78 78 78 0 0 0-78-78"/><path class="b" d="M95.336 109.353l-.119-.243-1.235 5.291-5.313.969 4.579 2.573-.967 5.334 4.065-3.7 4.715 2.328-.738-1.736 8.465-3.554-9.232 1.75-.561-1.32 1.73-1.737 15.455-4.169-18.654 2.693-1.527-3.122 24.339-6.049zm-27.153 9.298l-9.309 1.275-1.133-2.315 11.771-3.708-12.824 1.554-.127-.259-1.235 5.291-5.312.969 4.579 2.573-.967 5.334 4.065-3.7 4.715 2.328-.586-1.377 5.152-3.292-5.956 1.4-.677-1.593 1.993-2z"/><path class="b" d="M87.615 115.595l-9.4 1.292-1.148-2.347 14.4-4.273-15.448 2.125-.116-.237-1.235 5.291-5.313.969 4.579 2.573-.967 5.333 4.065-3.7 4.715 2.328-.608-1.431 5.016-3-5.8 1.15-.672-1.581 1.946-1.954zM69.167 38.056l4.5-.861-2.326-7.472-4.5.861 1.443 4.658-9.129 1.75 3.893-6.739-9.674 1.813 3.515.009-3.73 6.625-.187 2.043 16.065-3.081zm4.127.267l-20.395 3.911-.907 9.624 20.394-3.911zm-5.882 7.931l-9.989 1.915.394-4.257 9.989-1.916zm15.795-14.598l-.52-4.667-4.384.841.52 4.667zm16.856-4.179l-3.274.627.249 3.02 3.274-.628zM82.518 38.674l-4.356.835-2.2 8.311 4.356-.836zm.146-1.087l-.52-4.668-4.384.841.52 4.668zm5.301-7.792l-3.3.633-1.139 3.285 3.3-.633z"/><path class="b" d="M88.17 33.073l3.3-.633.377-4.031 1-.191-.377 4.031 3.3-.634.377-4.031 4.051-.776.226-2.413-5.8 1.112.134-1.364-7.843 1.461 3.608.215-.062.486-5.827 1.117-.227 2.412 4.135-.793zm10.666 3.753l.489-5.251-15.123 2.9-.211 2.131 10.988-2.107-.069.933-10.933 2.1-1.027 5.744 11.4-2.186-.067.989-6.438 1.234-1.926 2.572 10.355-1.99a2.6 2.6 0 0 0 1.392-.782 2.357 2.357 0 0 0 .689-1.457l.361-3.776-11.322 2.171.232-1.077zM48.198 80.068l7.913-1.373.578-7.143-15.382 2.668 6.091-16.551-13.8 2.367 3.8 1.222-5.379 14.574-9.958 1.728-.578 7.144 7.78-1.351-11.559 31.437 9.292-1.612 11.559-31.436.4-.069 6.624 28.281 9.292-1.612zm48.546-23.773l.623-7.151-35.632 6.154 3.845 2.1-3.734 18.068-.622 7.152 14.493-2.515-1.467 17.6-3.957 7.581 8.8-1.527a3.474 3.474 0 0 0 2.268-1.765 8.473 8.473 0 0 0 1.2-3.73l1.6-19.626 11.6-2.013.623-7.151-11.6 2.013.8-9.7-8.447 1.465-.844 9.71-6.535 1.134 2.489-13.554z"/><path class="b" d="M58.823 105.506l7.558-1.312 5.69-19.966-7.6 1.319zm29.252-5.075l7.558-1.312-2.534-18.613-7.558 1.312zm24.051-45.536l-1.823-8.135-6.491 1.126 1.823 8.135zm22.851 14.937l.445-5.564-22.362 3.88-.489 5.867 3.556-.616-4.356 14.915-2.357-.778 2.4-29.106-9.2 1.6-.578 6.921 1.6-.277-2.045 24.966-2.311 7.742 7.6-1.32.667-2.265 4.4 1.386 23.65-4.1.578-7.143-20.672 3.586-2.979-.966 5.958-1.033 4.134-15.247 3.512-.609-1.956 3.526-.356 4.287 6-1.041-.223 3-2.889 5.171 6.713-1.165a2.8 2.8 0 0 0 1.822-1.5 7.249 7.249 0 0 0 .978-3.061l.667-7.974-4.356.756z"/><path class="b" d="M138.711 49.539l-8.447 1.465.223-2.855 7.6-1.764.489-5.794-23.384 5.021-.489 6.238 8.536-2-.178 2.4-9.2 1.6-.533 6.395 2.756-.479-3.6 7.52 5.779-1 3.378-7.48.889-.154-.578 6.921 7.2-1.249.578-6.921.845-.146 2.134 6.3 5.334-.926-2.089-6.31 2.223-.386z"/></svg>