<svg id="个人中心" xmlns="http://www.w3.org/2000/svg" viewBox="0 0 24 24"><defs><style>.cls-2{fill:#5f5f5f}</style></defs><g id="Bounding_Boxes"><path id="Path_80689" data-name="Path 80689" d="M0 0h24v24H0z" fill="none"/></g><g id="Outline" transform="translate(2 2)"><path id="Path_80690" data-name="Path 80690" class="cls-2" d="M12 2a10 10 0 1 0 10 10A10 10 0 0 0 12 2zM7.07 18.28c.43-.9 3.05-1.78 4.93-1.78s4.51.88 4.93 1.78a7.925 7.925 0 0 1-9.86 0zm11.29-1.45c-1.43-1.74-4.9-2.33-6.36-2.33s-4.93.59-6.36 2.33a8 8 0 1 1 12.72 0z" transform="translate(-2 -2)"/><path id="Path_80691" data-name="Path 80691" class="cls-2" d="M12 6a3.5 3.5 0 1 0 3.5 3.5A3.491 3.491 0 0 0 12 6zm0 5a1.5 1.5 0 1 1 1.5-1.5A1.5 1.5 0 0 1 12 11z" transform="translate(-2 -2)"/></g></svg>