<svg id="Layer_1" data-name="Layer 1" xmlns="http://www.w3.org/2000/svg" xmlns:xlink="http://www.w3.org/1999/xlink" viewBox="0 0 156 156">
  <defs>
    <style>
      .cls-1 {
        fill: none;
      }

      .cls-2 {
        clip-path: url(#clip-path);
      }

      .cls-3 {
        fill: #386db6;
      }
    </style>
    <clipPath id="clip-path">
      <rect class="cls-1" width="156" height="156"/>
    </clipPath>
  </defs>
  <title>A_16 澳洲幸运10_w</title>
  <g class="cls-2">
    <g class="cls-2">
      <path class="cls-3" d="M78,2.4A75.6,75.6,0,1,1,2.4,78,75.68,75.68,0,0,1,78,2.4M78,0a78,78,0,1,0,78,78A78,78,0,0,0,78,0"/>
    </g>
  </g>
  <g>
    <path class="cls-3" d="M62.64,32.87a4.83,4.83,0,0,1-.09.75,5.09,5.09,0,0,1-.18.85L57.91,35V36c-1.08-.55-2.27-1.23-3.58-2L52.19,36.4q2.33,1.5,3.57,2.44l2.15-2.56v10l3-.33v-.75l.72.84A19.63,19.63,0,0,0,64,44.35v1.16l2.68-.29V44l.36.13c.83.41,1.46.73,1.87,1L69.7,44v1l3.12-.33V33.34L66,34.08l.54-1.39ZM57.28,49.72l5.54-.6q-.54,1.07-6.16,2.25a2.23,2.23,0,0,1,.26.39,8.4,8.4,0,0,1,1.25,1.69q5.55-1.35,7.06-3.26,1.78,1.56,7.06,1.56c.35-.7.8-1.52,1.34-2.47-3.1.17-5.09-.05-6-.68L73.36,48V45.74l-6.43.7v-1l-3.4.37v1l-6.25.68ZM53.44,47c-.66,2.9-1.16,5-1.52,6.15l3.31.47c.53-2.38,1.1-4.85,1.69-7.41l-3.21-.56c-.06.33-.15.79-.27,1.35Zm14.11-8.25a6.82,6.82,0,0,1-.89.93v-1.5l2-.39-.53-1.68c-1,.21-2.86.53-5.72.95l-.89.09c.18.59.33,1.16.45,1.7.65-.07,1.3-.17,2-.3V40l-1.34-1.1-1.34,1,1.07,1-1.07.12v2l1.88-.2a9.92,9.92,0,0,1-2.24,1.49V36.7l8.76-.94v7.3l-2-.86L69.34,42V40l-1.07.12L69.34,39,68,38.27l-.45.46ZM51.74,42a4.27,4.27,0,0,0,.54.35c1.25.87,2.17,1.54,2.77,2l2.32-2.66c-.36-.24-.92-.59-1.7-1.06s-1.28-.83-1.69-1.06Zm14.92,1.29v-1l1-.1Zm0-3v-.58l.8.49ZM64,40v.58l-.8.09Z"/>
    <path class="cls-3" d="M79.61,39.83c-.18-.37-.48-.91-.89-1.65L78,36.93l-2.94,1.49c.11.26.32.68.62,1.26.6,1.21,1,2,1.25,2.52l2.41-1.26a3.29,3.29,0,0,0-.18.44c-.17.4-.29.69-.35.86l2.23.68c.06-.29.18-.71.36-1.29.29-1.19.53-2.05.71-2.57v1.42a12.69,12.69,0,0,1-2.5,8.65c.89.57,1.79,1.19,2.68,1.87q3.21-4,2.95-10.61V38.64c.18.37.41.9.71,1.59s.51,1.3.63,1.67l.71-.32V49l3.13-.34V38.08c.18.43.41,1.06.71,1.92.24.53.42,1,.54,1.27l.8-.42v8.47L95.69,49V29.87l-3.22.35v7.56c-.41-.84-.8-1.66-1.16-2.45l-.89.43V31.11l-3.13.33v6.73c-.12-.26-.27-.63-.44-1.11s-.42-.9-.54-1.11l-1.07.53V30.92l-3.13.34v5.48l-1.52-.34c-.3,1.14-.62,2.29-1,3.43ZM75.06,50.54l3.21.4c.24-.86.54-2,.89-3.58s.63-2.81.81-3.66l-3.13-.58a68.51,68.51,0,0,1-1.78,7.42Zm.35-17.73q.27.55,1,1.89c.41.9.71,1.53.89,1.9L80.5,35c-.23-.47-.68-1.25-1.34-2.34a11.05,11.05,0,0,0-.71-1.26Z"/>
    <path class="cls-3" d="M34.79,70.64v4L22.63,76.08v8l8.77-1L28.27,85l1.88,4.56-5.64.65V98L34.79,96.8v4.28l-12.41,1.44v8.3l12.41-1.44v8.55l5.51-.64v-8.55l12.4-1.44V99l-12.4,1.44V96.16L50.7,95v-7.8l-5.76.67,2-5.26-3.13-.89,8.64-1v-8L40.3,74V70l9.77-1.13V61.32L40.3,62.45V57.17l-5.51.64v5.28L25,64.23v7.54Zm6.76,11.29-2.38,6.56-3.26.38-2.38-6Z"/>
    <path class="cls-3" d="M75.13,84.07c.17.48.42,1.21.75,2.17.42,1.3.71,2.27.88,2.92a25.82,25.82,0,0,0-2.88.59,13.42,13.42,0,0,0-3,.6q1.62-4,3.88-10.52l9.65-1.12v-9L63.6,72.07v9.06L69,80.5a57.79,57.79,0,0,1-2.13,6.29,4,4,0,0,1-.25.78,19.32,19.32,0,0,1-2.88,5.11L65.61,101a1.46,1.46,0,0,0,.5-.31,13.08,13.08,0,0,1,3.76-1.19q5.64-1.15,9.27-1.83l1.13,3.64,4.26-5.27Q81.89,87.56,79,79.84ZM62.35,98.13V74.48l-7.89.92v9.81l2.88-.34V99.21c-1,1.63-2,3.34-3,5.13l1.88,11.35a90.6,90.6,0,0,1,3.89-8.75q2.11,5.79,7,5.47,3.14-.1,6.64-.26L83.52,111q.77-5.62,1.51-9.48-5.9.94-16.67,2.19-4.26.24-6-5.59Zm2.88-32,17.54-2V55L65.23,57Zm-10-6.63c1.33,4.2,2.3,7.27,2.88,9.22.42,1.46.75,2.6,1,3.4l4.51-5.55q-.49-1.46-1.5-4.35c-1.17-3.39-2.09-6-2.76-7.73Z"/>
    <path class="cls-3" d="M104.43,123.13l-4.23-2.28L96.55,124l.87-4.72-4.11-2.5,4.77-.63,1.11-4.67,2.08,4.33,4.79-.38-3.48,3.3Z"/>
    <path class="cls-3" d="M87.09,124.79l-4.23-2.28-3.65,3.12.86-4.72L76,118.41l4.77-.63,1.11-4.67,2.08,4.33,4.8-.38-3.49,3.3Z"/>
    <path class="cls-3" d="M69.73,126.66l-4.23-2.29-3.65,3.13.87-4.72-4.11-2.5,4.77-.63L64.49,115l2.08,4.33,4.79-.39-3.48,3.31Z"/>
    <path class="cls-3" d="M125.52,103.07c-9.11,2.75-18.86-.8-22.1-11.44L96.28,68.16c-3.24-10.64,2.88-19,12-21.73s18.77.82,22,11.46l7.15,23.47C140.67,92,134.63,100.32,125.52,103.07Zm-5.39-41.94c-1.43-4.69-5.06-6.76-9.07-5.55s-6,5-4.52,9.65l7.07,23.24c1.43,4.69,5.12,6.66,9.12,5.45s5.9-4.86,4.47-9.55Z"/>
    <path class="cls-3" d="M96.8,110.66,79.84,55l10.22-3.08,17,55.7Z"/>
  </g>
</svg>
