<svg id="Layer_1" data-name="Layer 1" xmlns="http://www.w3.org/2000/svg" xmlns:xlink="http://www.w3.org/1999/xlink" viewBox="0 0 156 156">
  <defs>
    <style>
      .cls-1 {
        fill: none;
      }

      .cls-2 {
        clip-path: url(#clip-path);
      }

      .cls-3 {
        fill: #386db6;
      }
    </style>
    <clipPath id="clip-path">
      <rect class="cls-1" width="156" height="156"/>
    </clipPath>
  </defs>
  <title>A_17 澳洲幸运20_w</title>
  <g class="cls-2">
    <g class="cls-2">
      <path class="cls-3" d="M78,2.4A75.6,75.6,0,1,1,2.4,78,75.68,75.68,0,0,1,78,2.4M78,0a78,78,0,1,0,78,78A78,78,0,0,0,78,0"/>
    </g>
  </g>
  <g>
    <path class="cls-3" d="M62.23,31a4.7,4.7,0,0,1-.09.75,5.5,5.5,0,0,1-.17.83L57.59,33v1q-1.59-.8-3.51-2L52,34.45c1.51,1,2.68,1.77,3.5,2.39l2.11-2.51v9.78l3-.32v-.74l.7.82a19,19,0,0,0,2.28-1.63v1.14l2.63-.28V41.88l.35.12c.81.4,1.43.72,1.84.94l.79-1.06v1l3.06-.33V31.44l-6.66.72.53-1.36ZM57,47.52l5.44-.59c-.35.69-2.37,1.43-6,2.2a1.88,1.88,0,0,1,.26.38,9.91,9.91,0,0,1,1.23,1.66q5.43-1.32,6.92-3.19,1.76,1.52,6.93,1.53c.35-.69.79-1.5,1.31-2.42-3,.16-5-.06-5.87-.67l5.61-.61v-2.2l-6.31.68v-1l-3.33.36v1L57,45.32ZM53.2,44.83q-1,4.26-1.49,6l3.25.46c.52-2.34,1.08-4.76,1.66-7.27l-3.15-.55c-.06.33-.15.77-.27,1.33Zm13.85-8.1a7.17,7.17,0,0,1-.87.91V36.17l2-.38-.52-1.65q-1.41.31-5.61.93l-.88.09c.17.58.32,1.14.44,1.67.64-.07,1.28-.17,1.93-.29v1.38l-1.32-1.08-1.31,1,1,1-1,.11v2l1.84-.2a10.21,10.21,0,0,1-2.19,1.46V34.74l8.59-.93V41l-1.93-.85L68.81,40V38l-1.06.11L68.81,37l-1.32-.68-.44.46ZM51.54,40a5,5,0,0,0,.52.35c1.23.84,2.14,1.51,2.72,2l2.28-2.61c-.35-.23-.91-.58-1.67-1s-1.25-.81-1.66-1Zm14.64,1.26v-1l1-.11Zm0-2.93v-.57l.78.48ZM63.55,38v.57l-.79.09Z"/>
    <path class="cls-3" d="M78.89,37.81c-.18-.36-.47-.9-.88-1.62L77.31,35l-2.89,1.45c.11.26.32.67.61,1.24.58,1.19,1,2,1.23,2.47l2.36-1.23a3.86,3.86,0,0,0-.17.43,8.24,8.24,0,0,0-.35.85l2.19.66c.06-.28.17-.7.35-1.26.29-1.18.53-2,.7-2.52v1.38a12.5,12.5,0,0,1-2.45,8.5c.87.56,1.75,1.17,2.63,1.83q3.15-3.92,2.89-10.42V36.64c.17.36.41.88.7,1.56s.5,1.28.61,1.64l.7-.32v7.26l3.07-.34V36.09c.18.42.41,1,.7,1.88.24.52.41.94.53,1.25l.79-.41v8.31l3.15-.34V28l-3.15.35v7.41q-.62-1.23-1.14-2.4l-.88.42V29.25l-3.07.33v6.6c-.11-.26-.26-.62-.43-1.09s-.41-.88-.53-1.09l-1,.52V29.06l-3.07.33v5.38l-1.49-.32q-.43,1.68-1,3.36ZM74.42,48.32l3.15.39c.23-.84.53-2,.88-3.52s.61-2.75.79-3.59L76.17,41a69.43,69.43,0,0,1-1.75,7.28Zm.35-17.4c.17.36.49,1,1,1.85s.7,1.5.88,1.86l3.15-1.56c-.23-.46-.67-1.23-1.31-2.3-.3-.57-.53-1-.7-1.23Z"/>
    <path class="cls-3" d="M34.9,68.05v4L23,73.38v7.9l8.61-1L28.5,82.12l1.85,4.47-5.54.65v7.65L34.9,93.72v4.2L22.72,99.33v8.15l12.18-1.42v8.4l5.41-.63v-8.4L52.48,104V95.87L40.31,97.29v-4.2l10.2-1.18V84.25l-5.65.66,2-5.17-3.07-.87,8.48-1V70L40.31,71.37v-4L49.9,66.3V58.9L40.31,60V54.83l-5.41.63v5.18l-9.59,1.11v7.41Zm6.64,11.07L39.2,85.57l-3.2.37L33.67,80Z"/>
    <path class="cls-3" d="M74.49,81.22c.16.48.41,1.19.74,2.14.41,1.27.69,2.23.86,2.86a24.49,24.49,0,0,0-2.83.58,13.56,13.56,0,0,0-3,.59c1.06-2.6,2.33-6,3.81-10.32L83.59,76V67.08L63.18,69.45v8.89l5.28-.61a54.67,54.67,0,0,1-2.09,6.16,4.2,4.2,0,0,1-.24.77,19.24,19.24,0,0,1-2.83,5l1.84,8.18a1.55,1.55,0,0,0,.5-.3,12.78,12.78,0,0,1,3.68-1.17q5.54-1.14,9.1-1.8l1.11,3.57L83.71,93q-2.58-8.34-5.41-15.91ZM62,95V71.82l-7.75.9v9.62L57,82V96.09q-1.48,2.39-3,5l1.84,11.14a91,91,0,0,1,3.81-8.59q2.1,5.68,6.89,5.37,3.07-.11,6.52-.26l9.59-1.11q.73-5.52,1.47-9.31-5.78.93-16.35,2.15-4.18.24-5.9-5.49Zm2.82-31.43,17.22-2V52.7l-17.22,2Zm-9.83-6.51c1.31,4.13,2.25,7.14,2.83,9,.41,1.43.73,2.55,1,3.34L63.18,64,61.7,59.75q-1.73-5-2.7-7.59Z"/>
    <path class="cls-3" d="M103.25,119.56l-4.16-2.24-3.58,3.06.85-4.63-4-2.45,4.68-.62,1.09-4.58,2,4.25,4.7-.38-3.41,3.24Z"/>
    <path class="cls-3" d="M86.22,121.19,82.07,119,78.49,122l.85-4.63-4-2.45,4.68-.62,1.09-4.58,2,4.25,4.7-.38-3.42,3.24Z"/>
    <path class="cls-3" d="M69.19,123,65,120.78l-3.58,3.06.85-4.63-4-2.45,4.69-.62L64,111.56l2,4.25,4.71-.38-3.42,3.24Z"/>
    <path class="cls-3" d="M90.25,102.64l-2.52-8.3,12.33-27.6c1.19-2.76,1.5-4.55.79-6.89-1.14-3.76-4.13-5.65-8-4.48-3.07.92-5.73,3.43-4.25,8.32l-9.27,2.78c-2.79-9.22,2.3-16.78,11-19.39,9-2.7,17.11,1,19.86,10.06,1.48,4.89.35,8.09-1.91,13.18L99,91l19.61-5.88,2.52,8.3Z"/>
    <path class="cls-3" d="M131.11,51.15c-2.93-9.65-11.69-12.9-20-10.42a17.26,17.26,0,0,0-8.52,5.55,16.58,16.58,0,0,1,7,6.28,6.11,6.11,0,0,1,4-3.53c3.64-1.09,6.93.79,8.22,5l6.39,21.07c1.29,4.25-.43,7.56-4.07,8.65s-7-.7-8.27-5L111.7,64.9a38.27,38.27,0,0,1-2,5.32l-3.85,8.61.87,2.86a16.68,16.68,0,0,0,3.19,6l10.12-3,2.44,8.16a18.94,18.94,0,0,0,4.29-.75c8.27-2.49,13.76-10,10.84-19.66Z"/>
  </g>
</svg>
