<svg id="Layer_1" data-name="Layer 1" xmlns="http://www.w3.org/2000/svg" xmlns:xlink="http://www.w3.org/1999/xlink" viewBox="0 0 156 156">
  <defs>
    <style>
      .cls-1 {
        fill: none;
      }

      .cls-2 {
        clip-path: url(#clip-path);
      }

      .cls-3 {
        fill: #386db6;
      }
    </style>
    <clipPath id="clip-path">
      <rect class="cls-1" width="156" height="156"/>
    </clipPath>
  </defs>
  <title>A_7 香港六合彩_w</title>
  <g class="cls-2">
    <g class="cls-2">
      <path class="cls-3" d="M78,2.4A75.6,75.6,0,1,1,2.4,78,75.68,75.68,0,0,1,78,2.4M78,0a78,78,0,1,0,78,78A78,78,0,0,0,78,0"/>
    </g>
  </g>
  <g>
    <path class="cls-3" d="M59.93,53.05v-.67l8.33-.9v.67l3-.33V44.07a9.55,9.55,0,0,0,1.37.23c.1-.21.24-.5.4-.86.32-.68.58-1.26.8-1.73a18.45,18.45,0,0,1-6.57-1.15l6-.65V37.67l-7.69.84v-1c2.24-.24,4.43-.52,6.57-.86l-.41-2.26q-5.52.82-15.78,2.08a13.78,13.78,0,0,1,.32,1.45,5.07,5.07,0,0,0,.16.73c.7-.07,1.74-.21,3.13-.41l3-.32v1L55,39.66v2.23l5.85-.63A24.13,24.13,0,0,1,54.24,44a7.36,7.36,0,0,0,.64,1.2c.27.52.46.89.56,1.13a6.27,6.27,0,0,1,.72-.23l.73-.3v7.6Zm8.33-4.48v.9l-8.33.9v-.9Zm0-2.68v.82l-8.33.9v-.82Zm-9.05-1.18a17.81,17.81,0,0,0,3.36-2.22V44l3.05-.33V42.16a11.65,11.65,0,0,0,3.44,1.49Z"/>
    <path class="cls-3" d="M75.23,34.71c.27.42.64,1,1.12,1.82.37.6.67,1.07.88,1.39L80,36.35V37l2.32-.25v1.34l-3,.32v2.31l3.21-.35a12,12,0,0,1-3.93,3.26q.09.14.24.42a2.69,2.69,0,0,0,.16.43l-2.32-.35c-.43,1.94-1,4.08-1.68,6.44l3,.42q.24-1,.72-2.76c.27-1.17.48-2.09.64-2.75a1.65,1.65,0,0,1,.16.35,1.57,1.57,0,0,1,.08.44,14.92,14.92,0,0,0,1.29-1v2.83c0,1.54.88,2.21,2.64,2l6.41-.69c1.87-.16,2.93-.84,3.2-2.06a7.48,7.48,0,0,0,.32-1.67,2.74,2.74,0,0,0,.08-.61c-.91-.2-1.57-.32-2-.38a2.29,2.29,0,0,1-.56-.09,11.06,11.06,0,0,1-.24,1.74,1.32,1.32,0,0,1-1.28,1l-4.65.51c-.8.13-1.17-.15-1.12-.85v-.22l6.81-.74V43a12.32,12.32,0,0,0,2.56,1.13,5.32,5.32,0,0,0,.4-.78c.38-.89.67-1.54.88-2a6.16,6.16,0,0,1-3.76-1.9l3.36-.37V36.84l-3,.33V35.83l2.32-.25V33.27L91,33.52V31.89l-3,.32v1.63l-2.81.31V32.51l-2.88.31v1.64L80,34.71v1.42C79.34,35,78.7,34,78.11,33.21ZM74.83,40c.8,1.2,1.47,2.3,2,3.28l2.88-1.65a29.56,29.56,0,0,0-2.16-3.19Zm13,3.29v1.11l-4,.44V43.69Zm.24-7.11v1.34l-2.81.31V36.46Zm-.48,3.71a7.23,7.23,0,0,0,.88,1.24l-3.69.4.72-1a4.25,4.25,0,0,0,.32-.48Z"/>
    <path class="cls-3" d="M23.85,64.91v8l32.68-3.79,2.07-8.25L44.4,62.52l-.11-1.22a8.44,8.44,0,0,0-.5-1.86,4.85,4.85,0,0,0-1.33-2.07,2.44,2.44,0,0,0-1.94-.68,3.31,3.31,0,0,0-2,1.15,6.29,6.29,0,0,0-1.31,2.24A11.68,11.68,0,0,0,36.76,62c-.06.43-.1.92-.14,1.47Zm5,11.61L24,120.11l6.57-.76,4.84-43.59ZM50.45,117l6.55-.76L52.16,73.81l-6.55.76Z"/>
    <path class="cls-3" d="M60.58,78.43v6.91l31.78-3.69L94,74.55ZM61.21,115l25.66-2.91,6.29-8.36V86.22L61.21,89.93ZM87,104.47l-19.54,2.26V96.08L87,93.81ZM73.23,55.17l-13,18.94,8.87-1L77.41,61.2l7.91,10,8.78-1-12.51-16Z"/>
    <path class="cls-3" d="M98.39,85.9l7.8-.9v27l5.52-4.48V84.36l6.16-.72,1.89-7.71-8.05.93V74.09l-5.52.65V77.5l-7.8.91Zm19.54-28.85,1.58-8.29-21.12,5v8.08ZM104.06,62.7l-5.45.63,1.53,10.9,5.43-.63Zm6.5-.75-5.32.61,1.51,10.91,5.3-.62ZM119,61l-5.24.61-1.14,11.2,5.24-.6Zm6.87,6.37,6.08-19.9-5.88.68-6.49,19.95Zm0,19.35,6.08-18.89-5.88.69-6.49,18.93Zm.07,21.85,6.22-21.18-5.88.68-6.51,21.22Zm-22.06.57,1.81-21.68-5.26.62-2.27,21.73Zm15.49-1.7-1.83-21.22-5.15.6,1.39,21.27Z"/>
    <path class="cls-3" d="M102.41,38.17a3.63,3.63,0,1,1-3.63,3.63A3.64,3.64,0,0,1,102.41,38.17Z"/>
    <path class="cls-3" d="M47,45.43a3.63,3.63,0,1,1-3.63,3.62A3.63,3.63,0,0,1,47,45.43Z"/>
  </g>
</svg>
