<svg id="Layer_1" data-name="Layer 1" xmlns="http://www.w3.org/2000/svg" xmlns:xlink="http://www.w3.org/1999/xlink" viewBox="0 0 156 156">
  <defs>
    <style>
      .cls-1 {
        fill: none;
      }

      .cls-2 {
        clip-path: url(#clip-path);
      }

      .cls-3 {
        fill: #386db6;
      }

      .cls-4 {
        fill: #fff;
      }
    </style>
    <clipPath id="clip-path">
      <rect class="cls-1" width="156" height="156"/>
    </clipPath>
  </defs>
  <title>A_22 极速牛牛_娱乐_w</title>
  <g class="cls-2">
    <g class="cls-2">
      <path class="cls-3" d="M78,2.4A75.6,75.6,0,1,1,2.4,78,75.68,75.68,0,0,1,78,2.4M78,0a78,78,0,1,0,78,78A78,78,0,0,0,78,0"/>
    </g>
  </g>
  <g>
    <g>
      <g>
        <path class="cls-4" d="M70.69,135.25l-4.82-2.61-4.16,3.57,1-5.38L58,128l5.44-.72,1.26-5.32,2.37,4.93,5.47-.44-4,3.77Z"/>
        <path class="cls-4" d="M86.11,133.57,81.28,131l-4.15,3.56,1-5.38-4.69-2.85,5.44-.72,1.26-5.32,2.37,4.94,5.47-.45-4,3.77Z"/>
        <path class="cls-4" d="M101.69,131.8l-4.82-2.6-4.16,3.56,1-5.38L89,124.53l5.44-.72,1.26-5.32,2.37,4.94,5.47-.44-4,3.76Z"/>
      </g>
      <g>
        <path class="cls-4" d="M74.22,48.19l.34-4.91L59.85,45l-.62,8.93,10.65-1.23C72.73,52.51,74.19,51,74.22,48.19ZM63.41,50.54l.22-3.11,6.87-.79-.1,1.46c0,1.18-.54,1.76-1.67,1.82Z"/>
        <path class="cls-4" d="M54.16,66.43a17.87,17.87,0,0,0,3.17-10L57.71,51,59,50.84l.2-2.8-1.29.15.27-3.82L55,44.73l-.27,3.82-2.2.26L52.8,45l-3.16.36-.27,3.82-1.28.15-.19,2.8L49.18,52l-.38,5.38c-.37,4.27.17,7.42,1.61,9.36a15.18,15.18,0,0,1-3.09,2.73c0,.06-.09.07-.1.07l-.19,0-.2,2.85.39-.24a42.14,42.14,0,0,0,5-3.59,22.49,22.49,0,0,0,4.35,2.5l.31.14.18-2.68-.12-.08A16.93,16.93,0,0,1,54.16,66.43Zm-1.64-2.66A16.83,16.83,0,0,1,52,57.2l.39-5.6,2.21-.25-.39,5.5A18,18,0,0,1,52.52,63.77Z"/>
        <path class="cls-4" d="M68.39,57.1l6.07-.7.2-2.91L58.55,55.35l-.2,2.91,5.83-.68L64,59.88l-6.65.77-.2,2.91,6.18-.71c-1,2.17-3,4-5.93,5.38l-.12.06-.2,2.83.35-.14a18.41,18.41,0,0,0,8.31-5.83c1.47,2.1,4.17,3.43,8,3.95l.25,0,.19-2.65-.2,0c-3-.65-4.83-2.05-5.55-4.17l6.33-.74.2-2.91-6.77.79Z"/>
        <path class="cls-4" d="M89.42,56.6l-4.12.48,0,.15a15.19,15.19,0,0,1-5.43,7.52l-.08.06-.18,2.45.36-.14a15,15,0,0,0,9.4-10.18Z"/>
        <path class="cls-4" d="M106.46,50.39l-9.8,1.13.39-5.67-4.44.51L92.21,52,88,52.52a1.37,1.37,0,0,1-1.15-.24A1.52,1.52,0,0,1,86.51,51l.38-5.47,10.53-1.22a31.24,31.24,0,0,0,8.41-1.9l.14,0,.23-3.29-.34.12a38.38,38.38,0,0,1-9.13,2.2L82.89,43l-.65,9.22a3.51,3.51,0,0,0,.8,2.88,3.43,3.43,0,0,0,2.83.66L92,55.06,91.45,63c0,.79-.38,1.16-1.28,1.2l-1.72.2-.21,3L91.79,67c2.53-.29,3.91-1.79,4.1-4.45l.55-8,9.81-1.13Z"/>
        <path class="cls-4" d="M106.58,61.67a8.37,8.37,0,0,1-4.18-6.34l0-.22-4.09.47,0,.24c.7,4.53,3.38,7.3,8,8.26l.26,0,.17-2.39Z"/>
      </g>
      <g>
        <g>
          <path class="cls-4" d="M35.17,54.58l.06.08.06.08a6.35,6.35,0,0,1,1,2.13,2.17,2.17,0,0,1-1,2.19.32.32,0,0,0-.09.08l-.11.08-.1.09-.1.08A2.7,2.7,0,0,1,33.2,60a2.66,2.66,0,0,1-1.69-.77l.88-1.64.1.09.1.09a1.71,1.71,0,0,0,.54.27.56.56,0,0,0,.53-.09l.05-.05.06-.06,0-.06,0-.07a.56.56,0,0,0,.13-.53,2.12,2.12,0,0,0-.25-.5l-.25-.38-.26-.36L33,55.58l-.27-.36-3.77-5.07,1.9-1.41Z"/>
          <path class="cls-4" d="M52.71,42l-1.5-.79c-.33.2-.65.39-1,.57a6.49,6.49,0,0,1-1,.43,5,5,0,0,1-.62.19,5.1,5.1,0,0,1-.7.13,5.44,5.44,0,0,1-2.46-.27,4.84,4.84,0,0,1-2.06-1.33c-.1-.11-.2-.23-.29-.35a2.45,2.45,0,0,1-.26-.37,2.8,2.8,0,0,1-.3-.49,5.23,5.23,0,0,1-.22-.51,5.07,5.07,0,0,1,0-3.31,5.35,5.35,0,0,1,2-2.81,1.88,1.88,0,0,1,.23-.16l.23-.14a4.67,4.67,0,0,1,.49-.27l.49-.2a5.68,5.68,0,0,1,3.92,0,4.84,4.84,0,0,1,2.89,2.59l0,.13,0,.14v0s0,0,0,0l.06.15,0,.15A4.41,4.41,0,0,1,53,37.72a6.63,6.63,0,0,1-.74,2.18l2.5,1.36Zm-5.23-2.94,2-.73,1,.58a3.23,3.23,0,0,0,.25-1,4.32,4.32,0,0,0,0-1c0-.1,0-.21-.08-.32l-.09-.31a3.62,3.62,0,0,0-1.62-1.92,2.84,2.84,0,0,0-2.51-.21l-.31.12-.32.16-.15.09a.71.71,0,0,0-.14.1,2.85,2.85,0,0,0-1.12,1.67,3.82,3.82,0,0,0,0,2l0,.12,0,.12a3.71,3.71,0,0,0,1.21,1.68,2.82,2.82,0,0,0,2,.6.56.56,0,0,0,.18,0l.2,0a1.11,1.11,0,0,0,.25,0l.22-.07.26-.1a1.3,1.3,0,0,0,.26-.14l.17-.07.17-.1Z"/>
          <path class="cls-4" d="M64.48,27.32l2.35-.23L67.31,32l3.16-5.22,2.75-.28-3.47,5.27,4.67,5.43-2.83.28-4.26-5.25.56,5.62L65.55,38Z"/>
          <path class="cls-4" d="M91,33.68a4.2,4.2,0,0,1-.47.08h-.69a3.66,3.66,0,0,1-1.15-.32,2.87,2.87,0,0,1-1-.71,3.9,3.9,0,0,1-.58-1,3.16,3.16,0,0,1-.26-1.07.49.49,0,0,0,0-.17v-.32a3.77,3.77,0,0,1,.74-1.92A3.5,3.5,0,0,1,89.34,27a6.21,6.21,0,0,1,.62-.14c.22,0,.44-.06.66-.08a.74.74,0,0,0,.21,0h.29a4.23,4.23,0,0,1,2.09.67,2.93,2.93,0,0,1,1.29,1.76c0,.11.06.23.08.34s0,.23.07.34,0,.24,0,.36,0,.22,0,.34a1.64,1.64,0,0,1,0,.22,1.62,1.62,0,0,0,0,.21,6.5,6.5,0,0,1-.74,2.14,18.13,18.13,0,0,1-1.21,1.93l0,0,0,0-1.85,2.48-2.64-.1,3.31-4Zm1-4.43a1.62,1.62,0,0,0-1.13-.53h-.15l-.08,0a1.72,1.72,0,0,0-1,.48,1.43,1.43,0,0,0-.49,1,1.37,1.37,0,0,0,.47,1.14,1.89,1.89,0,0,0,1.1.46h.16A1.85,1.85,0,0,0,92,31.44a1.3,1.3,0,0,0,.54-1.07A1.45,1.45,0,0,0,92,29.25Z"/>
          <path class="cls-4" d="M115.71,33.49l2,1.18-1.61,9.58-1.92-1.16.33-2-3-1.84-1.56,1.3-1.8-1.1Zm-.86,6,.64-3.06c0-.14.09-.28.14-.44s.1-.29.16-.44l.06-.15a.88.88,0,0,1,.05-.15c-.15.17-.29.34-.44.5a4.72,4.72,0,0,1-.44.45l-2.38,2Z"/>
        </g>
        <g>
          <path class="cls-4" d="M41.76,29.65a6,6,0,0,0-3.41,3A5.78,5.78,0,0,0,38,36.91l.4,1.16L45.52,57.9l.89-.93-7-19.62-.2-.54a4.44,4.44,0,0,1-.16-.6,4.8,4.8,0,0,1,3.13-5.47l15.37-5.51.78-1.51Z"/>
          <path class="cls-4" d="M23.89,47.41a6,6,0,0,0-2.38,3.89,5.79,5.79,0,0,0,1.06,4.4L35.49,73.08l.68-1L23.5,55a4.77,4.77,0,0,1,1.08-6.66l11.91-8.85-.39-1.16Z"/>
          <path class="cls-4" d="M107.87,22.42l-18.18-.71h-.25a9.41,9.41,0,0,0-1.3.15,5.86,5.86,0,0,0-4.67,5.49l-.38,9.58h1.16l.38-9.55a4.74,4.74,0,0,1,4.11-4.46,5.51,5.51,0,0,1,.71-.06H90l17.87.7a4.82,4.82,0,0,1,4.4,3.3l1.23,0A6,6,0,0,0,107.87,22.42Z"/>
          <path class="cls-4" d="M131.27,39.7,115.7,30.29a6,6,0,0,0-2.1-.79,8.53,8.53,0,0,0-1.16-.09,5.81,5.81,0,0,0-4.91,2.8l-2.59,4.29,1.1.43,2.49-4.12a4.64,4.64,0,0,1,3.86-2.23h.17a4.77,4.77,0,0,1,1,.11,4.84,4.84,0,0,1,1.55.6l15.57,9.41a4.79,4.79,0,0,1,1.71,6.54L123,62.71l1,.65,9.39-15.53A6,6,0,0,0,131.27,39.7Z"/>
          <path class="cls-4" d="M84.26,18.76c-.21,0-.41,0-.62,0l-18.1,1.8a6,6,0,0,0-4,2.12,3.87,3.87,0,0,0-.35.45,10.71,10.71,0,0,0-.62,1.17A5.71,5.71,0,0,0,60.15,27l1.18,11.85,1.16,0L61.31,26.91a4.62,4.62,0,0,1,.47-2.53,4.8,4.8,0,0,1,.7-1,4.87,4.87,0,0,1,3.17-1.61l18.11-1.8a4,4,0,0,1,.49,0,4.89,4.89,0,0,1,2,.44l.93-.84A6,6,0,0,0,84.26,18.76Z"/>
        </g>
      </g>
      <g>
        <path class="cls-4" d="M42.05,95.18l0-3.62a45.45,45.45,0,0,0,2.37-8.47l-5.33.67v3.78c0,3.86-.12,7.32-.34,10.3l2.5-.32,0,.23a31.74,31.74,0,0,0,2.44,8.76,41,41,0,0,0,2.79-11.89ZM41,89V85.43l1-.13C41.74,86.58,41.39,87.81,41,89Zm2.7,11.38c-.2-.91-.37-1.87-.53-2.89l0-.23a1.28,1.28,0,0,0-.07-.28l1.28-.16C44.16,98.07,44,99.25,43.7,100.36Z"/>
        <path class="cls-4" d="M73.55,91.84l1.81-.23a1.22,1.22,0,0,0,.93-.36,2.69,2.69,0,0,0,.45-2v-3l-3.19.4Z"/>
        <polygon class="cls-4" points="66.35 92.74 69.54 92.34 69.54 87.19 66.35 87.59 66.35 92.74"/>
        <path class="cls-4" d="M142.65,86.07a1.89,1.89,0,0,0-1.49-.46L132,86.77v-7.5l7.49-.94a1.89,1.89,0,0,0,1.65-1.88V72A1.89,1.89,0,0,0,139,70.11L132,71V66.06a1.89,1.89,0,0,0-2.13-1.87l-4.74.59a1.9,1.9,0,0,0-1.66,1.88V67a1.85,1.85,0,0,0-1.13-.22l-4.4.56a1.9,1.9,0,0,0-1.65,1.74v.19c-.37,5.21-1.86,9.26-4.44,12l-.06.07a1.87,1.87,0,0,0-.51,1.28V87a1.89,1.89,0,0,0,3,1.54l.37-.27a20.93,20.93,0,0,0,6.81-7.66l2-.26v7.5l-10.66,1.34a1.87,1.87,0,0,0-.71.24,1.85,1.85,0,0,0-.74-.06l-9.21,1.16V83l7.49-.94a1.89,1.89,0,0,0,1.66-1.88V75.74a1.89,1.89,0,0,0-2.13-1.88l-7,.88V69.81a1.89,1.89,0,0,0-.64-1.42,2,2,0,0,0-1.49-.46l-4.74.6a1.89,1.89,0,0,0-1.66,1.88v.31a1.9,1.9,0,0,0-1.13-.21l-4.39.55a1.9,1.9,0,0,0-1.65,1.75l0,.19c-.35,4.89-1.69,8.74-4,11.49V81.72a1.88,1.88,0,0,0-.34-1.09,1.9,1.9,0,0,0,1.44-1.84v-4.1a1.87,1.87,0,0,0-.64-1.42,1.93,1.93,0,0,0-1.49-.46l-5.92.74V72.8a1.89,1.89,0,0,0-2.13-1.88l-4,.5a1.9,1.9,0,0,0-1.65,1.88v1.23l-6.27.79a1.77,1.77,0,0,0-.51.15.83.83,0,0,1,0-.15l-.06-.18a1.89,1.89,0,0,0-2-1.3l-4,.5a1.9,1.9,0,0,0-1.56,2.48l.09.27a44,44,0,0,1,1.86,8.42l0,.23a1.93,1.93,0,0,0,.61,1.17l-2.54.32a1.86,1.86,0,0,0-1.58,1.39,1.88,1.88,0,0,0-1.28-.31l-1.46.18a52.88,52.88,0,0,0,1.71-5.7,2.3,2.3,0,0,0,0-.45V78.27a1.89,1.89,0,0,0-2.13-1.88l-15.6,2a1.9,1.9,0,0,0-.81.31v-.24A1.89,1.89,0,0,0,31.46,77,1.93,1.93,0,0,0,30,76.54l-4,.51a1.89,1.89,0,0,0-1.66,1.87v4.5l-1.39.18a1.88,1.88,0,0,0-1.65,1.87v4.29a1.88,1.88,0,0,0,2.12,1.87l.58-.07a91.66,91.66,0,0,1-3.33,15,1.84,1.84,0,0,0-.09.57l0,6.56a1.89,1.89,0,0,0,3.6.82l.18-.38v7A1.9,1.9,0,0,0,26.2,123l.23,0,4-.5a1.83,1.83,0,0,0,.66-.21,1.17,1.17,0,0,0,.32.15,1.79,1.79,0,0,0,.51.07,1.89,1.89,0,0,0,1.62-.91l.43-.72.33-.54A1.86,1.86,0,0,0,35.37,122a1.89,1.89,0,0,0,2-.21l.38-.3A60.12,60.12,0,0,0,43.83,116a30.54,30.54,0,0,0,6.54,3.69l.32.14a1.88,1.88,0,0,0,1.78-.17,1.72,1.72,0,0,0,.44-.41,1.69,1.69,0,0,0,1.1-.07l.32-.13a11.43,11.43,0,0,0,4.5-3.1,7.32,7.32,0,0,0,5.48,1.19l17.89-2.25A1.88,1.88,0,0,0,83.86,113v-4.11a1.89,1.89,0,0,0-.44-1.2,2,2,0,0,0,.07-.5v-4.1a1.9,1.9,0,0,0-.94-1.64l-.12-.07a14.85,14.85,0,0,1-4.64-4.12,5.31,5.31,0,0,0,3.47-2.56s0,.06,0,.08v4.47a1.91,1.91,0,0,0,2.13,1.88l10.19-1.28v12.54a1.93,1.93,0,0,0,.64,1.42,2,2,0,0,0,1.26.47h.23l4.74-.6a1.89,1.89,0,0,0,1.66-1.88v-13l9.69-1.22a1.88,1.88,0,0,0,.7-.24,1.85,1.85,0,0,0,.74.06l10.19-1.28v12.54a1.89,1.89,0,0,0,.64,1.42,1.87,1.87,0,0,0,1.25.47h.24l4.74-.6a1.88,1.88,0,0,0,1.66-1.87v-13l9.68-1.22A1.89,1.89,0,0,0,143.29,92V87.49A1.89,1.89,0,0,0,142.65,86.07ZM62.15,99.15a1.88,1.88,0,0,0,.67,0l1.9-.23a26.8,26.8,0,0,1-2.57,3.42ZM55,76.49,55,76.22l4-.5.06.18c.25.78.48,1.57.7,2.37.42,1.53.77,3.1,1.07,4.71a2.93,2.93,0,0,1,.05.29c.09.49.19,1,.27,1.47l0,.25L60.7,85,57,85.5l0-.23A46.28,46.28,0,0,0,55,76.49ZM30.21,100.26V120.6l-4,.51v-17a53.77,53.77,0,0,1-3.33,8.65l-.45.94V107.1a96.35,96.35,0,0,0,3.73-17.72l-3,.38V85.47l3.05-.38V78.92l4-.5v6.17l2.8-.36v4.29l-2.65.33a50.3,50.3,0,0,0,3,11.11l0,.09v6.5l-.44-.76A44.18,44.18,0,0,1,30.21,100.26Zm2.95-7.09c-.22-.89-.43-1.79-.6-2.69l.64-.08C33.19,91.36,33.18,92.28,33.16,93.17Zm18.27,24.92L51.1,118a26.36,26.36,0,0,1-7.45-4.55A52.81,52.81,0,0,1,36.58,120l-.38.3v-4.41l.1-.07a21.21,21.21,0,0,0,5.1-5.19,30.4,30.4,0,0,1-3-8,43.61,43.61,0,0,1-6,17.26l-.27.44-.17.28v-5.46c.06-.16.1-.32.16-.48a51.66,51.66,0,0,0,1.71-6.27c.28-1.41.53-2.81.68-4.21s.3-3.34.4-5.53c.14-3.07.21-6.8.21-11.21V84.27l-.2,0-1.75.22V80.23l15.6-2v4.07a42.37,42.37,0,0,1-2.89,8.44l4.72-.59V93.9c-.81,7.06-2.35,12.49-4.59,16.17a10.27,10.27,0,0,0,5.28,3.81l.16.05h0v4.16ZM38.3,111.46c.19-.57.36-1.14.53-1.72.11.24.22.47.34.7C38.9,110.78,38.61,111.13,38.3,111.46Zm14,.66-.09.07h0l-.12-.06-.16,0a8.79,8.79,0,0,1-3.6-2.22c1.94-3.69,3.3-8.71,4.08-15a1.84,1.84,0,0,0,1.33.34l.43-.05v12.52A5,5,0,0,1,52.26,112.12ZM82,109.06v4l-17.9,2.24c-2.52.32-4.34-.46-5.4-2.32a9.74,9.74,0,0,1-5,4.35l-.32.13v-3.73l.09-.07A6.8,6.8,0,0,0,56,107.68V93.07l-2.56.32V89.1l6.82-.85v17.49c0,2.24.53,3.8,1.46,4.63A2.87,2.87,0,0,0,63,111a4.33,4.33,0,0,0,1.37.09l3.66-.46,7.23-.91L81.1,109l.87-.11Zm-14.32-.25-1.92.24c.67-.55,1.32-1.12,1.92-1.71Zm7.79-1v-1.69a18.57,18.57,0,0,0,2.27,1.4ZM80.5,81.72v7.52c.08,4-1.22,6.11-3.88,6.31l-1.86.24A16,16,0,0,0,81.48,103l.12.07v4.1l-.32-.12a16.16,16.16,0,0,1-7.73-5.48V109l-4,.5v-7.42a25.4,25.4,0,0,1-7.69,7.45l-.36.24v-4l.07-.07a27.25,27.25,0,0,0,6.5-9.09l-5.47.69V84l7-.87V80.3l-7.93,1V77.2l7.93-1V73.3l4-.5v2.9l8-1v4.1l-8,1v2.79Zm2.41,11.21a1.81,1.81,0,0,0-1.07.52,11.57,11.57,0,0,0,.32-1.2,1.6,1.6,0,0,0,.25.18,1.9,1.9,0,0,0,2-.15l.38-.27a20.92,20.92,0,0,0,6.8-7.67l2-.25v7.5Zm17.3,4.2v14.68l-4.74.6V97.72L83.15,99.27V94.8l12.32-1.54V82l-5.21.65a18.37,18.37,0,0,1-6.62,7.87l-.37.27V86.38l.06-.07c2.88-3.09,4.54-7.52,4.94-13.18v-.19l4.4-.55,0,.3A38.32,38.32,0,0,1,91.75,78l3.72-.47V70.41l4.74-.6v7.07l9.14-1.14V80.2l-9.14,1.15V92.66l10.89-1.37.45-.05V95.7l-.42.06ZM141.4,92l-11.35,1.43v14.69l-4.74.59V94L113,95.52V91.05l12.32-1.54V78.2l-5.2.65a18.52,18.52,0,0,1-6.62,7.88l-.37.26V82.63l.06-.07c2.87-3.09,4.53-7.52,4.94-13.17v-.2l4.39-.55,0,.3a39.92,39.92,0,0,1-.89,5.26l3.71-.47V66.66l4.74-.6v7.08L139.2,72v4.46l-9.15,1.15V88.91l11.35-1.42Z"/>
      </g>
    </g>
    <g>
      <g>
        <path class="cls-3" d="M70.69,135.25l-4.82-2.61-4.16,3.57,1-5.38L58,128l5.44-.72,1.26-5.32,2.37,4.93,5.47-.44-4,3.77Z"/>
        <path class="cls-3" d="M86.11,133.57,81.28,131l-4.15,3.56,1-5.38-4.69-2.85,5.44-.72,1.26-5.32,2.37,4.94,5.47-.45-4,3.77Z"/>
        <path class="cls-3" d="M101.69,131.8l-4.82-2.6-4.16,3.56,1-5.38L89,124.53l5.44-.72,1.26-5.32,2.37,4.94,5.47-.44-4,3.76Z"/>
      </g>
      <g>
        <path class="cls-3" d="M74.22,48.19l.34-4.91L59.85,45l-.62,8.93,10.65-1.23C72.73,52.51,74.19,51,74.22,48.19ZM63.41,50.54l.22-3.11,6.87-.79-.1,1.46c0,1.18-.54,1.76-1.67,1.82Z"/>
        <path class="cls-3" d="M54.16,66.43a17.87,17.87,0,0,0,3.17-10L57.71,51,59,50.84l.2-2.8-1.29.15.27-3.82L55,44.73l-.27,3.82-2.2.26L52.8,45l-3.16.36-.27,3.82-1.28.15-.19,2.8L49.18,52l-.38,5.38c-.37,4.27.17,7.42,1.61,9.36a15.18,15.18,0,0,1-3.09,2.73c0,.06-.09.07-.1.07l-.19,0-.2,2.85.39-.24a42.14,42.14,0,0,0,5-3.59,22.49,22.49,0,0,0,4.35,2.5l.31.14.18-2.68-.12-.08A16.93,16.93,0,0,1,54.16,66.43Zm-1.64-2.66A16.83,16.83,0,0,1,52,57.2l.39-5.6,2.21-.25-.39,5.5A18,18,0,0,1,52.52,63.77Z"/>
        <path class="cls-3" d="M68.39,57.1l6.07-.7.2-2.91L58.55,55.35l-.2,2.91,5.83-.68L64,59.88l-6.65.77-.2,2.91,6.18-.71c-1,2.17-3,4-5.93,5.38l-.12.06-.2,2.83.35-.14a18.41,18.41,0,0,0,8.31-5.83c1.47,2.1,4.17,3.43,8,3.95l.25,0,.19-2.65-.2,0c-3-.65-4.83-2.05-5.55-4.17l6.33-.74.2-2.91-6.77.79Z"/>
        <path class="cls-3" d="M89.42,56.6l-4.12.48,0,.15a15.19,15.19,0,0,1-5.43,7.52l-.08.06-.18,2.45.36-.14a15,15,0,0,0,9.4-10.18Z"/>
        <path class="cls-3" d="M106.46,50.39l-9.8,1.13.39-5.67-4.44.51L92.21,52,88,52.52a1.37,1.37,0,0,1-1.15-.24A1.52,1.52,0,0,1,86.51,51l.38-5.47,10.53-1.22a31.24,31.24,0,0,0,8.41-1.9l.14,0,.23-3.29-.34.12a38.38,38.38,0,0,1-9.13,2.2L82.89,43l-.65,9.22a3.51,3.51,0,0,0,.8,2.88,3.43,3.43,0,0,0,2.83.66L92,55.06,91.45,63c0,.79-.38,1.16-1.28,1.2l-1.72.2-.21,3L91.79,67c2.53-.29,3.91-1.79,4.1-4.45l.55-8,9.81-1.13Z"/>
        <path class="cls-3" d="M106.58,61.67a8.37,8.37,0,0,1-4.18-6.34l0-.22-4.09.47,0,.24c.7,4.53,3.38,7.3,8,8.26l.26,0,.17-2.39Z"/>
      </g>
      <g>
        <g>
          <path class="cls-3" d="M35.17,54.58l.06.08.06.08a6.35,6.35,0,0,1,1,2.13,2.17,2.17,0,0,1-1,2.19.32.32,0,0,0-.09.08l-.11.08-.1.09-.1.08A2.7,2.7,0,0,1,33.2,60a2.66,2.66,0,0,1-1.69-.77l.88-1.64.1.09.1.09a1.71,1.71,0,0,0,.54.27.56.56,0,0,0,.53-.09l.05-.05.06-.06,0-.06,0-.07a.56.56,0,0,0,.13-.53,2.12,2.12,0,0,0-.25-.5l-.25-.38-.26-.36L33,55.58l-.27-.36-3.77-5.07,1.9-1.41Z"/>
          <path class="cls-3" d="M52.71,42l-1.5-.79c-.33.2-.65.39-1,.57a6.49,6.49,0,0,1-1,.43,5,5,0,0,1-.62.19,5.1,5.1,0,0,1-.7.13,5.44,5.44,0,0,1-2.46-.27,4.84,4.84,0,0,1-2.06-1.33c-.1-.11-.2-.23-.29-.35a2.45,2.45,0,0,1-.26-.37,2.8,2.8,0,0,1-.3-.49,5.23,5.23,0,0,1-.22-.51,5.07,5.07,0,0,1,0-3.31,5.35,5.35,0,0,1,2-2.81,1.88,1.88,0,0,1,.23-.16l.23-.14a4.67,4.67,0,0,1,.49-.27l.49-.2a5.68,5.68,0,0,1,3.92,0,4.84,4.84,0,0,1,2.89,2.59l0,.13,0,.14v0s0,0,0,0l.06.15,0,.15A4.41,4.41,0,0,1,53,37.72a6.63,6.63,0,0,1-.74,2.18l2.5,1.36Zm-5.23-2.94,2-.73,1,.58a3.23,3.23,0,0,0,.25-1,4.32,4.32,0,0,0,0-1c0-.1,0-.21-.08-.32l-.09-.31a3.62,3.62,0,0,0-1.62-1.92,2.84,2.84,0,0,0-2.51-.21l-.31.12-.32.16-.15.09a.71.71,0,0,0-.14.1,2.85,2.85,0,0,0-1.12,1.67,3.82,3.82,0,0,0,0,2l0,.12,0,.12a3.71,3.71,0,0,0,1.21,1.68,2.82,2.82,0,0,0,2,.6.56.56,0,0,0,.18,0l.2,0a1.11,1.11,0,0,0,.25,0l.22-.07.26-.1a1.3,1.3,0,0,0,.26-.14l.17-.07.17-.1Z"/>
          <path class="cls-3" d="M64.48,27.32l2.35-.23L67.31,32l3.16-5.22,2.75-.28-3.47,5.27,4.67,5.43-2.83.28-4.26-5.25.56,5.62L65.55,38Z"/>
          <path class="cls-3" d="M91,33.68a4.2,4.2,0,0,1-.47.08h-.69a3.66,3.66,0,0,1-1.15-.32,2.87,2.87,0,0,1-1-.71,3.9,3.9,0,0,1-.58-1,3.16,3.16,0,0,1-.26-1.07.49.49,0,0,0,0-.17v-.32a3.77,3.77,0,0,1,.74-1.92A3.5,3.5,0,0,1,89.34,27a6.21,6.21,0,0,1,.62-.14c.22,0,.44-.06.66-.08a.74.74,0,0,0,.21,0h.29a4.23,4.23,0,0,1,2.09.67,2.93,2.93,0,0,1,1.29,1.76c0,.11.06.23.08.34s0,.23.07.34,0,.24,0,.36,0,.22,0,.34a1.64,1.64,0,0,1,0,.22,1.62,1.62,0,0,0,0,.21,6.5,6.5,0,0,1-.74,2.14,18.13,18.13,0,0,1-1.21,1.93l0,0,0,0-1.85,2.48-2.64-.1,3.31-4Zm1-4.43a1.62,1.62,0,0,0-1.13-.53h-.15l-.08,0a1.72,1.72,0,0,0-1,.48,1.43,1.43,0,0,0-.49,1,1.37,1.37,0,0,0,.47,1.14,1.89,1.89,0,0,0,1.1.46h.16A1.85,1.85,0,0,0,92,31.44a1.3,1.3,0,0,0,.54-1.07A1.45,1.45,0,0,0,92,29.25Z"/>
          <path class="cls-3" d="M115.71,33.49l2,1.18-1.61,9.58-1.92-1.16.33-2-3-1.84-1.56,1.3-1.8-1.1Zm-.86,6,.64-3.06c0-.14.09-.28.14-.44s.1-.29.16-.44l.06-.15a.88.88,0,0,1,.05-.15c-.15.17-.29.34-.44.5a4.72,4.72,0,0,1-.44.45l-2.38,2Z"/>
        </g>
        <g>
          <path class="cls-3" d="M41.76,29.65a6,6,0,0,0-3.41,3A5.78,5.78,0,0,0,38,36.91l.4,1.16L45.52,57.9l.89-.93-7-19.62-.2-.54a4.44,4.44,0,0,1-.16-.6,4.8,4.8,0,0,1,3.13-5.47l15.37-5.51.78-1.51Z"/>
          <path class="cls-3" d="M23.89,47.41a6,6,0,0,0-2.38,3.89,5.79,5.79,0,0,0,1.06,4.4L35.49,73.08l.68-1L23.5,55a4.77,4.77,0,0,1,1.08-6.66l11.91-8.85-.39-1.16Z"/>
          <path class="cls-3" d="M107.87,22.42l-18.18-.71h-.25a9.41,9.41,0,0,0-1.3.15,5.86,5.86,0,0,0-4.67,5.49l-.38,9.58h1.16l.38-9.55a4.74,4.74,0,0,1,4.11-4.46,5.51,5.51,0,0,1,.71-.06H90l17.87.7a4.82,4.82,0,0,1,4.4,3.3l1.23,0A6,6,0,0,0,107.87,22.42Z"/>
          <path class="cls-3" d="M131.27,39.7,115.7,30.29a6,6,0,0,0-2.1-.79,8.53,8.53,0,0,0-1.16-.09,5.81,5.81,0,0,0-4.91,2.8l-2.59,4.29,1.1.43,2.49-4.12a4.64,4.64,0,0,1,3.86-2.23h.17a4.77,4.77,0,0,1,1,.11,4.84,4.84,0,0,1,1.55.6l15.57,9.41a4.79,4.79,0,0,1,1.71,6.54L123,62.71l1,.65,9.39-15.53A6,6,0,0,0,131.27,39.7Z"/>
          <path class="cls-3" d="M84.26,18.76c-.21,0-.41,0-.62,0l-18.1,1.8a6,6,0,0,0-4,2.12,3.87,3.87,0,0,0-.35.45,10.71,10.71,0,0,0-.62,1.17A5.71,5.71,0,0,0,60.15,27l1.18,11.85,1.16,0L61.31,26.91a4.62,4.62,0,0,1,.47-2.53,4.8,4.8,0,0,1,.7-1,4.87,4.87,0,0,1,3.17-1.61l18.11-1.8a4,4,0,0,1,.49,0,4.89,4.89,0,0,1,2,.44l.93-.84A6,6,0,0,0,84.26,18.76Z"/>
        </g>
      </g>
      <g>
        <path class="cls-3" d="M42.05,95.18l0-3.62a45.45,45.45,0,0,0,2.37-8.47l-5.33.67v3.78c0,3.86-.12,7.32-.34,10.3l2.5-.32,0,.23a31.74,31.74,0,0,0,2.44,8.76,41,41,0,0,0,2.79-11.89ZM41,89V85.43l1-.13C41.74,86.58,41.39,87.81,41,89Zm2.7,11.38c-.2-.91-.37-1.87-.53-2.89l0-.23a1.28,1.28,0,0,0-.07-.28l1.28-.16C44.16,98.07,44,99.25,43.7,100.36Z"/>
        <path class="cls-3" d="M73.55,91.84l1.81-.23a1.22,1.22,0,0,0,.93-.36,2.69,2.69,0,0,0,.45-2v-3l-3.19.4Z"/>
        <polygon class="cls-3" points="66.35 92.74 69.54 92.34 69.54 87.19 66.35 87.59 66.35 92.74"/>
        <path class="cls-3" d="M142.65,86.07a1.89,1.89,0,0,0-1.49-.46L132,86.77v-7.5l7.49-.94a1.89,1.89,0,0,0,1.65-1.88V72A1.89,1.89,0,0,0,139,70.11L132,71V66.06a1.89,1.89,0,0,0-2.13-1.87l-4.74.59a1.9,1.9,0,0,0-1.66,1.88V67a1.85,1.85,0,0,0-1.13-.22l-4.4.56a1.9,1.9,0,0,0-1.65,1.74v.19c-.37,5.21-1.86,9.26-4.44,12l-.06.07a1.87,1.87,0,0,0-.51,1.28V87a1.89,1.89,0,0,0,3,1.54l.37-.27a20.93,20.93,0,0,0,6.81-7.66l2-.26v7.5l-10.66,1.34a1.87,1.87,0,0,0-.71.24,1.85,1.85,0,0,0-.74-.06l-9.21,1.16V83l7.49-.94a1.89,1.89,0,0,0,1.66-1.88V75.74a1.89,1.89,0,0,0-2.13-1.88l-7,.88V69.81a1.89,1.89,0,0,0-.64-1.42,2,2,0,0,0-1.49-.46l-4.74.6a1.89,1.89,0,0,0-1.66,1.88v.31a1.9,1.9,0,0,0-1.13-.21l-4.39.55a1.9,1.9,0,0,0-1.65,1.75l0,.19c-.35,4.89-1.69,8.74-4,11.49V81.72a1.88,1.88,0,0,0-.34-1.09,1.9,1.9,0,0,0,1.44-1.84v-4.1a1.87,1.87,0,0,0-.64-1.42,1.93,1.93,0,0,0-1.49-.46l-5.92.74V72.8a1.89,1.89,0,0,0-2.13-1.88l-4,.5a1.9,1.9,0,0,0-1.65,1.88v1.23l-6.27.79a1.77,1.77,0,0,0-.51.15.83.83,0,0,1,0-.15l-.06-.18a1.89,1.89,0,0,0-2-1.3l-4,.5a1.9,1.9,0,0,0-1.56,2.48l.09.27a44,44,0,0,1,1.86,8.42l0,.23a1.93,1.93,0,0,0,.61,1.17l-2.54.32a1.86,1.86,0,0,0-1.58,1.39,1.88,1.88,0,0,0-1.28-.31l-1.46.18a52.88,52.88,0,0,0,1.71-5.7,2.3,2.3,0,0,0,0-.45V78.27a1.89,1.89,0,0,0-2.13-1.88l-15.6,2a1.9,1.9,0,0,0-.81.31v-.24A1.89,1.89,0,0,0,31.46,77,1.93,1.93,0,0,0,30,76.54l-4,.51a1.89,1.89,0,0,0-1.66,1.87v4.5l-1.39.18a1.88,1.88,0,0,0-1.65,1.87v4.29a1.88,1.88,0,0,0,2.12,1.87l.58-.07a91.66,91.66,0,0,1-3.33,15,1.84,1.84,0,0,0-.09.57l0,6.56a1.89,1.89,0,0,0,3.6.82l.18-.38v7A1.9,1.9,0,0,0,26.2,123l.23,0,4-.5a1.83,1.83,0,0,0,.66-.21,1.17,1.17,0,0,0,.32.15,1.79,1.79,0,0,0,.51.07,1.89,1.89,0,0,0,1.62-.91l.43-.72.33-.54A1.86,1.86,0,0,0,35.37,122a1.89,1.89,0,0,0,2-.21l.38-.3A60.12,60.12,0,0,0,43.83,116a30.54,30.54,0,0,0,6.54,3.69l.32.14a1.88,1.88,0,0,0,1.78-.17,1.72,1.72,0,0,0,.44-.41,1.69,1.69,0,0,0,1.1-.07l.32-.13a11.43,11.43,0,0,0,4.5-3.1,7.32,7.32,0,0,0,5.48,1.19l17.89-2.25A1.88,1.88,0,0,0,83.86,113v-4.11a1.89,1.89,0,0,0-.44-1.2,2,2,0,0,0,.07-.5v-4.1a1.9,1.9,0,0,0-.94-1.64l-.12-.07a14.85,14.85,0,0,1-4.64-4.12,5.31,5.31,0,0,0,3.47-2.56s0,.06,0,.08v4.47a1.91,1.91,0,0,0,2.13,1.88l10.19-1.28v12.54a1.93,1.93,0,0,0,.64,1.42,2,2,0,0,0,1.26.47h.23l4.74-.6a1.89,1.89,0,0,0,1.66-1.88v-13l9.69-1.22a1.88,1.88,0,0,0,.7-.24,1.85,1.85,0,0,0,.74.06l10.19-1.28v12.54a1.89,1.89,0,0,0,.64,1.42,1.87,1.87,0,0,0,1.25.47h.24l4.74-.6a1.88,1.88,0,0,0,1.66-1.87v-13l9.68-1.22A1.89,1.89,0,0,0,143.29,92V87.49A1.89,1.89,0,0,0,142.65,86.07ZM62.15,99.15a1.88,1.88,0,0,0,.67,0l1.9-.23a26.8,26.8,0,0,1-2.57,3.42ZM55,76.49,55,76.22l4-.5.06.18c.25.78.48,1.57.7,2.37.42,1.53.77,3.1,1.07,4.71a2.93,2.93,0,0,1,.05.29c.09.49.19,1,.27,1.47l0,.25L60.7,85,57,85.5l0-.23A46.28,46.28,0,0,0,55,76.49ZM30.21,100.26V120.6l-4,.51v-17a53.77,53.77,0,0,1-3.33,8.65l-.45.94V107.1a96.35,96.35,0,0,0,3.73-17.72l-3,.38V85.47l3.05-.38V78.92l4-.5v6.17l2.8-.36v4.29l-2.65.33a50.3,50.3,0,0,0,3,11.11l0,.09v6.5l-.44-.76A44.18,44.18,0,0,1,30.21,100.26Zm2.95-7.09c-.22-.89-.43-1.79-.6-2.69l.64-.08C33.19,91.36,33.18,92.28,33.16,93.17Zm18.27,24.92L51.1,118a26.36,26.36,0,0,1-7.45-4.55A52.81,52.81,0,0,1,36.58,120l-.38.3v-4.41l.1-.07a21.21,21.21,0,0,0,5.1-5.19,30.4,30.4,0,0,1-3-8,43.61,43.61,0,0,1-6,17.26l-.27.44-.17.28v-5.46c.06-.16.1-.32.16-.48a51.66,51.66,0,0,0,1.71-6.27c.28-1.41.53-2.81.68-4.21s.3-3.34.4-5.53c.14-3.07.21-6.8.21-11.21V84.27l-.2,0-1.75.22V80.23l15.6-2v4.07a42.37,42.37,0,0,1-2.89,8.44l4.72-.59V93.9c-.81,7.06-2.35,12.49-4.59,16.17a10.27,10.27,0,0,0,5.28,3.81l.16.05h0v4.16ZM38.3,111.46c.19-.57.36-1.14.53-1.72.11.24.22.47.34.7C38.9,110.78,38.61,111.13,38.3,111.46Zm14,.66-.09.07h0l-.12-.06-.16,0a8.79,8.79,0,0,1-3.6-2.22c1.94-3.69,3.3-8.71,4.08-15a1.84,1.84,0,0,0,1.33.34l.43-.05v12.52A5,5,0,0,1,52.26,112.12ZM82,109.06v4l-17.9,2.24c-2.52.32-4.34-.46-5.4-2.32a9.74,9.74,0,0,1-5,4.35l-.32.13v-3.73l.09-.07A6.8,6.8,0,0,0,56,107.68V93.07l-2.56.32V89.1l6.82-.85v17.49c0,2.24.53,3.8,1.46,4.63A2.87,2.87,0,0,0,63,111a4.33,4.33,0,0,0,1.37.09l3.66-.46,7.23-.91L81.1,109l.87-.11Zm-14.32-.25-1.92.24c.67-.55,1.32-1.12,1.92-1.71Zm7.79-1v-1.69a18.57,18.57,0,0,0,2.27,1.4ZM80.5,81.72v7.52c.08,4-1.22,6.11-3.88,6.31l-1.86.24A16,16,0,0,0,81.48,103l.12.07v4.1l-.32-.12a16.16,16.16,0,0,1-7.73-5.48V109l-4,.5v-7.42a25.4,25.4,0,0,1-7.69,7.45l-.36.24v-4l.07-.07a27.25,27.25,0,0,0,6.5-9.09l-5.47.69V84l7-.87V80.3l-7.93,1V77.2l7.93-1V73.3l4-.5v2.9l8-1v4.1l-8,1v2.79Zm2.41,11.21a1.81,1.81,0,0,0-1.07.52,11.57,11.57,0,0,0,.32-1.2,1.6,1.6,0,0,0,.25.18,1.9,1.9,0,0,0,2-.15l.38-.27a20.92,20.92,0,0,0,6.8-7.67l2-.25v7.5Zm17.3,4.2v14.68l-4.74.6V97.72L83.15,99.27V94.8l12.32-1.54V82l-5.21.65a18.37,18.37,0,0,1-6.62,7.87l-.37.27V86.38l.06-.07c2.88-3.09,4.54-7.52,4.94-13.18v-.19l4.4-.55,0,.3A38.32,38.32,0,0,1,91.75,78l3.72-.47V70.41l4.74-.6v7.07l9.14-1.14V80.2l-9.14,1.15V92.66l10.89-1.37.45-.05V95.7l-.42.06ZM141.4,92l-11.35,1.43v14.69l-4.74.59V94L113,95.52V91.05l12.32-1.54V78.2l-5.2.65a18.52,18.52,0,0,1-6.62,7.88l-.37.26V82.63l.06-.07c2.87-3.09,4.53-7.52,4.94-13.17v-.2l4.39-.55,0,.3a39.92,39.92,0,0,1-.89,5.26l3.71-.47V66.66l4.74-.6v7.08L139.2,72v4.46l-9.15,1.15V88.91l11.35-1.42Z"/>
      </g>
    </g>
  </g>
</svg>
