<svg id="Layer_1" data-name="Layer 1" xmlns="http://www.w3.org/2000/svg" xmlns:xlink="http://www.w3.org/1999/xlink" viewBox="0 0 156 156">
  <defs>
    <style>
      .cls-1 {
        fill: none;
      }

      .cls-2 {
        clip-path: url(#clip-path);
      }

      .cls-3 {
        fill: #386db6;
      }

      .cls-4 {
        fill: #fff;
      }
    </style>
    <clipPath id="clip-path">
      <rect class="cls-1" width="156" height="156"/>
    </clipPath>
  </defs>
  <title>A_22 极速牛牛_简约_w</title>
  <g class="cls-2">
    <g class="cls-2">
      <path class="cls-3" d="M78,2.4A75.6,75.6,0,1,1,2.4,78,75.68,75.68,0,0,1,78,2.4M78,0a78,78,0,1,0,78,78A78,78,0,0,0,78,0"/>
    </g>
  </g>
  <g>
    <g>
      <g>
        <path class="cls-4" d="M70.66,135.25l-4.82-2.6-4.16,3.56,1-5.38L58,128l5.44-.72,1.26-5.32,2.37,4.93,5.47-.44-4,3.77Z"/>
        <path class="cls-4" d="M86.08,133.57,81.26,131l-4.16,3.56,1-5.38L73.4,126.3l5.44-.72,1.26-5.32,2.37,4.94,5.47-.45-4,3.77Z"/>
        <path class="cls-4" d="M101.66,131.8l-4.82-2.6-4.16,3.56,1-5.38L89,124.53l5.43-.72,1.27-5.32,2.37,4.94,5.46-.44-4,3.76Z"/>
      </g>
      <g>
        <g>
          <path class="cls-4" d="M35.14,54.58l.06.08.06.08a6.17,6.17,0,0,1,1,2.13,2.17,2.17,0,0,1-1,2.19.32.32,0,0,0-.09.08l-.11.08-.1.09-.09.08a2.75,2.75,0,0,1-1.75.61,2.68,2.68,0,0,1-1.69-.77l.88-1.64.1.09.1.09a1.82,1.82,0,0,0,.54.27.56.56,0,0,0,.53-.09l0-.05.06-.06,0-.06.05-.07a.56.56,0,0,0,.13-.53,2.12,2.12,0,0,0-.25-.5l-.25-.38-.25-.36L33,55.58l-.27-.36-3.77-5.07,1.9-1.41Z"/>
          <path class="cls-4" d="M52.68,42l-1.49-.79q-.49.3-1,.57a6.85,6.85,0,0,1-1,.43,5.79,5.79,0,0,1-.63.19,4.83,4.83,0,0,1-.7.13,5.44,5.44,0,0,1-2.46-.27,4.9,4.9,0,0,1-2.06-1.33c-.1-.11-.2-.23-.29-.35a3.47,3.47,0,0,1-.26-.37,2.8,2.8,0,0,1-.3-.49,5.23,5.23,0,0,1-.22-.51,5.07,5.07,0,0,1,0-3.31,5.31,5.31,0,0,1,2-2.81,1.88,1.88,0,0,1,.23-.16l.23-.14c.16-.1.33-.19.49-.27l.49-.2a5.68,5.68,0,0,1,3.92,0,4.84,4.84,0,0,1,2.89,2.59l0,.13.05.14v0s0,0,0,0l.06.15.05.15A4.42,4.42,0,0,1,53,37.72a6.66,6.66,0,0,1-.75,2.18l2.5,1.36Zm-5.23-2.94,2-.73,1,.58a3.25,3.25,0,0,0,.26-1,4.92,4.92,0,0,0,0-1c0-.1-.05-.21-.08-.32l-.09-.31a3.62,3.62,0,0,0-1.62-1.92,2.84,2.84,0,0,0-2.51-.21l-.31.12-.31.16-.15.09a.56.56,0,0,0-.15.1,2.85,2.85,0,0,0-1.12,1.67,3.82,3.82,0,0,0,0,2l0,.12,0,.12a3.79,3.79,0,0,0,1.21,1.68,2.84,2.84,0,0,0,2,.6.55.55,0,0,0,.18,0l.2,0a1,1,0,0,0,.25,0l.22-.07.26-.1a1.3,1.3,0,0,0,.26-.14l.18-.07.16-.1Z"/>
          <path class="cls-4" d="M64.45,27.32l2.35-.23L67.28,32l3.16-5.22,2.75-.28-3.47,5.27,4.67,5.43-2.83.28-4.25-5.25.56,5.62L65.52,38Z"/>
          <path class="cls-4" d="M91,33.68a3.85,3.85,0,0,1-.47.08h-.69a3.66,3.66,0,0,1-1.15-.32,2.73,2.73,0,0,1-1-.71,3.65,3.65,0,0,1-.59-1,3.15,3.15,0,0,1-.25-1.07,1,1,0,0,0,0-.17v-.32a3.77,3.77,0,0,1,.74-1.92A3.54,3.54,0,0,1,89.31,27a5.82,5.82,0,0,1,.63-.14c.21,0,.43-.06.65-.08a.81.81,0,0,0,.22,0h.28a4.3,4.3,0,0,1,2.1.67,3,3,0,0,1,1.28,1.76c0,.11.06.23.08.34s0,.23.07.34,0,.24,0,.36a1.93,1.93,0,0,1,0,.34,1.64,1.64,0,0,1,0,.22c0,.08,0,.15,0,.21a6.5,6.5,0,0,1-.74,2.14,18.13,18.13,0,0,1-1.21,1.93l0,0s0,0,0,0l-1.85,2.48-2.63-.1,3.3-4A3.62,3.62,0,0,1,91,33.68Zm1-4.43a1.62,1.62,0,0,0-1.13-.53h-.15l-.08,0a1.67,1.67,0,0,0-1,.48,1.36,1.36,0,0,0-.49,1,1.33,1.33,0,0,0,.46,1.14,1.89,1.89,0,0,0,1.11.46h.15a1.93,1.93,0,0,0,1.08-.37,1.3,1.3,0,0,0,.54-1.07A1.45,1.45,0,0,0,92,29.25Z"/>
          <path class="cls-4" d="M115.68,33.49l1.95,1.18L116,44.25l-1.92-1.16.33-2-3.05-1.84-1.55,1.29L108,39.41Zm-.86,6,.64-3.06c0-.14.09-.28.14-.44s.1-.29.16-.44l.06-.15s0-.1.05-.15c-.15.17-.29.34-.44.5a3.76,3.76,0,0,1-.44.45l-2.37,2Z"/>
        </g>
        <g>
          <path class="cls-4" d="M41.73,29.65a6,6,0,0,0-3.41,3A5.73,5.73,0,0,0,38,36.91l.39,1.16L45.49,57.9l.9-.93-7-19.62-.19-.54a3.38,3.38,0,0,1-.17-.6,4.8,4.8,0,0,1,3.13-5.47l15.37-5.51.79-1.51Z"/>
          <path class="cls-4" d="M23.86,47.41a6,6,0,0,0-2.38,3.89,5.84,5.84,0,0,0,1.06,4.4L35.46,73.08l.68-1L23.48,55a4.76,4.76,0,0,1,1.07-6.66l11.91-8.85-.39-1.16Z"/>
          <path class="cls-4" d="M107.84,22.42l-18.18-.71h-.25a9.41,9.41,0,0,0-1.3.15,5.87,5.87,0,0,0-4.67,5.49l-.38,9.58h1.16l.38-9.55a4.74,4.74,0,0,1,4.11-4.46,5.51,5.51,0,0,1,.71-.06h.51l17.87.7a4.85,4.85,0,0,1,4.41,3.3l1.23,0A6,6,0,0,0,107.84,22.42Z"/>
          <path class="cls-4" d="M131.24,39.7l-15.57-9.41a6,6,0,0,0-2.1-.79,8.53,8.53,0,0,0-1.16-.09,5.81,5.81,0,0,0-4.91,2.8l-2.59,4.29,1.1.43,2.49-4.12a4.64,4.64,0,0,1,3.86-2.23h.17a4.77,4.77,0,0,1,1,.11,4.84,4.84,0,0,1,1.55.6l15.57,9.41a4.79,4.79,0,0,1,1.71,6.54L123,62.71l1,.65,9.39-15.53A5.94,5.94,0,0,0,131.24,39.7Z"/>
          <path class="cls-4" d="M84.23,18.76c-.21,0-.41,0-.62,0l-18.1,1.8a6,6,0,0,0-4,2.12,3.79,3.79,0,0,0-.34.45,9.25,9.25,0,0,0-.63,1.17A5.84,5.84,0,0,0,60.12,27L61.3,38.87l1.16,0L61.28,26.91a4.62,4.62,0,0,1,.47-2.53,4.8,4.8,0,0,1,.7-1,4.92,4.92,0,0,1,3.18-1.61l18.1-1.8a4.18,4.18,0,0,1,.5,0,4.84,4.84,0,0,1,2,.44l.93-.84A6,6,0,0,0,84.23,18.76Z"/>
        </g>
      </g>
      <g>
        <path class="cls-4" d="M65.53,63.38l.59-8.5L54.2,56.25l-.85,12.18,8.22-1C64.18,67.26,65.51,65.88,65.53,63.38Zm-8.37,2.07L57.33,63,62,62.49l-.08,1.13a1.27,1.27,0,0,1-1.41,1.44Zm5.15-7.59-.15,2.19-4.66.53.15-2.18Z"/>
        <path class="cls-4" d="M66.16,67.05l-1.84.21-.2,2.8,3.08-.36c2.85-.25,4.34-1.68,4.44-4.26l1.09-15.69L55,51.8l-.19,2.8L68.56,53l-.87,12.48A1.4,1.4,0,0,1,66.16,67.05Z"/>
        <polygon class="cls-4" points="46.94 72.27 50.92 71.81 52.05 55.7 48.07 56.16 46.94 72.27"/>
        <path class="cls-4" d="M59.68,48.75l-.1.07-.16,2.33.34-.12a13.06,13.06,0,0,0,5.76-3.88L66.86,47a8.69,8.69,0,0,1,.43,2.56v.26l3.62-.42v-.22a8.27,8.27,0,0,0-.63-2.58l4-.46.18-2.56-7.37.85L67.64,43l-4,.47-.05.15A9.36,9.36,0,0,1,59.68,48.75Z"/>
        <path class="cls-4" d="M49.07,51.57l0,.08a10.6,10.6,0,0,1,1.2,3.91l0,.24,3.88-.45,0-.25A11.14,11.14,0,0,0,52.67,51l-.08-.11-2.92.33a10,10,0,0,0,3.24-2.65l.88-.1a9.4,9.4,0,0,1,.43,2.56v.26L58,50.89l0-.24a12.68,12.68,0,0,0-.63-2.55L61,47.68l.17-2.45L54.5,46l.22-.5a4.75,4.75,0,0,1,.27-.68l.22-.4-4.11.47-.05.15a8.82,8.82,0,0,1-4,4.93L47,50l-.17,2.45.34-.12A17.68,17.68,0,0,0,49.07,51.57Z"/>
        <path class="cls-4" d="M90.1,47.61l-.18,2.61.37-.2a14.54,14.54,0,0,0,5.31-4.39l5.8-.67-1.12,16a1.81,1.81,0,0,1-1.79,1.85l-2.88.33L95.42,66l4.37-.51c2.92-.34,4.45-1.86,4.56-4.51l1.36-19.51-8.49,1A9.47,9.47,0,0,0,98,39.78l0-.3-4.1.47,0,.18a11.84,11.84,0,0,1-3.69,7.42Z"/>
        <path class="cls-4" d="M83.28,52.49A27.93,27.93,0,0,1,79,57.57l-.07.06-.2,2.93.28,0a69.72,69.72,0,0,0,9.65-1.69l.16,0,.21-2.94-.32.09A38.46,38.46,0,0,1,83.27,57a28.7,28.7,0,0,0,7-10.92l.13-.36-3.91.45-.05.14a22,22,0,0,1-1.3,2.89l-.14,0h0c-.9.21-1.67.37-2.29.47a32.85,32.85,0,0,0,5-8.71l.15-.37-4.29.5,0,.15a26.47,26.47,0,0,1-4.76,9l0,.06-.2,2.79.29,0C80.93,52.84,82.38,52.65,83.28,52.49Z"/>
        <path class="cls-4" d="M97.51,57.56a43.4,43.4,0,0,0-2.25-7.71l-.07-.17-3.39.39.09.28A26,26,0,0,1,93.42,58v.26l4.13-.48Z"/>
        <path class="cls-4" d="M89.18,63.83l.15,0L89.52,61l-.33.12a44.91,44.91,0,0,1-11.11,2.31h-.2l-.21,2.92.29,0A53.62,53.62,0,0,0,89.18,63.83Z"/>
        <path class="cls-4" d="M46,111c2.24-3.68,3.78-9.11,4.59-16.17V91.09l-4.71.6a43,43,0,0,0,2.88-8.44V79.17l-15.6,2v4.29l2-.25v3.18a162.41,162.41,0,0,1-.61,16.73,48.68,48.68,0,0,1-2.55,11v5.46l.44-.72a43.66,43.66,0,0,0,6-17.26,30.19,30.19,0,0,0,3,8,20.86,20.86,0,0,1-5.1,5.19l-.1.07v4.42l.38-.3a52.87,52.87,0,0,0,7.07-6.56,26.5,26.5,0,0,0,7.45,4.55l.33.14v-4.15l-.16-.06A10.29,10.29,0,0,1,46,111ZM39.07,88.45V84.67L44.4,84A45.45,45.45,0,0,1,42,92.47l0,3.62,4.49-.57a41.2,41.2,0,0,1-2.79,11.89,31,31,0,0,1-2.44-8.75l0-.23-2.5.31C39,95.76,39.07,92.3,39.07,88.45Z"/>
        <path class="cls-4" d="M33.34,107.46V101l0-.09a50.44,50.44,0,0,1-3-11.11L33,89.42V85.14l-2.8.35V79.33l-4,.5V86l-3.05.39v4.28l3-.38A96.35,96.35,0,0,1,22.39,108v6.56l.45-.94A54.22,54.22,0,0,0,26.16,105V122l4-.5V101.16a45.71,45.71,0,0,0,2.73,5.54Z"/>
        <path class="cls-4" d="M58.93,76.62l-4,.51.09.27a45.93,45.93,0,0,1,1.94,8.78l0,.23,4.14-.52,0-.24A60.39,60.39,0,0,0,59,76.81Z"/>
        <path class="cls-4" d="M61.69,111.28c-.93-.84-1.43-2.4-1.47-4.63V89.15L53.4,90v4.28L56,94v14.61a6.81,6.81,0,0,1-2.59,6l-.09.07v3.72l.32-.12a9.81,9.81,0,0,0,5-4.35c1,1.86,2.87,2.63,5.4,2.32l17.89-2.25v-4.1L64.35,112A3.4,3.4,0,0,1,61.69,111.28Z"/>
        <path class="cls-4" d="M81.56,79.7V75.59l-8,1V73.7l-4,.51v2.9l-7.93,1v4.11l7.93-1V84l-7,.87V98.22L68,97.54a27.18,27.18,0,0,1-6.49,9.08l-.08.07v4l.37-.23A25.59,25.59,0,0,0,69.5,103v7.42l4-.51v-7.39A16.11,16.11,0,0,0,81.24,108l.32.12V104l-.12-.07a15.92,15.92,0,0,1-6.72-7.25l1.87-.23c2.65-.21,4-2.33,3.87-6.32V82.62l-6.95.87V80.71ZM69.5,88.1v5.15l-3.18.4V88.5Zm7.2,2.1a2.71,2.71,0,0,1-.45,2,1.22,1.22,0,0,1-.93.36l-1.81.22V87.6l3.19-.4Z"/>
        <path class="cls-4" d="M100.17,82.26l9.15-1.15V76.64l-9.15,1.15V70.72l-4.74.59v7.07l-3.72.47a39.48,39.48,0,0,0,.9-5.26l0-.3-4.39.56,0,.19c-.4,5.65-2.06,10.09-4.94,13.18l-.06.07v4.36l.37-.27a18.27,18.27,0,0,0,6.62-7.88l5.21-.65V94.16L83.11,95.71v4.46l12.32-1.54v14.68l4.74-.59V98l11.34-1.42V92.14l-11.34,1.43Z"/>
        <path class="cls-4" d="M130,89.82V78.51l9.14-1.15V72.89L130,74V67l-4.75.59v7.08l-3.71.46a38.06,38.06,0,0,0,.89-5.26l0-.29-4.4.55v.19c-.4,5.66-2.06,10.09-4.94,13.18l-.06.07V87.9l.37-.27a18.37,18.37,0,0,0,6.62-7.87l5.2-.66V90.41L113,92v4.47l12.31-1.55v14.69L130,109V94.28l11.34-1.42V88.39Z"/>
      </g>
    </g>
    <g>
      <g>
        <path class="cls-3" d="M70.66,135.25l-4.82-2.6-4.16,3.56,1-5.38L58,128l5.44-.72,1.26-5.32,2.37,4.93,5.47-.44-4,3.77Z"/>
        <path class="cls-3" d="M86.08,133.57,81.26,131l-4.16,3.56,1-5.38L73.4,126.3l5.44-.72,1.26-5.32,2.37,4.94,5.47-.45-4,3.77Z"/>
        <path class="cls-3" d="M101.66,131.8l-4.82-2.6-4.16,3.56,1-5.38L89,124.53l5.43-.72,1.27-5.32,2.37,4.94,5.46-.44-4,3.76Z"/>
      </g>
      <g>
        <g>
          <path class="cls-3" d="M35.14,54.58l.06.08.06.08a6.17,6.17,0,0,1,1,2.13,2.17,2.17,0,0,1-1,2.19.32.32,0,0,0-.09.08l-.11.08-.1.09-.09.08a2.75,2.75,0,0,1-1.75.61,2.68,2.68,0,0,1-1.69-.77l.88-1.64.1.09.1.09a1.82,1.82,0,0,0,.54.27.56.56,0,0,0,.53-.09l0-.05.06-.06,0-.06.05-.07a.56.56,0,0,0,.13-.53,2.12,2.12,0,0,0-.25-.5l-.25-.38-.25-.36L33,55.58l-.27-.36-3.77-5.07,1.9-1.41Z"/>
          <path class="cls-3" d="M52.68,42l-1.49-.79q-.49.3-1,.57a6.85,6.85,0,0,1-1,.43,5.79,5.79,0,0,1-.63.19,4.83,4.83,0,0,1-.7.13,5.44,5.44,0,0,1-2.46-.27,4.9,4.9,0,0,1-2.06-1.33c-.1-.11-.2-.23-.29-.35a3.47,3.47,0,0,1-.26-.37,2.8,2.8,0,0,1-.3-.49,5.23,5.23,0,0,1-.22-.51,5.07,5.07,0,0,1,0-3.31,5.31,5.31,0,0,1,2-2.81,1.88,1.88,0,0,1,.23-.16l.23-.14c.16-.1.33-.19.49-.27l.49-.2a5.68,5.68,0,0,1,3.92,0,4.84,4.84,0,0,1,2.89,2.59l0,.13.05.14v0s0,0,0,0l.06.15.05.15A4.42,4.42,0,0,1,53,37.72a6.66,6.66,0,0,1-.75,2.18l2.5,1.36Zm-5.23-2.94,2-.73,1,.58a3.25,3.25,0,0,0,.26-1,4.92,4.92,0,0,0,0-1c0-.1-.05-.21-.08-.32l-.09-.31a3.62,3.62,0,0,0-1.62-1.92,2.84,2.84,0,0,0-2.51-.21l-.31.12-.31.16-.15.09a.56.56,0,0,0-.15.1,2.85,2.85,0,0,0-1.12,1.67,3.82,3.82,0,0,0,0,2l0,.12,0,.12a3.79,3.79,0,0,0,1.21,1.68,2.84,2.84,0,0,0,2,.6.55.55,0,0,0,.18,0l.2,0a1,1,0,0,0,.25,0l.22-.07.26-.1a1.3,1.3,0,0,0,.26-.14l.18-.07.16-.1Z"/>
          <path class="cls-3" d="M64.45,27.32l2.35-.23L67.28,32l3.16-5.22,2.75-.28-3.47,5.27,4.67,5.43-2.83.28-4.25-5.25.56,5.62L65.52,38Z"/>
          <path class="cls-3" d="M91,33.68a3.85,3.85,0,0,1-.47.08h-.69a3.66,3.66,0,0,1-1.15-.32,2.73,2.73,0,0,1-1-.71,3.65,3.65,0,0,1-.59-1,3.15,3.15,0,0,1-.25-1.07,1,1,0,0,0,0-.17v-.32a3.77,3.77,0,0,1,.74-1.92A3.54,3.54,0,0,1,89.31,27a5.82,5.82,0,0,1,.63-.14c.21,0,.43-.06.65-.08a.81.81,0,0,0,.22,0h.28a4.3,4.3,0,0,1,2.1.67,3,3,0,0,1,1.28,1.76c0,.11.06.23.08.34s0,.23.07.34,0,.24,0,.36a1.93,1.93,0,0,1,0,.34,1.64,1.64,0,0,1,0,.22c0,.08,0,.15,0,.21a6.5,6.5,0,0,1-.74,2.14,18.13,18.13,0,0,1-1.21,1.93l0,0s0,0,0,0l-1.85,2.48-2.63-.1,3.3-4A3.62,3.62,0,0,1,91,33.68Zm1-4.43a1.62,1.62,0,0,0-1.13-.53h-.15l-.08,0a1.67,1.67,0,0,0-1,.48,1.36,1.36,0,0,0-.49,1,1.33,1.33,0,0,0,.46,1.14,1.89,1.89,0,0,0,1.11.46h.15a1.93,1.93,0,0,0,1.08-.37,1.3,1.3,0,0,0,.54-1.07A1.45,1.45,0,0,0,92,29.25Z"/>
          <path class="cls-3" d="M115.68,33.49l1.95,1.18L116,44.25l-1.92-1.16.33-2-3.05-1.84-1.55,1.29L108,39.41Zm-.86,6,.64-3.06c0-.14.09-.28.14-.44s.1-.29.16-.44l.06-.15s0-.1.05-.15c-.15.17-.29.34-.44.5a3.76,3.76,0,0,1-.44.45l-2.37,2Z"/>
        </g>
        <g>
          <path class="cls-3" d="M41.73,29.65a6,6,0,0,0-3.41,3A5.73,5.73,0,0,0,38,36.91l.39,1.16L45.49,57.9l.9-.93-7-19.62-.19-.54a3.38,3.38,0,0,1-.17-.6,4.8,4.8,0,0,1,3.13-5.47l15.37-5.51.79-1.51Z"/>
          <path class="cls-3" d="M23.86,47.41a6,6,0,0,0-2.38,3.89,5.84,5.84,0,0,0,1.06,4.4L35.46,73.08l.68-1L23.48,55a4.76,4.76,0,0,1,1.07-6.66l11.91-8.85-.39-1.16Z"/>
          <path class="cls-3" d="M107.84,22.42l-18.18-.71h-.25a9.41,9.41,0,0,0-1.3.15,5.87,5.87,0,0,0-4.67,5.49l-.38,9.58h1.16l.38-9.55a4.74,4.74,0,0,1,4.11-4.46,5.51,5.51,0,0,1,.71-.06h.51l17.87.7a4.85,4.85,0,0,1,4.41,3.3l1.23,0A6,6,0,0,0,107.84,22.42Z"/>
          <path class="cls-3" d="M131.24,39.7l-15.57-9.41a6,6,0,0,0-2.1-.79,8.53,8.53,0,0,0-1.16-.09,5.81,5.81,0,0,0-4.91,2.8l-2.59,4.29,1.1.43,2.49-4.12a4.64,4.64,0,0,1,3.86-2.23h.17a4.77,4.77,0,0,1,1,.11,4.84,4.84,0,0,1,1.55.6l15.57,9.41a4.79,4.79,0,0,1,1.71,6.54L123,62.71l1,.65,9.39-15.53A5.94,5.94,0,0,0,131.24,39.7Z"/>
          <path class="cls-3" d="M84.23,18.76c-.21,0-.41,0-.62,0l-18.1,1.8a6,6,0,0,0-4,2.12,3.79,3.79,0,0,0-.34.45,9.25,9.25,0,0,0-.63,1.17A5.84,5.84,0,0,0,60.12,27L61.3,38.87l1.16,0L61.28,26.91a4.62,4.62,0,0,1,.47-2.53,4.8,4.8,0,0,1,.7-1,4.92,4.92,0,0,1,3.18-1.61l18.1-1.8a4.18,4.18,0,0,1,.5,0,4.84,4.84,0,0,1,2,.44l.93-.84A6,6,0,0,0,84.23,18.76Z"/>
        </g>
      </g>
      <g>
        <path class="cls-3" d="M65.53,63.38l.59-8.5L54.2,56.25l-.85,12.18,8.22-1C64.18,67.26,65.51,65.88,65.53,63.38Zm-8.37,2.07L57.33,63,62,62.49l-.08,1.13a1.27,1.27,0,0,1-1.41,1.44Zm5.15-7.59-.15,2.19-4.66.53.15-2.18Z"/>
        <path class="cls-3" d="M66.16,67.05l-1.84.21-.2,2.8,3.08-.36c2.85-.25,4.34-1.68,4.44-4.26l1.09-15.69L55,51.8l-.19,2.8L68.56,53l-.87,12.48A1.4,1.4,0,0,1,66.16,67.05Z"/>
        <polygon class="cls-3" points="46.94 72.27 50.92 71.81 52.05 55.7 48.07 56.16 46.94 72.27"/>
        <path class="cls-3" d="M59.68,48.75l-.1.07-.16,2.33.34-.12a13.06,13.06,0,0,0,5.76-3.88L66.86,47a8.69,8.69,0,0,1,.43,2.56v.26l3.62-.42v-.22a8.27,8.27,0,0,0-.63-2.58l4-.46.18-2.56-7.37.85L67.64,43l-4,.47-.05.15A9.36,9.36,0,0,1,59.68,48.75Z"/>
        <path class="cls-3" d="M49.07,51.57l0,.08a10.6,10.6,0,0,1,1.2,3.91l0,.24,3.88-.45,0-.25A11.14,11.14,0,0,0,52.67,51l-.08-.11-2.92.33a10,10,0,0,0,3.24-2.65l.88-.1a9.4,9.4,0,0,1,.43,2.56v.26L58,50.89l0-.24a12.68,12.68,0,0,0-.63-2.55L61,47.68l.17-2.45L54.5,46l.22-.5a4.75,4.75,0,0,1,.27-.68l.22-.4-4.11.47-.05.15a8.82,8.82,0,0,1-4,4.93L47,50l-.17,2.45.34-.12A17.68,17.68,0,0,0,49.07,51.57Z"/>
        <path class="cls-3" d="M90.1,47.61l-.18,2.61.37-.2a14.54,14.54,0,0,0,5.31-4.39l5.8-.67-1.12,16a1.81,1.81,0,0,1-1.79,1.85l-2.88.33L95.42,66l4.37-.51c2.92-.34,4.45-1.86,4.56-4.51l1.36-19.51-8.49,1A9.47,9.47,0,0,0,98,39.78l0-.3-4.1.47,0,.18a11.84,11.84,0,0,1-3.69,7.42Z"/>
        <path class="cls-3" d="M83.28,52.49A27.93,27.93,0,0,1,79,57.57l-.07.06-.2,2.93.28,0a69.72,69.72,0,0,0,9.65-1.69l.16,0,.21-2.94-.32.09A38.46,38.46,0,0,1,83.27,57a28.7,28.7,0,0,0,7-10.92l.13-.36-3.91.45-.05.14a22,22,0,0,1-1.3,2.89l-.14,0h0c-.9.21-1.67.37-2.29.47a32.85,32.85,0,0,0,5-8.71l.15-.37-4.29.5,0,.15a26.47,26.47,0,0,1-4.76,9l0,.06-.2,2.79.29,0C80.93,52.84,82.38,52.65,83.28,52.49Z"/>
        <path class="cls-3" d="M97.51,57.56a43.4,43.4,0,0,0-2.25-7.71l-.07-.17-3.39.39.09.28A26,26,0,0,1,93.42,58v.26l4.13-.48Z"/>
        <path class="cls-3" d="M89.18,63.83l.15,0L89.52,61l-.33.12a44.91,44.91,0,0,1-11.11,2.31h-.2l-.21,2.92.29,0A53.62,53.62,0,0,0,89.18,63.83Z"/>
        <path class="cls-3" d="M46,111c2.24-3.68,3.78-9.11,4.59-16.17V91.09l-4.71.6a43,43,0,0,0,2.88-8.44V79.17l-15.6,2v4.29l2-.25v3.18a162.41,162.41,0,0,1-.61,16.73,48.68,48.68,0,0,1-2.55,11v5.46l.44-.72a43.66,43.66,0,0,0,6-17.26,30.19,30.19,0,0,0,3,8,20.86,20.86,0,0,1-5.1,5.19l-.1.07v4.42l.38-.3a52.87,52.87,0,0,0,7.07-6.56,26.5,26.5,0,0,0,7.45,4.55l.33.14v-4.15l-.16-.06A10.29,10.29,0,0,1,46,111ZM39.07,88.45V84.67L44.4,84A45.45,45.45,0,0,1,42,92.47l0,3.62,4.49-.57a41.2,41.2,0,0,1-2.79,11.89,31,31,0,0,1-2.44-8.75l0-.23-2.5.31C39,95.76,39.07,92.3,39.07,88.45Z"/>
        <path class="cls-3" d="M33.34,107.46V101l0-.09a50.44,50.44,0,0,1-3-11.11L33,89.42V85.14l-2.8.35V79.33l-4,.5V86l-3.05.39v4.28l3-.38A96.35,96.35,0,0,1,22.39,108v6.56l.45-.94A54.22,54.22,0,0,0,26.16,105V122l4-.5V101.16a45.71,45.71,0,0,0,2.73,5.54Z"/>
        <path class="cls-3" d="M58.93,76.62l-4,.51.09.27a45.93,45.93,0,0,1,1.94,8.78l0,.23,4.14-.52,0-.24A60.39,60.39,0,0,0,59,76.81Z"/>
        <path class="cls-3" d="M61.69,111.28c-.93-.84-1.43-2.4-1.47-4.63V89.15L53.4,90v4.28L56,94v14.61a6.81,6.81,0,0,1-2.59,6l-.09.07v3.72l.32-.12a9.81,9.81,0,0,0,5-4.35c1,1.86,2.87,2.63,5.4,2.32l17.89-2.25v-4.1L64.35,112A3.4,3.4,0,0,1,61.69,111.28Z"/>
        <path class="cls-3" d="M81.56,79.7V75.59l-8,1V73.7l-4,.51v2.9l-7.93,1v4.11l7.93-1V84l-7,.87V98.22L68,97.54a27.18,27.18,0,0,1-6.49,9.08l-.08.07v4l.37-.23A25.59,25.59,0,0,0,69.5,103v7.42l4-.51v-7.39A16.11,16.11,0,0,0,81.24,108l.32.12V104l-.12-.07a15.92,15.92,0,0,1-6.72-7.25l1.87-.23c2.65-.21,4-2.33,3.87-6.32V82.62l-6.95.87V80.71ZM69.5,88.1v5.15l-3.18.4V88.5Zm7.2,2.1a2.71,2.71,0,0,1-.45,2,1.22,1.22,0,0,1-.93.36l-1.81.22V87.6l3.19-.4Z"/>
        <path class="cls-3" d="M100.17,82.26l9.15-1.15V76.64l-9.15,1.15V70.72l-4.74.59v7.07l-3.72.47a39.48,39.48,0,0,0,.9-5.26l0-.3-4.39.56,0,.19c-.4,5.65-2.06,10.09-4.94,13.18l-.06.07v4.36l.37-.27a18.27,18.27,0,0,0,6.62-7.88l5.21-.65V94.16L83.11,95.71v4.46l12.32-1.54v14.68l4.74-.59V98l11.34-1.42V92.14l-11.34,1.43Z"/>
        <path class="cls-3" d="M130,89.82V78.51l9.14-1.15V72.89L130,74V67l-4.75.59v7.08l-3.71.46a38.06,38.06,0,0,0,.89-5.26l0-.29-4.4.55v.19c-.4,5.66-2.06,10.09-4.94,13.18l-.06.07V87.9l.37-.27a18.37,18.37,0,0,0,6.62-7.87l5.2-.66V90.41L113,92v4.47l12.31-1.55v14.69L130,109V94.28l11.34-1.42V88.39Z"/>
      </g>
    </g>
  </g>
</svg>
