<svg id="Layer_1" data-name="Layer 1" xmlns="http://www.w3.org/2000/svg" xmlns:xlink="http://www.w3.org/1999/xlink" viewBox="0 0 156 156">
  <defs>
    <style>
      .cls-1 {
        fill: none;
      }

      .cls-2 {
        clip-path: url(#clip-path);
      }

      .cls-3 {
        fill: #386db6;
      }

      .cls-4 {
        fill: #fff;
      }
    </style>
    <clipPath id="clip-path">
      <rect class="cls-1" width="156" height="156"/>
    </clipPath>
  </defs>
  <title>A_1 极速赛车_w</title>
  <g class="cls-2">
    <g class="cls-2">
      <path class="cls-3" d="M78,2.4A75.6,75.6,0,1,1,2.4,78,75.68,75.68,0,0,1,78,2.4M78,0a78,78,0,1,0,78,78A78,78,0,0,0,78,0"/>
    </g>
  </g>
  <g>
    <g>
      <g>
        <path class="cls-4" d="M55.18,51.44a71.87,71.87,0,0,0-4.64-5.63l-1.9,6c1.45,1.82,3,3.91,4.55,6.29Z"/>
        <path class="cls-4" d="M57,88.17a46.81,46.81,0,0,0,4.55-7.26v6.45l3.6-.47V81.51l2.27,2.29c1.07,1.14,1.89,2,2.46,2.68l1.89-7.13c-.25-.25-.6-.56-1-.93a53.27,53.27,0,0,0-4.26-3.31l-1.32,4.47V74.42l5.49-.72V57.15l-5.49.72V55.29l6.24-.82V47.59l-6.24.82V46.69l7-3.28L61.52,44.79h0v4.08l-6.06.8v6.88l6.06-.8v2.58L56,59.06V75.61l4-.52a31.9,31.9,0,0,1-5.11,6.48c.25,1,.63,2.35,1.14,4.15.31,1.1.53,1.86.66,2.27-.95-.44-1.7-1.71-2.27-3.78V67.66l-1.14.15,1.61-5.37a69.7,69.7,0,0,0-4.64-5.63l-1.89,6.27q1.89,2.33,3.69,4.89l-3.22.42v8l1.9-.25v8.6c-.45,1.07-1.11,2.51-2,4.35l1.42,9.06c1.13-3.16,2.05-5.51,2.74-7,1.08,3.16,2.84,4.64,5.3,4.46,1.58-.06,3.29-.14,5.12-.24l7.47-1q.39-3.27,1.14-7.46c-5.17.83-9.5,1.39-13,1.71A2.9,2.9,0,0,1,57,88.17ZM67.2,63.83v4.08l-2.08.28V64.1Zm-7.76,5.1V64.85l2.08-.28v4.09Z"/>
      </g>
      <g>
        <path class="cls-4" d="M95.16,75.79l5.11-.74V67.82l-7,1v-2.6l4.77-.68V59.46l-4.77.69V57.84l4.18-.61V52.9l2.56-.37v-13L89.58,41c0-.68-.07-1.31-.11-1.9l14.34-3.87L83.32,37l.22,1.16h0a5.19,5.19,0,0,0,.24,1.41c.07,1,.15,1.72.23,2.28L73.3,43.36v13L75.86,56v4.33l4.07-.58v2.31l-4.65.67v6.07l4.65-.66v2.6l-6.86,1V79l5-.72a30.72,30.72,0,0,1-5.7,6c.31,1.88.82,4.8,1.51,8.75q2-2.31,3.26-3.94c.15-.21.27-.33.35-.34V96l4.18-.6V87.56L91.79,86.1V93l4.18-.6V86.08a19.76,19.76,0,0,0,3.37,2.7c.24-1.77.66-4.24,1.28-7.42a7.58,7.58,0,0,1,.24-1.48A15.52,15.52,0,0,1,95.16,75.79ZM82.49,80.21c.54-1,1-2,1.51-2.82l5.46-.78a5.36,5.36,0,0,0,.47.8,4.14,4.14,0,0,0,.93,1.6Zm6.39-13.35v2.6l-4.53.65v-2.6Zm-4.53-5.42V59.12l4.53-.65v2.32Zm4.53-12.22v2.6l-4.53.65v-2.6l-4.42.64v2.6l-2.21.32V50l17.9-2.58v3.47l-2.32.34V48.58Z"/>
        <path class="cls-4" d="M97.25,95.73q-5.58-1.8-8.6-2.81A30.72,30.72,0,0,0,89,88l-4.42.64q.81,10-11.28,11.74.93,3.92,1.75,8.71,9.18-3.92,11.62-9.19c.85.46,2,1.06,3.49,1.81,3.56,1.61,6.24,2.86,8,3.77l1.75-8.93A5.51,5.51,0,0,1,97.25,95.73Z"/>
      </g>
      <g>
        <path class="cls-4" d="M66.08,97.46s-9.65-1.87-15.36-1.7c0,0,10.66,1.22,15.18,2.32a2.71,2.71,0,0,0-2,1.25l-.13.39c-.15-.25-.59-.3-.59-.3-6.1-1.11-15.89-2.23-15.89-2.23l2.85,8.12,1.06.08a22.81,22.81,0,0,0-2.75,6A66.39,66.39,0,0,1,52,105.45l.45,0L50.54,101l3,4.55,7.83.24a71.89,71.89,0,0,0-6.94,3.24s6.37-2.1,8.57-2.77l1.61-5.44a3,3,0,0,1,3.75-2s1.24-.09,5.45,2.86L73,104.86a15.41,15.41,0,0,1-.63,4.73,42.32,42.32,0,0,1-5.45,6.87l3.58-2.58L72,111.47l1.08.8-2,3.3-5,3.3,5.09-2.32s5.26-6.46,5.27-14.81A45.53,45.53,0,0,0,66.08,97.46Z"/>
        <path class="cls-4" d="M48.67,105l-1.94-7.86L43.67,97a5.78,5.78,0,0,0-1.08.3,10.11,10.11,0,0,0,0,2.2s-.85-1.85-1-1.76a66.2,66.2,0,0,0-7.62,4.52l4.69,1.41-.76.38a17.28,17.28,0,0,0-5.62,5.09c1.89-2.49,6.34-4.73,6.34-4.73l1.14-.49C41.12,104.1,45.62,104.64,48.67,105Z"/>
      </g>
      <g>
        <path class="cls-4" d="M63,111.44a2.13,2.13,0,0,1,2.24-.87s1.35.37,1.52,3.84c0,0,.69-3.23-1.52-4.37,0,0,0-.38-1.58.22A3,3,0,0,1,65,109s.56,0,.71,1.16l.63.53s0-2.52-1.34-2.67c0,0-2.14-.18-3.48,4.19l-8,3.39,8.75-2.67A13.83,13.83,0,0,1,63,111.44Z"/>
        <path class="cls-4" d="M66.71,116.64a17.14,17.14,0,0,1-1,2.3l-.4-1.76-1.16-1.07,1.33-.09,1.26-1.34a.33.33,0,0,0-.45-.27l-.89,1.07-1.34.18v-.36l.26-.26,2.15-1.7s.2-.44-.45-.27l-1.7,1.16.63-1,0-1.3a1.9,1.9,0,0,1,.76.77,1.21,1.21,0,0,0-.75-1.14l0-1-.45.45,0,.45a3.46,3.46,0,0,0-.49.06l.07-.78-.45.36-.06.59a1.6,1.6,0,0,0-.74.75,3.33,3.33,0,0,1,.7-.46l-.17,1.62-.09.71-.27-.26-.89-.27-.08.23c.1-.42.17-.68.17-.68-2.23.76-8.57,2.23-8.57,2.23l-.27.45a8.7,8.7,0,0,1,3.3,3.39l-1.43,1.52-7.14-.36L43,117.71h-.36v.54l1.61,1.34-3.84-.36-7.14-1.16-2-.71,2-1-.9-.36-4.19,1.25L25.09,116V114.5a7.75,7.75,0,0,0-.8,1.07,1,1,0,0,0,.09,1.25l3.3,1.34L29,117.8l2.59,1.07L41,120.39l4.73.27,1.25.89,8.13.36,3-.33.59.42,4.46.35S65,122,66.26,118.7,66.71,116.64,66.71,116.64Zm-2,.81.27,1.6.41.33a6.45,6.45,0,0,1-.63.89l0-.06-.54-1.78-.44-1.7Zm-.21-5.63-.06,1.25-.62.81.17-2A1.49,1.49,0,0,1,64.53,111.82Zm-1.31,5.09.09,1.52-1.2,2.13a6.11,6.11,0,0,1-.38-.65l1.31-2.2Zm-1.52,3a7.25,7.25,0,0,1-.51-1.51c.13-.82.3-1.69.46-2.48l0,.24.81.62v.63l-.72,2Zm1.08-5.36.09.27L63,115a1.21,1.21,0,0,0-.26,1l-.27.18-.79-.62c.13-.6.25-1.13.34-1.52Zm.35,6.78-2.36-.17.22-.81c0-.27,0-.58.06-.91.8,1.51,1.55,1.73,1.55,1.73a3.07,3.07,0,0,1-.25-.26c.07,0,.15-.07.25-.2l1.16-2L64.2,120l.43.43A2.12,2.12,0,0,1,63.13,121.28Z"/>
      </g>
    </g>
    <g>
      <path class="cls-3" d="M44.1,63.85l1.42-6.42v-8L32.74,51.16V58.9l1.52-.2c0,3.58,0,6-.1,7.32Q34,83.24,30.66,92.7c.25.69.6,1.78,1,3.3s.85,2.83,1,3.52q1-3.36,1.7-6a41.29,41.29,0,0,1,1.42,4.33q.39,1.25.57,1.86a57.38,57.38,0,0,0,5.21-8c1.58,2.66,2.9,4.7,4,6.14q.95-3.78,2.09-7.58A34.45,34.45,0,0,1,44,85.36a77.53,77.53,0,0,0,2.93-13.93v-8Zm-17-5.07-2.18.29v7.52l2-.26a78.89,78.89,0,0,1-2.46,12.58c.13,1.7.28,4.47.47,8.32.07,1.71.13,2.92.19,3.63q1.14-4,2-8.43v18.48l3.5-.46V78.74c.44.8.89,1.68,1.33,2.62l1.51-8.15Q32,71,30.56,69.07V65.84l2-.26V58.06l-2,.26V48.86l-3.5.46ZM39.08,86a39.09,39.09,0,0,1-4.35,6.59,102.69,102.69,0,0,0,2.08-14.46A50.1,50.1,0,0,0,39.08,86Zm2.65-28.3-1.32,6.63-2.56.33-.19-1.26.1-5.17Zm1.52,14a68,68,0,0,1-1.9,8.42c-.82-2.47-1.57-5.09-2.27-7.87Z"/>
      <g>
        <path class="cls-3" d="M55.18,51.44a71.87,71.87,0,0,0-4.64-5.63l-1.9,6c1.45,1.82,3,3.91,4.55,6.29Z"/>
        <path class="cls-3" d="M57,88.17a46.81,46.81,0,0,0,4.55-7.26v6.45l3.6-.47V81.51l2.27,2.29c1.07,1.14,1.89,2,2.46,2.68l1.89-7.13c-.25-.25-.6-.56-1-.93a53.27,53.27,0,0,0-4.26-3.31l-1.32,4.47V74.42l5.49-.72V57.15l-5.49.72V55.29l6.24-.82V47.59l-6.24.82V46.69l7-3.28L61.52,44.79h0v4.08l-6.06.8v6.88l6.06-.8v2.58L56,59.06V75.61l4-.52a31.9,31.9,0,0,1-5.11,6.48c.25,1,.63,2.35,1.14,4.15.31,1.1.53,1.86.66,2.27-.95-.44-1.7-1.71-2.27-3.78V67.66l-1.14.15,1.61-5.37a69.7,69.7,0,0,0-4.64-5.63l-1.89,6.27q1.89,2.33,3.69,4.89l-3.22.42v8l1.9-.25v8.6c-.45,1.07-1.11,2.51-2,4.35l1.42,9.06c1.13-3.16,2.05-5.51,2.74-7,1.08,3.16,2.84,4.64,5.3,4.46,1.58-.06,3.29-.14,5.12-.24l7.47-1q.39-3.27,1.14-7.46c-5.17.83-9.5,1.39-13,1.71A2.9,2.9,0,0,1,57,88.17ZM67.2,63.83v4.08l-2.08.28V64.1Zm-7.76,5.1V64.85l2.08-.28v4.09Z"/>
      </g>
      <g>
        <path class="cls-3" d="M95.16,75.79l5.11-.74V67.82l-7,1v-2.6l4.77-.68V59.46l-4.77.69V57.84l4.18-.61V52.9l2.56-.37v-13L89.58,41c0-.68-.07-1.31-.11-1.9l14.34-3.87L83.32,37l.22,1.16h0a5.19,5.19,0,0,0,.24,1.41c.07,1,.15,1.72.23,2.28L73.3,43.36v13L75.86,56v4.33l4.07-.58v2.31l-4.65.67v6.07l4.65-.66v2.6l-6.86,1V79l5-.72a30.72,30.72,0,0,1-5.7,6c.31,1.88.82,4.8,1.51,8.75q2-2.31,3.26-3.94c.15-.21.27-.33.35-.34V96l4.18-.6V87.56L91.79,86.1V93l4.18-.6V86.08a19.76,19.76,0,0,0,3.37,2.7c.24-1.77.66-4.24,1.28-7.42a7.58,7.58,0,0,1,.24-1.48A15.52,15.52,0,0,1,95.16,75.79ZM82.49,80.21c.54-1,1-2,1.51-2.82l5.46-.78a5.36,5.36,0,0,0,.47.8,4.14,4.14,0,0,0,.93,1.6Zm6.39-13.35v2.6l-4.53.65v-2.6Zm-4.53-5.42V59.12l4.53-.65v2.32Zm4.53-12.22v2.6l-4.53.65v-2.6l-4.42.64v2.6l-2.21.32V50l17.9-2.58v3.47l-2.32.34V48.58Z"/>
        <path class="cls-3" d="M97.25,95.73q-5.58-1.8-8.6-2.81A30.72,30.72,0,0,0,89,88l-4.42.64q.81,10-11.28,11.74.93,3.92,1.75,8.71,9.18-3.92,11.62-9.19c.85.46,2,1.06,3.49,1.81,3.56,1.61,6.24,2.86,8,3.77l1.75-8.93A5.51,5.51,0,0,1,97.25,95.73Z"/>
      </g>
      <path class="cls-3" d="M118.73,79.63V73.26L127,72.08V61.67l-8.26,1.18V53.31l-4.65.67v9.54l-4.77.69c.31-1.39.82-3.59,1.52-6.58q.93-3.6,1.39-5.7l16-2.3V39.22l-13.6,2c.34-1.49.66-3,1-4.48l12.28-2.12L116.17,34v0l-5.46-.37c-.16.6-.35,1.59-.58,3q-.7,3.57-1,5.36L102,43V53.41l4.77-.69q-1.4,6.86-3,13.16v9.54l10.35-1.49v6.36l-12.67,1.83v10.7L114.08,91v11.86l4.65-.67V90.32l10.35-1.48V78.14Z"/>
      <polygon class="cls-3" points="114.15 109.9 125.67 107.38 112.61 108.64 111.78 108.7 110.63 106.32 128.77 102.73 110.14 105.3 110.05 105.11 109.13 108.99 105.17 109.51 108.58 111.58 107.86 115.5 110.89 112.91 114.4 114.8 113.85 113.49 120.16 111.17 113.28 112.13 112.86 111.13 114.15 109.9"/>
      <polygon class="cls-3" points="99.97 111.25 104.28 109.62 98.11 110.19 97.38 110.25 96.52 108.47 107.25 105.83 95.75 106.85 95.66 106.66 94.73 110.53 90.78 111.06 94.19 113.13 93.47 117.05 96.5 114.46 100.01 116.35 99.56 115.27 103.29 113.23 98.97 113.87 98.47 112.68 99.97 111.25"/>
      <polygon class="cls-3" points="85.56 112.81 89.86 111.17 82.97 111.79 82.13 110.04 90.9 107.72 81.34 108.41 81.25 108.21 80.33 112.08 76.37 112.61 79.78 114.68 79.06 118.6 82.09 116 85.6 117.9 85.18 116.9 89 114.61 84.57 115.43 84.06 114.22 85.56 112.81"/>
      <path class="cls-3" d="M72.34,106l-4.47,3-2.5-1.79a6.2,6.2,0,0,1,2.23,2.95Z"/>
      <path class="cls-3" d="M32.66,101.94a14.42,14.42,0,0,1-3.35.9l2.37-.87,1.28-.64-.67-.75c-.4-.48-.06-.63-.06-.63a2.38,2.38,0,0,1,1.19-.48l2.13.29,6.39-3.38s1.27-.7,4.84-.71A15.1,15.1,0,0,0,41,97.25S34.14,101.28,32.66,101.94Z"/>
      <path class="cls-3" d="M71.88,104.15,70.13,104l.68-.39L70.28,100l-.36,3-.86.83-.39,0c-1.19.05-1.52,1.61-1.52,1.61l-.71,1.78c.8,1,1.34.45,1.34.45l.53-1.43,3,.09,1-1.16Z"/>
      <path class="cls-3" d="M32.86,102.45a11.6,11.6,0,0,0-1,6.52s1.17,1.62,4.55,2.59c0,0-3.43-.26-5.36-2.15C31.07,109.41,30.67,105.18,32.86,102.45Z"/>
      <path class="cls-3" d="M53.67,115.57l-9.92.54-12.14-1.88a63.44,63.44,0,0,1-5.89-3s.81-4.55,2.68-7c0,0-3.3,2.73-3.4,9.9a5.85,5.85,0,0,1,.89-2L31.43,115l12,1.87,10.09-.8Z"/>
      <path class="cls-3" d="M52.6,110.13a12.15,12.15,0,0,0-3.67,2.23l-7.5.27-.89-1.07-2.86-.45,3.49.09.8.62h6.52Z"/>
      <path class="cls-3" d="M58.85,110.13l-.09.36-3.4,2.67-4.64.45a11.17,11.17,0,0,1-1.34-1.34Z"/>
      <path class="cls-3" d="M28,105.76s2.19,3.09,2.77,3.74l-1.52,1A12.09,12.09,0,0,1,27,109,9.48,9.48,0,0,1,28,105.76Z"/>
      <g>
        <path class="cls-3" d="M66.08,97.46s-9.65-1.87-15.36-1.7c0,0,10.66,1.22,15.18,2.32a2.71,2.71,0,0,0-2,1.25l-.13.39c-.15-.25-.59-.3-.59-.3-6.1-1.11-15.89-2.23-15.89-2.23l2.85,8.12,1.06.08a22.81,22.81,0,0,0-2.75,6A66.39,66.39,0,0,1,52,105.45l.45,0L50.54,101l3,4.55,7.83.24a71.89,71.89,0,0,0-6.94,3.24s6.37-2.1,8.57-2.77l1.61-5.44a3,3,0,0,1,3.75-2s1.24-.09,5.45,2.86L73,104.86a15.41,15.41,0,0,1-.63,4.73,42.32,42.32,0,0,1-5.45,6.87l3.58-2.58L72,111.47l1.08.8-2,3.3-5,3.3,5.09-2.32s5.26-6.46,5.27-14.81A45.53,45.53,0,0,0,66.08,97.46Z"/>
        <path class="cls-3" d="M48.67,105l-1.94-7.86L43.67,97a5.78,5.78,0,0,0-1.08.3,10.11,10.11,0,0,0,0,2.2s-.85-1.85-1-1.76a66.2,66.2,0,0,0-7.62,4.52l4.69,1.41-.76.38a17.28,17.28,0,0,0-5.62,5.09c1.89-2.49,6.34-4.73,6.34-4.73l1.14-.49C41.12,104.1,45.62,104.64,48.67,105Z"/>
      </g>
      <g>
        <path class="cls-3" d="M63,111.44a2.13,2.13,0,0,1,2.24-.87s1.35.37,1.52,3.84c0,0,.69-3.23-1.52-4.37,0,0,0-.38-1.58.22A3,3,0,0,1,65,109s.56,0,.71,1.16l.63.53s0-2.52-1.34-2.67c0,0-2.14-.18-3.48,4.19l-8,3.39,8.75-2.67A13.83,13.83,0,0,1,63,111.44Z"/>
        <path class="cls-3" d="M66.71,116.64a17.14,17.14,0,0,1-1,2.3l-.4-1.76-1.16-1.07,1.33-.09,1.26-1.34a.33.33,0,0,0-.45-.27l-.89,1.07-1.34.18v-.36l.26-.26,2.15-1.7s.2-.44-.45-.27l-1.7,1.16.63-1,0-1.3a1.9,1.9,0,0,1,.76.77,1.21,1.21,0,0,0-.75-1.14l0-1-.45.45,0,.45a3.46,3.46,0,0,0-.49.06l.07-.78-.45.36-.06.59a1.6,1.6,0,0,0-.74.75,3.33,3.33,0,0,1,.7-.46l-.17,1.62-.09.71-.27-.26-.89-.27-.08.23c.1-.42.17-.68.17-.68-2.23.76-8.57,2.23-8.57,2.23l-.27.45a8.7,8.7,0,0,1,3.3,3.39l-1.43,1.52-7.14-.36L43,117.71h-.36v.54l1.61,1.34-3.84-.36-7.14-1.16-2-.71,2-1-.9-.36-4.19,1.25L25.09,116V114.5a7.75,7.75,0,0,0-.8,1.07,1,1,0,0,0,.09,1.25l3.3,1.34L29,117.8l2.59,1.07L41,120.39l4.73.27,1.25.89,8.13.36,3-.33.59.42,4.46.35S65,122,66.26,118.7,66.71,116.64,66.71,116.64Zm-2,.81.27,1.6.41.33a6.45,6.45,0,0,1-.63.89l0-.06-.54-1.78-.44-1.7Zm-.21-5.63-.06,1.25-.62.81.17-2A1.49,1.49,0,0,1,64.53,111.82Zm-1.31,5.09.09,1.52-1.2,2.13a6.11,6.11,0,0,1-.38-.65l1.31-2.2Zm-1.52,3a7.25,7.25,0,0,1-.51-1.51c.13-.82.3-1.69.46-2.48l0,.24.81.62v.63l-.72,2Zm1.08-5.36.09.27L63,115a1.21,1.21,0,0,0-.26,1l-.27.18-.79-.62c.13-.6.25-1.13.34-1.52Zm.35,6.78-2.36-.17.22-.81c0-.27,0-.58.06-.91.8,1.51,1.55,1.73,1.55,1.73a3.07,3.07,0,0,1-.25-.26c.07,0,.15-.07.25-.2l1.16-2L64.2,120l.43.43A2.12,2.12,0,0,1,63.13,121.28Z"/>
      </g>
    </g>
  </g>
</svg>
