<svg xmlns="http://www.w3.org/2000/svg" viewBox="0 0 156 156"><defs><style>.a,.d{fill:none;}.a{stroke:#386db6;stroke-width:2px;}.b{fill:#2d69a9;}.c{stroke:none;}</style></defs><g transform="translate(-352)"><g class="a" transform="translate(352)"><circle class="c" cx="78" cy="78" r="78"/><circle class="d" cx="78" cy="78" r="77"/></g><g transform="translate(224 -56.908)"><g transform="translate(1098.135 75.76)"><path class="b" d="M-924.7,18.408l3.057,40.114,8.787-1.337-3.63-48.9-13.371,2.1-3.5,7.312-.311-2.154-12.989,3.439-3.442,10.888,9.169-2.483,6.3,43.551,8.6-2.483-7.039-48.733Z"/><path class="b" d="M-902.961,35.614c1.864-1.743,2.2-4.41.753-5.958s-4.131-1.39-5.995.352-2.211,4.41-.758,5.958S-904.825,37.357-902.961,35.614Z"/><path class="b" d="M-834.544,31.592l.382-12.8-28.844,1.527L-867.017,38.2V37.128l-10.506,1.719V33.881l9.36-1.337V26.813l-9.36,1.337V24.139l-7.831,1.337v4.016l-4.394.573a10.67,10.67,0,0,0,.764-3.63l-6.494.955s-.68,4.146-3.247,6.495V40.57s4.732-1.839,6.3-4.393l4.012-.573a2.566,2.566,0,0,1,3.013,2.023,2.536,2.536,0,0,1,.043.651v1.714l-12.6,2.1v5.73l5.157-.764-5.157,14.52,8.213-1.528,5.158-14.326,1.91-.191s2.292-.629,2.292,2.292v7.067s-.492,3.764,4.776,3.056l4.31-.642-.471,2.1-26.378,4.086s-2.866.585-2.866-1.719v-19.3s.009-3.87-4.585-3.248l-5.539.955v5.731l2.483-.382v25.4s7.718.139,7.641-3.821a4.6,4.6,0,0,0,4.584,2.1l27.124-4.2a4.524,4.524,0,0,0,3.033-2.5l3.461.777c3.581-5.577,8.6-4.966,8.6-4.966,7.842,1.175,7.45,10.315,7.45,10.315-.626,13.081-10.506,13.18-10.506,13.18-6.1.538-8.213-6.5-8.213-6.5l-12.226.573C-874.4,95.84-858.8,94.611-858.8,94.611a20.73,20.73,0,0,0,15.09-6.877c13.316-15.2,6.494-31.135,6.494-31.135-6.8-15.9-20.629-10.506-20.629-10.506l3.056-13.562Zm-35.432,19.8-1.625.253a1.023,1.023,0,0,1-1.146-.883,1.053,1.053,0,0,1,0-.263V44.005l4.6-.767Z"/></g><path class="b" d="M688.914,518.875a11.315,11.315,0,0,0,1.529-.106,11.006,11.006,0,0,0,3.932-1.243l.073-.041a9.872,9.872,0,0,0,4.108-4.928,7.3,7.3,0,0,0,6.708,4.041,10.057,10.057,0,0,0,1.343-.093,8.645,8.645,0,0,0,3.458-1.2,2.816,2.816,0,0,0,1.093.066l2.654-.356a2.839,2.839,0,0,0,2.463-2.815V494.378a2.848,2.848,0,0,0-1.84-2.657,2.84,2.84,0,0,0,1.41-2.454V485.76c0-2.828-.12-4.83-1.706-6.787-1.7-2.147-4.222-3.013-7.484-2.575a9.917,9.917,0,0,0-8.075,5.812c-.737-1.745-2.786-4.645-8.185-3.915a10.946,10.946,0,0,0-5.074,1.92c-1.252.9-4.166,3.6-4.166,9.152a15.674,15.674,0,0,0,3,9.044l.025.034c.541.83,1.111,1.609,1.671,2.361l-2.515.338a2.839,2.839,0,0,0-2.462,2.815v5.547c0,1.908,0,4.786,2.268,7.087A7.717,7.717,0,0,0,688.914,518.875Zm11.79-34.769a7.219,7.219,0,0,1,6.308-5.069c.845-.115,3.418-.46,5.045,1.591.958,1.182,1.129,2.372,1.129,5.131v3.663l-4.432.594v-4c0-.161-.012-.334-.023-.506s-.024-.36-.024-.53l-.01-.129a2.115,2.115,0,0,0-.553-1.534,1.519,1.519,0,0,0-1.222-.217,2.2,2.2,0,0,0-1.235.511c-.861.731-.852,2.015-.846,3.047v19.516a7.374,7.374,0,0,0,.311,2.858,1.44,1.44,0,0,0,1.661.7,2.374,2.374,0,0,0,1.2-.469,3.184,3.184,0,0,0,.879-2.642v-7.379l-2.7.363V495.17l7.418-.994,0,18.182-2.962.4-.364-1.286a5.417,5.417,0,0,1-4.034,2.4,7.118,7.118,0,0,1-.99.074,4.882,4.882,0,0,1-2.832-.841c-2.131-1.513-2.3-3.96-2.3-6.768V489.55A15.892,15.892,0,0,1,700.7,484.106Zm6.851,8.2-.053.007v-.038Zm-24.019,11.5,4.432-.6v6.324c0,1.539.215,2.174.854,2.514a1.755,1.755,0,0,0,1.221.229c1.982-.309,1.98-2.414,1.979-3.95v-.1a8.649,8.649,0,0,0-1.583-5.519c-.675-1.1-1.448-2.141-2.2-3.145-.617-.827-1.253-1.682-1.833-2.571l-.057-.082a12.967,12.967,0,0,1-2.532-7.541c0-4.322,2.14-6.329,3.06-6.992a8.342,8.342,0,0,1,3.872-1.448c2.95-.4,4.788.488,5.5,2.631a7.129,7.129,0,0,1,.34,2.524v6.081l-4.384.588v-6.124c0-.023-.007-.088-.012-.169a2.046,2.046,0,0,0-.5-1.477,1.307,1.307,0,0,0-1.043-.217c-1.874.252-2.027,1.747-2.027,3.53,0,2.659.678,4.087,2.2,6.284.438.649.891,1.259,1.369,1.9q.285.383.571.772c.488.6.958,1.234,1.473,1.989a12.788,12.788,0,0,1,2.638,7.856c0,1.778-.364,6.073-3.784,8.092a8.17,8.17,0,0,1-3,.936,8.672,8.672,0,0,1-1.162.081,5.1,5.1,0,0,1-3.874-1.472c-1.4-1.408-1.518-3.2-1.518-5.234Z" transform="translate(-505.265 -327.199)"/></g></g></svg>