<svg xmlns="http://www.w3.org/2000/svg" width="156" height="156" viewBox="0 0 156 156"><defs><style>.a,.d{fill:none;}.a{stroke:#386db6;stroke-width:2px;}.b{fill:#386db6;}.c{stroke:none;}</style></defs><g transform="translate(-352)"><g class="a" transform="translate(352)"><circle class="c" cx="78" cy="78" r="78"/><circle class="d" cx="78" cy="78" r="77"/></g><g transform="translate(379.529 20.647)"><path class="b" d="M37.665,84.556a1.076,1.076,0,0,0,.331.914,1.02,1.02,0,0,0,.772.363,2.429,2.429,0,0,0,.716-.094c.257-.07.5-.138.717-.2V74.107A52.7,52.7,0,0,0,38.548,79.6,36.707,36.707,0,0,0,37.665,84.556Zm68.721,19.1a27.424,27.424,0,0,0-3.419,2.423,22.678,22.678,0,0,0-3.029,3.046,8.283,8.283,0,0,0-1.251,2.07,6.183,6.183,0,0,0-.472,1.881,2.336,2.336,0,0,0,.25,1.362.961.961,0,0,0,.973.468,5.966,5.966,0,0,0,2.029-.621,19.334,19.334,0,0,0,2.5-1.439q1.3-.875,2.641-1.976t2.445-2.115a28.223,28.223,0,0,0,3.529-3.942,17.351,17.351,0,0,0,2.363-4.378,28.552,28.552,0,0,0-3.974,1.121A29.129,29.129,0,0,0,106.387,103.653Zm-34.259-17.9a1.876,1.876,0,0,0-.275-.921,1.372,1.372,0,0,0-.717-.644l-1.654-.6V95.938l2.646.966Zm32.479,5.411a5.307,5.307,0,0,0-1.027,1.5,4.44,4.44,0,0,0-.361,1.336q-.057,1.479,1.167.953a13.693,13.693,0,0,0,3.78-2.524,22.42,22.42,0,0,0,2.5-2.76,16.094,16.094,0,0,0,1.945-3.257,7.787,7.787,0,0,0-3.863,1.323A18.966,18.966,0,0,0,104.607,91.16Zm20.518-43.408h0s-2.453-3.806-11.114-5.743L94.9,37.761V36.724a2.676,2.676,0,0,0-1.731-2.505A2.678,2.678,0,0,0,94.5,31.9V28.6c0-2.667-.112-4.555-1.609-6.4-1.608-2.025-3.981-2.842-7.059-2.428a9.35,9.35,0,0,0-7.615,5.482c-.695-1.647-2.627-4.381-7.719-3.693a10.32,10.32,0,0,0-4.786,1.81c-1.182.851-3.929,3.4-3.929,8.632A13.843,13.843,0,0,0,62.4,36.09c-.64.223-1.28.46-1.924.732A185.694,185.694,0,0,0,38.067,47.2a19.685,19.685,0,0,0-8.334,9.817h0a20.579,20.579,0,0,0-1.3,9.817l2.408,32.045s-.226,15.641,13.522,22.227a202.465,202.465,0,0,0,33.341,12.966s11.936,3.79,20.56-2.778a196.669,196.669,0,0,0,18.708-15.929A36.224,36.224,0,0,0,125.97,102.2c-1.084-.463-1.907-.76-1.907-.76a5.869,5.869,0,0,0-1.417-.533q-.752-.176-1.529-.391a38.235,38.235,0,0,1-2.724,3.82q-1.5,1.857-3.168,3.554t-3.363,3.155q-1.7,1.461-3.252,2.641a35.19,35.19,0,0,1-4.724,3.069,8.841,8.841,0,0,1-4.28,1.181,2.711,2.711,0,0,1-2.447-1.131,4.5,4.5,0,0,1-.611-2.811,11.238,11.238,0,0,1,.861-3.669,20.778,20.778,0,0,1,1.918-3.553,30.182,30.182,0,0,1,3.614-4.322,48.513,48.513,0,0,1,4.28-3.795,50.145,50.145,0,0,1,4.725-3.3q2.335-1.428,4.113-2.318a16.733,16.733,0,0,0-.194-2.61,11.216,11.216,0,0,0-.528-2.127Q114,89.775,112.529,91.15t-2.89,2.481q-1.419,1.106-2.7,1.932a14.578,14.578,0,0,1-2.279,1.241,2.241,2.241,0,0,1-2,.141,1.754,1.754,0,0,1-.723-1.52,6.052,6.052,0,0,1,.695-2.767,18.914,18.914,0,0,1,2.085-3.363,21.065,21.065,0,0,1,1.835-2.024q1.056-1.029,2.306-2.037t2.586-1.876a27.2,27.2,0,0,1,2.668-1.537q.277-1.417.445-3.066a23.709,23.709,0,0,0,.11-3.215,13.791,13.791,0,0,0-.361-2.8,3.613,3.613,0,0,0-.917-1.8,1.715,1.715,0,0,0-1.557-.4,5,5,0,0,0-2.056,1.015,15.784,15.784,0,0,0-2.335,2.26A10.5,10.5,0,0,0,105.553,77a17.742,17.742,0,0,0-.918,4.257,27.917,27.917,0,0,0-.139,4.413l-8.228,6.187a30.3,30.3,0,0,1,1.918-7.832,39.362,39.362,0,0,1,4.475-8.222,35.888,35.888,0,0,1,4.086-4.881,34.263,34.263,0,0,1,4.363-3.714,24.172,24.172,0,0,1,4.7-2.675,8.234,8.234,0,0,1,3.975-.747,3.26,3.26,0,0,1,2.5,1.663,8.019,8.019,0,0,1,.945,3.648,19.292,19.292,0,0,1-.556,5.219,33.109,33.109,0,0,1-1.945,5.813,4.252,4.252,0,0,1,3.918,3.087,15.343,15.343,0,0,1,.25,7.076,14.687,14.687,0,0,1,2.113-.08c.27.013.56.034.869.062.536-7.676,1.292-19.344,1.322-24.557C129.2,65.718,130.268,53.393,125.126,47.751ZM79.67,34.476v-2.3a15.621,15.621,0,0,1,.49-4.956c.019-.059.034-.118.054-.178s.045-.133.069-.2a6.6,6.6,0,0,1,4.279-4.211q.187-.063.383-.117a8.8,8.8,0,0,1,1.005-.216c.072-.011.14-.027.214-.037a7.245,7.245,0,0,1,1.968-.029,4.588,4.588,0,0,1,1.43.431c.026.013.054.019.081.033a4,4,0,0,1,1.279,1.066c.9,1.115,1.064,2.237,1.064,4.839v3.455l-1.683.226-2.5.334V28.844c0-.153-.011-.315-.022-.478s-.023-.339-.023-.5l0-.049-.006-.072a2.707,2.707,0,0,0-.253-1.122,1.085,1.085,0,0,0-.269-.325,1.07,1.07,0,0,0-.491-.212.076.076,0,0,0-.015,0,2.005,2.005,0,0,0-.647.007,2.831,2.831,0,0,0-.307.065,1.962,1.962,0,0,0-.857.417,1.811,1.811,0,0,0-.267.282,2.172,2.172,0,0,0-.343.674,3.1,3.1,0,0,0-.094.375,7.922,7.922,0,0,0-.092,1.543v5.917h0V47.849c0,.292,0,.558.01.81,0,.078.006.153.009.227.006.177.016.342.028.5.005.066.01.137.017.2a4.5,4.5,0,0,0,.08.533,1.736,1.736,0,0,0,.15.43,1.341,1.341,0,0,0,1.468.675c.033-.005.063,0,.1-.01.056-.008.127-.017.208-.032s.154-.035.239-.06l.078-.027A2.037,2.037,0,0,0,86.711,51c.031-.014.06-.027.092-.044a2.064,2.064,0,0,0,.307-.194,3,3,0,0,0,.829-2.491V41.312l-2.548.341V37.471l3.75-.5,3.246-.436V53.682l-2.793.375-.343-1.213,0,0c-.089.129-.2.268-.312.41-.03.038-.063.076-.1.114a4.362,4.362,0,0,1-1.146.97,5.668,5.668,0,0,1-2.248.764l-.255.029c-.061.007-.132.013-.2.019-.144.011-.3.022-.478.022a4.972,4.972,0,0,1-1.777-.33c-.111-.045-.221-.092-.332-.147a4.139,4.139,0,0,1-.561-.316,4.487,4.487,0,0,1-1.015-1.01c-.054-.074-.123-.141-.173-.218v0a4.8,4.8,0,0,1-.345-.651c-.03-.067-.056-.137-.083-.2q-.1-.256-.18-.525c-.02-.07-.043-.141-.061-.212a9.584,9.584,0,0,1-.249-1.568c-.006-.082-.011-.166-.017-.25-.013-.207-.024-.418-.03-.632,0-.083-.006-.166-.008-.25-.007-.282-.01-.568-.01-.861Zm7.009.289-.05.007v-.036ZM64.022,45.614l4.18-.56v5.958c0,.241.008.45.02.646,0,.05.007.1.011.147a3.32,3.32,0,0,0,.161.854c.012.032.027.061.04.091a1.411,1.411,0,0,0,.1.187c.018.029.037.058.057.085a1.156,1.156,0,0,0,.126.144c.021.02.04.042.063.061a1.352,1.352,0,0,0,.231.157,1.607,1.607,0,0,0,.548.2c.033.007.061.013.1.018a1.975,1.975,0,0,0,.505,0,2.207,2.207,0,0,0,.558-.166c.05-.022.094-.049.142-.074a1.793,1.793,0,0,0,.306-.21c.037-.032.076-.062.11-.1a1.959,1.959,0,0,0,.294-.375c.005-.01.008-.021.014-.031a2.432,2.432,0,0,0,.188-.427,5.1,5.1,0,0,0,.235-1.414l0-.026c.014-.311.018-.62.017-.907v-.089a13.444,13.444,0,0,0-.082-1.585h0a7.941,7.941,0,0,0-1.411-3.619c-.28-.458-.58-.9-.886-1.333-.217-.308-.434-.609-.655-.909-.178-.242-.353-.488-.53-.724-.436-.584-.876-1.19-1.3-1.806-.143-.207-.289-.409-.427-.619l-.026-.039-.027-.039c-.107-.157-.24-.354-.382-.575-.019-.029-.039-.063-.058-.092-.143-.225-.294-.478-.45-.762l-.026-.047a12.514,12.514,0,0,1-.965-2.285A11.368,11.368,0,0,1,64.291,32a9.024,9.024,0,0,1,1.118-4.592,6.9,6.9,0,0,1,.952-1.282,5.889,5.889,0,0,1,.816-.721,6.449,6.449,0,0,1,.578-.361,8.3,8.3,0,0,1,3.075-1c.059-.008.111-.008.17-.015,2.678-.319,4.36.519,5.019,2.5a6.226,6.226,0,0,1,.191.714,8.441,8.441,0,0,1,.131,1.667v5.735L72.2,35.2v-5.78c0-.022-.007-.084-.011-.161a3.937,3.937,0,0,0-.078-.671,1.278,1.278,0,0,0-.392-.722,1.229,1.229,0,0,0-.984-.206c-1.767.238-1.911,1.649-1.911,3.33a10.6,10.6,0,0,0,.122,1.692,7.444,7.444,0,0,0,.522,1.751h-.01c.02.048.046.1.067.145.032.07.051.143.085.213.107.225.226.449.356.678.145.252.306.511.479.777.141.216.289.439.449.67.414.613.84,1.187,1.292,1.794.179.241.358.483.538.729.461.565.9,1.164,1.39,1.876a12.061,12.061,0,0,1,2.487,7.409c0,1.678-.344,5.729-3.57,7.631l0,0c-.13.071-.28.151-.456.232-.124.056-.275.113-.424.17-.13.047-.266.094-.412.141h0c-.2.063-.424.125-.664.181-.268.06-.551.117-.876.161a8.283,8.283,0,0,1-1.1.076c-.2,0-.393-.014-.578-.03-.156-.015-.307-.035-.453-.058a4.741,4.741,0,0,1-2.21-.927l-.045-.036a3.687,3.687,0,0,1-.367-.337c-1.323-1.327-1.431-3.02-1.431-4.935ZM49.079,114.856,40.2,111.619V87.5a3.346,3.346,0,0,1-2.151.365A4.548,4.548,0,0,1,34.8,85.342a5.89,5.89,0,0,1-.5-2.232q-.056-1.5.055-3.26t.3-3.444q.193-1.679.469-3.164t.5-2.444L40.2,72.466V63.06L49.079,66.3v9.734a51.012,51.012,0,0,1,3.778,4.439,35.147,35.147,0,0,1,2.84,4.48l-4.577,3.2q-.33-1.815-.826-3.583a21.044,21.044,0,0,0-1.214-3.285Zm25.806,9.574A47.935,47.935,0,0,0,72.6,114.3a34.446,34.446,0,0,0-4.109-8.387,21.145,21.145,0,0,1-1.791,4.459,16.058,16.058,0,0,1-2.73,3.68,11.417,11.417,0,0,1-5.735,3.1,6.4,6.4,0,0,1-2.895-.071,6.511,6.511,0,0,1-2.619-1.338,7.515,7.515,0,0,1-1.9-2.47,6.866,6.866,0,0,1-.634-3.485,11,11,0,0,1,.992-4.068,10.892,10.892,0,0,1,2.316-3.312,9.119,9.119,0,0,1,7-2.477,14.83,14.83,0,0,0,.111-1.846v-2L51.34,92.714V89.323L60.6,92.7V80.343l-7.5-2.735v-3.39l7.5,2.734V70.5l8.877,3.237V80.19L75.823,82.5a7.733,7.733,0,0,1,3.8,2.864,7.339,7.339,0,0,1,1.379,4.277v10.5l2.15.784v3.39L69.427,99.309A25.937,25.937,0,0,1,69.1,102.8a30.186,30.186,0,0,1,4.963,3.942,37.038,37.038,0,0,1,4.3,5.068,49.051,49.051,0,0,1,3.061,4.971,48.444,48.444,0,0,1,2.508,5.482Zm19.863-51.3c-3.864,8.936-4.816,39.639-4.816,39.639-.526-18.293-3.087-32.922-6.668-38.527S49.552,59.05,49.552,59.05l27.97,7.409c14.566,2.533,22.6-3.087,22.6-3.087C113.147,53.679,117.9,52.567,117.9,52.567,97,66.963,94.748,73.128,94.748,73.128Zm-40.43,30.624a8.494,8.494,0,0,0-2.067,2.8,8.887,8.887,0,0,0-.69,3.3,3.114,3.114,0,0,0,.331,1.652,3.882,3.882,0,0,0,.992,1.237,2.49,2.49,0,0,0,1.434.55,2,2,0,0,0,1.323-.475A10.84,10.84,0,0,0,58.7,108.6a23.794,23.794,0,0,0,1.627-6.981,8.141,8.141,0,0,0-6.011,2.128Z" transform="translate(-28.351 -19.663)"/></g></g></svg>