<svg xmlns="http://www.w3.org/2000/svg" viewBox="0 0 156 156"><defs><style>.a,.d{fill:none;}.a{stroke:#386db6;stroke-width:2px;}.b{fill:#2d69a9;}.c{stroke:none;}</style></defs><g transform="translate(-656 -50)"><g class="a" transform="translate(656 50)"><circle class="c" cx="78" cy="78" r="78"/><circle class="d" cx="78" cy="78" r="77"/></g><g transform="translate(882.823 -3.764)"><path class="b" d="M-128.055,174.691l-2.208-3.968-.782,4.469-4.465.866,4.021,2.125-.552,4.5,3.267-3.156,4.124,1.914-2-4.069,3.1-3.318Z"/><path class="b" d="M-144.33,177.235l-2.208-3.967-.782,4.469-4.466.866,4.021,2.124-.552,4.5,3.267-3.153,4.125,1.917-2-4.076,3.095-3.317Z"/><path class="b" d="M-160.605,179.983l-2.208-3.968-.782,4.469-4.466.866,4.021,2.125-.552,4.5,3.267-3.156,4.124,1.917-2-4.072,3.1-3.319Z"/><path class="b" d="M-184.793,148.87l2.053-.28V137.274l-2.053.279Z"/><path class="b" d="M-87.893,131.636a2.492,2.492,0,0,0-.068-.331l-.006,0-4.394-15.932a2.548,2.548,0,0,0-2.8-1.849l-11.708,1.6a2.7,2.7,0,0,0-.415.092,2.4,2.4,0,0,0-.423.023l-6.187.843a2.547,2.547,0,0,0-2.117,1.861l-4.226,15.652-7.6,1.037V120.244a2.55,2.55,0,0,0-2.548-2.55,2.5,2.5,0,0,0-.346.024l-5.666.772a2.549,2.549,0,0,0-2.205,2.526v15.076l-9.1,1.235a2.542,2.542,0,0,0-2.08,1.764l-7.442,1.02v-4.546a2.551,2.551,0,0,0-1.581-2.358l7.934-1.08a2.553,2.553,0,0,0,2.1-1.8l1.732-5.8a2.549,2.549,0,0,0-1.708-3.175,2.564,2.564,0,0,0-1.077-.084l-25.442,3.467a2.548,2.548,0,0,0-2.2,2.526V128.9a2.505,2.505,0,0,0-.815-.02l-3.958.539V127.6a2.549,2.549,0,0,0-2.549-2.549,2.475,2.475,0,0,0-.344.023l-4.832.654a2.548,2.548,0,0,0-2.2,2.526v2.515l-1.03.14v-1.76a2.549,2.549,0,0,0-2.553-2.545,2.5,2.5,0,0,0-.346.024l-4.568.623a2.549,2.549,0,0,0-2.2,2.525v1.152l-2.709.37a2.548,2.548,0,0,0-2.205,2.525v36.025a2.548,2.548,0,0,0,2.549,2.548,2.642,2.642,0,0,0,.345-.023l2.02-.275v1.82a2.55,2.55,0,0,0,2.55,2.549,2.639,2.639,0,0,0,.344-.023l4.568-.623a2.532,2.532,0,0,0,1.028-.377,2.582,2.582,0,0,0,.936-.3,19.74,19.74,0,0,0,7.579-8.036l1.331,4.774a2.547,2.547,0,0,0,2.8,1.841l4.22-.575a2.546,2.546,0,0,0,1.919-1.359,2.567,2.567,0,0,0,.667,0l4.626-.631a2.55,2.55,0,0,0,1.961-1.438l.064.232a2.551,2.551,0,0,0,2.8,1.852l6.042-.824a2.549,2.549,0,0,0,2.2-2.526V157.89l1.079,8.729a2.551,2.551,0,0,0,2.844,2.217l.03,0,4.6-.626a2.553,2.553,0,0,0,2.17-2.106l1.012-6.063a2.549,2.549,0,0,0-1.8-2.866l-.845-7.035a2.564,2.564,0,0,0-.232-.8,2.549,2.549,0,0,0,1.649-1.724l8.114-1.106v18.41a2.55,2.55,0,0,0,2.549,2.55,2.491,2.491,0,0,0,.345-.024l5.666-.772a2.549,2.549,0,0,0,2.205-2.526v-19.1l8.873-1.209a2.537,2.537,0,0,0,2.609,1.363l.4-.054-1.679,9.3-.131.018a2.549,2.549,0,0,0-2.181,2.87c0,.025.007.049.011.074l.9,5.388a2.544,2.544,0,0,0,2.859,2.107l6.244-.851a2.549,2.549,0,0,0,2.17-2.1l3.1-18.347,3.431-.468v8.956l-1.207.165a2.549,2.549,0,0,0-2.181,2.872,2.468,2.468,0,0,0,.087.4l1.648,5.4a2.548,2.548,0,0,0,2.783,1.783l7.545-1.029a2.549,2.549,0,0,0,2.2-2.525V134.543l.281-.038A2.548,2.548,0,0,0-87.893,131.636ZM-201.1,169.282l-4.134.564V133.821l4.134-.563Zm5.348-22.888v26.9l-4.567.623V129.774l4.567-.622V139.4l1.446-.2v7Zm17.9,24.223-4.221.576-3.474-12.444c-1.59,7.564-5.463,12.121-9.135,14.161v-7.228a16.681,16.681,0,0,0,4.886-10.205l-4.655.634v-5.925l4.824-.659V138.211l-4.047.552v-5.214l4.047-.552v-4.74l4.828-.658v4.74l6.851-.934v16.531l1.128-.153v5.925l-4.712.642,3.588,11.777.9-.122Zm.867-10.11-1.228-4.036,1.738-.236Zm6.344,8.12-4.625.631-.983-5.791,1.5-.205,1.157-9.7,4.8-.654Zm10.87-20.264v20.086l-6.042.824-1.3-4.741,2.139-.291V149.073l-9.953,1.354V127.261l25.44-3.467-1.735,5.806-18.643,2.541v12.265l4.885-.666v-7.465l5.2-.71v7.462l10.61-1.446v5.336Zm11.761,11.254-1.017,6.063-4.6.626-1.87-15.208,4.828-.658,1.127,9.386Zm17.622-16.8v21.33l-5.667.772V143.59l-11.306,1.537v-5.269l11.3-1.541v-17.3l5.667-.772v17.3l11.3-1.541.006,5.273Zm12.156-6.875,4.678-17.342,6.187-.844-4.365,17.3Zm25.32,23.216-7.546,1.028-1.647-5.4,3.411-.465v-14.1l-8.181,1.1-3.412,20.2-6.244.852-.9-5.389,1.965-.267,2.639-14.58-3.874.528v-5.629l23.793-3.243Zm-15.766-25.784,1.937-7.679,5.02-.684,1.857,7.162Zm11.632-.493-2.776-10.7-8.036,1.1,1.329-5.632,11.709-1.6,4.393,15.929Z"/><path class="b" d="M688.914,518.875a11.315,11.315,0,0,0,1.529-.106,11.006,11.006,0,0,0,3.932-1.243l.073-.041a9.872,9.872,0,0,0,4.108-4.928,7.3,7.3,0,0,0,6.708,4.041,10.057,10.057,0,0,0,1.343-.093,8.645,8.645,0,0,0,3.458-1.2,2.816,2.816,0,0,0,1.093.066l2.654-.356a2.839,2.839,0,0,0,2.463-2.815V494.378a2.848,2.848,0,0,0-1.84-2.657,2.84,2.84,0,0,0,1.41-2.454V485.76c0-2.828-.12-4.83-1.706-6.787-1.7-2.147-4.222-3.013-7.484-2.575a9.917,9.917,0,0,0-8.075,5.812c-.737-1.745-2.786-4.645-8.185-3.915a10.946,10.946,0,0,0-5.074,1.92c-1.252.9-4.166,3.6-4.166,9.152a15.674,15.674,0,0,0,3,9.044l.025.034c.541.83,1.111,1.609,1.671,2.361l-2.515.338a2.839,2.839,0,0,0-2.462,2.815v5.547c0,1.908,0,4.786,2.268,7.087A7.717,7.717,0,0,0,688.914,518.875Zm11.79-34.769a7.219,7.219,0,0,1,6.308-5.069c.845-.115,3.418-.46,5.045,1.591.958,1.182,1.129,2.372,1.129,5.131v3.663l-4.432.594v-4c0-.161-.012-.334-.023-.506s-.024-.36-.024-.53l-.01-.129a2.115,2.115,0,0,0-.553-1.534,1.519,1.519,0,0,0-1.222-.217,2.2,2.2,0,0,0-1.235.511c-.861.731-.852,2.015-.846,3.047v19.516a7.374,7.374,0,0,0,.311,2.858,1.44,1.44,0,0,0,1.661.7,2.374,2.374,0,0,0,1.2-.469,3.184,3.184,0,0,0,.879-2.642v-7.379l-2.7.363V495.17l7.418-.994,0,18.182-2.962.4-.364-1.286a5.417,5.417,0,0,1-4.034,2.4,7.118,7.118,0,0,1-.99.074,4.882,4.882,0,0,1-2.832-.841c-2.131-1.513-2.3-3.96-2.3-6.768V489.55A15.892,15.892,0,0,1,700.7,484.106Zm6.851,8.2-.053.007v-.038Zm-24.019,11.5,4.432-.6v6.324c0,1.539.215,2.174.854,2.514a1.755,1.755,0,0,0,1.221.229c1.982-.309,1.98-2.414,1.979-3.95v-.1a8.649,8.649,0,0,0-1.583-5.519c-.675-1.1-1.448-2.141-2.2-3.145-.617-.827-1.253-1.682-1.833-2.571l-.057-.082a12.967,12.967,0,0,1-2.532-7.541c0-4.322,2.14-6.329,3.06-6.992a8.342,8.342,0,0,1,3.872-1.448c2.95-.4,4.788.488,5.5,2.631a7.129,7.129,0,0,1,.34,2.524v6.081l-4.384.588v-6.124c0-.023-.007-.088-.012-.169a2.046,2.046,0,0,0-.5-1.477,1.307,1.307,0,0,0-1.043-.217c-1.874.252-2.027,1.747-2.027,3.53,0,2.659.678,4.087,2.2,6.284.438.649.891,1.259,1.369,1.9q.285.383.571.772c.488.6.958,1.234,1.473,1.989a12.788,12.788,0,0,1,2.638,7.856c0,1.778-.364,6.073-3.784,8.092a8.17,8.17,0,0,1-3,.936,8.672,8.672,0,0,1-1.162.081,5.1,5.1,0,0,1-3.874-1.472c-1.4-1.408-1.518-3.2-1.518-5.234Z" transform="translate(-846.397 -400.735)"/></g></g></svg>