<svg xmlns="http://www.w3.org/2000/svg" viewBox="0 0 156 156"><defs><style>.a,.d{fill:none;}.a{stroke:#386db6;stroke-width:2px;}.b{fill:#2d69a9;}.c{stroke:none;}</style></defs><g transform="translate(-656 -50)"><g class="a" transform="translate(656 50)"><circle class="c" cx="78" cy="78" r="78"/><circle class="d" cx="78" cy="78" r="77"/></g><g transform="translate(37.796 -405.036)"><path class="b" d="M673,530.7l-8.409.976q.139-3.686.141-7.846l-5.747.668v7.833l-4.764.552v5.627c-.373-.281-.889-.711-1.542-1.288q-1.124-.843-1.682-1.272V525.185l-5.325.619v11.74l-3.359-.1q-.57,10.346-1.122,19.949l3.5.327q.7-14.4.978-20.086v46.155l5.325-.618v-6.117a20.267,20.267,0,0,1,1.12,2.317,43.7,43.7,0,0,1,2.1,4.4q6.586-8.1,8.128-15.624a28.078,28.078,0,0,0,9.11,12.889q1.261-3.576,3.644-8.742a20.487,20.487,0,0,1-9.25-11.405l9.391-1.09v-9.3l-2.242.26Zm-14.155,21.706h0l-6.448.749v9.3l6.026-.7q-.84,7.2-7.427,13.83V546.472l2.522,2.643,1.962-7.324,3.5-.406Q658.986,547.5,658.846,552.411Zm8.83-1.025-3.219.373q0-5.136.14-11.026l3.084-.358Z" transform="translate(0 -3.815)"/><path class="b" d="M703.068,552.1v-3.668l1.261,3.771a35.149,35.149,0,0,1,3.644-1.156,28.1,28.1,0,0,0,3.084-.847c.068.229.109.375.141.479.092.639.14,1.041.14,1.2l3.365-2.1c-.093-.639-.33-1.675-.7-3.1q-1.265-6.219-1.827-8.847l-1.962,1.207q.7-1.789,2.243-5.4,1.4-3.587,2.1-5.138l-3.924-1.991-1.682,4.6-1.962.227q.557-1.287,2.383-5.9,1.4-3.587,1.962-4.875l-4.485-2.171q-2.1,7.1-3.364,10.669a4.4,4.4,0,0,1-.42,1.272v-7.343l-3.084.358c.092-.5.233-1.165.42-2.006.184-1,.326-1.666.42-2.006l-5.466-.1q-.419,2.5-.841,4.747l-2.243.26v5.872l-2.943-1.37q-.7,2.53-1.542,4.827l-1.962.228q1.12-3.311,4.2-11.254l-4.625-1.665a88.368,88.368,0,0,1-3.084,10.879,24.769,24.769,0,0,1-1.682,3.62l1.4,5.465a9.151,9.151,0,0,1,2.667-.8,2.712,2.712,0,0,1,.842-.343,7.85,7.85,0,0,0-.561,1.533q-1.123,2.827-1.681,3.863a30.454,30.454,0,0,1-2.243,3.93l1.542,5.938q1.68-1.168,7.288-2.314c.184.8.326,1.43.419,1.909l2.1-1.223,2.522-.293v3.181l-13.875,1.61v7.34l10.792-1.254q-2.943,4.012-11.353,7.924,1.541,3.495,2.8,7.015A46.475,46.475,0,0,0,694.939,568.7v10.032l5.325-.618V567.84q3.5,4.24,11.492,7.23.7-2.043,2.943-7.927-7.009-.654-11.212-4.57l10.792-1.254v-7.34l-14.018,1.627v-3.181Zm6.162-10.993q.421,1.42.841,3.573l-2.662.309Q708.108,543.688,709.23,541.108Zm-6.162-5.4.981,2.333a14.993,14.993,0,0,0,2.522-.783q-.281.767-.981,2.316a22.057,22.057,0,0,0-1.261,3.083,12.424,12.424,0,0,1-1.261,2.593ZM686.247,547.69q.842-2.053,1.682-3.863.421,1.42.841,3.328A11.2,11.2,0,0,1,686.247,547.69Zm6.025.035c-.184-.628-.419-1.664-.7-3.1q-.7-3.1-.982-4.535l-1.542,1.159,1.682-3.863q.98-2.557,1.542-3.849ZM699,545.72l-2.8.326V541.4l2.8-.325Zm0-11.01-2.8.325V529.9l2.8-.325Z" transform="translate(-3.154 -3.378)"/><path class="b" d="M761.724,554.924q-1.868-3.457-7.123-8.37-.969-1.1,0-1.8,3.526-2.556,6.984-4.978,2.144-1.656,1.521-3.8a8.279,8.279,0,0,0-1.59-1.936l-.692-.761q-1.036-1.036-.139-1.38a4.324,4.324,0,0,0,2.075-2.558,5.467,5.467,0,0,0-1.521-5.738q-2.972-3.043-5.946-5.947a24.64,24.64,0,0,0-3.8-2.143,29.631,29.631,0,0,0-13.761-1.867,26.751,26.751,0,0,0-12.72,4.7,13.494,13.494,0,0,0-4.357,5.256,11.2,11.2,0,0,0,1.38,11.34,61.99,61.99,0,0,0,5.739,6.292q1.312,1.246.069,2.143-7.122,5.6-7.467,12.377a11.712,11.712,0,0,0,2.7,8.713q3.041,3.18,6.153,6.223a14.594,14.594,0,0,0,6.364,3.043,38.073,38.073,0,0,0,12.377.9,22.7,22.7,0,0,0,10.234-3.6,12.64,12.64,0,0,0,4.356-5.325A11.53,11.53,0,0,0,761.724,554.924Zm-5.878,6.223a10.768,10.768,0,0,1-4.909,4.563,19.632,19.632,0,0,1-5.117,1.936q-4.495,1.246-12.516.139a20.389,20.389,0,0,1-5.117-1.521,10.274,10.274,0,0,1-4.909-4.148,11.553,11.553,0,0,1-1.314-6.362q.484-7.4,9.82-13.138,1.243-.69-.14-1.59a60.01,60.01,0,0,1-5.738-4.148l-1.176-1.1a11.751,11.751,0,0,1-3.387-6.569q-.484-6.014,5.117-9.888a26.231,26.231,0,0,1,17.147-4.083,20.031,20.031,0,0,1,11.479,4.426,3.816,3.816,0,0,1,.828,5.255,2.557,2.557,0,0,1-1.867.969,5.671,5.671,0,0,1-3.8-.969,16.731,16.731,0,0,0-7.675-2.143,19.938,19.938,0,0,0-12.239,2.7q-4.011,3.388,1.452,7.4a40.259,40.259,0,0,0,5.117,3.25q3.111,2.213,5.117,1.244a79.145,79.145,0,0,1,12.795-6.085q1.589-.691,2.075.484a1.773,1.773,0,0,1-.622,1.521l-8.922,6.43a2.519,2.519,0,0,0-1.175,1.1q0,.276,1.175,1.38Q760.55,552.02,755.846,561.147Zm-4.287-30.287a61.934,61.934,0,0,0-9.265,4.563q-1.314.828-1.936.623a22.4,22.4,0,0,1-4.149-2.143q-1.1-.691-1.037-1.038a2.942,2.942,0,0,1,1.656-1.656,20.005,20.005,0,0,1,14.52-1.245Q752.665,530.377,751.559,530.86Z" transform="translate(-6.3 -2.985)"/><path class="b" d="M745.643,552.827a29.251,29.251,0,0,0-4.7-3.872,2.545,2.545,0,0,0-2.558-.139,30.017,30.017,0,0,0-4.287,2.558q-5.256,3.526-5.393,7.4,0,4.841,4.909,6.223a19.579,19.579,0,0,0,11.48-.552Q753.874,560.433,745.643,552.827Zm2.144,5.393h0q.969,2.974-2.766,4.5a17.5,17.5,0,0,1-8.781,1.244q-1.244-.208-1.037-1.38a9.129,9.129,0,0,1,2.489-3.318,30.62,30.62,0,0,1,5.117-3.527l.276-.207a2.255,2.255,0,0,1,2.351.07l1.1.828A3.715,3.715,0,0,1,747.787,558.219Z" transform="translate(-7.022 -5.797)"/><path class="b" d="M726.109,587.279l-1.968-4.1-1.05,4.415-4.514.6,3.891,2.365-.822,4.467,3.455-2.958,4.006,2.163-1.756-4.193,3.3-3.127Z" transform="translate(-6.209 -8.577)"/><path class="b" d="M708.258,588.986l-1.968-4.1-1.05,4.415-4.515.6,3.891,2.365-.821,4.467,3.455-2.958,4.006,2.163-1.756-4.193,3.3-3.127Z" transform="translate(-4.777 -8.714)"/><path class="b" d="M690.393,590.907l-1.968-4.1-1.049,4.415-4.515.6,3.891,2.365-.822,4.467,3.455-2.958,4.007,2.163-1.756-4.193,3.3-3.127Z" transform="translate(-3.344 -8.868)"/><path class="b" d="M688.269,515.458a10.409,10.409,0,0,0,1.406-.1,10.122,10.122,0,0,0,3.617-1.143l.067-.038a9.079,9.079,0,0,0,3.778-4.533,6.715,6.715,0,0,0,6.17,3.717,9.241,9.241,0,0,0,1.235-.086,7.951,7.951,0,0,0,3.181-1.1,2.59,2.59,0,0,0,1.005.061l2.441-.327a2.611,2.611,0,0,0,2.265-2.589V492.926a2.611,2.611,0,0,1-.4-4.7V485c0-2.6-.11-4.442-1.569-6.242-1.564-1.975-3.883-2.771-6.883-2.368a9.121,9.121,0,0,0-7.427,5.346c-.678-1.6-2.562-4.272-7.528-3.6a10.068,10.068,0,0,0-4.667,1.766c-1.152.828-3.832,3.311-3.832,8.418a14.416,14.416,0,0,0,2.759,8.318l.023.031c.5.763,1.022,1.48,1.537,2.172l-2.313.311a2.612,2.612,0,0,0-2.264,2.589v5.1c0,1.755,0,4.4,2.086,6.518A7.1,7.1,0,0,0,688.269,515.458Zm10.844-31.979a6.639,6.639,0,0,1,5.8-4.662c.777-.106,3.144-.423,4.64,1.463.881,1.087,1.038,2.182,1.038,4.719v3.369l-4.076.546v-3.679c0-.148-.011-.307-.021-.465s-.022-.331-.022-.487l-.009-.119a1.946,1.946,0,0,0-.509-1.411,1.4,1.4,0,0,0-1.124-.2,2.027,2.027,0,0,0-1.136.47c-.792.672-.784,1.853-.778,2.8v17.95a6.782,6.782,0,0,0,.286,2.629,1.324,1.324,0,0,0,1.528.644,2.184,2.184,0,0,0,1.1-.431,2.928,2.928,0,0,0,.808-2.43V497.4l-2.483.334v-4.079l6.823-.914,0,16.723-2.724.368-.335-1.183a4.983,4.983,0,0,1-3.71,2.207,6.543,6.543,0,0,1-.911.068,4.491,4.491,0,0,1-2.6-.773c-1.96-1.392-2.115-3.642-2.115-6.225v-15.44A14.616,14.616,0,0,1,699.113,483.479Zm6.3,7.537-.049.006v-.035ZM683.322,501.6l4.076-.547v5.817c0,1.416.2,2,.785,2.312a1.614,1.614,0,0,0,1.123.211c1.823-.284,1.821-2.22,1.82-3.633v-.087a7.955,7.955,0,0,0-1.456-5.076c-.621-1.012-1.332-1.969-2.023-2.893-.568-.761-1.152-1.547-1.686-2.365l-.052-.075a11.926,11.926,0,0,1-2.329-6.936c0-3.975,1.968-5.821,2.814-6.431a7.673,7.673,0,0,1,3.561-1.332c2.713-.368,4.4.449,5.059,2.42a6.557,6.557,0,0,1,.313,2.322v5.593l-4.032.541V485.8c0-.021-.006-.081-.011-.155a1.882,1.882,0,0,0-.46-1.358,1.2,1.2,0,0,0-.959-.2c-1.724.232-1.864,1.607-1.864,3.247a8.826,8.826,0,0,0,2.023,5.78c.4.6.819,1.158,1.259,1.748q.262.352.525.71c.449.552.881,1.135,1.355,1.829a11.762,11.762,0,0,1,2.426,7.226c0,1.635-.335,5.586-3.48,7.443a7.513,7.513,0,0,1-2.759.861,7.971,7.971,0,0,1-1.069.075,4.69,4.69,0,0,1-3.563-1.354c-1.288-1.3-1.4-2.943-1.4-4.814Z" transform="translate(-3.184)"/></g></g></svg>