<svg xmlns="http://www.w3.org/2000/svg" width="156" height="156" viewBox="0 0 156 156"><defs><style>.a,.d{fill:none;}.a{stroke:#386db6;stroke-width:2px;}.b{fill:#386db6;}.c{stroke:none;}</style></defs><g transform="translate(-352)"><g class="a" transform="translate(352)"><circle class="c" cx="78" cy="78" r="78"/><circle class="d" cx="78" cy="78" r="77"/></g><g transform="translate(370 27)"><path class="b" d="M83.712,114.386,81.4,110.24l-.816,4.669-4.664.905,4.2,2.219-.577,4.7,3.413-3.3,4.309,2-2.091-4.258,3.24-3.466ZM28.194,89.962v16.182l1.843-.2c1.229-.282,1.024-1.228,1.024-1.228V89.553ZM66.71,117.253,64.4,113.108l-.816,4.669-4.666.905,4.2,2.219-.577,4.7,3.413-3.3,4.309,2-2.091-4.257,3.239-3.467Zm34-5.735-2.306-4.145-.817,4.669-4.664.9,4.2,2.22-.576,4.7,3.413-3.3,4.309,2-2.092-4.257,3.24-3.467Zm-32.78-27.7V100l1.843-.2c1.229-.282,1.024-1.229,1.024-1.229V83.408Zm34.6,7.77a12.791,12.791,0,0,0-.239,4.676q.119,1.078.637.905a.853.853,0,0,0,.379-.429,3.277,3.277,0,0,0,.259-1.071,36.989,36.989,0,0,0,.338-3.84q.1-2.281.179-4.75a14,14,0,0,0-.9,2.16Q102.815,90.405,102.536,91.588ZM139.6,76.064A9.9,9.9,0,0,0,138.43,73.2c-.156-.256-.325-.5-.5-.739.275-.682.537-1.4.783-2.149a23.378,23.378,0,0,0,.987-4.257l.006-.052a13.419,13.419,0,0,0-.231-4.72,7.8,7.8,0,0,0-1.585-3.112,7.159,7.159,0,0,0-.624-.641c.322-.89.621-1.8.893-2.719.482-1.629.922-3.4,1.308-5.261a2.662,2.662,0,0,0-2.933-3.183l-7.008.864a2.662,2.662,0,0,0-2.32,2.343c-.151,1.325-.367,2.729-.646,4.168-.2,1.018-.433,2.044-.708,3.064q-.4.192-.8.422a12.449,12.449,0,0,0-1.412.941c-.037-.059-.078-.117-.118-.174a2.662,2.662,0,0,0,.279-4.287l-5.972-5a2.664,2.664,0,0,0-3.33-.072c-.792.608-1.634,1.2-2.5,1.77-.888.579-1.86,1.182-2.891,1.794-1.13.622-2.359,1.259-3.654,1.893a45.407,45.407,0,0,1-4.193,1.781,2.662,2.662,0,0,0-1.709,2.887l.279,1.879a2.655,2.655,0,0,0,.671,1.41,2.656,2.656,0,0,0-.6.783v-.321a2.663,2.663,0,0,0-2.254-2.631V54.935a2.662,2.662,0,0,0-3.1-2.627l-2.362.393V39.494A2.35,2.35,0,0,0,90.658,37.3a2.347,2.347,0,0,0,1.164-2.027v-2.9c0-2.336-.1-3.989-1.408-5.606-1.408-1.773-3.487-2.488-6.182-2.126a8.19,8.19,0,0,0-6.668,4.8c-.609-1.441-2.3-3.837-6.76-3.234A9.039,9.039,0,0,0,66.613,27.8c-1.034.745-3.441,2.973-3.441,7.559a12.947,12.947,0,0,0,2.474,7.47l.021.027c.447.686.918,1.329,1.38,1.951l-2.077.278a2.346,2.346,0,0,0-2.033,2.324v4.582c0,1.576,0,3.953,1.873,5.853A6.037,6.037,0,0,0,67.726,59.5l-5.78,1a2.664,2.664,0,0,0-2.207,2.623v4.115A2.651,2.651,0,0,0,57.9,66.028V61.08a2.662,2.662,0,0,0-3.1-2.627L48.65,59.477A2.663,2.663,0,0,0,46.425,62.1V67.62l-7.706,1.238a5.939,5.939,0,0,0-1.172-2.113,5.614,5.614,0,0,0-4.4-1.869,8.9,8.9,0,0,0-1.512.137L22.207,66.65A2.662,2.662,0,0,0,20,69.274v41.583a2.663,2.663,0,0,0,3.048,2.636l9.8-1.43c2.146-.288,6.2-2.321,6.2-7.966V98.214l4.112-3.95,3.262,1.522v5.8a2.662,2.662,0,0,0-3.806.551l-1.024,1.434a2.664,2.664,0,0,0-.27,2.621c.652,1.479,3.183,6.308,8.382,6.308.125,0,.228,0,.305-.008,5.78-.062,7.883-5.288,7.884-8.808V74.568a2.66,2.66,0,0,0,1.843-1.221v31.365a2.663,2.663,0,0,0,3.048,2.635l9.8-1.43c2.146-.287,6.2-2.32,6.2-7.966V92.07L82.9,88.12l3.262,1.521v5.8a2.663,2.663,0,0,0-3.8.551l-1.024,1.434a2.662,2.662,0,0,0-.271,2.621c.653,1.48,3.183,6.308,8.382,6.308.126,0,.229,0,.305-.008,5.781-.062,7.883-5.287,7.884-8.808V68.422a2.663,2.663,0,0,0,2.206-2.132c.1.721.207,1.437.33,2.14a25.371,25.371,0,0,0,.868,3.6,4.682,4.682,0,0,0,.414.938,2.663,2.663,0,0,0-1.939,2.562v3.389a2.66,2.66,0,0,0,1.95,2.566c.008.37.016.758.022,1.166.009.653.007,1.363,0,2.118a19.116,19.116,0,0,0-2.084,5,23.6,23.6,0,0,0-.584,3.246,22.04,22.04,0,0,0-.089,3.5c.175,2.751,1.152,4.517,2.944,5.262a4.257,4.257,0,0,0,4.06-.451,6.175,6.175,0,0,0,1.152-1.049v.582a2.658,2.658,0,0,0,2.989,2.643l6.053-.746a2.664,2.664,0,0,0,1.969-1.292,2.663,2.663,0,0,0,3.622.934,65.268,65.268,0,0,0,5.667-3.692,43.465,43.465,0,0,0,5.068-4.322,35.724,35.724,0,0,0,3.4-3.905,28.253,28.253,0,0,0,2.693-4.4,16.984,16.984,0,0,0,1.51-4.856A12.989,12.989,0,0,0,139.6,76.064ZM36.387,91.146,35.6,97.5a1.634,1.634,0,0,0,.79,1.607v4.585c0,4.806-3.892,5.327-3.892,5.327l-9.833,1.434V68.864l9.423-1.64c4.993-.862,4.3,4.3,4.3,4.3V83.692l-5.326,1.019V71.936s.2-1.089-1.434-.819l-1.434.2V86.48l1.477-.211a1.626,1.626,0,0,0,.851,1.516l5.864,3.108Zm6.04.749-5.615,5.393.961-7.709-6.712-3.556v-.131l7.483-1.433,1.355-7.65,3.776,6.8,7.731-1.076-5.331,5.671L49.5,95.193Zm-.369-14.9,4.367-.7v5.751l-1.451.2Zm15.428-5.466-2.253.2v31.546s0,6.146-5.326,6.146c0,0-3.895.4-6.146-4.711l1.024-1.435s1.76,2.244,3.277,2.253c0,0,1.023.072,1.024-2.048V97.028l.128.06a1.721,1.721,0,0,0,.706.153,1.638,1.638,0,0,0,1.391-2.5L49.088,90.2v-1.96l3.923-4.174a1.639,1.639,0,0,0-1.419-2.746l-2.5.349V72.756L37.616,74.6V71.322l11.471-1.843V61.694l6.146-1.024v7.988l2.253-.41Zm21.351-36.02c0-1.091.017-1.913.085-2.613a8.066,8.066,0,0,1,.393-1.883,5.851,5.851,0,0,1,3.993-3.927,7.809,7.809,0,0,1,1.217-.261c.168-.022.42-.055.721-.069l.034,0a5.363,5.363,0,0,1,1.085.06,3.625,3.625,0,0,1,2.327,1.327,4.1,4.1,0,0,1,.267.369c.558.873.665,1.874.665,3.869V35.4l-3.661.491v-3.3c0-.1-.007-.209-.014-.316,0-.035,0-.068,0-.1-.01-.149-.02-.3-.02-.438l-.008-.108a3.318,3.318,0,0,0-.089-.638,1.161,1.161,0,0,0-.368-.628.939.939,0,0,0-.312-.136,1.012,1.012,0,0,0-.118-.051,1.738,1.738,0,0,0-.579.007,1.8,1.8,0,0,0-1.019.422,3.142,3.142,0,0,0-.7,2.516l0,.217v15.9c0,.581.01,1.072.049,1.467a2.457,2.457,0,0,0,.209.894,1.141,1.141,0,0,0,.425.452,1.357,1.357,0,0,0,.947.13,1.976,1.976,0,0,0,.993-.388,2.634,2.634,0,0,0,.726-2.182v-6.1l-2.232.3V40.149l6.127-.822V53.067l-1.586.265a2.643,2.643,0,0,0-1.107.469l-.054-.191a5.312,5.312,0,0,1-.45.569,4.336,4.336,0,0,1-2.194,1.28,6.207,6.207,0,0,1-.688.131,5.822,5.822,0,0,1-.817.062,4.491,4.491,0,0,1-1.107-.134,3.731,3.731,0,0,1-1.233-.561c-1.76-1.25-1.9-3.271-1.9-5.589Zm6.14,2.272-.046.006v-.032C84.946,37.762,84.961,37.771,84.977,37.779ZM77.54,54.509a6.03,6.03,0,0,0,5.54,3.337,8.4,8.4,0,0,0,1.11-.077,7.436,7.436,0,0,0,1.975-.543v4.248l-7.706,1.238A5.957,5.957,0,0,0,77.287,60.6a5.464,5.464,0,0,0-3.548-1.817c.117-.057.236-.108.35-.17l.059-.034A8.146,8.146,0,0,0,77.54,54.509Zm-11.152,1.8c-1.159-1.163-1.253-2.645-1.253-4.322v-4.71l3.31-.444.35-.047v5.218c0,1.271.178,1.8.706,2.076a1.2,1.2,0,0,0,.124.069,1.251,1.251,0,0,0,.206.079,1.642,1.642,0,0,0,.678.041,1.79,1.79,0,0,0,.668-.249,1.756,1.756,0,0,0,.762-1,6.665,6.665,0,0,0,.2-2.012V50.93a12.042,12.042,0,0,0-.062-1.314,6.355,6.355,0,0,0-.27-1.28,8.327,8.327,0,0,0-.976-1.964c-.558-.911-1.2-1.768-1.813-2.6-.272-.365-.536-.755-.808-1.133-.237-.332-.482-.649-.706-.991l-.047-.068a13.439,13.439,0,0,1-1.109-1.9,10.048,10.048,0,0,1-.983-4.326,7.358,7.358,0,0,1,1.541-4.823,5.463,5.463,0,0,1,.987-.952,6.142,6.142,0,0,1,1.909-.907,8.515,8.515,0,0,1,1.29-.283c.247-.033.478-.049.708-.06.053,0,.111-.012.162-.014a3.332,3.332,0,0,1,3.672,2.247,5.888,5.888,0,0,1,.281,2.086v5.022l-3.621.485V33.095a.811.811,0,0,1-.007-.085c0-.021,0-.029,0-.055,0-.053-.007-.121-.012-.186a2.6,2.6,0,0,0-.061-.428,1.115,1.115,0,0,0-.338-.606.9.9,0,0,0-.156-.072,1.151,1.151,0,0,0-.705-.107,2.122,2.122,0,0,0-.637.189c-.936.437-1.037,1.494-1.037,2.726a7.178,7.178,0,0,0,1,3.923c.229.4.5.814.813,1.267.362.536.735,1.04,1.131,1.571.156.211.314.423.472.638.2.247.4.5.6.773s.4.558.617.87c.094.134.166.261.252.392A10.43,10.43,0,0,1,76.156,50a11.35,11.35,0,0,1-.091,1.43,9.616,9.616,0,0,1-.413,1.837,7.6,7.6,0,0,1-.392.957,5.734,5.734,0,0,1-2.23,2.459h0l0,0a6.746,6.746,0,0,1-2.479.773,7.121,7.121,0,0,1-.959.067,5.479,5.479,0,0,1-1.181-.122A3.837,3.837,0,0,1,66.388,56.311ZM76.128,85l-.791,6.35a1.636,1.636,0,0,0,.791,1.608v4.585c0,4.805-3.893,5.326-3.893,5.326L62.4,104.3V62.718l9.423-1.639c4.993-.862,4.3,4.3,4.3,4.3V77.546L70.8,78.566V65.791s.2-1.089-1.434-.819l-1.434.2V80.335l1.477-.212a1.628,1.628,0,0,0,.852,1.517l5.865,3.107Zm6.039.75-5.615,5.393.961-7.709L70.8,79.877v-.13l7.483-1.433,1.355-7.65,3.777,6.8,7.73-1.076-5.331,5.672,3.423,6.985Zm-.369-14.9,4.367-.7V75.9l-1.45.2Zm15.428-5.466-2.253.2V97.132s0,6.145-5.326,6.145c0,0-3.895.4-6.146-4.711l1.024-1.434s1.761,2.244,3.277,2.253c0,0,1.023.072,1.025-2.048V90.883l.128.059a1.641,1.641,0,0,0,2.1-2.344l-2.224-4.54V82.1l3.923-4.173a1.639,1.639,0,0,0-1.42-2.746l-2.5.348V66.61L77.357,68.453V65.176l11.471-1.843V55.548l6.145-1.024v7.989l2.253-.41Zm9.391-9.306q2.009-.985,3.8-1.972,1.631-.965,3.026-1.876t2.668-1.887l5.972,5q-2.149.867-4.559,1.628T112.49,58.33q-2.428.574-4.957.966t-5.076.544l-.279-1.879A47.811,47.811,0,0,0,106.617,56.075Zm10.153,6.783c-.067-.046-.126-.029-.179.05q-.8,1.3-1.593,2.793t-1.712,3.136a2.385,2.385,0,0,1-.737.8,1.947,1.947,0,0,1-.816.32,1.217,1.217,0,0,1-.876-.22,1.653,1.653,0,0,1-.6-.856,14.055,14.055,0,0,1-.438-1.613q-.16-.773-.32-1.628a.3.3,0,0,0-.218-.218.188.188,0,0,0-.259.114q-.559,1.052-1.156,2.219T106.8,70.073a3.354,3.354,0,0,1-.756,1.159,2.664,2.664,0,0,1-.876.573,1.073,1.073,0,0,1-.956-.1,1.567,1.567,0,0,1-.636-.905,22.819,22.819,0,0,1-.777-3.238q-.338-1.927-.537-3.924l4.818-2.945q.118,1.189.3,2.314t.379,2.031a.191.191,0,0,0,.279.129.493.493,0,0,0,.278-.253,46.5,46.5,0,0,1,2.628-4.587,1.582,1.582,0,0,1,1.632-.8,1.509,1.509,0,0,1,.816.391,1.625,1.625,0,0,1,.5.923q.158.746.319,1.547c.107.533.213.994.319,1.381.053.14.126.2.219.192a.3.3,0,0,0,.218-.137q.518-1.047,1.216-2.2t1.493-2.453a2.114,2.114,0,0,1,1-.861,2.3,2.3,0,0,1,1.154-.115,2.442,2.442,0,0,1,1.016.421,2.349,2.349,0,0,1,.737.894,4.351,4.351,0,0,1,.457,1.992,10.769,10.769,0,0,1-.259,2.464q-.4,1.963-.876,3.661t-1.034,3.243l-4.738-1.656q.476-1.424.895-2.953t.817-3.161A.211.211,0,0,0,116.771,62.858Zm.418,33.7q.079-2.087-.02-4.426a39.4,39.4,0,0,0-.538-4.908,11.363,11.363,0,0,0-1.034-3.207V99.707l-6.053.746V82.088a11.134,11.134,0,0,0-1.274.649q-.079,1.705-.2,3.222t-.319,3.291q-.081.667-.259,1.645T107.035,93a23.275,23.275,0,0,1-.677,2.243,14.164,14.164,0,0,1-.876,1.993,4.379,4.379,0,0,1-1.274,1.5,1.557,1.557,0,0,1-1.553.164q-1.114-.466-1.273-2.959a19.081,19.081,0,0,1,.08-3.043,20.727,20.727,0,0,1,.517-2.879,16.041,16.041,0,0,1,2.151-4.856q.039-1.591.02-2.954t-.06-2.452l4.26-.526c0,.4-.006.775-.02,1.122s-.02.686-.02,1.014q.318-.147.617-.322c.2-.115.4-.222.618-.322V77.605l-7.367.908V75.125l7.367-.908V70.937l6.053-.746v3.279l6.888-.849V76.01l-6.888.849v3.279a8.1,8.1,0,0,1,1.811.87,5.649,5.649,0,0,1,1.533,1.505,18.635,18.635,0,0,1,2.488,4.64,27.4,27.4,0,0,1,1.374,5.6Zm20.028-16.134a14.255,14.255,0,0,1-1.273,4.092,25.5,25.5,0,0,1-2.43,3.961,32.831,32.831,0,0,1-3.145,3.613,40.811,40.811,0,0,1-4.758,4.057,62.239,62.239,0,0,1-5.435,3.539l-.558-1.68q1.91-1.93,3.463-3.843t2.868-3.824q1.314-1.91,2.468-3.939t2.27-4.188a9.428,9.428,0,0,0,1.195-4.684,22.641,22.641,0,0,1-2.11,2.528,18.4,18.4,0,0,1-2.27,2,3.114,3.114,0,0,1-2.309.7,2.429,2.429,0,0,1-1.752-1.014,4.137,4.137,0,0,1-.717-1.961A6.477,6.477,0,0,1,123,77.094a8.129,8.129,0,0,1,1.156-2.493,7.914,7.914,0,0,1,1.712-1.8,7.215,7.215,0,0,1,1.891-1.081,8.569,8.569,0,0,1,1.971-.488q.438-1.366.757-2.744t.6-2.67a7.613,7.613,0,0,0,.12-2.529q-.4.542-.956,1.238t-1.175,1.348a16.367,16.367,0,0,1-1.254,1.193,4.686,4.686,0,0,1-1.195.776,3.379,3.379,0,0,1-1.831.253,2.6,2.6,0,0,1-1.434-.67,3.057,3.057,0,0,1-.816-1.867,5.2,5.2,0,0,1,.218-2.269,7.3,7.3,0,0,1,1.952-2.973,10.054,10.054,0,0,1,1.652-1.188,8.885,8.885,0,0,1,1.692-.755q.677-2.269,1.114-4.537t.677-4.375l7.009-.864q-.559,2.692-1.255,5.047a44.27,44.27,0,0,1-1.613,4.543,4.672,4.672,0,0,1,1.871,1.3,5.111,5.111,0,0,1,1.036,2.059,10.714,10.714,0,0,1,.159,3.752,20.635,20.635,0,0,1-.875,3.77,28.743,28.743,0,0,1-1.394,3.506,6.542,6.542,0,0,1,1.374,1.608,7.209,7.209,0,0,1,.857,2.108A10.294,10.294,0,0,1,137.216,80.425ZM127.3,73.449a6.992,6.992,0,0,0-1.713,1.195,6.771,6.771,0,0,0-1.911,3.406,2.268,2.268,0,0,0,.358,2.2,1.031,1.031,0,0,0,.8.257,1.3,1.3,0,0,0,.916-.632,15.487,15.487,0,0,0,1.793-2.981q.835-1.769,1.552-3.772A2.682,2.682,0,0,0,127.3,73.449ZM124.157,62.6a6.47,6.47,0,0,0-.678,1.314,2.126,2.126,0,0,0-.119,1.053,1.316,1.316,0,0,0,.319.726.757.757,0,0,0,.677.244,1.149,1.149,0,0,0,.756-.586,18.4,18.4,0,0,0,1.294-2.427q.577-1.3,1.1-2.787a4.081,4.081,0,0,0-2.19,1.09A7.167,7.167,0,0,0,124.157,62.6Z" transform="translate(-20 -24.554)"/></g></g></svg>