<svg xmlns="http://www.w3.org/2000/svg" width="157" height="157" viewBox="0 0 157 157">
  <path id="BCSSC_-_Credit" data-name="BCSSC - Credit" d="M0-2A78,78,0,0,1,78-80,78,78,0,0,1,156-2,78,78,0,0,1,78,76,78,78,0,0,1,0-2ZM2.4-2A75.685,75.685,0,0,0,78,73.6,75.686,75.686,0,0,0,153.6-2,75.686,75.686,0,0,0,78-77.6,75.685,75.685,0,0,0,2.4-2ZM61.685,40.554l-4.062-2.146,4.511-.874.788-4.513,2.23,4.007,4.548-.644-3.131,3.352,2.021,4.115-4.165-1.935-3.3,3.186ZM78.12,37.781l-4.061-2.146,4.51-.874.789-4.514,2.229,4.008,4.549-.644-3.131,3.351,2.021,4.116-4.164-1.935-3.3,3.186Zm16.436-2.772-4.062-2.146L95,31.989l.788-4.513,2.23,4.007,4.548-.643L99.44,34.19l2.021,4.116L97.3,36.37,94,39.556ZM20.89,32.792A2.578,2.578,0,0,1,20,30.845v-40.2a2.575,2.575,0,0,1,2.133-2.536l9.109-1.584a8.578,8.578,0,0,1,1.462-.132A5.433,5.433,0,0,1,36.962-11.8a5.744,5.744,0,0,1,1.132,2.043l7.449-1.2v-5.331a2.574,2.574,0,0,1,2.151-2.539l5.942-.991a2.577,2.577,0,0,1,2.086.576,2.572,2.572,0,0,1,.911,1.964v4.783a2.575,2.575,0,0,1,1.253.567,2.578,2.578,0,0,1,.529.608v-3.978a2.574,2.574,0,0,1,2.133-2.536l9.109-1.584a8.568,8.568,0,0,1,1.461-.132,5.426,5.426,0,0,1,4.259,1.807A5.729,5.729,0,0,1,76.509-15.7l7.45-1.2v-5.331a2.574,2.574,0,0,1,2.151-2.539l5.941-.99a2.58,2.58,0,0,1,2.087.574,2.578,2.578,0,0,1,.91,1.965v4.783a2.579,2.579,0,0,1,1.254.568,2.578,2.578,0,0,1,.924,1.976v.309a2.576,2.576,0,0,1,.585-.757,2.551,2.551,0,0,1-.65-1.362l-.269-1.817A2.572,2.572,0,0,1,98.544-22.3c1.475-.547,2.839-1.126,4.054-1.722,1.251-.614,2.439-1.228,3.532-1.83,1-.591,1.937-1.175,2.8-1.734.839-.547,1.652-1.123,2.418-1.711a2.576,2.576,0,0,1,3.22.069l5.773,4.836a2.579,2.579,0,0,1,.89,2.376,2.578,2.578,0,0,1-1.16,1.769c.039.055.076.11.113.167a12.24,12.24,0,0,1,1.365-.91q.389-.22.778-.407c.265-.987.493-1.979.684-2.962.268-1.392.479-2.748.625-4.03a2.574,2.574,0,0,1,2.243-2.264l6.774-.835a2.576,2.576,0,0,1,2.208.811,2.576,2.576,0,0,1,.627,2.267c-.374,1.8-.8,3.51-1.265,5.086q-.4,1.334-.863,2.628a6.543,6.543,0,0,1,.6.62,7.536,7.536,0,0,1,1.533,3.008,12.969,12.969,0,0,1,.222,4.562l-.005.05a22.666,22.666,0,0,1-.954,4.117c-.238.723-.491,1.417-.757,2.075.171.229.333.467.484.715a9.554,9.554,0,0,1,1.133,2.765,12.56,12.56,0,0,1,.24,5A16.42,16.42,0,0,1,134.4,6.9a27.447,27.447,0,0,1-2.6,4.25,34.529,34.529,0,0,1-3.287,3.775,42.224,42.224,0,0,1-4.9,4.179,63.238,63.238,0,0,1-5.479,3.568,2.574,2.574,0,0,1-3.5-.9,2.57,2.57,0,0,1-1.9,1.248l-5.85.723a2.664,2.664,0,0,1-.315.019,2.574,2.574,0,0,1-2.574-2.574v-.563a5.986,5.986,0,0,1-1.114,1.013,4.113,4.113,0,0,1-3.926.436c-1.731-.721-2.676-2.426-2.846-5.087a21.258,21.258,0,0,1,.086-3.383,22.815,22.815,0,0,1,.565-3.139,18.441,18.441,0,0,1,2.014-4.83c.012-.731.013-1.417,0-2.048,0-.393-.013-.769-.021-1.126A2.594,2.594,0,0,1,97.733,1.9a2.577,2.577,0,0,1-.868-1.929V-3.3a2.575,2.575,0,0,1,1.874-2.478,4.572,4.572,0,0,1-.4-.907,24.406,24.406,0,0,1-.839-3.483c-.119-.679-.225-1.371-.319-2.069a2.574,2.574,0,0,1-2.132,2.062V17.974c0,3.4-2.034,8.453-7.621,8.514-.074,0-.173.008-.3.008-5.026,0-7.473-4.668-8.1-6.1a2.571,2.571,0,0,1,.261-2.533l.99-1.386a2.573,2.573,0,0,1,3.679-.533v-5.61L80.806,8.865l-3.974,3.818V18.37c0,5.456-3.922,7.422-6,7.7l-9.474,1.382a2.59,2.59,0,0,1-.372.026A2.576,2.576,0,0,1,58.415,24.9V-5.415a2.566,2.566,0,0,1-1.782,1.18V23.914c0,3.4-2.034,8.454-7.621,8.514-.076,0-.175.008-.3.008-5.026,0-7.473-4.668-8.1-6.1a2.573,2.573,0,0,1,.261-2.534l.99-1.386a2.574,2.574,0,0,1,3.678-.533v-5.61l-3.153-1.47-3.976,3.818V24.31c0,5.457-3.92,7.423-5.995,7.7l-9.475,1.382a2.574,2.574,0,0,1-2.055-.6ZM31.683-11.333,22.574-9.749v40.2l9.5-1.386s3.762-.5,3.762-5.148V19.482a1.583,1.583,0,0,1-.764-1.554l.764-6.138v-.245l-5.669-3a1.573,1.573,0,0,1-.823-1.465l-1.428.2V-7.373l1.387-.2c1.583-.261,1.386.792,1.386.792V5.571l5.148-.986V-7.175s.571-4.252-3.137-4.252A6.016,6.016,0,0,0,31.683-11.333ZM42.97,24.9c2.176,4.941,5.94,4.554,5.94,4.554,5.147,0,5.15-5.94,5.15-5.94V-6.977l2.178-.2v-3.168l-2.178.4V-17.67l-5.942.99v7.525L37.029-7.373V-4.2L48.118-5.987V2.631L50.537,2.3A1.584,1.584,0,0,1,51.91,4.948L48.118,8.983v1.9l2.151,4.388a1.584,1.584,0,0,1-1.345,2.416,1.681,1.681,0,0,1-.682-.149l-.124-.058v6.24c0,2.05-.99,1.98-.99,1.98-1.467-.009-3.168-2.178-3.168-2.178ZM70.1-17.274,60.989-15.69v40.2l9.5-1.386s3.762-.5,3.762-5.149V13.541a1.58,1.58,0,0,1-.764-1.553l.764-6.138V5.605l-5.668-3a1.574,1.574,0,0,1-.824-1.465l-1.427.2V-13.313l1.386-.2c1.583-.261,1.386.792,1.386.792V-.37l5.148-.986V-13.115s.57-4.253-3.138-4.253A6.011,6.011,0,0,0,70.1-17.274ZM81.385,18.963c2.176,4.941,5.94,4.555,5.94,4.555,5.147,0,5.149-5.941,5.149-5.941V-12.917l2.178-.2v-3.169l-2.178.4V-23.61l-5.941.99V-15.1L75.444-13.313v3.168l11.089-1.782v8.618l2.42-.337a1.584,1.584,0,0,1,1.625.841,1.582,1.582,0,0,1-.253,1.813L86.533,3.043v1.9l2.151,4.388a1.588,1.588,0,0,1-2.027,2.267l-.124-.058v6.239c0,2.05-.99,1.98-.99,1.98-1.467-.009-3.168-2.178-3.168-2.178Zm25.174,1.824,5.85-.721V4.9a11.005,11.005,0,0,1,1,3.1,38.11,38.11,0,0,1,.52,4.745q.095,2.261.019,4.277l5.427-3.681a26.44,26.44,0,0,0-1.328-5.41,18.037,18.037,0,0,0-2.406-4.486,5.465,5.465,0,0,0-1.48-1.455,7.942,7.942,0,0,0-1.752-.841V-2.02l6.659-.822V-6.117l-6.659.822V-8.466l-5.85.721v3.171L99.438-3.7V-.421l7.121-.877V1.713c-.206.1-.4.2-.6.311s-.392.216-.6.312c0-.318.006-.643.019-.98s.02-.7.02-1.086l-4.118.508q.038,1.053.057,2.372T101.324,6a15.538,15.538,0,0,0-2.078,4.7,20.165,20.165,0,0,0-.5,2.783,18.563,18.563,0,0,0-.077,2.941q.155,2.411,1.232,2.86a1.506,1.506,0,0,0,1.5-.158,4.239,4.239,0,0,0,1.232-1.447,13.707,13.707,0,0,0,.847-1.927q.383-1.077.653-2.168t.444-2.036q.171-.945.249-1.589.193-1.715.309-3.182t.192-3.115a10.759,10.759,0,0,1,1.232-.627ZM127,3.156q-1.079,2.087-2.194,4.049t-2.387,3.807q-1.269,1.849-2.771,3.7T116.3,18.424l.539,1.625a60.059,60.059,0,0,0,5.252-3.423,39.476,39.476,0,0,0,4.6-3.921,31.85,31.85,0,0,0,3.04-3.492,24.641,24.641,0,0,0,2.347-3.83,13.737,13.737,0,0,0,1.232-3.956,9.948,9.948,0,0,0-.192-3.992,6.976,6.976,0,0,0-.828-2.038,6.348,6.348,0,0,0-1.328-1.553,27.9,27.9,0,0,0,1.347-3.389,19.954,19.954,0,0,0,.847-3.645A10.37,10.37,0,0,0,133-16.817a4.975,4.975,0,0,0-1-1.99,4.538,4.538,0,0,0-1.809-1.256,43.179,43.179,0,0,0,1.559-4.393q.674-2.276,1.213-4.878l-6.775.834q-.229,2.037-.654,4.228t-1.078,4.387a8.663,8.663,0,0,0-1.634.73,9.743,9.743,0,0,0-1.6,1.148,7.057,7.057,0,0,0-1.885,2.875,5,5,0,0,0-.212,2.192,2.955,2.955,0,0,0,.789,1.805,2.51,2.51,0,0,0,1.385.648,3.279,3.279,0,0,0,1.771-.244,4.557,4.557,0,0,0,1.155-.751,16.2,16.2,0,0,0,1.212-1.154q.6-.628,1.135-1.3c.359-.448.667-.849.923-1.2a7.363,7.363,0,0,1-.114,2.445q-.27,1.249-.579,2.58t-.731,2.653a8.256,8.256,0,0,0-1.905.473,6.944,6.944,0,0,0-1.828,1.044A7.7,7.7,0,0,0,120.684-4.2a7.858,7.858,0,0,0-1.116,2.409A6.272,6.272,0,0,0,119.3.8a4,4,0,0,0,.693,1.9,2.344,2.344,0,0,0,1.694.98,3.017,3.017,0,0,0,2.233-.671,17.937,17.937,0,0,0,2.192-1.935,21.708,21.708,0,0,0,2.04-2.444A9.1,9.1,0,0,1,127,3.156ZM37.927,5.327,30.693,6.712v.126l6.488,3.438-.929,7.452,5.428-5.213L48.515,15.7,45.207,8.95l5.152-5.483-7.472,1.04-3.65-6.575ZM76.342-.614,69.108.771V.9L75.6,4.335l-.93,7.452,5.428-5.214L86.93,9.762,83.622,3.009l5.153-5.482L81.3-1.433l-3.65-6.576ZM41.323-1.891l2.819,5.076,1.4-.2V-2.569ZM79.738-7.832l2.818,5.076,1.4-.2V-8.51ZM99.515-14.8q.192,1.932.52,3.793a22.279,22.279,0,0,0,.75,3.131A1.521,1.521,0,0,0,101.4-7a1.042,1.042,0,0,0,.923.1,2.585,2.585,0,0,0,.848-.554A3.269,3.269,0,0,0,103.9-8.58q.462-1.114,1.039-2.241t1.116-2.146a.185.185,0,0,1,.251-.11.3.3,0,0,1,.212.212q.154.826.308,1.572a13.473,13.473,0,0,0,.424,1.561,1.6,1.6,0,0,0,.577.827,1.176,1.176,0,0,0,.847.212A1.881,1.881,0,0,0,109.465-9a2.326,2.326,0,0,0,.712-.775q.884-1.588,1.655-3.031t1.539-2.7c.052-.076.109-.093.174-.048a.2.2,0,0,1,.057.23q-.383,1.58-.788,3.056t-.866,2.854l4.581,1.6q.537-1.494,1-3.135t.847-3.539a10.5,10.5,0,0,0,.25-2.382,4.206,4.206,0,0,0-.443-1.927,2.261,2.261,0,0,0-.712-.863,2.366,2.366,0,0,0-.982-.408,2.225,2.225,0,0,0-1.116.111,2.042,2.042,0,0,0-.962.832q-.771,1.26-1.444,2.372t-1.174,2.126a.282.282,0,0,1-.211.132c-.091.011-.161-.05-.212-.185q-.154-.563-.308-1.336c-.1-.517-.206-1.013-.308-1.494a1.573,1.573,0,0,0-.481-.892,1.463,1.463,0,0,0-.789-.378,1.529,1.529,0,0,0-1.578.775,44.747,44.747,0,0,0-2.541,4.434.47.47,0,0,1-.27.245.184.184,0,0,1-.269-.125q-.193-.875-.365-1.963t-.289-2.236Zm10.816-11.029q-1.349.879-2.925,1.813-1.732.954-3.676,1.906a46.511,46.511,0,0,1-4.292,1.823l.27,1.817q2.461-.146,4.907-.526t4.792-.934q2.542-.576,4.869-1.314t4.407-1.573l-5.773-4.837Q111.676-26.71,110.331-25.831ZM27.921,10.647l2.772-.4V24.9s.2.915-.99,1.188l-1.782.2ZM66.336,4.706l2.772-.4V18.963s.2.915-.99,1.188l-1.782.2ZM99.554,16.737a12.366,12.366,0,0,1,.23-4.521q.269-1.142.635-2.271a13.546,13.546,0,0,1,.866-2.088q-.078,2.387-.173,4.592a34.953,34.953,0,0,1-.328,3.713,3.174,3.174,0,0,1-.249,1.035.827.827,0,0,1-.366.415.414.414,0,0,1-.131.023Q99.653,17.635,99.554,16.737ZM120.569,1.254a2.189,2.189,0,0,1-.347-2.124,6.545,6.545,0,0,1,1.848-3.291,6.825,6.825,0,0,1,1.655-1.156,2.593,2.593,0,0,1,1.733-.319q-.694,1.935-1.5,3.646A14.923,14.923,0,0,1,122.224.891a1.257,1.257,0,0,1-.885.612l-.088,0A.976.976,0,0,1,120.569,1.254Zm-.347-14.064a1.275,1.275,0,0,1-.308-.7,2.034,2.034,0,0,1,.116-1.018,6.206,6.206,0,0,1,.653-1.271,7,7,0,0,1,1.116-1.326,3.948,3.948,0,0,1,2.118-1.054q-.5,1.436-1.058,2.693a17.946,17.946,0,0,1-1.251,2.347,1.114,1.114,0,0,1-.732.566.9.9,0,0,1-.106.006A.727.727,0,0,1,120.223-12.811ZM60.491-29.953a4.581,4.581,0,0,0,1.23-3.774V-44.883h5.5v-1.968H70.17v1.968h4.84v3.692H72.385v-1.723H70.17v3.527H74.19V-37.5a13.708,13.708,0,0,1-3.035,5.742,11.012,11.012,0,0,0,3.774,1.805v1.886a27.436,27.436,0,0,1-5.578-2.215,31.417,31.417,0,0,1-5.5,2.3v-1.968a11.059,11.059,0,0,0,3.691-1.805,12.722,12.722,0,0,1-2.871-4.757h2.871a12.732,12.732,0,0,0,1.805,3.035,11.8,11.8,0,0,0,1.8-3.937H64.428V-34.3a6.268,6.268,0,0,1-3.937,6.48Zm3.937-9.434h2.789v-3.527H64.428Zm22.64,9.269q2.051-2.87,2.133-8.121H87.561q-.082,7.055-4.757,10.172V-30.2q2.132-2.871,2.132-8.039H83.787v-1.886A35.06,35.06,0,0,0,90.1-43.9H84.443V-45.95h10.5V-43.9a27.239,27.239,0,0,1-6.4,3.691h7.136v8.778q.165,3.282-3.117,3.118H90.6v-1.805h1.066q1.314.082,1.231-1.312v-6.809H91.827q-.082,7.218-4.758,10.172ZM56.143-28.312a23.188,23.188,0,0,0,1.969-8.2h2.542a28.234,28.234,0,0,1-1.476,8.2ZM77.225-32.25h.246a7.143,7.143,0,0,1,1.559-.165v-8.859H77.471v-2.051H79.03v-3.527h2.953v3.527H83.46v2.051H81.983v8.2l1.559-.41v1.969a21,21,0,0,1-6.316,1.559ZM57.947-37.582a16.853,16.853,0,0,0-1.23-4.019h2.625a18.21,18.21,0,0,1,1.312,4.019Zm-.246-4.84a15.506,15.506,0,0,0-1.23-4.019h2.707a21.979,21.979,0,0,1,1.23,4.019Z" transform="translate(0.5 80.5)" fill="#386db6" stroke="rgba(0,0,0,0)" stroke-width="1"/>
</svg>
