<svg xmlns="http://www.w3.org/2000/svg" xmlns:xlink="http://www.w3.org/1999/xlink" width="300" height="161.08" viewBox="0 0 300 161.08"><defs><style>.a,.x,.z{fill:none;}.b{clip-path:url(#a);}.c{fill:#fff;}.d{fill:url(#b);}.e{clip-path:url(#c);}.f{opacity:0.46;fill:url(#d);}.g{fill:url(#e);}.h{clip-path:url(#f);}.i{fill:#989898;}.j{fill:#ffcac3;}.k{fill:url(#g);}.l{fill:#980f04;}.m{fill:#4a0606;}.m,.o,.t,.w{opacity:0.5;}.n{fill:#740009;}.o{fill:#aecadf;}.p,.w{fill:#e52635;}.q{fill:#fbd1c3;}.r{fill:#e6e6e5;}.s{fill:#f9b394;}.t{fill:#a7000d;}.u{fill:#f38696;}.v{fill:#ce011f;}.x,.y{stroke:#f4a036;}.x,.y,.z{stroke-miterlimit:10;}.x,.z{stroke-width:2px;}.y{fill:#f4a036;}.z{stroke:#e5e5e4;}</style><clipPath id="a"><rect class="a" width="300" height="161.08"/></clipPath><linearGradient id="b" x1="0.012" y1="0.518" x2="0.989" y2="0.549" gradientUnits="objectBoundingBox"><stop offset="0" stop-color="#faa31b"/><stop offset="1" stop-color="#ce2026"/></linearGradient><clipPath id="c"><path class="a" d="M557.8,1151.66A68.42,68.42,0,0,1,595.85,1277c-7.09,0-63.33-.39-75-.19-20.49-11.61-31.5-31.12-31.5-56.67a68.44,68.44,0,0,1,68.44-68.44Z" transform="translate(-412.06 -1116.92)"/></clipPath><linearGradient id="d" x1="-0.872" y1="6.836" x2="-0.869" y2="6.835" xlink:href="#b"/><linearGradient id="e" x1="-1.88" y1="32.094" x2="-1.876" y2="32.081" xlink:href="#b"/><clipPath id="f"><rect class="a" width="165.94" height="159.85" transform="translate(66.26)"/></clipPath><linearGradient id="g" x1="0.5" x2="0.5" y2="1" gradientUnits="objectBoundingBox"><stop offset="0.46" stop-color="#fff"/><stop offset="1" stop-color="#dededd"/></linearGradient></defs><g class="b"><rect class="a" width="300" height="160.99"/><path class="c" d="M712.06,1277.91v-54H712a31.37,31.37,0,0,0-39.75-27.57,31.388,31.388,0,1,0-56.573,27.211l.183.359H496.61a31.38,31.38,0,0,0-53.1-28.74h-.06a31.378,31.378,0,0,0-31.269,28.824l-.121.006v54Z" transform="translate(-412.06 -1116.92)"/><path class="d" d="M521,1277h73.6a68.43,68.43,0,1,0-73.61,0Z" transform="translate(-412.06 -1116.92)"/><g class="e"><path class="f" d="M657.91,1277a26,26,0,0,0,2.1-10.18c0-28.13-47.11-50.94-105.23-50.94s-105.24,22.81-105.24,50.95a26.191,26.191,0,0,0,2.1,10.17Z" transform="translate(-412.06 -1116.92)"/><path class="g" d="M494.23,1309.3c17.12,5.84,38,9.27,60.55,9.27s43.43-3.43,60.55-9.27Z" transform="translate(-412.06 -1116.92)"/></g><g class="h"><rect class="c" width="17.39" height="30.41" transform="translate(87.957 150.387) rotate(-30.72)"/><path class="i" d="M522.94,1286.17a1.63,1.63,0,1,0,2.57.3,1.88,1.88,0,0,0-2.57-.3Z" transform="translate(-412.06 -1116.92)"/><path d="M525.12,1289.84l-39.93,23.82v-39.77l22.48-13.41,1,1.66,1.83,3.09,1.13,1.88,1.6,2.7,5.56,9.35,3.56,6,.6,1,1.25,2.1.37.61Z" transform="translate(-412.06 -1116.92)"/><path class="j" d="M510.74,1201.39l18.87,31.87-16,9.49a5.11,5.11,0,0,1-6.06-.62,5.252,5.252,0,0,1-.94-1.15l-13.68-23.11a5.2,5.2,0,0,1-.56-1.38,1.285,1.285,0,0,1,0-.19,5.14,5.14,0,0,1,.88-4,5,5,0,0,1,1.53-1.39Z" transform="translate(-412.06 -1116.92)"/><path class="c" d="M510.74,1201.39l1.74,2.95-20.2,12a5.17,5.17,0,0,1,2.42-5.42Z" transform="translate(-412.06 -1116.92)"/><rect class="j" width="15.78" height="37.01" transform="matrix(0.861, -0.509, 0.509, 0.861, 85.09, 92.505)"/><path class="k" d="M589.89,1127.71l42.38,71.57a38.849,38.849,0,0,1-4.43.43c-3.51.2-7.87.27-14.73,1.19-10.29,1.39-35.37,9-48.32,13-4.88,1.52-8,2.54-8,2.54l-12.8,7-17.71-29.9,12.28-7.86s2.41-2.28,6.09-5.82c9.77-9.42,28.47-27.77,34.63-36.12,4.11-5.57,6.27-9.36,8.12-12.34A39.9,39.9,0,0,1,589.89,1127.71Z" transform="translate(-412.06 -1116.92)"/><path class="c" d="M537.93,1191s2.68-2.52,6.76-6.45c10.83-10.44,31.58-30.8,38.41-40.07,4.4-6,6.79-10.1,8.8-13.35l-2-3.41a41.715,41.715,0,0,0-2.51,3.67,147.466,147.466,0,0,1-8.12,12.35c-6.16,8.35-24.86,26.7-34.63,36.12-3.68,3.54-6.09,5.82-6.09,5.82l-12.27,7.85,2.12,3.59Z" transform="translate(-412.06 -1116.92)"/><path class="j" d="M544.62,1179.84l20.17,34.06c-4.88,1.52-8,2.54-8,2.54l-12.8,7-17.71-29.9,12.28-7.86S540.94,1183.39,544.62,1179.84Z" transform="translate(-412.06 -1116.92)"/><rect class="l" width="50.22" height="40.19" rx="2.03" transform="matrix(0.861, -0.509, 0.509, 0.861, 86.099, 90.057)"/><path class="m" d="M534.21,1207.42l-7.74,4.59a2.59,2.59,0,0,1-3.54-.91h0a2.59,2.59,0,0,1,.91-3.54l7.74-4.58a2.6,2.6,0,0,1,3.54.9h0a2.59,2.59,0,0,1-.91,3.54Z" transform="translate(-412.06 -1116.92)"/><path class="n" d="M542.45,1183.13l1.52,2.57-43.24,25.6-1.52-2.57a2,2,0,0,1,.71-2.79l39.74-23.53a2,2,0,0,1,2.79.72Z" transform="translate(-412.06 -1116.92)"/><path class="o" d="M513.26,1198.05l20.49,34.6-13.34,7.9a2,2,0,0,1-2.79-.72l-18.41-31.1a2,2,0,0,1,.71-2.79Z" transform="translate(-412.06 -1116.92)"/><path class="p" d="M503.45,1203.85l20.49,34.61-3.53,2.09a2,2,0,0,1-2.79-.72l-18.41-31.1a2,2,0,0,1,.71-2.79Z" transform="translate(-412.06 -1116.92)"/><path class="q" d="M589.52,1257.21h0l-.47.45-.23.22-.1.08c-.14.14-.31.29-.5.46s-.54.49-.86.75l-.87.74c-.93.78-2,1.65-3.28,2.55-1,.71-2,1.42-3.11,2.1l-1.12.68a29.027,29.027,0,0,1-2.64,1.41c-.9.41-1.72.8-2.61,1.13a18.7,18.7,0,0,1-6.61,1.35h-.65c-8.41-.41-11.65-1.69-11.65-1.69l-9,5.3-6.43,3.75-8.59,5-28.07,16.41-.48-.81V1283.9l20.22-16.4,7.8-6.33,4.85-3.94,1-.8,5.52-4.48,5.4-9.36,3.09-5.36.9-1.57,1.19-2.07.65-1.12.69-1.2v-.08l.49-.84.81-.24.31-.09.9-.26h0l.34-.1.33-.3h0a1.506,1.506,0,0,1,.23-.21l1.06-.88.81-.64h.06c.86-.66,1.71-1.28,2.53-1.85a64.8,64.8,0,0,1,7.35-4.39l.62-.18h0a11.667,11.667,0,0,1,1.17-.27l.37-.06a10.066,10.066,0,0,1,1.34-.1h1.22l.53.11h0l.37.11h.15l.33.13.43.22h0a4,4,0,0,1,1.33,1.12l-.12,1.14-.25,2.17.2.86,1,4.22h0l.48,2v.12l1.3,5.57-2,1.25h0l1.68,2.12,1.25,1.59h0l5.08,6.43h0l1,1.26,2,2.52Z" transform="translate(-412.06 -1116.92)"/><path class="r" d="M564.09,1218.74l6.66,11.64-.31,5.14L582.18,1256l3.35,3.16c2.1,2,2.09,5.42,0,6.72l-7.1,4.37c-1.67,1-4,.21-5.15-1.83l-23.42-40.94Z" transform="translate(-412.06 -1116.92)"/><path class="j" d="M570.44,1235.52,582.18,1256l3.35,3.16c2.1,2,2.09,5.42,0,6.72l-2.42,1.49-25.54-44.65,6.52-4,6.66,11.64Z" transform="translate(-412.06 -1116.92)"/><path class="s" d="M553.56,1231.16l-2.19,1.58.81.89-11.77,21.06c2,5.22,4.78,9.28,8.66,8.34,9.72-2.35,11.75-9.39,11.75-9.39,6.33,10.23,12.4,12.56,15.5,13a57.055,57.055,0,0,0,13.2-9.46l-1.18-3.34-11-13.92,2-1.26-1.3-5.57-8.75,8.07-7.23-3.63-5.53-8.55-1.4,1-1.12.33Z" transform="translate(-412.06 -1116.92)"/><path class="s" d="M554.82,1230.11l2.61,3.09,19.16-9.5.12-1.14s-2.09-3.16-7.93-1.23a63.491,63.491,0,0,0-11.8,7.8l-.59.53Z" transform="translate(-412.06 -1116.92)"/><path class="q" d="M557.65,1231c1.29-.9,3-2,4.82-3.19,3.8-2.44,8-5,9.55-5.75,2.9-1.46,5.36-.64,7.08,2.15a6.23,6.23,0,0,1,.51,5.45l-11,6.65-7.05,4.27a5.147,5.147,0,0,0-.4.52,6.18,6.18,0,0,1-4.6-.45c-3-1.83-2-6.91-1.07-8a18.389,18.389,0,0,1,2.16-1.65Z" transform="translate(-412.06 -1116.92)"/><path class="q" d="M568.61,1236.35l11-6.65a10.061,10.061,0,0,1,2,1.13c4.52,3.33,2.33,8.48,2.33,8.48l-16.25,9.16a7.912,7.912,0,0,0-.94.89c-1.77.67-4.18.94-5.6-1.5a6.46,6.46,0,0,1-1-3.93,5.859,5.859,0,0,1,1-2.79,4,4,0,0,1,.4-.52Z" transform="translate(-412.06 -1116.92)"/><path class="q" d="M571.16,1260.17a5.66,5.66,0,0,0,1.3,2.84c2.7,3.51,4.89,1.82,17.07-5.8a5.23,5.23,0,0,0-.52-7.37h0a10.988,10.988,0,0,0-1.3-1.07l-15.6,9.09a2.64,2.64,0,0,0-.95,2.31Z" transform="translate(-412.06 -1116.92)"/><path class="q" d="M567.65,1248.47a7.36,7.36,0,0,0-2.27,3.07,3.75,3.75,0,0,0,.25,3.07c1.58,3,3.63,4.1,6.44,3.22l15.59-9.09a6.73,6.73,0,0,0-1.76-8.07,10.685,10.685,0,0,0-2-1.36Z" transform="translate(-412.06 -1116.92)"/><path class="s" d="M561.56,1240.62a5.909,5.909,0,0,0-1.41,3.31l21.42-13.1a10.069,10.069,0,0,0-2-1.13Z" transform="translate(-412.06 -1116.92)"/><path class="s" d="M567.65,1248.47a7.36,7.36,0,0,0-2.27,3.07l20.52-10.87a10.685,10.685,0,0,0-2-1.36Z" transform="translate(-412.06 -1116.92)"/><path class="s" d="M571.16,1260.17,589,1249.82a10.345,10.345,0,0,0-1.3-1.08l-15.59,9.1a2.62,2.62,0,0,0-.95,2.33Z" transform="translate(-412.06 -1116.92)"/><path class="s" d="M562.47,1227.85a3,3,0,0,1,.4.47c1.18,1.63,2.75,4.29,5.75,8,.1.14.22.28.34.43,1.32,1.63,2.92,3.47,4.87,5.51a1.42,1.42,0,0,1,.22,1.67,9.9,9.9,0,0,1-1,1.49l-5.36,3a6.643,6.643,0,0,0-.95.89c-1.77.66-4.17.93-5.6-1.5a6.509,6.509,0,0,1-1-3.94,5.889,5.889,0,0,1,1-2.78,6.23,6.23,0,0,1-4.6-.46,23.07,23.07,0,0,1,1.1-9.65,26.992,26.992,0,0,1,1.31-3.48,2.56,2.56,0,0,1,3.52.35Z" transform="translate(-412.06 -1116.92)"/><path class="q" d="M572.28,1244a1.5,1.5,0,0,1-.38.7c-1.8,1.83-5.92,4.88-11,1.39-.2-.13-.41-.29-.63-.45h0a15.677,15.677,0,0,1-1.94-1.8s3.7,8.45-2.57,14.66l-7.73,4.65-5.85,3.51-6.39,3.83-8.53,5.12-25.05,15v-19.25l16.72-9.81,8.57-5,6.43-3.77,7.36-4.32,4.66-14a5.213,5.213,0,0,1,.57-1.19h0a5.5,5.5,0,0,1,1.76-1.7l3-1.75,1.19-.7a9,9,0,0,1,3.37-1.16l3.13-.38H559a3,3,0,0,1,.79,0,3.17,3.17,0,0,1,1.8.88,3.31,3.31,0,0,1,.6.84c.19.38.4.79.65,1.25a48.314,48.314,0,0,0,4.35,6.7c.4.54.84,1.08,1.29,1.63s1,1.15,1.5,1.73c.26.29.53.58.82.87h0c.35.38.73.77,1.12,1.16A1.44,1.44,0,0,1,572.28,1244Z" transform="translate(-412.06 -1116.92)"/><path class="p" d="M567,1206.72l4.21,7.11a2.65,2.65,0,0,1-.93,3.63h0l-28.9,17a2.64,2.64,0,0,1-3.63-.92h0l-4.21-7.11a2.319,2.319,0,0,1-.32-.84,2.65,2.65,0,0,1,1.25-2.8l28.9-17a2.65,2.65,0,0,1,3.05.25,2.6,2.6,0,0,1,.58.68Z" transform="translate(-412.06 -1116.92)"/><path class="t" d="M570.38,1212.37l.87,1.46a2.65,2.65,0,0,1-.93,3.63h0l-28.9,17a2.64,2.64,0,0,1-3.63-.92h0l-.87-1.46Z" transform="translate(-412.06 -1116.92)"/><path class="u" d="M566.46,1206l-33.21,19.57a2.65,2.65,0,0,1,1.25-2.8l28.9-17a2.67,2.67,0,0,1,3.06.23Z" transform="translate(-412.06 -1116.92)"/><path class="v" d="M503.45,1203.85l2.56,4.32-5.28,3.13-1.52-2.56a2,2,0,0,1,.71-2.8Z" transform="translate(-412.06 -1116.92)"/><path class="p" d="M533.06,1207.24l-7.74,4.59a2.59,2.59,0,0,1-3.54-.91h0a2.58,2.58,0,0,1,.91-3.53l7.74-4.59a2.59,2.59,0,0,1,3.54.91h0A2.58,2.58,0,0,1,533.06,1207.24Z" transform="translate(-412.06 -1116.92)"/><path class="j" d="M589.89,1127.71l42.38,71.57a38.849,38.849,0,0,1-4.43.43l-40.46-68.33A37.758,37.758,0,0,1,589.89,1127.71Z" transform="translate(-412.06 -1116.92)"/><path class="p" d="M593.31,1125.37l42.65,72a2.63,2.63,0,0,1-.79,3.5l-.13.08h-.08a2.62,2.62,0,0,1-3.57-.91l-42.65-72a2.61,2.61,0,0,1,.92-3.57h.08l.13-.07A2.62,2.62,0,0,1,593.31,1125.37Z" transform="translate(-412.06 -1116.92)"/><path class="w" d="M593.31,1125.37l42.65,72a2.63,2.63,0,0,1-.79,3.5l-45.3-76.5a2.61,2.61,0,0,1,3.44,1Z" transform="translate(-412.06 -1116.92)"/></g><path class="c" d="M604.66,1233.24a.61.61,0,0,1-.61-.61V1229a.61.61,0,0,1,.61-.62.62.62,0,0,1,.62.62v3.62a.61.61,0,0,1-.62.62Z" transform="translate(-412.06 -1116.92)"/><path class="c" d="M604.66,1241.52a.61.61,0,0,1-.61-.61v-3.62a.61.61,0,0,1,.61-.62.62.62,0,0,1,.62.62v3.62a.61.61,0,0,1-.61.61Z" transform="translate(-412.06 -1116.92)"/><path class="c" d="M610.61,1235.57H607a.62.62,0,0,1,0-1.23h3.61a.61.61,0,0,1,.59.64.6.6,0,0,1-.59.59Z" transform="translate(-412.06 -1116.92)"/><path class="c" d="M602.33,1235.57h-3.61a.62.62,0,1,1-.05-1.23h3.66a.62.62,0,0,1,.64.59.61.61,0,0,1-.59.64Z" transform="translate(-412.06 -1116.92)"/><path class="c" d="M489.33,1173.6a.77.77,0,0,1-.78-.78h0v-4.59a.78.78,0,1,1,1.56,0v4.59a.77.77,0,0,1-.78.78Z" transform="translate(-412.06 -1116.92)"/><path class="c" d="M489.33,1184.11a.78.78,0,0,1-.78-.78h0v-4.59a.78.78,0,1,1,1.56,0v4.59a.78.78,0,0,1-.78.78Z" transform="translate(-412.06 -1116.92)"/><path class="c" d="M496.88,1176.56h-4.59a.78.78,0,1,1,0-1.56h4.59a.78.78,0,0,1,0,1.56Z" transform="translate(-412.06 -1116.92)"/><path class="c" d="M486.37,1176.56h-4.59a.78.78,0,1,1,0-1.56h4.59a.78.78,0,0,1,0,1.56Z" transform="translate(-412.06 -1116.92)"/><path class="c" d="M633.27,1161.9a.84.84,0,0,1-.84-.83v-4.92a.84.84,0,0,1,.84-.83.83.83,0,0,1,.83.83v4.92A.83.83,0,0,1,633.27,1161.9Z" transform="translate(-412.06 -1116.92)"/><path class="c" d="M633.27,1173.15a.85.85,0,0,1-.84-.84v-4.91a.84.84,0,0,1,.84-.84.83.83,0,0,1,.83.83h0v4.91A.84.84,0,0,1,633.27,1173.15Z" transform="translate(-412.06 -1116.92)"/><path class="c" d="M641.35,1165.07h-4.92a.84.84,0,0,1-.83-.84.83.83,0,0,1,.83-.83h4.92a.83.83,0,0,1,.83.83.84.84,0,0,1-.83.84Z" transform="translate(-412.06 -1116.92)"/><path class="c" d="M630.1,1165.07h-4.91a.85.85,0,0,1-.84-.84.84.84,0,0,1,.84-.83h4.91a.84.84,0,0,1,.84.83.85.85,0,0,1-.84.84Z" transform="translate(-412.06 -1116.92)"/><circle class="x" cx="3.91" cy="3.91" r="3.91" transform="translate(86.23 37.79)"/><circle class="y" cx="2.21" cy="2.21" r="2.21" transform="translate(224.16 114.57)"/><circle class="z" cx="5.83" cy="5.83" r="5.83" transform="translate(231.64 91.24)"/><path class="c" d="M531.82,1264.39a28.958,28.958,0,0,0-4.64.37,31.588,31.588,0,1,0-61.884,12.711,2.086,2.086,0,0,0,.1.439h91.06a29.19,29.19,0,0,0-24.64-13.52Z" transform="translate(-412.06 -1116.92)"/><path class="c" d="M623.78,1242.83a36.11,36.11,0,0,0-34.23,24.64,32.12,32.12,0,0,0-19.74,10.44h90a36.08,36.08,0,0,0-36.03-35.08Z" transform="translate(-412.06 -1116.92)"/></g></svg>