<svg id="Layer_1" data-name="Layer 1" xmlns="http://www.w3.org/2000/svg" viewBox="0 0 156 156"><defs><style>.cls-2{clip-path:url(#clip-path)}.cls-3{fill:#386db6}</style><clipPath id="clip-path"><path fill="none" d="M0 0h156v156H0z"/></clipPath></defs><g class="cls-2"><g class="cls-2"><path class="cls-3" d="M78 2.4A75.6 75.6 0 1 1 2.4 78 75.68 75.68 0 0 1 78 2.4M78 0a78 78 0 1 0 78 78A78 78 0 0 0 78 0"/></g></g><path class="cls-3" d="M75.54 36.32v-1.25l-7.23.78a2.89 2.89 0 0 0 0-.53 1 1 0 0 0-.13-.5 6.44 6.44 0 0 0-.58-.82 9.79 9.79 0 0 0-.71-.72l-3.42 1.42a10.27 10.27 0 0 1 .7.78l.64.74-7.29.78v8.5a18.65 18.65 0 0 1-.08 1.9 13.1 13.1 0 0 1-.29 1.7 13.5 13.5 0 0 1-.54 1.67c-.23.56-.5 1.16-.82 1.8l.67.25a12.12 12.12 0 0 0 2.09-2.28A13.65 13.65 0 0 0 60 48a11.05 11.05 0 0 0 .93-4.34V37.9zm21.83 9.46a14.11 14.11 0 0 0-2.07-2.18 8.4 8.4 0 0 0-2.25-1.36 10.11 10.11 0 0 0-3.72-.7v-1.43l6.67-.72v-1.24l-6.66.72v-3.74l-3.59.38v3.74l-4.86.53c.63-.86 1.22-1.69 1.77-2.5s1.07-1.64 1.56-2.48L97 33.42v-1.25l-12 1.3.48-.9c.16-.3.31-.61.47-.93l-4.13.44c0 .29-.12.58-.18.88s-.14.59-.23.9l-3.41.36v1.25l3-.32c-.26.8-.55 1.61-.88 2.42S79.41 39.19 79 40v1.25l6.7-.73v1.43l-.64.13c-.21 0-.42.08-.64.13v-1l-3.35.37v.85c0 .29 0 .56-.07.85a6.33 6.33 0 0 0-1.29.82 7 7 0 0 0-1 1 6.71 6.71 0 0 0-.65 1.12 4 4 0 0 0-.34 1.2 1.67 1.67 0 0 0 .16 1 1.32 1.32 0 0 0 .64.57 2.22 2.22 0 0 0 1.37.1 3.2 3.2 0 0 0 1.39-.62 7.34 7.34 0 0 0 2.21-2.73 10.07 10.07 0 0 0 .82-3.19c.46-.11.9-.2 1.32-.26v4.93a1 1 0 0 1-.29.79.86.86 0 0 1-.73.22 1.76 1.76 0 0 1-.93-.46l-.58.52a4.15 4.15 0 0 0 .92.74 4.39 4.39 0 0 0 1 .42 3.23 3.23 0 0 0 1.34.11 3.88 3.88 0 0 0 1.24-.36 3.29 3.29 0 0 0 1.17-1.09 2.92 2.92 0 0 0 .47-1.66V42.1a3.24 3.24 0 0 1 1.44.48A4.73 4.73 0 0 1 92 43.72a7.47 7.47 0 0 1 1.08 1.87 13 13 0 0 1 .73 2.41zm-16.48-.88c-.07.36-.14.7-.21 1s-.21.77-.33 1.11a3.13 3.13 0 0 1-.47.85 1.29 1.29 0 0 1-.51.39 1 1 0 0 1-.53 0 .74.74 0 0 1-.45-.24.57.57 0 0 1-.13-.5 5.52 5.52 0 0 1 .28-1 4.68 4.68 0 0 1 .5-1 5.23 5.23 0 0 1 2-1.8c-.04.45-.04.82-.15 1.19zm23.29 70.85l-4.12-1.92-3.27 3.17.55-4.51-4-2.12 4.46-.87.79-4.47 2.2 4 4.51-.64-3.1 3.32zM87.9 118.3l-4.12-1.92-3.27 3.16.55-4.51-4-2.12 4.47-.87.78-4.47 2.21 4 4.5-.64-3.1 3.32zM71.63 121l-4.13-1.91-3.26 3.15.55-4.5-4-2.13 4.46-.86.79-4.47 2.2 4 4.51-.64-3.12 3.36zm69.23-55.39l-4.39-15.93a2.55 2.55 0 0 0-2.8-1.85L122 49.42a2.13 2.13 0 0 0-.42.1 2 2 0 0 0-.42 0l-6.19.84a2.54 2.54 0 0 0-2.11 1.86l-4.23 15.65-7.6 1V54.55A2.55 2.55 0 0 0 98.1 52l-5.67.78a2.55 2.55 0 0 0-2.21 2.52v15.1l-9.09 1.24a2.53 2.53 0 0 0-2.08 1.76l-7.45 1v-4.53a2.55 2.55 0 0 0-.87-1.87 2.73 2.73 0 0 0-.71-.44L78 66.43a2.56 2.56 0 0 0 2.1-1.79l1.73-5.81A2.56 2.56 0 0 0 79 55.57L53.56 59a2.55 2.55 0 0 0-2.2 2.53v1.64a2.5 2.5 0 0 0-.82 0l-3.95.54v-1.8a2.57 2.57 0 0 0-2.9-2.53l-4.83.62a2.54 2.54 0 0 0-2.2 2.52v2.52l-1 .14v-1.72a2.55 2.55 0 0 0-2.89-2.53l-4.57.62a2.56 2.56 0 0 0-2.2 2.53v1.15l-2.71.37a2.55 2.55 0 0 0-2.2 2.53v36a2.55 2.55 0 0 0 2.89 2.53l2-.28v1.82a2.56 2.56 0 0 0 2.55 2.55h.35l4.56-.62a2.71 2.71 0 0 0 1-.38 2.48 2.48 0 0 0 .94-.31 19.66 19.66 0 0 0 7.58-8l1.33 4.77A2.53 2.53 0 0 0 47.1 108l4.22-.57a2.54 2.54 0 0 0 1.92-1.36 2.43 2.43 0 0 0 .66 0l4.63-.63a2.54 2.54 0 0 0 2-1.44l.07.23a2.54 2.54 0 0 0 2.4 1.9 2.07 2.07 0 0 0 .35 0l6-.82a2.54 2.54 0 0 0 2.2-2.52V92.2l1.08 8.73a2.57 2.57 0 0 0 1 1.7 2.54 2.54 0 0 0 1.9.51l4.59-.63a2.54 2.54 0 0 0 2.17-2.1l1-6.07a2.53 2.53 0 0 0-.69-2.19 2.5 2.5 0 0 0-1.11-.67l-.85-7a2.33 2.33 0 0 0-.23-.79 2.55 2.55 0 0 0 1.65-1.73l8.11-1.1v18.37a2.56 2.56 0 0 0 .88 1.92 2.51 2.51 0 0 0 1.67.63 2.07 2.07 0 0 0 .35 0l5.66-.77a2.55 2.55 0 0 0 2.27-2.56v-19.1l8.87-1.21a2.69 2.69 0 0 0 .59.76 2.55 2.55 0 0 0 2 .6h.4l-1.68 9.3h-.13a2.54 2.54 0 0 0-2.17 2.94l.9 5.39a2.53 2.53 0 0 0 2.51 2.13 1.94 1.94 0 0 0 .34 0l6.25-.85a2.56 2.56 0 0 0 2.17-2.1l3.1-18.35 3.43-.47v9l-1.21.16a2.55 2.55 0 0 0-2.09 3.27l1.65 5.41a2.55 2.55 0 0 0 2.79 1.67l7.54-1a2.55 2.55 0 0 0 2.21-2.53V68.85h.28a2.54 2.54 0 0 0 1.78-1.12 2.51 2.51 0 0 0 .33-2.12zm-113.13 38l-4.13.56v-36l4.13-.57zm5.35-22.91v26.9l-4.57.62V64.08l4.57-.62v10.25l1.45-.2v7zM51 104.92l-4.22.58-3.5-12.44c-1.59 7.56-5.46 12.12-9.13 14.16V100A16.69 16.69 0 0 0 39 89.78l-4.66.64v-5.93l4.83-.66V72.52l-4.05.55v-5.21l4.05-.56v-4.74l4.83-.65v4.74l6.85-.94v16.53l1.15-.15V88l-4.72.65 3.59 11.77.89-.12zm.87-10.11l-1.23-4 1.74-.24zm6.35 8.12l-4.63.63-1-5.79 1.5-.2 1.16-9.7 4.8-.65zm10.84-20.26v20.09l-6.05.82-1.3-4.74 2.14-.29V83.38l-9.94 1.35V61.57l25.44-3.47-1.74 5.81L59 66.45v12.26l4.88-.66v-7.47l5.21-.71v7.47l10.61-1.45v5.33zm11.76 11.25l-1 6.07-4.6.62-1.89-15.21 4.83-.65 1.13 9.38zm28.92-18.34l-11.3 1.54v21.33l-5.67.78V77.9l-11.3 1.54v-5.28l11.3-1.54v-17.3l5.67-.77v17.3l11.3-1.54zm5.54-22.67l6.18-.85-4.36 17.31-6.51.88zm20.64 40.55l-7.55 1-1.64-5.4 3.41-.47V74.52L122 75.64l-3.42 20.19-6.24.85-.9-5.38 2-.27L116 76.45l-3.87.53v-5.63l23.79-3.24zm-15.77-25.78l1.94-7.68 5-.68 1.91 7.16zm11.64-.49L129 56.49l-8 1.09 1.3-5.58 11.7-1.65 4.4 15.94z"/><path class="cls-3" d="M44.04 83.18l2.05-.28V71.58l-2.05.28v11.32z"/></svg>