<svg id="Layer_1" data-name="Layer 1" xmlns="http://www.w3.org/2000/svg" viewBox="0 0 156 156"><defs><style>.cls-2{clip-path:url(#clip-path)}.cls-3{fill:#386db6}</style><clipPath id="clip-path"><path fill="none" d="M0 0h156v156H0z"/></clipPath></defs><g class="cls-2"><g class="cls-2"><path class="cls-3" d="M78 2.4A75.6 75.6 0 1 1 2.4 78 75.68 75.68 0 0 1 78 2.4M78 0a78 78 0 1 0 78 78A78 78 0 0 0 78 0"/></g></g><path class="cls-3" d="M64.76 38.31v-1.26h-2.91a.79.79 0 0 0 .17-.53.83.83 0 0 0-.23-.54 7.14 7.14 0 0 0-.59-.52c-.25-.2-.52-.39-.81-.58l-2.82 1.18c.18.13.36.29.56.46s.4.34.6.53h-3.19v1.26zM74.54 43v-1.26H69V38c.82 0 1.66-.1 2.54-.21s1.87-.25 3-.42L72 34.82a29.18 29.18 0 0 1-2.9 1.26 17.51 17.51 0 0 1-3.32.89v10.44a15 15 0 0 1-.1 1.66 7.71 7.71 0 0 1-.39 1.61 6.16 6.16 0 0 0-.51-1.1 5.75 5.75 0 0 0-.66-.93 4.13 4.13 0 0 0-1-.84 5.48 5.48 0 0 0-1.12-.52v-1h2.93V45H62v-1.33h3.28v-1.26h-2a9.55 9.55 0 0 0 .56-.9 5.1 5.1 0 0 0 .43-1 1.48 1.48 0 0 0 0-.85 1.15 1.15 0 0 0-.4-.63 1.83 1.83 0 0 0-.77-.36 1.93 1.93 0 0 0-1 .08 4.31 4.31 0 0 0-1.28.69l-1.12.89c-.25.2-.41.2-.48 0a5 5 0 0 1-.2-.77c-.06-.3-.1-.56-.13-.79l-3 .22c.08.45.17.89.29 1.33a6.71 6.71 0 0 0 .39 1.15 1.28 1.28 0 0 0 .36.51 1.13 1.13 0 0 0 .45.2 2.13 2.13 0 0 0 .62 0 .94.94 0 0 0 .51-.18l.58-.5.65-.55.62-.52a5.09 5.09 0 0 1 .51-.38c.15-.11.26-.12.34 0a.26.26 0 0 1 .08.25c-.11.27-.26.6-.47 1a10.19 10.19 0 0 1-.82 1.11h-4.89v1.26h3.64V45h-3.16v1.26h3.16v.85l-.32.06-.33.07v-.57h-2v1.56a3.71 3.71 0 0 0-1 1.52 4.75 4.75 0 0 0-.29 1.12 2.46 2.46 0 0 0 .07 1 .89.89 0 0 0 .37.56 1.52 1.52 0 0 0 .5.24 1.06 1.06 0 0 0 .81-.13 2.35 2.35 0 0 0 .59-.54 4.81 4.81 0 0 0 .72.65 3.28 3.28 0 0 0 .94.42 3.24 3.24 0 0 0 1.22.13 2.39 2.39 0 0 0 1-.31 1.9 1.9 0 0 0 .67-.68 2.09 2.09 0 0 0 .24-1v-2.8a3.22 3.22 0 0 1 .47.86 7 7 0 0 1 .31 1.07c.08.38.14.76.19 1.15s.07.75.08 1.1l2-1.17a7 7 0 0 1-.45.79 6.47 6.47 0 0 1-.58.77l.62.45a15.39 15.39 0 0 0 2.14-1.65A7 7 0 0 0 68.08 50a6.67 6.67 0 0 0 .73-2.3 23.36 23.36 0 0 0 .16-3V43h1.11v10.15h3.21V43zm-15.79 8a.77.77 0 0 1-.18.53.36.36 0 0 1-.41.12 1 1 0 0 1-.33-.16l-.26-.2a3.82 3.82 0 0 0 .33-1.18c.06-.38.1-.78.13-1.2s0-.82.07-1.22l.33-.06.32-.06zm-2.65-.64a6.45 6.45 0 0 1-.1 1.19.31.31 0 0 1-.32.22c-.18 0-.29-.05-.31-.2a2.33 2.33 0 0 1 0-.73 3.14 3.14 0 0 1 .23-.94 3.1 3.1 0 0 1 .61-1c-.08.5-.09 1-.11 1.48zm40.21-13.92v-1.13h-12.4v1.13zm-.37 4.39v-2.21a1.32 1.32 0 0 0-.13-.59 1.2 1.2 0 0 0-.35-.39 1.49 1.49 0 0 0-.58-.22 4.17 4.17 0 0 0-.71-.06H84.5v5.2h9.67a1.84 1.84 0 0 0 1.37-.45 1.71 1.71 0 0 0 .4-1.28zm.15 3.82v-1.18H84.15v1.18zm-.2 4.46v-2.33a1.16 1.16 0 0 0-.13-.58 1.22 1.22 0 0 0-.35-.4 1.6 1.6 0 0 0-.58-.22 4 4 0 0 0-.71-.06h-9.56v5.32h9.56a1.85 1.85 0 0 0 1.38-.45 1.73 1.73 0 0 0 .39-1.28zm.48 3.82v-1.14H83.88v1.14zm-12.73-2.27v-5.77a1.54 1.54 0 0 0-.19-.81 1.78 1.78 0 0 0-.51-.55 1.65 1.65 0 0 0-.66-.3 3 3 0 0 0-.73-.09h-1.29v-2.72h1.51a2 2 0 0 0 .67-.11 1.42 1.42 0 0 0 .61-.37 1.53 1.53 0 0 0 .35-.54 1.92 1.92 0 0 0 .13-.76v-1.57a1.62 1.62 0 0 0-.53-1.25 2.18 2.18 0 0 0-1.48-.51h-4.45v1.26h2.58a.73.73 0 0 1 .47.15.54.54 0 0 1 .18.44v1.32a.61.61 0 0 1-.2.5.89.89 0 0 1-.56.17h-2.42v5.25h2.62a1.15 1.15 0 0 1 .76.23.8.8 0 0 1 .26.63v3.81l-.42.09-.45.1v-1.71h.57v-1.18h-.57V45h-2.25v1.42H77v1.18h.61v2a2.39 2.39 0 0 1-.44 0h-.37l.48 2.62a14.44 14.44 0 0 0 1.82-1.12 19.11 19.11 0 0 0 1.63-1.24v1.34a.43.43 0 0 1-.17.37.58.58 0 0 1-.46.06 2.44 2.44 0 0 1-.44-.14l-.54-.24-.38.62A5.42 5.42 0 0 0 80.63 53a2.88 2.88 0 0 0 1.16.19 2 2 0 0 0 1-.31 2 2 0 0 0 .63-.83 3.55 3.55 0 0 0 .24-1.4zm9.2-11.31h-1v-.87h.65c.25 0 .38.1.38.32zm0 1.68a.48.48 0 0 1-.1.29.35.35 0 0 1-.28.12h-.65v-1h1zm-4.15-1.68H87.6v-.87h1.09zm0 2.09H87.6v-1h1.09zm4.12 6.15h-1v-1h.61c.28 0 .41.1.41.32zm0 1.73a.38.38 0 0 1-.11.28.38.38 0 0 1-.3.12h-.61v-1h1zm-4.12-1.73h-1.07v-1h1.07zm0 2.13h-1.07v-1h1.07zM28.14 86.84l2.77-.39V72.78s.2-1-1.38-.79l-1.39.2zm2.77 17.62V89.81l-2.77.4v15.64l1.78-.2c1.19-.27.99-1.19.99-1.19zm93.23-43.08a4 4 0 0 0-2.12 1 6.59 6.59 0 0 0-1.11 1.33 6.23 6.23 0 0 0-.66 1.27 2 2 0 0 0-.11 1 1.3 1.3 0 0 0 .3.7.75.75 0 0 0 .66.24 1.11 1.11 0 0 0 .73-.57 17.41 17.41 0 0 0 1.25-2.35c.37-.76.72-1.66 1.06-2.62zm1.54 12.54a2.63 2.63 0 0 0-1.73.32 6.53 6.53 0 0 0-3.51 4.45 2.21 2.21 0 0 0 .35 2.13 1 1 0 0 0 .77.24 1.23 1.23 0 0 0 .88-.61 14.82 14.82 0 0 0 1.74-2.88 38.51 38.51 0 0 0 1.5-3.65zM100 91.78a12.5 12.5 0 0 0-.24 4.52c.08.69.29 1 .62.87a.84.84 0 0 0 .37-.41 3.57 3.57 0 0 0 .25-1 35.26 35.26 0 0 0 .32-3.71c.07-1.47.12-3 .18-4.59a12.71 12.71 0 0 0-.87 2.09c-.23.71-.45 1.45-.63 2.23zM66.56 80.9l2.77-.4V66.84s.2-1-1.39-.79l-1.38.2zm2.77 17.62V83.87l-2.77.4v15.64l1.78-.2c1.19-.27.99-1.19.99-1.19zm53.26-12.3a5.07 5.07 0 0 1-1 0 5.82 5.82 0 0 1-1.35-.36c.17.38.33.77.47 1.17s.35 1 .51 1.51c.45-.78.92-1.54 1.37-2.32zm-5.66-5.52a5.4 5.4 0 0 1 0-.7l-.7.09a8.29 8.29 0 0 1 .7.61z"/><path class="cls-3" d="M135.84 76.77A9.79 9.79 0 0 0 134.7 74q-.22-.37-.48-.72c.26-.66.52-1.35.75-2.07a23.26 23.26 0 0 0 1-4.12 12.79 12.79 0 0 0-.22-4.56 7.54 7.54 0 0 0-1.53-3 7 7 0 0 0-.6-.62c.31-.86.6-1.74.86-2.63.47-1.57.89-3.29 1.26-5.08a2.57 2.57 0 0 0-2.83-3.08l-6.78.83a2.59 2.59 0 0 0-2.24 2.27c-.14 1.28-.35 2.64-.62 4-.19 1-.42 2-.69 3a8.14 8.14 0 0 0-.77.41 10.85 10.85 0 0 0-1.37.91c0-.06-.07-.12-.11-.17a2.57 2.57 0 0 0 .27-4.14l-5.78-4.84a2.59 2.59 0 0 0-3.22-.07c-.76.59-1.58 1.16-2.42 1.71s-1.79 1.14-2.79 1.73-2.28 1.22-3.53 1.83a43.86 43.86 0 0 1-4.06 1.73 2.57 2.57 0 0 0-1.65 2.79l.27 1.81a2.58 2.58 0 0 0 .58 1.31 2.48 2.48 0 0 0-.58.75v-.31a2.56 2.56 0 0 0-.93-2 2.47 2.47 0 0 0-1.25-.57v-4.75a2.57 2.57 0 0 0-3-2.54l-5.94 1a2.58 2.58 0 0 0-2.15 2.54v5.33l-7.45 1.2a5.8 5.8 0 0 0-1.13-2A5.45 5.45 0 0 0 71.34 60a8.41 8.41 0 0 0-1.46.13l-9.11 1.58a2.58 2.58 0 0 0-2.13 2.54v4a2.59 2.59 0 0 0-.53-.61 2.63 2.63 0 0 0-1.26-.57v-4.78a2.57 2.57 0 0 0-.91-2 2.53 2.53 0 0 0-2.08-.57l-5.94 1a2.58 2.58 0 0 0-2.16 2.54v5.33l-7.45 1.2a5.64 5.64 0 0 0-1.13-2A5.43 5.43 0 0 0 32.92 66a8.41 8.41 0 0 0-1.46.13l-9.11 1.58a2.58 2.58 0 0 0-2.13 2.54v40.2a2.59 2.59 0 0 0 .89 1.94 2.56 2.56 0 0 0 1.68.63 2.43 2.43 0 0 0 .38 0l9.47-1.38c2.07-.28 6-2.24 6-7.7v-5.76l4-3.81 3.15 1.47v5.61a2.54 2.54 0 0 0-1.64-.55 2.57 2.57 0 0 0-2 1.08l-1 1.39a2.58 2.58 0 0 0-.27 2.53c.63 1.43 3.08 6.1 8.11 6.1h.29c5.59-.06 7.62-5.11 7.62-8.51V75.33a2.61 2.61 0 0 0 1.79-1.18v30.32a2.58 2.58 0 0 0 2.52 2.53 2.31 2.31 0 0 0 .37 0l9.48-1.38c2.07-.28 6-2.24 6-7.7v-5.68l4-3.81 3.15 1.47v5.61a2.54 2.54 0 0 0-1.67-.51 2.59 2.59 0 0 0-2 1.08l-1 1.38a2.57 2.57 0 0 0-.26 2.54c.63 1.43 3.08 6.1 8.1 6.1h.3c5.58-.06 7.62-5.11 7.62-8.52V69.39a2.58 2.58 0 0 0 2.13-2.07c.09.7.2 1.39.32 2.07a24.6 24.6 0 0 0 .84 3.49 4.69 4.69 0 0 0 .4.9 2.59 2.59 0 0 0-1.88 2.48v3.28a2.6 2.6 0 0 0 .89 1.93 2.74 2.74 0 0 0 1 .53v3.12A18.44 18.44 0 0 0 97 90a22.2 22.2 0 0 0-.56 3.14 20.93 20.93 0 0 0-.09 3.38c.17 2.66 1.12 4.37 2.85 5.09a4.12 4.12 0 0 0 3.92-.43 6.27 6.27 0 0 0 1.12-1v.56a2.57 2.57 0 0 0 2.57 2.58h.31l5.85-.72a2.59 2.59 0 0 0 1.91-1.25 2.54 2.54 0 0 0 1.29 1.08 2.56 2.56 0 0 0 2.21-.18 62.2 62.2 0 0 0 5.48-3.57 42.92 42.92 0 0 0 4.9-4.17 34.79 34.79 0 0 0 3.24-3.8 27.34 27.34 0 0 0 2.61-4.25 16.79 16.79 0 0 0 1.46-4.69 12.73 12.73 0 0 0-.23-5zM36.06 91.35l-.76 6.14a1.56 1.56 0 0 0 .76 1.51v4.43c0 4.65-3.76 5.15-3.76 5.15L22.79 110V69.81l9.11-1.58c4.83-.84 4.16 4.16 4.16 4.16v11.76l-5.22 1a1.58 1.58 0 0 0-.45 2.95l5.67 3zm5.84.73l-5.43 5.21.93-7.45-6.66-3.53 7.41-1.42 1.31-7.4 3.65 6.58 7.47-1-5.15 5.48 3.31 6.75zm-.36-14.41l4.22-.67v5.56l-1.4.2zm14.92-5.28l-2.18.19v30.5s0 5.94-5.15 5.94c0 0-3.76.39-5.94-4.56l1-1.38s1.7 2.17 3.17 2.18c0 0 1 .07 1-2V97l.12.06a1.66 1.66 0 0 0 .68.14 1.58 1.58 0 0 0 1.58-1.58 1.54 1.54 0 0 0-.23-.83l-2.15-4.39v-1.9l3.79-4a1.58 1.58 0 0 0-1.37-2.65l-2.42.33v-8.61l-11.11 1.79v-3.17l11.09-1.78v-7.53l5.94-1v7.72l2.18-.39zm18 13l-.77 6.14a1.57 1.57 0 0 0 .77 1.55v4.43c0 4.65-3.77 5.15-3.77 5.15l-9.5 1.39V63.87l9.11-1.58c4.83-.84 4.16 4.16 4.16 4.16v11.76l-5.23 1a1.58 1.58 0 0 0-.44 3l5.67 3zm5.84.73l-5.43 5.21.93-7.45-6.67-3.53L76.56 79l1.31-7.4 3.65 6.58 7.48-1-5.16 5.48 3.31 6.75zM80 71.73l4.22-.68v5.56l-1.4.2zm14.91-5.28l-2.18.19v30.5s0 5.94-5.14 5.94c0 0-3.77.39-5.94-4.56l1-1.38s1.7 2.17 3.16 2.18c0 0 1 .07 1-2V91.1l.13.05a1.38 1.38 0 0 0 .68.15 1.58 1.58 0 0 0 1.58-1.58 1.55 1.55 0 0 0-.24-.83l-2.21-4.39v-1.9l3.8-4a1.58 1.58 0 0 0-1.38-2.65l-2.42.33v-8.65l-11.08 1.79v-3.17l11.08-1.78v-7.53l5.94-1v7.72l2.18-.39zm9.08-9c1.3-.64 2.52-1.27 3.68-1.91s2-1.22 2.92-1.81 1.76-1.19 2.58-1.82l5.77 4.83a59.066 59.066 0 0 1-9.27 2.89c-1.69.38-3.16.68-4.79.93s-3.27.43-4.91.53l-.27-1.82a46.15 46.15 0 0 0 4.3-1.82zm9.78 6.55a.12.12 0 0 0-.18 0c-.51.84-1 1.74-1.54 2.7s-1.06 2-1.65 3a2.42 2.42 0 0 1-.71.77 2 2 0 0 1-.79.31 1.18 1.18 0 0 1-.85-.21 1.62 1.62 0 0 1-.58-.83 13 13 0 0 1-.42-1.56c-.1-.5-.21-1-.31-1.57a.29.29 0 0 0-.21-.22.19.19 0 0 0-.25.11c-.36.68-.73 1.4-1.12 2.15s-.73 1.5-1 2.24a3.2 3.2 0 0 1-.73 1.12 2.57 2.57 0 0 1-.84.56 1.08 1.08 0 0 1-.93-.1 1.5 1.5 0 0 1-.61-.88 20.08 20.08 0 0 1-.75-3.13c-.22-1.24-.4-2.5-.52-3.79l4.65-2.85c.08.77.18 1.51.29 2.24s.24 1.38.37 2a.18.18 0 0 0 .27.13.51.51 0 0 0 .27-.25 43.83 43.83 0 0 1 2.54-4.43 1.52 1.52 0 0 1 1.57-.78 1.43 1.43 0 0 1 .79.38 1.5 1.5 0 0 1 .48.89c.11.48.21 1 .31 1.5s.21 1 .31 1.33c0 .14.12.2.21.19a.3.3 0 0 0 .21-.13c.34-.68.73-1.39 1.18-2.13l1.44-2.37a2 2 0 0 1 1-.83 2.23 2.23 0 0 1 1.12-.11 2.29 2.29 0 0 1 1 .4 2.2 2.2 0 0 1 .71.87 4.19 4.19 0 0 1 .45 1.92 10.68 10.68 0 0 1-.25 2.39c-.26 1.26-.54 2.44-.85 3.53s-.64 2.14-1 3.14l-4.58-1.6c.31-.92.59-1.87.86-2.86s.54-2 .79-3.05c-.07-.06-.09-.14-.15-.19zm.4 32.57V92.3a37.62 37.62 0 0 0-.52-4.75 10.86 10.86 0 0 0-1-3.1v15.18l-5.85.72V82.6a10.13 10.13 0 0 0-1.23.62c0 1.1-.12 2.14-.19 3.12s-.18 2-.31 3.18c0 .43-.14 1-.25 1.59s-.27 1.31-.45 2a21.53 21.53 0 0 1-.65 2.17 14 14 0 0 1-.85 1.93 4.39 4.39 0 0 1-1.23 1.45 1.49 1.49 0 0 1-1.5.15c-.72-.3-1.13-1.25-1.23-2.86A17.87 17.87 0 0 1 99 93a20 20 0 0 1 .5-2.78 15.46 15.46 0 0 1 2.07-4.69V80.3l4.11-.51v2.09c.2-.1.4-.2.59-.31s.39-.22.6-.32v-3l-7.12.88v-3.27l7.12-.87v-3.17l5.85-.72v3.17l6.66-.83v3.28l-6.66.82v3.17a8.05 8.05 0 0 1 1.75.84 5.39 5.39 0 0 1 1.39 1.45 17.88 17.88 0 0 1 2.41 4.48 27.28 27.28 0 0 1 1.33 5.41zm2.76-15.88a8.29 8.29 0 0 0-.72-.61l.7-.09a5.4 5.4 0 0 0 .02.71zm16.6.29a14 14 0 0 1-1.23 4 24.57 24.57 0 0 1-2.3 3.79 31.72 31.72 0 0 1-3 3.5 39.74 39.74 0 0 1-4.6 3.92 59.25 59.25 0 0 1-5.25 3.42l-.63-1.61q1.85-1.87 3.35-3.72t2.77-3.7c.84-1.23 1.64-2.5 2.38-3.8s1.48-2.66 2.2-4a9.13 9.13 0 0 0 1.15-4.53 21.42 21.42 0 0 1-2 2.44 18.36 18.36 0 0 1-2.19 1.94 3 3 0 0 1-2.23.67 2.36 2.36 0 0 1-1.7-1 4 4 0 0 1-.69-1.9 6.32 6.32 0 0 1 .27-2.59 7.86 7.86 0 0 1 1.12-2.41 7.42 7.42 0 0 1 1.65-1.74 6.76 6.76 0 0 1 1.83-1 7.66 7.66 0 0 1 1.9-.47c.29-.88.53-1.77.74-2.66s.39-1.75.57-2.58a7.37 7.37 0 0 0 .12-2.44c-.26.35-.57.75-.93 1.19s-.73.89-1.13 1.31a16.12 16.12 0 0 1-1.21 1.15 4.51 4.51 0 0 1-1.16.75 3.27 3.27 0 0 1-1.77.24 2.44 2.44 0 0 1-1.38-.64 3 3 0 0 1-.79-1.81 5 5 0 0 1 .21-2.19 7.18 7.18 0 0 1 1.88-2.88 9.81 9.81 0 0 1 1.6-1.14 8.1 8.1 0 0 1 1.64-.73c.43-1.47.79-2.93 1.07-4.39s.51-2.87.66-4.23l6.77-.83q-.54 2.6-1.21 4.88a43.77 43.77 0 0 1-1.56 4.39 4.42 4.42 0 0 1 1.81 1.25 5 5 0 0 1 1 2 10.37 10.37 0 0 1 .16 3.63 20.6 20.6 0 0 1-.85 3.65 27.66 27.66 0 0 1-1.35 3.38 6.5 6.5 0 0 1 1.29 1.51 6.88 6.88 0 0 1 .83 2 10.07 10.07 0 0 1 .19 4zm-13.32 4.84a5.82 5.82 0 0 0 1.35.36 5.07 5.07 0 0 0 1 0c-.45.78-.92 1.54-1.4 2.29-.16-.52-.33-1-.51-1.51s-.27-.75-.44-1.13zm-18.53 32.05l-4.16-1.94-3.3 3.19.56-4.55-4.06-2.15 4.5-.87L96 107l2.23 4 4.55-.64-3.13 3.35zm-32.87 5.54l-4.16-1.93-3.3 3.18.55-4.55-4.06-2.11 4.51-.88.79-4.51 2.23 4 4.55-.64-3.13 3.35zm16.44-2.77l-4.17-1.94-3.3 3.19.56-4.55-4.06-2.14 4.51-.88.79-4.51 2.23 4 4.55-.65-3.13 3.35z"/></svg>