<svg id="Layer_1" data-name="Layer 1" xmlns="http://www.w3.org/2000/svg" xmlns:xlink="http://www.w3.org/1999/xlink" viewBox="0 0 156 156"><defs><style>.cls-1{fill:none;}.cls-2{clip-path:url(#clip-path);}.cls-3{fill:#2d69a9;}.cls-4{fill:#fff;}</style><clipPath id="clip-path"><rect class="cls-1" width="156" height="156"/></clipPath></defs><title>A_11 115</title><g id="blue_circle" data-name="blue circle"><g class="cls-2"><g class="cls-2"><path class="cls-3" d="M156,78A78,78,0,1,1,78,0a78,78,0,0,1,78,78"/></g></g></g><path class="cls-4" d="M68.73,102.08v-1.21l-6.89,1.2a4.39,4.39,0,0,0,0-.53.82.82,0,0,0-.13-.48,5.77,5.77,0,0,0-.6-.75,6.63,6.63,0,0,0-.68-.65l-3.26,1.58c.24.24.46.47.67.72l.61.69-7,1.2v8.29c0,.66,0,1.28-.08,1.85a12.93,12.93,0,0,1-.28,1.67,12.18,12.18,0,0,1-.52,1.66c-.21.56-.47,1.16-.77,1.8l.64.2a13.27,13.27,0,0,0,2-2.34,14.33,14.33,0,0,0,1.37-2.59,11.4,11.4,0,0,0,.89-4.28V104.5Z"/><path class="cls-4" d="M89.56,110a12.51,12.51,0,0,0-2-2,7.64,7.64,0,0,0-2.14-1.19,9.17,9.17,0,0,0-3.55-.46V105l6.35-1.1v-1.21l-6.35,1.1V100.1l-3.43.59v3.64l-4.64.81c.61-.88,1.17-1.73,1.69-2.55s1-1.66,1.49-2.51L89.17,98V96.76l-11.45,2c.15-.3.3-.6.46-.9s.3-.61.45-.94l-3.94.68c-.06.29-.11.58-.18.87s-.13.59-.21.89l-3.2.55v1.22l2.83-.49c-.25.8-.53,1.6-.85,2.41s-.65,1.62-1,2.41v1.22l6.39-1.11v1.39l-.6.16c-.2.05-.41.1-.61.17l0-.48,0-.49-3.2.55c0,.28,0,.55,0,.83s0,.55-.06.83a6.91,6.91,0,0,0-1.23.88,6.41,6.41,0,0,0-.92,1,7.16,7.16,0,0,0-.62,1.13,4,4,0,0,0-.33,1.19,1.6,1.6,0,0,0,.16,1,1.11,1.11,0,0,0,.61.52,2.07,2.07,0,0,0,1.31,0,3.32,3.32,0,0,0,1.33-.69,9,9,0,0,0,1.25-1.32,8.26,8.26,0,0,0,.85-1.47,10.68,10.68,0,0,0,.79-3.16,12.3,12.3,0,0,1,1.25-.33v4.8a1.1,1.1,0,0,1-.27.79.88.88,0,0,1-.69.26,1.57,1.57,0,0,1-.89-.4l-.56.55a3.56,3.56,0,0,0,.88.66,4.33,4.33,0,0,0,.94.36,3.24,3.24,0,0,0,1.28,0,3.66,3.66,0,0,0,1.17-.43,3.39,3.39,0,0,0,1.13-1.13,3.08,3.08,0,0,0,.44-1.65v-4.25a2.91,2.91,0,0,1,1.37.38,4,4,0,0,1,1.19,1,6.85,6.85,0,0,1,1,1.75,11.32,11.32,0,0,1,.68,2.34Zm-15.73.13c-.06.36-.12.7-.19,1s-.21.76-.32,1.1a3.32,3.32,0,0,1-.45.86,1.25,1.25,0,0,1-.48.4.84.84,0,0,1-.51.08.66.66,0,0,1-.43-.21.54.54,0,0,1-.12-.48,5.55,5.55,0,0,1,.26-1,5.47,5.47,0,0,1,.48-1A5.6,5.6,0,0,1,74,109C73.94,109.39,73.89,109.76,73.83,110.12Z"/><polygon class="cls-4" points="54.18 33.29 40.8 35.39 37.3 42.7 36.98 40.55 24 43.99 20.56 54.88 29.73 52.39 36.03 95.95 44.63 93.46 37.59 44.73 45.96 43.42 49.02 83.53 57.81 82.19 54.18 33.29"/><path class="cls-4" d="M62.46,55c1.87-1.75,4.55-1.9,6-.36s1.11,4.22-.75,6-4.55,1.9-6,.35S60.6,56.76,62.46,55Z"/><path class="cls-4" d="M136.12,56.6l.38-12.8-28.84,1.53-4,17.88V62.14L93.14,63.86v-5l9.36-1.34V51.82l-9.36,1.34v-4l-7.83,1.33v4l-4.39.57a10.67,10.67,0,0,0,.76-3.63l-6.49,1s-.68,4.15-3.25,6.5v6.68s4.73-1.84,6.3-4.39l4-.57a2.56,2.56,0,0,1,3,2.67V65L72.7,67.1v5.73l5.16-.76L72.7,86.59l8.22-1.53,5.16-14.33L88,70.54s2.29-.63,2.29,2.29V79.9s-.49,3.76,4.77,3.06l4.31-.65-.47,2.1L72.51,88.5s-2.86.58-2.86-1.72V67.48s0-3.87-4.59-3.24l-5.54,1v5.73L62,70.54V96s7.72.13,7.64-3.82a4.59,4.59,0,0,0,4.58,2.1L101.36,90a4.52,4.52,0,0,0,3-2.49l3.46.78c3.58-5.58,8.6-5,8.6-5,7.84,1.17,7.45,10.31,7.45,10.31-.63,13.09-10.51,13.18-10.51,13.18-6.1.54-8.21-6.49-8.21-6.49L93,100.91c3.31,20,18.91,18.72,18.91,18.72A20.74,20.74,0,0,0,127,112.76c13.32-15.2,6.5-31.14,6.5-31.14-6.81-15.9-20.63-10.51-20.63-10.51l3.05-13.56ZM99.06,76.65a1,1,0,0,1-1.14-1.14V69l4.6-.76-1.83,8.15Z"/><rect class="cls-1" width="156" height="156"/></svg>