<svg id="Layer_1" data-name="Layer 1" xmlns="http://www.w3.org/2000/svg" xmlns:xlink="http://www.w3.org/1999/xlink" viewBox="0 0 156 156"><defs><style>.cls-1{fill:none;}.cls-2{clip-path:url(#clip-path);}.cls-3{fill:#2d69a9;}.cls-4{fill:#fff;}.cls-5{isolation:isolate;}</style><clipPath id="clip-path"><rect class="cls-1" width="156" height="156"/></clipPath></defs><title>A_26 极速115</title><g id="blue_circle" data-name="blue circle"><g class="cls-2"><g class="cls-2"><path class="cls-3" d="M156,78A78,78,0,1,1,78,0a78,78,0,0,1,78,78"/></g></g></g><polygon class="cls-4" points="53.77 32.4 40.4 34.5 36.89 41.81 36.58 39.66 23.59 43.1 20.16 53.98 29.32 51.5 35.63 95.05 44.22 92.57 37.19 43.84 45.56 42.52 48.62 82.64 57.4 81.3 53.77 32.4"/><path class="cls-4" d="M62.06,54.12c1.86-1.74,4.55-1.9,6-.35s1.11,4.22-.76,6-4.55,1.9-6,.35S60.2,55.87,62.06,54.12Z"/><path class="cls-4" d="M135.72,55.7l.38-12.79-28.84,1.52-4,17.89V61.24L92.74,63V58l9.36-1.34V50.93l-9.36,1.34v-4l-7.83,1.34v4l-4.39.58a10.67,10.67,0,0,0,.76-3.63l-6.49,1s-.68,4.15-3.25,6.5v6.68s4.73-1.84,6.3-4.39l4-.57a2.57,2.57,0,0,1,3.06,2.67v1.72L72.3,66.21v5.73l5.16-.76L72.3,85.69l8.22-1.52,5.15-14.33,1.91-.19s2.3-.63,2.3,2.29V79s-.5,3.76,4.77,3L99,81.42l-.47,2.1L72.11,87.6s-2.86.59-2.86-1.72V66.59s0-3.87-4.59-3.24l-5.54.95V70l2.49-.38v25.4s7.71.14,7.64-3.82a4.57,4.57,0,0,0,4.58,2.1L101,89.13a4.53,4.53,0,0,0,3-2.49l3.46.77c3.58-5.57,8.59-5,8.59-5,7.85,1.17,7.45,10.31,7.45,10.31-.62,13.08-10.5,13.18-10.5,13.18-6.1.54-8.22-6.49-8.22-6.49L92.55,100c3.31,20,18.91,18.72,18.91,18.72a20.73,20.73,0,0,0,15.09-6.88C139.87,96.67,133,80.73,133,80.73c-6.8-15.9-20.62-10.51-20.62-10.51l3-13.56ZM98.66,75.76a1,1,0,0,1-1.14-1.14v-6.5l4.6-.77-1.83,8.16Z"/><g class="cls-5"><path class="cls-4" d="M41,106.18l.56-2.67L44,103.2l.71-3.41,3.52-.47-.71,3.41,2.18-.29-.55,2.67L47,105.4a17,17,0,0,0,1.09,6l-.8,3.84a1,1,0,0,0-.22-.39,10.82,10.82,0,0,1-1.41-2.92l-2.47,11.93-3.53.47,2.1-10.13a38.54,38.54,0,0,1-4,5.5l.75-3.62a60.08,60.08,0,0,0,4.93-10.19Zm7.36,17.06.53-2.56a17.17,17.17,0,0,0,4.68-3.1,11,11,0,0,1-1.41-4.9,28.31,28.31,0,0,1-7.49,10.84l.67-3.2A25.93,25.93,0,0,0,48.6,114a74.8,74.8,0,0,0,2.51-9.66l.37-1.81-1.45.19.53-2.56,13.06-1.73L63.09,101a22.94,22.94,0,0,1-3.46,5l4-.53-.49,2.34a24.44,24.44,0,0,1-5.67,9.35A6.92,6.92,0,0,0,61.37,119l-.51,2.45a17.19,17.19,0,0,1-5.78-2.24A71.21,71.21,0,0,1,48.4,123.24Zm6.14-18.95a62.17,62.17,0,0,1-1.61,6.33l2.49-.33a13.31,13.31,0,0,0,.75,4.67,22,22,0,0,0,3.5-6.68l-3.63.48.48-2.35a21.18,21.18,0,0,0,2.84-4.93l-4.35.57Z"/><path class="cls-4" d="M63.5,120.94,64,118.7a4.16,4.16,0,0,0,2.59-3.25l1.79-8.63-2,.26.55-2.66,5.8-.77-2.09,10.13c-.4,2.26.49,3.28,2.69,3.06l14.72-2-.53,2.56-15.13,2q-3.12.42-4-1.34A9.52,9.52,0,0,1,63.5,120.94Zm6.61-18.81A22.48,22.48,0,0,0,69.66,97l3.53-.46a19.39,19.39,0,0,1,.55,5.11Zm4.55-2.47.53-2.56,6.63-.87.31-1.49,3.42-.46-.31,1.49L92,94.88l-.53,2.56-6.74.89-.33,1.6,5.81-.77-.84,4q-.67,3.72-4,4.05l-1.35.18a8.44,8.44,0,0,0,4.31,4l-.48,2.35c-2.75-.68-4.66-1.7-5.72-3.08l-.9,4.37-3.42.45.88-4.26A27.43,27.43,0,0,1,71.28,116l.49-2.35A27.65,27.65,0,0,0,78,108.24l-4.46.58,1.59-7.67,5.8-.77.33-1.59Zm2.65,6.18,2.59-.34.55-2.66-2.59.34Zm9.16-3.8-2.6.34-.55,2.67,1.25-.17a1.6,1.6,0,0,0,1.63-1.56Z"/></g></svg>