<svg id="Layer_1" data-name="Layer 1" xmlns="http://www.w3.org/2000/svg" viewBox="0 0 156 156"><defs><style>.cls-2{clip-path:url(#clip-path)}.cls-3{fill:#386db6}</style><clipPath id="clip-path"><path fill="none" d="M0 0h156v156H0z"/></clipPath></defs><g class="cls-2"><g class="cls-2"><path class="cls-3" d="M78 2.4A75.6 75.6 0 1 1 2.4 78 75.68 75.68 0 0 1 78 2.4M78 0a78 78 0 1 0 78 78A78 78 0 0 0 78 0"/></g></g><path class="cls-3" d="M33.79 69.86v3.71l-11 1.5v7.42l7.92-1.08-2.83 1.78 1.69 4.17-5.09.69v7.19L33.79 94v3.94l-11.2 1.53v7.65l11.2-1.53v7.89l5-.68v-7.89L50 103.37v-7.65l-11.2 1.52V93.3l9.36-1.3v-7.17l-5.16.71 1.81-4.88-2.82-.78 7.8-1.06V71.4l-11 1.49v-3.71l8.8-1.18v-7l-8.82 1.21v-4.85l-5 .68v4.87L25 64.11v7zm6.11 10.3l-2.15 6.09-2.94.4-2.15-5.5zm20.93-13.75v3.94l5.77-.79v2.09l-6.56.9V90.4l6.56-.89v2.08l-7.58 1V98a5.93 5.93 0 0 1-.79-2V73l-6.68.91v9l2.27-.31v13.98c-.53 1.16-1.32 2.73-2.38 4.73l1.7 9.51q1.47-3.67 3.28-7.4c1.28 3.38 3.39 4.94 6.33 4.7l.91-.13q8.37-.67 14.14-1.46.45-3.07 1.13-7.11c.08-.47.15-.87.23-1.19q-2.61.58-8.26 1.36V97l7.69-1v-6l-7.69 1v-2.08l6.68-.92V70.16l-6.68.91V69l5.88-.8v-4l1.47-.2V53.83l-18.89 2.58v10.2zm-8.94-7.13q1.7 5.32 3.17 11.39l4.07-5L57.1 59c-.61-1.77-1.1-3.25-1.47-4.43zm7.47 39.33l7.24-1v2.79a8.71 8.71 0 0 1-1.7 0l-1.24.17a4.31 4.31 0 0 1-4.3-2zM74.18 63.2l-3.28.44v-2.08l3.28-.45zm-7.58-1.06v2.09l-3.28.45v-2.09zm4.3 20.06l2.49-.34v2.08l-2.49.34zm-4.3.58v2.09l-2.49.34v-2.09zm6.79-5.33l-2.49.34V75.7l2.49-.34zm-6.79-1.16v2.09l-2.49.34v-2.09zm19.8 4.26l20.93-2.86v-5.56l-25.12 3.42v9.74q.12 11.35-1.92 17.42 1.81 2.54 3.51 4.63A61.82 61.82 0 0 0 86.17 94l1.48-.2v3.94a5.35 5.35 0 0 1-1.14 3.63l1.49 5.16a9 9 0 0 1 3.06-1.8 30.34 30.34 0 0 1 4.75-2v-2.13c.08-.94.11-1.72.11-2.33 2 2.36 5.28 4 10 4.9q.9-2.91 2-6.31a4.72 4.72 0 0 1-1.25-.06 15.71 15.71 0 0 1-3.73-.42c.3-.35.72-.87 1.24-1.56a9.7 9.7 0 0 0 1.14-1.31l-1.14-1.93 3.4-.47v-5.33L86.4 88.66v-8.11zm9.28-31.18v3.48l-2.38.32v-3.48l-4.18.57v3.48l-6.45.88v19.25l23.53-3.21V51.41l-6.45.88v-3.48zm-8.37 37.31L106 84.14V79.5l-18.69 2.55zm4.41 6.59l1.13-.15a16.49 16.49 0 0 0 1.58 3.72 3.12 3.12 0 0 0-.9.36 18.65 18.65 0 0 0-1.81.71zm5.43-.74l4.52-.62a14 14 0 0 1-2.26 2.86 7.5 7.5 0 0 1-2.26-2.24zM86.74 65.89l2.38-.32v2.32l-2.38.32zm13-1.77l2.38-.33v2.32l-2.38.33zM95.68 58v2.32l-2.38.32v-2.37zm-6.56.89v2.32l-2.38.33v-2.37zm13 .55l-2.38.32v-2.37l2.38-.32zm-6.45 5.28V67l-2.38.33V65zm21.84 12.98l2.49-.34a28.42 28.42 0 0 1-3.62 5.64c.61 1.31 1.36 3.22 2.27 5.72a18.48 18.48 0 0 1 1.13-2 8 8 0 0 0 .79-1.26l1.7-.23a30.55 30.55 0 0 1-4.42 7.09c-.07-2-.11-3.93-.11-5.78a5.77 5.77 0 0 0-1.92 1.19V70l1.69-.23V61l-1.69.23V46.86l-4.08.55v14.38l-1.92.26v8.81l1.92-.26v19.25c-.67.4-1.47.82-2.37 1.25l.68 8.49a4.41 4.41 0 0 1 1.13-.62 38.39 38.39 0 0 1 5.88-3.59 15.16 15.16 0 0 1 1.25 2.62 7.15 7.15 0 0 0 .34.88 38.33 38.33 0 0 0 7.58-14.25l1.35-.19a29.64 29.64 0 0 1-6.11 12.89c.53.7 1.29 1.83 2.27 3.4.22.44.37.72.45.87a43.08 43.08 0 0 0 4.07-7.28c.15 1.21.34 3 .57 5.26l3.28-.45q3.62-.5 3.62-7.91.11-4 .34-14.2l-12.56 1.72a8.05 8.05 0 0 0 .79-2l12.56-1.71v-6.46l-19.35 2.63zm17.65-10.76V46.07l-16.06 2.19v20.87zM123.28 63v-2.32l7.81-1.06v2.31zm7.81-10.57v2.08l-7.81 1.07v-2.09zm1 31.39c0 .78 0 1.94-.11 3.5a29.81 29.81 0 0 1-.12 3.26c-.07 1.4-.45 2.15-1.13 2.24l-1.81.25a45.72 45.72 0 0 0 2.38-9.14zM74.14 51.38v-1.13l-8 .87v-1.5l7.11-.77v-1.14l-7.11.77v-1.42l5.11-.55a2 2 0 0 0 1.35-.65 2 2 0 0 0 .52-1.36v-2.89a1.61 1.61 0 0 0-.52-1.31 1.73 1.73 0 0 0-1.37-.3l-5.11.55v-1.18l7.88-.86v-1.15l-7.89.86v-1.31c1.47-.23 2.86-.47 4.16-.73s2.41-.5 3.34-.75l-3.86-1.52c-.62.22-1.32.44-2.09.68s-1.59.48-2.44.71l-2.61.7-2.61.62-2.5.53c-.8.16-1.54.29-2.2.39v.7c1-.07 2.11-.17 3.37-.32s2.59-.31 4-.5v1.17l-7.87.85v1.15l7.87-.85v1.15l-6.91.75v6.55l6.91-.75v1.41l-6.89.75v1.15l6.87-.75v1.49l-7.91.86v1.13zm-4.36-8.56l-3.66.4v-1.58l2.88-.31a.65.65 0 0 1 .55.14.59.59 0 0 1 .19.46zm0 2.11c0 .44-.24.68-.74.73l-2.92.34v-1.68l3.66-.39zm-7.13-1.34l-3.58.41v-1.59l3.58-.41zm0 2.76l-3.58.39v-1.65l3.58-.39zm33.12-11.81V33.3l-7.77.84a.46.46 0 0 0 .3-.37.73.73 0 0 0-.11-.56 7.7 7.7 0 0 0-.5-.77 4.91 4.91 0 0 0-.52-.65l-3.47 1.34a5.36 5.36 0 0 1 .49.61 8.87 8.87 0 0 1 .5.75l-7.3.79v10.06a13.41 13.41 0 0 1-.33 3A10.88 10.88 0 0 1 76 51.18l.67.25a15.64 15.64 0 0 0 1.73-1.85 10.86 10.86 0 0 0 1.24-2 10.66 10.66 0 0 0 .79-2.24 10.82 10.82 0 0 0 .27-2.45v-6.71zm-.17 13.22a19 19 0 0 0-1.11-2.45A10.23 10.23 0 0 0 92.78 43a8 8 0 0 0-1.69-1.32A5 5 0 0 0 89 41c.06-.24.11-.48.16-.72s.1-.5.14-.75l6.22-.67v-1.21l-6 .65a25 25 0 0 0 .26-2.55l-3.56.39c0 .45 0 .88-.08 1.31l-.09 1.23-4.66.5v1.25l4.61-.49c0 .31-.06.62-.11.91s-.08.58-.13.85a9.12 9.12 0 0 0-1.65 1.07 11.28 11.28 0 0 0-1.43 1.42 10 10 0 0 0-1.35 2.11 6.79 6.79 0 0 0-.68 2.32 2.24 2.24 0 0 0 .14 1.17 1.36 1.36 0 0 0 .57.65 1.75 1.75 0 0 0 1.24.13 4.13 4.13 0 0 0 1.4-.71 9.51 9.51 0 0 0 1.52-1.37 11.67 11.67 0 0 0 1.19-1.58A13.88 13.88 0 0 0 88 44.38a26.51 26.51 0 0 0 .84-2.62 2.52 2.52 0 0 1 1.36 1 8.52 8.52 0 0 1 .9 1.84 10.13 10.13 0 0 1 .4 1.4c.1.47.19.92.27 1.36s.14.86.18 1.25.08.74.09 1zm-10.47-3.61c-.18.62-.38 1.21-.6 1.78a13.39 13.39 0 0 1-.76 1.62 6.71 6.71 0 0 1-1 1.38 2 2 0 0 1-.65.48.92.92 0 0 1-.61.08.54.54 0 0 1-.36-.28 1.05 1.05 0 0 1-.07-.62 6.58 6.58 0 0 1 .62-2.13 9.68 9.68 0 0 1 1.22-1.92 9.3 9.3 0 0 1 1.17-1.19 8.31 8.31 0 0 1 1.49-1c-.12.58-.28 1.18-.45 1.8zm17.68 72.69l-4.14-1.92-3.27 3.16.55-4.51-4-2.13 4.48-.87.78-4.48 2.22 4 4.51-.64-3.11 3.32zm-16.32 2.55l-4.13-1.92-3.28 3.17.56-4.52-4-2.13 4.47-.87.79-4.48 2.21 4 4.49-.64-3.11 3.33zm-16.31 2.76L66 120.22l-3.27 3.17.55-4.52-4-2.13 4.48-.86.78-4.48 2.21 4 4.52-.64-3.11 3.33z"/></svg>