<svg id="Isolation_Mode" data-name="Isolation Mode" xmlns="http://www.w3.org/2000/svg" viewBox="0 0 156 156"><defs><style>.cls-2{clip-path:url(#clip-path)}.cls-3{fill:#386db6}</style><clipPath id="clip-path"><path fill="none" d="M0 0h156v156H0z"/></clipPath></defs><g class="cls-2"><g class="cls-2"><path class="cls-3" d="M78 2.4A75.6 75.6 0 1 1 2.4 78 75.68 75.68 0 0 1 78 2.4M78 0a78 78 0 1 0 78 78A78 78 0 0 0 78 0"/></g></g><path class="cls-3" d="M124.73 47.64s-2.45-3.79-11.07-5.72L110 41.1a3 3 0 0 0-1.75-1.64v-3.31a3 3 0 0 0 1.29-2.47v-2.49a3 3 0 0 0-3-3H97.8a2.86 2.86 0 0 0-.43-.76A3 3 0 0 0 95 26.26h-4.36a3 3 0 0 0-2.88 2.18 3.74 3.74 0 0 1-.67 1.32c-.19-.45-.4-.89-.62-1.31a3 3 0 0 0-2.66-1.62h-3.66a3 3 0 0 0-2.73 4.23 18.23 18.23 0 0 1 1.1 3.22 41.05 41.05 0 0 0-5.52-.2h-5.4v-4.7a3 3 0 0 0-3-3h-4.83a3 3 0 0 0-3 3v8.78A201.33 201.33 0 0 0 38 47.08a19.64 19.64 0 0 0-8.3 9.78 20.48 20.48 0 0 0-1.29 9.78l2.39 31.91s-.22 15.58 13.47 22.14A201.44 201.44 0 0 0 77.5 133.6s11.89 3.77 20.48-2.77A195.85 195.85 0 0 0 116.61 115a36.11 36.11 0 0 0 9-13.11c-1.08-.46-1.9-.76-1.9-.76a6.12 6.12 0 0 0-1.41-.53c-.5-.11-1-.24-1.52-.39A39.06 39.06 0 0 1 118 104q-1.48 1.85-3.15 3.54t-3.35 3.14c-1.13 1-2.21 1.84-3.24 2.63a34.23 34.23 0 0 1-4.71 3 8.77 8.77 0 0 1-4.26 1.18 2.69 2.69 0 0 1-2.43-1.13 4.43 4.43 0 0 1-.61-2.79 11.09 11.09 0 0 1 .86-3.66 19.71 19.71 0 0 1 1.89-3.5 30.55 30.55 0 0 1 3.59-4.3 48.72 48.72 0 0 1 4.27-3.78A49.8 49.8 0 0 1 111.6 95q2.33-1.41 4.1-2.3a16.53 16.53 0 0 0-.2-2.6 11.14 11.14 0 0 0-.5-2.1c-.89 1-1.82 1.92-2.8 2.84a40.967 40.967 0 0 1-5.56 4.39 15.2 15.2 0 0 1-2.27 1.24 2.27 2.27 0 0 1-2 .14 1.73 1.73 0 0 1-.72-1.52 5.93 5.93 0 0 1 .69-2.75 18.6 18.6 0 0 1 2.07-3.34 20.34 20.34 0 0 1 1.82-2c.7-.68 1.47-1.36 2.3-2s1.69-1.29 2.57-1.87 1.78-1.08 2.66-1.53c.19-.94.33-2 .44-3a23.08 23.08 0 0 0 .11-3.2 12.77 12.77 0 0 0-.36-2.79 3.47 3.47 0 0 0-.91-1.79 1.71 1.71 0 0 0-1.55-.4 4.92 4.92 0 0 0-2 1 15.5 15.5 0 0 0-2.32 2.25 10.48 10.48 0 0 0-1.88 3.17 17.62 17.62 0 0 0-.92 4.24 29.28 29.28 0 0 0-.14 4.4L96 91.56a30 30 0 0 1 1.91-7.8 39.25 39.25 0 0 1 4.46-8.19 35.38 35.38 0 0 1 4.07-4.86 33.82 33.82 0 0 1 4.34-3.7 24.37 24.37 0 0 1 4.68-2.66 8.08 8.08 0 0 1 4-.74 3.25 3.25 0 0 1 2.49 1.65 8 8 0 0 1 .94 3.64 19.45 19.45 0 0 1-.55 5.19 33.39 33.39 0 0 1-1.94 5.79 4.24 4.24 0 0 1 3.9 3.08 15.29 15.29 0 0 1 .25 7 14.42 14.42 0 0 1 2.1-.08l.87.06c.53-7.64 1.29-19.26 1.32-24.45-.05.04 1.01-12.24-4.11-17.85zm-42.34-4.22H86a36.47 36.47 0 0 1-2.23 11.45h-4.21a34.54 34.54 0 0 0 2.83-11.45zm-2-6.79H84a19.71 19.71 0 0 1 2 5.55h-3.84a33.82 33.82 0 0 0-1.77-5.55zm10.25-7.37H95a5.46 5.46 0 0 1-.59 1.25 3.41 3.41 0 0 1-.24.68h12.37v2.49H92.17a8.74 8.74 0 0 1-4 1.81h17.09v6.8h2V45h-2v4h1.53v2.72h-1.53c-.08 2.34-1.42 3.52-4 3.52h-4v-2.5h2.59q1.41 0 1.41-1H91.7q-3.89.12-3.77-3.51V45H86.4v-2.71h1.53v-6.68c-.47.07-1 .19-1.65.34V33.8a6.57 6.57 0 0 0 4.36-4.54zm-10.49.57h3.66a20.28 20.28 0 0 1 1.88 5.55H81.8a21.47 21.47 0 0 0-1.65-5.55zm-20.38-.45h4.83v7.7h10.13v3H64.6v11.16h12.14v2.83h-27.1v-2.83h10.13zM49 114.47l-8.84-3.23v-24a3.3 3.3 0 0 1-2.14.37 4.54 4.54 0 0 1-3.24-2.52 5.76 5.76 0 0 1-.49-2.22v-3.25c0-1.17.18-2.31.3-3.43s.33-2.19.51-3.19.35-1.8.5-2.43l4.55 1.66v-9.35L49 66.11v9.69a50.54 50.54 0 0 1 3.77 4.42 35.76 35.76 0 0 1 2.82 4.46L51 87.87c-.22-1.21-.5-2.4-.83-3.57A20.68 20.68 0 0 0 49 81zM74.69 124a47.83 47.83 0 0 0-2.27-10.09 34.38 34.38 0 0 0-4.1-8.35 21.13 21.13 0 0 1-1.78 4.44 15.84 15.84 0 0 1-2.72 3.66 11.34 11.34 0 0 1-5.71 3.09 6.24 6.24 0 0 1-2.88-.07 6.48 6.48 0 0 1-2.61-1.33 7.5 7.5 0 0 1-1.9-2.46 6.92 6.92 0 0 1-.63-3.47 11.11 11.11 0 0 1 3.3-7.35 9.12 9.12 0 0 1 7-2.47 15.51 15.51 0 0 0 .11-1.83v-2l-9.22-3.37V89l9.22 3.36V80.09L53 77.37V74l7.47 2.73v-6.44l8.84 3.23v6.42l6.32 2.3a7.71 7.71 0 0 1 3.79 2.86 7.32 7.32 0 0 1 1.37 4.25v10.46l2.14.78V104l-13.67-5a27 27 0 0 1-.33 3.48 30.06 30.06 0 0 1 4.94 3.92 36.43 36.43 0 0 1 4.28 5.05 47.16 47.16 0 0 1 3 4.95 48.42 48.42 0 0 1 2.5 5.46zm19.79-51.09c-3.85 8.9-4.8 39.47-4.8 39.47C89.16 94.17 86.61 79.6 83 74S49.47 58.89 49.47 58.89l27.85 7.38c14.51 2.52 22.5-3.08 22.5-3.08 13-9.65 17.71-10.76 17.71-10.76-20.81 14.34-23.05 20.48-23.05 20.48z"/><path class="cls-3" d="M72 85.48a1.81 1.81 0 0 0-.28-.92 1.37 1.37 0 0 0-.71-.64l-1.65-.6v12.31l2.64 1zm-17.79 17.93a8.32 8.32 0 0 0-2.06 2.79 8.71 8.71 0 0 0-.68 3.28 3.12 3.12 0 0 0 .32 1.65 4 4 0 0 0 1 1.23 2.47 2.47 0 0 0 1.43.55 2 2 0 0 0 1.32-.47 10.89 10.89 0 0 0 3-4.2 24.13 24.13 0 0 0 1.62-6.95 8.1 8.1 0 0 0-6 2.12zM37.63 84.29a1.06 1.06 0 0 0 .33.91 1 1 0 0 0 .77.36 2.3 2.3 0 0 0 .71-.09l.71-.21V73.88a53.06 53.06 0 0 0-1.64 5.47 35.79 35.79 0 0 0-.88 4.94zm66.66 6.58a5.09 5.09 0 0 0-1 1.49 4.66 4.66 0 0 0-.36 1.33c0 1 .35 1.3 1.16 1a13.66 13.66 0 0 0 3.77-2.52 23.46 23.46 0 0 0 2.49-2.74 16.43 16.43 0 0 0 1.94-3.25 7.72 7.72 0 0 0-3.85 1.32 19.15 19.15 0 0 0-4.15 3.37zm1.78 12.44a26.33 26.33 0 0 0-3.41 2.41 23.37 23.37 0 0 0-3 3 8.41 8.41 0 0 0-1.24 2.07 5.83 5.83 0 0 0-.47 1.87 2.23 2.23 0 0 0 .25 1.35.94.94 0 0 0 1 .47 5.88 5.88 0 0 0 2-.62 19.31 19.31 0 0 0 2.49-1.43c.86-.58 1.74-1.24 2.63-2s1.69-1.43 2.43-2.1a28.66 28.66 0 0 0 3.52-3.93 17.26 17.26 0 0 0 2.35-4.36 29.27 29.27 0 0 0-4 1.11 29.64 29.64 0 0 0-4.55 2.16zm-14.25-65.1v4.08h3.41a12.19 12.19 0 0 0-.94-3.29h3.53A12.82 12.82 0 0 1 99 42.29h2.24v-4.08zm0 9.29q-.12 1.59 1.65 1.5h1.88a12.29 12.29 0 0 0-.94-3.28h3.53A12.82 12.82 0 0 1 99.12 49h2.12v-4h-9.42z"/><path class="cls-3" d="M124.73 47.64s-2.45-3.79-11.07-5.72L110 41.1a3 3 0 0 0-1.75-1.64v-3.31a3 3 0 0 0 1.29-2.47v-2.49a3 3 0 0 0-3-3H97.8a2.86 2.86 0 0 0-.43-.76A3 3 0 0 0 95 26.26h-4.36a3 3 0 0 0-2.88 2.18 3.74 3.74 0 0 1-.67 1.32c-.19-.45-.4-.89-.62-1.31a3 3 0 0 0-2.66-1.62h-3.66a3 3 0 0 0-2.73 4.23 18.23 18.23 0 0 1 1.1 3.22 41.05 41.05 0 0 0-5.52-.2h-5.4v-4.7a3 3 0 0 0-3-3h-4.83a3 3 0 0 0-3 3v8.78A201.33 201.33 0 0 0 38 47.08a19.64 19.64 0 0 0-8.3 9.78 20.48 20.48 0 0 0-1.29 9.78l2.39 31.91s-.22 15.58 13.47 22.14A201.44 201.44 0 0 0 77.5 133.6s11.89 3.77 20.48-2.77A195.85 195.85 0 0 0 116.61 115a36.11 36.11 0 0 0 9-13.11c-1.08-.46-1.9-.76-1.9-.76a6.12 6.12 0 0 0-1.41-.53c-.5-.11-1-.24-1.52-.39A39.06 39.06 0 0 1 118 104q-1.48 1.85-3.15 3.54t-3.35 3.14c-1.13 1-2.21 1.84-3.24 2.63a34.23 34.23 0 0 1-4.71 3 8.77 8.77 0 0 1-4.26 1.18 2.69 2.69 0 0 1-2.43-1.13 4.43 4.43 0 0 1-.61-2.79 11.09 11.09 0 0 1 .86-3.66 19.71 19.71 0 0 1 1.89-3.5 30.55 30.55 0 0 1 3.59-4.3 48.72 48.72 0 0 1 4.27-3.78A49.8 49.8 0 0 1 111.6 95q2.33-1.41 4.1-2.3a16.53 16.53 0 0 0-.2-2.6 11.14 11.14 0 0 0-.5-2.1c-.89 1-1.82 1.92-2.8 2.84a40.967 40.967 0 0 1-5.56 4.39 15.2 15.2 0 0 1-2.27 1.24 2.27 2.27 0 0 1-2 .14 1.73 1.73 0 0 1-.72-1.52 5.93 5.93 0 0 1 .69-2.75 18.6 18.6 0 0 1 2.07-3.34 20.34 20.34 0 0 1 1.82-2c.7-.68 1.47-1.36 2.3-2s1.69-1.29 2.57-1.87 1.78-1.08 2.66-1.53c.19-.94.33-2 .44-3a23.08 23.08 0 0 0 .11-3.2 12.77 12.77 0 0 0-.36-2.79 3.47 3.47 0 0 0-.91-1.79 1.71 1.71 0 0 0-1.55-.4 4.92 4.92 0 0 0-2 1 15.5 15.5 0 0 0-2.32 2.25 10.48 10.48 0 0 0-1.88 3.17 17.62 17.62 0 0 0-.92 4.24 29.28 29.28 0 0 0-.14 4.4L96 91.56a30 30 0 0 1 1.91-7.8 39.25 39.25 0 0 1 4.46-8.19 35.38 35.38 0 0 1 4.07-4.86 33.82 33.82 0 0 1 4.34-3.7 24.37 24.37 0 0 1 4.68-2.66 8.08 8.08 0 0 1 4-.74 3.25 3.25 0 0 1 2.49 1.65 8 8 0 0 1 .94 3.64 19.45 19.45 0 0 1-.55 5.19 33.39 33.39 0 0 1-1.94 5.79 4.24 4.24 0 0 1 3.9 3.08 15.29 15.29 0 0 1 .25 7 14.42 14.42 0 0 1 2.1-.08l.87.06c.53-7.64 1.29-19.26 1.32-24.45-.05.04 1.01-12.24-4.11-17.85zm-42.34-4.22H86a36.47 36.47 0 0 1-2.23 11.45h-4.21a34.54 34.54 0 0 0 2.83-11.45zm-2-6.79H84a19.71 19.71 0 0 1 2 5.55h-3.84a33.82 33.82 0 0 0-1.77-5.55zm10.25-7.37H95a5.46 5.46 0 0 1-.59 1.25 3.41 3.41 0 0 1-.24.68h12.37v2.49H92.17a8.74 8.74 0 0 1-4 1.81h17.09v6.8h2V45h-2v4h1.53v2.72h-1.53c-.08 2.34-1.42 3.52-4 3.52h-4v-2.5h2.59q1.41 0 1.41-1H91.7q-3.89.12-3.77-3.51V45H86.4v-2.71h1.53v-6.68c-.47.07-1 .19-1.65.34V33.8a6.57 6.57 0 0 0 4.36-4.54zm-10.49.57h3.66a20.28 20.28 0 0 1 1.88 5.55H81.8a21.47 21.47 0 0 0-1.65-5.55zm-20.38-.45h4.83v7.7h10.13v3H64.6v11.16h12.14v2.83h-27.1v-2.83h10.13zM49 114.47l-8.84-3.23v-24a3.3 3.3 0 0 1-2.14.37 4.54 4.54 0 0 1-3.24-2.52 5.76 5.76 0 0 1-.49-2.22v-3.25c0-1.17.18-2.31.3-3.43s.33-2.19.51-3.19.35-1.8.5-2.43l4.55 1.66v-9.35L49 66.11v9.69a50.54 50.54 0 0 1 3.77 4.42 35.76 35.76 0 0 1 2.82 4.46L51 87.87c-.22-1.21-.5-2.4-.83-3.57A20.68 20.68 0 0 0 49 81zM74.69 124a47.83 47.83 0 0 0-2.27-10.09 34.38 34.38 0 0 0-4.1-8.35 21.13 21.13 0 0 1-1.78 4.44 15.84 15.84 0 0 1-2.72 3.66 11.34 11.34 0 0 1-5.71 3.09 6.24 6.24 0 0 1-2.88-.07 6.48 6.48 0 0 1-2.61-1.33 7.5 7.5 0 0 1-1.9-2.46 6.92 6.92 0 0 1-.63-3.47 11.11 11.11 0 0 1 3.3-7.35 9.12 9.12 0 0 1 7-2.47 15.51 15.51 0 0 0 .11-1.83v-2l-9.22-3.37V89l9.22 3.36V80.09L53 77.37V74l7.47 2.73v-6.44l8.84 3.23v6.42l6.32 2.3a7.71 7.71 0 0 1 3.79 2.86 7.32 7.32 0 0 1 1.37 4.25v10.46l2.14.78V104l-13.67-5a27 27 0 0 1-.33 3.48 30.06 30.06 0 0 1 4.94 3.92 36.43 36.43 0 0 1 4.28 5.05 47.16 47.16 0 0 1 3 4.95 48.42 48.42 0 0 1 2.5 5.46zm19.79-51.09c-3.85 8.9-4.8 39.47-4.8 39.47C89.16 94.17 86.61 79.6 83 74S49.47 58.89 49.47 58.89l27.85 7.38c14.51 2.52 22.5-3.08 22.5-3.08 13-9.65 17.71-10.76 17.71-10.76-20.81 14.34-23.05 20.48-23.05 20.48z"/><path class="cls-3" d="M72 85.48a1.81 1.81 0 0 0-.28-.92 1.37 1.37 0 0 0-.71-.64l-1.65-.6v12.31l2.64 1zm-17.79 17.93a8.32 8.32 0 0 0-2.06 2.79 8.71 8.71 0 0 0-.68 3.28 3.12 3.12 0 0 0 .32 1.65 4 4 0 0 0 1 1.23 2.47 2.47 0 0 0 1.43.55 2 2 0 0 0 1.32-.47 10.89 10.89 0 0 0 3-4.2 24.13 24.13 0 0 0 1.62-6.95 8.1 8.1 0 0 0-6 2.12zM37.63 84.29a1.06 1.06 0 0 0 .33.91 1 1 0 0 0 .77.36 2.3 2.3 0 0 0 .71-.09l.71-.21V73.88a53.06 53.06 0 0 0-1.64 5.47 35.79 35.79 0 0 0-.88 4.94zm66.66 6.58a5.09 5.09 0 0 0-1 1.49 4.66 4.66 0 0 0-.36 1.33c0 1 .35 1.3 1.16 1a13.66 13.66 0 0 0 3.77-2.52 23.46 23.46 0 0 0 2.49-2.74 16.43 16.43 0 0 0 1.94-3.25 7.72 7.72 0 0 0-3.85 1.32 19.15 19.15 0 0 0-4.15 3.37zm1.78 12.44a26.33 26.33 0 0 0-3.41 2.41 23.37 23.37 0 0 0-3 3 8.41 8.41 0 0 0-1.24 2.07 5.83 5.83 0 0 0-.47 1.87 2.23 2.23 0 0 0 .25 1.35.94.94 0 0 0 1 .47 5.88 5.88 0 0 0 2-.62 19.31 19.31 0 0 0 2.49-1.43c.86-.58 1.74-1.24 2.63-2s1.69-1.43 2.43-2.1a28.66 28.66 0 0 0 3.52-3.93 17.26 17.26 0 0 0 2.35-4.36 29.27 29.27 0 0 0-4 1.11 29.64 29.64 0 0 0-4.55 2.16zm-14.25-65.1v4.08h3.41a12.19 12.19 0 0 0-.94-3.29h3.53A12.82 12.82 0 0 1 99 42.29h2.24v-4.08zm0 9.29q-.12 1.59 1.65 1.5h1.88a12.29 12.29 0 0 0-.94-3.28h3.53A12.82 12.82 0 0 1 99.12 49h2.12v-4h-9.42z"/></svg>