<svg id="Layer_1" data-name="Layer 1" xmlns="http://www.w3.org/2000/svg" viewBox="0 0 156 156"><defs><style>.cls-2{clip-path:url(#clip-path)}.cls-3{fill:#386db6}.cls-4{fill:#fff}</style><clipPath id="clip-path"><path fill="none" d="M0 0h156v156H0z"/></clipPath></defs><g class="cls-2"><g class="cls-2"><path class="cls-3" d="M78 2.4A75.6 75.6 0 1 1 2.4 78 75.68 75.68 0 0 1 78 2.4M78 0a78 78 0 1 0 78 78A78 78 0 0 0 78 0"/></g></g><path class="cls-4" d="M57.09 49.43A60.46 60.46 0 0 0 52.64 44l-1.81 5.8q2.09 2.61 4.35 6z"/><path class="cls-4" d="M58.84 84.72a41.41 41.41 0 0 0 4.35-7v6.19l3.46-.46v-5.12l2.17 2.17c1 1.09 1.81 2 2.38 2.57l1.8-6.85c-.23-.23-.6-.53-1-.89a48.56 48.56 0 0 0-4.09-3.16l-1.28 4.28v-4.94l5.27-.69V54.93l-5.27.7v-2.48l6-.79v-6.59l-6 .8v-1.65l6.75-3.17-10.19 1.32V47l-5.83.76v6.59l5.83-.76v2.47l-5.27.7v15.87l3.82-.5a30.44 30.44 0 0 1-4.91 6.23c.23.92.59 2.27 1.09 4 .29 1.05.52 1.78.62 2.17-.92-.43-1.65-1.64-2.17-3.62V65l-1.09.13L56.83 60a63.92 63.92 0 0 0-4.45-5.41l-1.81 6c1.22 1.48 2.4 3.07 3.56 4.71l-3.1.4v7.64l1.81-.23v8.27c-.43 1-1.05 2.41-1.91 4.19l1.35 8.7c1.09-3 2-5.28 2.64-6.76 1 3 2.73 4.45 5.11 4.28 1.51-.06 3.16-.13 4.9-.23 1.39-.19 3.79-.49 7.19-.95.23-2.11.59-4.48 1.08-7.15-5 .79-9.12 1.35-12.45 1.65a3 3 0 0 1-1.91-.39zm9.82-23.39v3.92l-2 .26v-3.92zm-7.48 4.91v-3.93l2-.26V66z"/><path class="cls-3" d="M84 46.8c0-4.42 0-10 .13-16.84l-17.78 2.57v12l12.46-1.82q0 24.07 1.08 33.22c1.45 14.23 4.42 20.89 9 20q3.6-.54 4.78-7.32a129.44 129.44 0 0 0 1.91-13.8 47.87 47.87 0 0 1-4-3.92L94 60.67c-1.12-1.65-2.7-3.73-4.78-6.23-.72-.89-1.25-1.52-1.55-1.88q3-5.84 6.36-13l-3.82-8.17C88 37.21 85.92 42.31 84 46.8zm4.91 36.27c-2-.1-3.36-4-4.09-11.73-.07-1.18-.2-3-.36-5.37-.07-1.78-.17-3.19-.23-4.18q3.6 4.89 6.72 10.15c-.07 1-.23 2.43-.5 4.28-.16 1.42-.23 2.44-.23 3-.39 2.47-.85 3.76-1.31 3.82zm19.58-20.72l-.13-3.3c-.06 0-.2 0-.36.07V34.47l-3.36.5c.33-2 .59-4.09.82-6.13h-4.08c-.07.82-.17 1.81-.23 3-.17 1.61-.3 2.83-.37 3.66l-2.4.36v26.19a5.46 5.46 0 0 1-1.81.56l.23 9 1.55-.23a168 168 0 0 1-1.45 23.36c.95 2.67 1.91 5.14 2.86 7.41a220.14 220.14 0 0 0 1.91-31.83l.5-.36v15.62l1.91-.27V69.4l.49-.36v18.32c.07 2.2-.29 3.46-1.08 3.75a4 4 0 0 1-1.92 0c.33 3.36.6 6.42.83 9.19a11.63 11.63 0 0 0 2.63-.69c2-.49 3-3.52 2.87-9.13V67.92l.59-.1v-2.11l2.41-.36-2.41 6.36a112.71 112.71 0 0 0 2.05 13.83 42.15 42.15 0 0 1-2.41 7l2.77 7.71c.33-1.06.76-2.61 1.32-4.72a31 31 0 0 1 .82-3.13c1.19 2.64 3 3.89 5.27 3.76a46.94 46.94 0 0 0 7.19-.43c.06-.82.19-1.94.36-3.36.23-2.83.49-5 .72-6.42l-7 1c-2.07.49-3.66-.56-4.78-3.2a145.93 145.93 0 0 0 1.45-21V52.56l-2.27.33 2-11.43V31.24l-7 1v9.92l3.13-.46zm8.27-1.48l2.64-.4V72.2l-2 .3V83l8.14-1.19v-10.5l-2.15.3V59.88l2.77-.4V49.27l-2.77.39V39.45l2.77-1-.49-10.15a48.38 48.38 0 0 1-7.55 2.6 8.08 8.08 0 0 1-1.68.56c.23 3.56.4 7 .5 10.15l2.5-.66v9.33l-2.64.39zm-15-11.37V45l2.87-.42v7.8l-1.32-5.53zm2.9 6.49v4.22l-2.86 1v-7.49c.39 1.74.72 3.49 1 5.27zm7.34 9.16l.37-2.14.49-.07c-.07 4.22-.23 7.94-.49 11.2-.33-2.37-.56-4.41-.73-6.19-.06-1.19-.16-2.08-.23-2.67z"/><path class="cls-3" d="M111.56 108.64S86.12 83.5 68.76 97.37a90.15 90.15 0 0 1 15.19 4h.13c7.38 2.86 7.41-2.74 27.48 7.27zm-.43 19.84s-10.18-16.25-50.25 2c0 .04 34.12-11.89 50.25-2z"/><path class="cls-3" d="M128.92 127.36s-20.16-13.51-45.07-11.27c0 0-7.48-.1-20.3 3.39 0 0-26.89 10.51-37.63-2.24 0 0 5.87 14.93 27.05 10.38 0 0 2.8-.49 12.62-3.82 0-.03 29.23-12.8 63.33 3.56z"/><path class="cls-3" d="M119.24 118.36s-29.76-21-90.15-26.16c0 0-.1 14 21 28.4 0 0 18.85-11.13 46.2-7 0 0-29.23-12.62-53.65-12.39-.01.02 31.75-2.78 76.6 17.15zm-9.66-16.01l16.87 11.86-8.33-9.56z"/><path class="cls-3" d="M46.45 61.36l1.35-6.16v-7.65l-12.26 1.62v7.41l1.45-.2c0 3.43 0 5.8-.1 7C36.76 74.44 35.64 83 33.53 89c.23.66.56 1.71 1 3.16s.83 2.7 1 3.39c.66-2.14 1.22-4.08 1.65-5.8.23.53.69 1.92 1.35 4.16.23.79.43 1.38.56 1.78a56.9 56.9 0 0 0 5-7.68c1.51 2.54 2.8 4.51 3.82 5.9.59-2.41 1.28-4.85 2-7.29A35.48 35.48 0 0 1 46.35 82a73.61 73.61 0 0 0 2.83-13.37v-7.7zm-16.34-4.88l-2.11.27V64l1.91-.26a78.61 78.61 0 0 1-2.37 12.09c.13 1.65.26 4.28.46 8 .07 1.65.13 2.8.2 3.49.72-2.57 1.35-5.27 1.91-8.11v17.73l3.36-.42V75.66c.43.76.86 1.61 1.29 2.5l1.45-7.84c-.93-1.38-1.82-2.73-2.74-4v-3.08l1.94-.24v-7.24L33.5 56v-9.07l-3.36.43v9.12zm11.53 26.16A36.52 36.52 0 0 1 37.45 89a99.11 99.11 0 0 0 2-13.9 44.45 44.45 0 0 0 2.18 7.57zm2.54-27.18l-1.29 6.36-2.44.33-.19-1.22.09-5zm1.45 13.44a67 67 0 0 1-1.82 8.1c-.81-2.4-1.51-4.9-2.17-7.57zm11.46-19.47A60.46 60.46 0 0 0 52.64 44l-1.81 5.8q2.09 2.61 4.35 6z"/><path class="cls-3" d="M58.84 84.72a41.41 41.41 0 0 0 4.35-7v6.19l3.46-.46v-5.12l2.17 2.17c1 1.09 1.81 2 2.38 2.57l1.8-6.85c-.23-.23-.6-.53-1-.89a48.56 48.56 0 0 0-4.09-3.16l-1.28 4.28v-4.94l5.27-.69V54.93l-5.27.7v-2.48l6-.79v-6.59l-6 .8v-1.65l6.75-3.17-10.19 1.32V47l-5.83.76v6.59l5.83-.76v2.47l-5.27.7v15.87l3.82-.5a30.44 30.44 0 0 1-4.91 6.23c.23.92.59 2.27 1.09 4 .29 1.05.52 1.78.62 2.17-.92-.43-1.65-1.64-2.17-3.62V65l-1.09.13L56.83 60a63.92 63.92 0 0 0-4.45-5.41l-1.81 6c1.22 1.48 2.4 3.07 3.56 4.71l-3.1.4v7.64l1.81-.23v8.27c-.43 1-1.05 2.41-1.91 4.19l1.35 8.7c1.09-3 2-5.28 2.64-6.76 1 3 2.73 4.45 5.11 4.28 1.51-.06 3.16-.13 4.9-.23 1.39-.19 3.79-.49 7.19-.95.23-2.11.59-4.48 1.08-7.15-5 .79-9.12 1.35-12.45 1.65a3 3 0 0 1-1.91-.39zm9.82-23.39v3.92l-2 .26v-3.92zm-7.48 4.91v-3.93l2-.26V66z"/></svg>