<svg id="Layer_1" data-name="Layer 1" xmlns="http://www.w3.org/2000/svg" viewBox="0 0 156 156"><defs><style>.cls-2{clip-path:url(#clip-path)}.cls-3{fill:#386db6}.cls-4{fill:#fff}</style><clipPath id="clip-path"><path fill="none" d="M0 0h156v156H0z"/></clipPath></defs><g class="cls-2"><g class="cls-2"><path class="cls-3" d="M78 2.4A75.6 75.6 0 1 1 2.4 78 75.68 75.68 0 0 1 78 2.4M78 0a78 78 0 1 0 78 78A78 78 0 0 0 78 0"/></g></g><path class="cls-4" d="M55.18 51.44a71.87 71.87 0 0 0-4.64-5.63l-1.9 6c1.45 1.82 3 3.91 4.55 6.29z"/><path class="cls-4" d="M57 88.17a46.81 46.81 0 0 0 4.55-7.26v6.45l3.6-.47v-5.38l2.27 2.29c1.07 1.14 1.89 2 2.46 2.68l1.89-7.13c-.25-.25-.6-.56-1-.93a53.27 53.27 0 0 0-4.26-3.31l-1.32 4.47v-5.16l5.49-.72V57.15l-5.49.72v-2.58l6.24-.82v-6.88l-6.24.82v-1.72l7-3.28-10.67 1.38v4.08l-6.06.8v6.88l6.06-.8v2.58l-5.52.73v16.55l4-.52a31.9 31.9 0 0 1-5.11 6.48c.25 1 .63 2.35 1.14 4.15.31 1.1.53 1.86.66 2.27-.95-.44-1.7-1.71-2.27-3.78V67.66l-1.14.15 1.61-5.37a69.7 69.7 0 0 0-4.64-5.63l-1.89 6.27q1.89 2.33 3.69 4.89l-3.22.42v8l1.9-.25v8.6c-.45 1.07-1.11 2.51-2 4.35l1.42 9.06c1.13-3.16 2.05-5.51 2.74-7 1.08 3.16 2.84 4.64 5.3 4.46 1.58-.06 3.29-.14 5.12-.24l7.47-1q.39-3.27 1.14-7.46c-5.17.83-9.5 1.39-13 1.71a2.9 2.9 0 0 1-1.92-.45zm10.2-24.34v4.08l-2.08.28V64.1zm-7.76 5.1v-4.08l2.08-.28v4.09zm35.72 6.86l5.11-.74v-7.23l-7 1v-2.6l4.77-.68v-6.08l-4.77.69v-2.31l4.18-.61V52.9l2.56-.37v-13L89.58 41c0-.68-.07-1.31-.11-1.9l14.34-3.87L83.32 37l.22 1.16a5.19 5.19 0 0 0 .24 1.41c.07 1 .15 1.72.23 2.28L73.3 43.36v13l2.56-.36v4.33l4.07-.58v2.31l-4.65.67v6.07l4.65-.66v2.6l-6.86 1V79l5-.72a30.72 30.72 0 0 1-5.7 6c.31 1.88.82 4.8 1.51 8.75q2-2.31 3.26-3.94c.15-.21.27-.33.35-.34V96l4.18-.6v-7.84l10.12-1.46V93l4.18-.6v-6.32a19.76 19.76 0 0 0 3.37 2.7c.24-1.77.66-4.24 1.28-7.42a7.58 7.58 0 0 1 .24-1.48 15.52 15.52 0 0 1-5.7-4.09zm-12.67 4.42c.54-1 1-2 1.51-2.82l5.46-.78a5.36 5.36 0 0 0 .47.8 4.14 4.14 0 0 0 .93 1.6zm6.39-13.35v2.6l-4.53.65v-2.6zm-4.53-5.42v-2.32l4.53-.65v2.32zm4.53-12.22v2.6l-4.53.65v-2.6l-4.42.64v2.6l-2.21.32V50l17.9-2.58v3.47l-2.32.34v-2.65z"/><path class="cls-4" d="M97.25 95.73q-5.58-1.8-8.6-2.81A30.72 30.72 0 0 0 89 88l-4.42.64q.81 10-11.28 11.74.93 3.92 1.75 8.71 9.18-3.92 11.62-9.19c.85.46 2 1.06 3.49 1.81 3.56 1.61 6.24 2.86 8 3.77l1.75-8.93a5.51 5.51 0 0 1-2.66-.82z"/><path class="cls-4" d="M66.08 97.46s-9.65-1.87-15.36-1.7c0 0 10.66 1.22 15.18 2.32a2.71 2.71 0 0 0-2 1.25l-.13.39c-.15-.25-.59-.3-.59-.3-6.1-1.11-15.89-2.23-15.89-2.23l2.85 8.12 1.06.08a22.81 22.81 0 0 0-2.75 6 66.39 66.39 0 0 1 3.55-5.94h.45L50.54 101l3 4.55 7.83.24a71.89 71.89 0 0 0-6.94 3.24s6.37-2.1 8.57-2.77l1.61-5.44a3 3 0 0 1 3.75-2s1.24-.09 5.45 2.86l-.81 3.18a15.41 15.41 0 0 1-.63 4.73 42.32 42.32 0 0 1-5.45 6.87l3.58-2.58 1.5-2.41 1.08.8-2 3.3-5 3.3 5.09-2.32s5.26-6.46 5.27-14.81a45.53 45.53 0 0 0-10.36-4.28z"/><path class="cls-4" d="M48.67 105l-1.94-7.86-3.06-.14a5.78 5.78 0 0 0-1.08.3 10.11 10.11 0 0 0 0 2.2s-.85-1.85-1-1.76a66.2 66.2 0 0 0-7.62 4.52l4.69 1.41-.76.38a17.28 17.28 0 0 0-5.62 5.09c1.89-2.49 6.34-4.73 6.34-4.73l1.14-.49c1.36.18 5.86.72 8.91 1.08zM63 111.44a2.13 2.13 0 0 1 2.24-.87s1.35.37 1.52 3.84c0 0 .69-3.23-1.52-4.37 0 0 0-.38-1.58.22A3 3 0 0 1 65 109s.56 0 .71 1.16l.63.53s0-2.52-1.34-2.67c0 0-2.14-.18-3.48 4.19l-8 3.39 8.75-2.67a13.83 13.83 0 0 1 .73-1.49z"/><path class="cls-4" d="M66.71 116.64a17.14 17.14 0 0 1-1 2.3l-.4-1.76-1.16-1.07 1.33-.09 1.26-1.34a.33.33 0 0 0-.45-.27l-.89 1.07-1.34.18v-.36l.26-.26 2.15-1.7s.2-.44-.45-.27l-1.7 1.16.63-1v-1.3a1.9 1.9 0 0 1 .76.77 1.21 1.21 0 0 0-.75-1.14v-1l-.45.45v.45a3.46 3.46 0 0 0-.49.06l.07-.78-.45.36-.06.59a1.6 1.6 0 0 0-.74.75 3.33 3.33 0 0 1 .7-.46l-.17 1.62-.09.71-.27-.26-.89-.27-.08.23c.1-.42.17-.68.17-.68-2.23.76-8.57 2.23-8.57 2.23l-.27.45a8.7 8.7 0 0 1 3.3 3.39l-1.43 1.52-7.14-.36-5.1-2.85h-.36v.54l1.61 1.34-3.84-.36-7.14-1.16-2-.71 2-1-.9-.36-4.19 1.25-3.09-1.25v-1.5a7.75 7.75 0 0 0-.8 1.07 1 1 0 0 0 .09 1.25l3.3 1.34 1.32-.36 2.59 1.07 9.41 1.52 4.73.27 1.25.89 8.13.36 3-.33.59.42 4.46.35s1.84-.35 3.1-3.65.45-2.06.45-2.06zm-2 .81l.27 1.6.41.33a6.45 6.45 0 0 1-.63.89v-.06l-.54-1.78-.44-1.7zm-.21-5.63l-.06 1.25-.62.81.17-2a1.49 1.49 0 0 1 .54-.06zm-1.31 5.09l.09 1.52-1.2 2.13a6.11 6.11 0 0 1-.38-.65l1.31-2.2zm-1.52 3a7.25 7.25 0 0 1-.51-1.51c.13-.82.3-1.69.46-2.48v.24l.81.62v.63l-.72 2zm1.08-5.36l.09.27.16.18a1.21 1.21 0 0 0-.26 1l-.27.18-.79-.62c.13-.6.25-1.13.34-1.52zm.35 6.78l-2.36-.17.22-.81c0-.27 0-.58.06-.91.8 1.51 1.55 1.73 1.55 1.73a3.07 3.07 0 0 1-.25-.26c.07 0 .15-.07.25-.2l1.16-2 .47 1.29.43.43a2.12 2.12 0 0 1-1.5.85z"/><path class="cls-3" d="M44.1 63.85l1.42-6.42v-8l-12.78 1.73v7.74l1.52-.2c0 3.58 0 6-.1 7.32Q34 83.24 30.66 92.7c.25.69.6 1.78 1 3.3s.85 2.83 1 3.52q1-3.36 1.7-6a41.29 41.29 0 0 1 1.42 4.33q.39 1.25.57 1.86a57.38 57.38 0 0 0 5.21-8c1.58 2.66 2.9 4.7 4 6.14q.95-3.78 2.09-7.58A34.45 34.45 0 0 1 44 85.36a77.53 77.53 0 0 0 2.93-13.93v-8zm-17-5.07l-2.18.29v7.52l2-.26a78.89 78.89 0 0 1-2.46 12.58c.13 1.7.28 4.47.47 8.32.07 1.71.13 2.92.19 3.63q1.14-4 2-8.43v18.48l3.5-.46V78.74c.44.8.89 1.68 1.33 2.62l1.51-8.15Q32 71 30.56 69.07v-3.23l2-.26v-7.52l-2 .26v-9.46l-3.5.46zM39.08 86a39.09 39.09 0 0 1-4.35 6.59 102.69 102.69 0 0 0 2.08-14.46A50.1 50.1 0 0 0 39.08 86zm2.65-28.3l-1.32 6.63-2.56.33-.19-1.26.1-5.17zm1.52 14a68 68 0 0 1-1.9 8.42c-.82-2.47-1.57-5.09-2.27-7.87zm11.93-20.26a71.87 71.87 0 0 0-4.64-5.63l-1.9 6c1.45 1.82 3 3.91 4.55 6.29z"/><path class="cls-3" d="M57 88.17a46.81 46.81 0 0 0 4.55-7.26v6.45l3.6-.47v-5.38l2.27 2.29c1.07 1.14 1.89 2 2.46 2.68l1.89-7.13c-.25-.25-.6-.56-1-.93a53.27 53.27 0 0 0-4.26-3.31l-1.32 4.47v-5.16l5.49-.72V57.15l-5.49.72v-2.58l6.24-.82v-6.88l-6.24.82v-1.72l7-3.28-10.67 1.38v4.08l-6.06.8v6.88l6.06-.8v2.58l-5.52.73v16.55l4-.52a31.9 31.9 0 0 1-5.11 6.48c.25 1 .63 2.35 1.14 4.15.31 1.1.53 1.86.66 2.27-.95-.44-1.7-1.71-2.27-3.78V67.66l-1.14.15 1.61-5.37a69.7 69.7 0 0 0-4.64-5.63l-1.89 6.27q1.89 2.33 3.69 4.89l-3.22.42v8l1.9-.25v8.6c-.45 1.07-1.11 2.51-2 4.35l1.42 9.06c1.13-3.16 2.05-5.51 2.74-7 1.08 3.16 2.84 4.64 5.3 4.46 1.58-.06 3.29-.14 5.12-.24l7.47-1q.39-3.27 1.14-7.46c-5.17.83-9.5 1.39-13 1.71a2.9 2.9 0 0 1-1.92-.45zm10.2-24.34v4.08l-2.08.28V64.1zm-7.76 5.1v-4.08l2.08-.28v4.09zm35.72 6.86l5.11-.74v-7.23l-7 1v-2.6l4.77-.68v-6.08l-4.77.69v-2.31l4.18-.61V52.9l2.56-.37v-13L89.58 41c0-.68-.07-1.31-.11-1.9l14.34-3.87L83.32 37l.22 1.16a5.19 5.19 0 0 0 .24 1.41c.07 1 .15 1.72.23 2.28L73.3 43.36v13l2.56-.36v4.33l4.07-.58v2.31l-4.65.67v6.07l4.65-.66v2.6l-6.86 1V79l5-.72a30.72 30.72 0 0 1-5.7 6c.31 1.88.82 4.8 1.51 8.75q2-2.31 3.26-3.94c.15-.21.27-.33.35-.34V96l4.18-.6v-7.84l10.12-1.46V93l4.18-.6v-6.32a19.76 19.76 0 0 0 3.37 2.7c.24-1.77.66-4.24 1.28-7.42a7.58 7.58 0 0 1 .24-1.48 15.52 15.52 0 0 1-5.7-4.09zm-12.67 4.42c.54-1 1-2 1.51-2.82l5.46-.78a5.36 5.36 0 0 0 .47.8 4.14 4.14 0 0 0 .93 1.6zm6.39-13.35v2.6l-4.53.65v-2.6zm-4.53-5.42v-2.32l4.53-.65v2.32zm4.53-12.22v2.6l-4.53.65v-2.6l-4.42.64v2.6l-2.21.32V50l17.9-2.58v3.47l-2.32.34v-2.65z"/><path class="cls-3" d="M97.25 95.73q-5.58-1.8-8.6-2.81A30.72 30.72 0 0 0 89 88l-4.42.64q.81 10-11.28 11.74.93 3.92 1.75 8.71 9.18-3.92 11.62-9.19c.85.46 2 1.06 3.49 1.81 3.56 1.61 6.24 2.86 8 3.77l1.75-8.93a5.51 5.51 0 0 1-2.66-.82zm21.48-16.1v-6.37l8.27-1.18V61.67l-8.26 1.18v-9.54l-4.65.67v9.54l-4.77.69c.31-1.39.82-3.59 1.52-6.58q.93-3.6 1.39-5.7l16-2.3V39.22l-13.6 2c.34-1.49.66-3 1-4.48l12.28-2.12-11.74-.62-5.46-.37c-.16.6-.35 1.59-.58 3q-.7 3.57-1 5.36L102 43v10.41l4.77-.69q-1.4 6.86-3 13.16v9.54l10.35-1.49v6.36l-12.67 1.83v10.7L114.08 91v11.86l4.65-.67V90.32l10.35-1.48v-10.7zm-4.58 30.27l11.52-2.52-13.06 1.26-.83.06-1.15-2.38 18.14-3.59-18.63 2.57-.09-.19-.92 3.88-3.96.52 3.41 2.07-.72 3.92 3.03-2.59 3.51 1.89-.55-1.31 6.31-2.32-6.88.96-.42-1 1.29-1.23z"/><path class="cls-3" d="M99.97 111.25l4.31-1.63-6.17.57-.73.06-.86-1.78 10.73-2.64-11.5 1.02-.09-.19-.93 3.87-3.95.53 3.41 2.07-.72 3.92 3.03-2.59 3.51 1.89-.45-1.08 3.73-2.04-4.32.64-.5-1.19 1.5-1.43zm-14.41 1.56l4.3-1.64-6.89.62-.84-1.75 8.77-2.32-9.56.69-.09-.2-.92 3.87-3.96.53 3.41 2.07-.72 3.92 3.03-2.6 3.51 1.9-.42-1 3.82-2.29-4.43.82-.51-1.21 1.5-1.41zM72.34 106l-4.47 3-2.5-1.79a6.2 6.2 0 0 1 2.23 2.95zm-39.68-4.06a14.42 14.42 0 0 1-3.35.9l2.37-.87 1.28-.64-.67-.75c-.4-.48-.06-.63-.06-.63a2.38 2.38 0 0 1 1.19-.48l2.13.29 6.39-3.38s1.27-.7 4.84-.71A15.1 15.1 0 0 0 41 97.25s-6.86 4.03-8.34 4.69z"/><path class="cls-3" d="M71.88 104.15l-1.75-.15.68-.39-.53-3.61-.36 3-.86.83h-.39c-1.19.05-1.52 1.61-1.52 1.61l-.71 1.78c.8 1 1.34.45 1.34.45l.53-1.43 3 .09 1-1.16zm-39.02-1.7a11.6 11.6 0 0 0-1 6.52s1.17 1.62 4.55 2.59c0 0-3.43-.26-5.36-2.15.02 0-.38-4.23 1.81-6.96z"/><path class="cls-3" d="M53.67 115.57l-9.92.54-12.14-1.88a63.44 63.44 0 0 1-5.89-3s.81-4.55 2.68-7c0 0-3.3 2.73-3.4 9.9a5.85 5.85 0 0 1 .89-2l5.54 2.87 12 1.87 10.09-.8z"/><path class="cls-3" d="M52.6 110.13a12.15 12.15 0 0 0-3.67 2.23l-7.5.27-.89-1.07-2.86-.45 3.49.09.8.62h6.52zm6.25 0l-.09.36-3.4 2.67-4.64.45a11.17 11.17 0 0 1-1.34-1.34zM28 105.76s2.19 3.09 2.77 3.74l-1.52 1A12.09 12.09 0 0 1 27 109a9.48 9.48 0 0 1 1-3.24z"/><path class="cls-3" d="M66.08 97.46s-9.65-1.87-15.36-1.7c0 0 10.66 1.22 15.18 2.32a2.71 2.71 0 0 0-2 1.25l-.13.39c-.15-.25-.59-.3-.59-.3-6.1-1.11-15.89-2.23-15.89-2.23l2.85 8.12 1.06.08a22.81 22.81 0 0 0-2.75 6 66.39 66.39 0 0 1 3.55-5.94h.45L50.54 101l3 4.55 7.83.24a71.89 71.89 0 0 0-6.94 3.24s6.37-2.1 8.57-2.77l1.61-5.44a3 3 0 0 1 3.75-2s1.24-.09 5.45 2.86l-.81 3.18a15.41 15.41 0 0 1-.63 4.73 42.32 42.32 0 0 1-5.45 6.87l3.58-2.58 1.5-2.41 1.08.8-2 3.3-5 3.3 5.09-2.32s5.26-6.46 5.27-14.81a45.53 45.53 0 0 0-10.36-4.28z"/><path class="cls-3" d="M48.67 105l-1.94-7.86-3.06-.14a5.78 5.78 0 0 0-1.08.3 10.11 10.11 0 0 0 0 2.2s-.85-1.85-1-1.76a66.2 66.2 0 0 0-7.62 4.52l4.69 1.41-.76.38a17.28 17.28 0 0 0-5.62 5.09c1.89-2.49 6.34-4.73 6.34-4.73l1.14-.49c1.36.18 5.86.72 8.91 1.08zM63 111.44a2.13 2.13 0 0 1 2.24-.87s1.35.37 1.52 3.84c0 0 .69-3.23-1.52-4.37 0 0 0-.38-1.58.22A3 3 0 0 1 65 109s.56 0 .71 1.16l.63.53s0-2.52-1.34-2.67c0 0-2.14-.18-3.48 4.19l-8 3.39 8.75-2.67a13.83 13.83 0 0 1 .73-1.49z"/><path class="cls-3" d="M66.71 116.64a17.14 17.14 0 0 1-1 2.3l-.4-1.76-1.16-1.07 1.33-.09 1.26-1.34a.33.33 0 0 0-.45-.27l-.89 1.07-1.34.18v-.36l.26-.26 2.15-1.7s.2-.44-.45-.27l-1.7 1.16.63-1v-1.3a1.9 1.9 0 0 1 .76.77 1.21 1.21 0 0 0-.75-1.14v-1l-.45.45v.45a3.46 3.46 0 0 0-.49.06l.07-.78-.45.36-.06.59a1.6 1.6 0 0 0-.74.75 3.33 3.33 0 0 1 .7-.46l-.17 1.62-.09.71-.27-.26-.89-.27-.08.23c.1-.42.17-.68.17-.68-2.23.76-8.57 2.23-8.57 2.23l-.27.45a8.7 8.7 0 0 1 3.3 3.39l-1.43 1.52-7.14-.36-5.1-2.85h-.36v.54l1.61 1.34-3.84-.36-7.14-1.16-2-.71 2-1-.9-.36-4.19 1.25-3.09-1.25v-1.5a7.75 7.75 0 0 0-.8 1.07 1 1 0 0 0 .09 1.25l3.3 1.34 1.32-.36 2.59 1.07 9.41 1.52 4.73.27 1.25.89 8.13.36 3-.33.59.42 4.46.35s1.84-.35 3.1-3.65.45-2.06.45-2.06zm-2 .81l.27 1.6.41.33a6.45 6.45 0 0 1-.63.89v-.06l-.54-1.78-.44-1.7zm-.21-5.63l-.06 1.25-.62.81.17-2a1.49 1.49 0 0 1 .54-.06zm-1.31 5.09l.09 1.52-1.2 2.13a6.11 6.11 0 0 1-.38-.65l1.31-2.2zm-1.52 3a7.25 7.25 0 0 1-.51-1.51c.13-.82.3-1.69.46-2.48v.24l.81.62v.63l-.72 2zm1.08-5.36l.09.27.16.18a1.21 1.21 0 0 0-.26 1l-.27.18-.79-.62c.13-.6.25-1.13.34-1.52zm.35 6.78l-2.36-.17.22-.81c0-.27 0-.58.06-.91.8 1.51 1.55 1.73 1.55 1.73a3.07 3.07 0 0 1-.25-.26c.07 0 .15-.07.25-.2l1.16-2 .47 1.29.43.43a2.12 2.12 0 0 1-1.5.85z"/></svg>