<svg xmlns="http://www.w3.org/2000/svg" viewBox="0 0 156 156"><defs><style>.cls-2{clip-path:url(#clip-path)}.cls-3{fill:#386db6}.cls-4{fill:#fff}</style><clipPath id="clip-path"><path fill="none" d="M0 0h156v156H0z"/></clipPath></defs><g class="cls-2" id="Layer_1" data-name="Layer 1"><g class="cls-2"><path class="cls-3" d="M78 2.4A75.6 75.6 0 1 1 2.4 78 75.68 75.68 0 0 1 78 2.4M78 0a78 78 0 1 0 78 78A78 78 0 0 0 78 0"/></g></g><g id="Isolation_Mode" data-name="Isolation Mode"><g id="极速飞艇"><path class="cls-4" d="M84 46.8c0-4.42 0-10 .13-16.84l-17.78 2.57v12l12.46-1.82q0 24.07 1.08 33.22c1.45 14.23 4.42 20.89 9 20q3.6-.54 4.78-7.32a129.44 129.44 0 0 0 1.91-13.8 47.87 47.87 0 0 1-4-3.92L94 60.67c-1.12-1.65-2.7-3.73-4.78-6.23-.72-.89-1.25-1.52-1.55-1.88q3-5.84 6.36-13l-3.82-8.17C88 37.21 85.92 42.31 84 46.8zm4.91 36.27c-2-.1-3.36-4-4.09-11.73-.07-1.18-.2-3-.36-5.37-.07-1.78-.17-3.19-.23-4.18q3.6 4.89 6.72 10.15c-.07 1-.23 2.43-.5 4.28-.16 1.42-.23 2.44-.23 3-.39 2.47-.85 3.76-1.31 3.82zm19.58-20.72l-.13-3.3c-.06 0-.2 0-.36.07V34.47l-3.36.5c.33-2 .59-4.09.82-6.13h-4.08c-.07.82-.17 1.81-.23 3-.17 1.61-.3 2.83-.37 3.66l-2.4.36v26.19a5.46 5.46 0 0 1-1.81.56l.23 9 1.55-.23a168 168 0 0 1-1.45 23.36c.95 2.67 1.91 5.14 2.86 7.41a220.14 220.14 0 0 0 1.91-31.83l.5-.36v15.62l1.91-.27V69.4l.49-.36v18.32c.07 2.2-.29 3.46-1.08 3.75a4 4 0 0 1-1.92 0c.33 3.36.6 6.42.83 9.19a11.63 11.63 0 0 0 2.63-.69c2-.49 3-3.52 2.87-9.13V67.92l.59-.1v-2.11l2.41-.36-2.41 6.36a112.71 112.71 0 0 0 2.05 13.83 42.15 42.15 0 0 1-2.41 7l2.77 7.71c.33-1.06.76-2.61 1.32-4.72a31 31 0 0 1 .82-3.13c1.19 2.64 3 3.89 5.27 3.76a46.94 46.94 0 0 0 7.19-.43c.06-.82.19-1.94.36-3.36.23-2.83.49-5 .72-6.42l-7 1c-2.07.49-3.66-.56-4.78-3.2a145.93 145.93 0 0 0 1.45-21V52.56l-2.27.33 2-11.43V31.24l-7 1v9.92l3.13-.46zm8.27-1.48l2.64-.4V72.2l-2 .3V83l8.14-1.19v-10.5l-2.15.3V59.88l2.77-.4V49.27l-2.77.39V39.45l2.77-1-.49-10.15a48.38 48.38 0 0 1-7.55 2.6 8.08 8.08 0 0 1-1.68.56c.23 3.56.4 7 .5 10.15l2.5-.66v9.33l-2.64.39zm-15-11.37V45l2.87-.42v7.8l-1.32-5.53zm2.9 6.49v4.22l-2.86 1v-7.49c.39 1.74.72 3.49 1 5.27zm7.34 9.16l.37-2.14.49-.07c-.07 4.22-.23 7.94-.49 11.2-.33-2.37-.56-4.41-.73-6.19-.06-1.19-.16-2.08-.23-2.67zm-68.68 49.63s22.55-22.29 37.94-10a79.21 79.21 0 0 0-13.46 3.56h-.12c-6.54 2.52-6.57-2.44-24.36 6.44zm.38 17.58s9-14.4 44.55 1.81c0 0-30.25-10.57-44.55-1.81z"/><path class="cls-4" d="M27.92 131.37s17.88-12 40-10c0 0 6.64-.09 18 3 0 0 23.84 9.32 33.36-2 0 0-5.2 13.23-24 9.2 0 0-2.49-.44-11.19-3.39-.02.01-25.93-11.3-56.17 3.19z"/><path class="cls-4" d="M36.51 123.39s26.38-18.63 79.93-23.19c0 0 .08 12.44-18.58 25.18 0 0-16.71-9.87-41-6.19 0 0 25.91-11.19 47.56-11 .01.01-28.15-2.47-67.91 15.2zm8.56-14.19l-15 10.51 7.39-8.47z"/><path class="cls-3" d="M84 46.8c0-4.42 0-10 .13-16.84l-17.78 2.57v12l12.46-1.82q0 24.07 1.08 33.22c1.45 14.23 4.42 20.89 9 20q3.6-.54 4.78-7.32a129.44 129.44 0 0 0 1.91-13.8 47.87 47.87 0 0 1-4-3.92L94 60.67c-1.12-1.65-2.7-3.73-4.78-6.23-.72-.89-1.25-1.52-1.55-1.88q3-5.84 6.36-13l-3.82-8.17C88 37.21 85.92 42.31 84 46.8zm4.91 36.27c-2-.1-3.36-4-4.09-11.73-.07-1.18-.2-3-.36-5.37-.07-1.78-.17-3.19-.23-4.18q3.6 4.89 6.72 10.15c-.07 1-.23 2.43-.5 4.28-.16 1.42-.23 2.44-.23 3-.39 2.47-.85 3.76-1.31 3.82zm19.58-20.72l-.13-3.3c-.06 0-.2 0-.36.07V34.47l-3.36.5c.33-2 .59-4.09.82-6.13h-4.08c-.07.82-.17 1.81-.23 3-.17 1.61-.3 2.83-.37 3.66l-2.4.36v26.19a5.46 5.46 0 0 1-1.81.56l.23 9 1.55-.23a168 168 0 0 1-1.45 23.36c.95 2.67 1.91 5.14 2.86 7.41a220.14 220.14 0 0 0 1.91-31.83l.5-.36v15.62l1.91-.27V69.4l.49-.36v18.32c.07 2.2-.29 3.46-1.08 3.75a4 4 0 0 1-1.92 0c.33 3.36.6 6.42.83 9.19a11.63 11.63 0 0 0 2.63-.69c2-.49 3-3.52 2.87-9.13V67.92l.59-.1v-2.11l2.41-.36-2.41 6.36a112.71 112.71 0 0 0 2.05 13.83 42.15 42.15 0 0 1-2.41 7l2.77 7.71c.33-1.06.76-2.61 1.32-4.72a31 31 0 0 1 .82-3.13c1.19 2.64 3 3.89 5.27 3.76a46.94 46.94 0 0 0 7.19-.43c.06-.82.19-1.94.36-3.36.23-2.83.49-5 .72-6.42l-7 1c-2.07.49-3.66-.56-4.78-3.2a145.93 145.93 0 0 0 1.45-21V52.56l-2.27.33 2-11.43V31.24l-7 1v9.92l3.13-.46zm8.27-1.48l2.64-.4V72.2l-2 .3V83l8.14-1.19v-10.5l-2.15.3V59.88l2.77-.4V49.27l-2.77.39V39.45l2.77-1-.49-10.15a48.38 48.38 0 0 1-7.55 2.6 8.08 8.08 0 0 1-1.68.56c.23 3.56.4 7 .5 10.15l2.5-.66v9.33l-2.64.39zm-15-11.37V45l2.87-.42v7.8l-1.32-5.53zm2.9 6.49v4.22l-2.86 1v-7.49c.39 1.74.72 3.49 1 5.27zm7.34 9.16l.37-2.14.49-.07c-.07 4.22-.23 7.94-.49 11.2-.33-2.37-.56-4.41-.73-6.19-.06-1.19-.16-2.08-.23-2.67zm-68.68 49.63s22.55-22.29 37.94-10a79.21 79.21 0 0 0-13.46 3.56h-.12c-6.54 2.52-6.57-2.44-24.36 6.44zm.38 17.58s9-14.4 44.55 1.81c0 0-30.25-10.57-44.55-1.81z"/><path class="cls-3" d="M27.92 131.37s17.88-12 40-10c0 0 6.64-.09 18 3 0 0 23.84 9.32 33.36-2 0 0-5.2 13.23-24 9.2 0 0-2.49-.44-11.19-3.39-.02.01-25.93-11.3-56.17 3.19z"/><path class="cls-3" d="M36.51 123.39s26.38-18.63 79.93-23.19c0 0 .08 12.44-18.58 25.18 0 0-16.71-9.87-41-6.19 0 0 25.91-11.19 47.56-11 .01.01-28.15-2.47-67.91 15.2zm8.56-14.19l-15 10.51 7.39-8.47z"/></g><path class="cls-3" d="M71.8 66.42a3.92 3.92 0 0 0-1.19-.71 3.88 3.88 0 0 0 1.93-3.36v-4.81c0-3.88-.16-6.62-2.34-9.3-2.33-3-5.78-4.13-10.25-3.53a13.59 13.59 0 0 0-11.07 8c-1-2.39-3.82-6.36-11.22-5.36a14.94 14.94 0 0 0-6.95 2.63C29 51.17 25 54.87 25 62.48a21.52 21.52 0 0 0 4.1 12.4c.74 1.14 1.52 2.21 2.29 3.24l-3.39.5a3.89 3.89 0 0 0-3.37 3.86v7.6c0 2.62 0 6.56 3.1 9.72a10.59 10.59 0 0 0 7.92 3.12 15.6 15.6 0 0 0 2.09-.14 15.1 15.1 0 0 0 5.39-1.7l.1-.06a13.54 13.54 0 0 0 5.63-6.75A10 10 0 0 0 58 99.8a14.84 14.84 0 0 0 1.85-.12A12 12 0 0 0 64.61 98a4 4 0 0 0 1.5.09l3.64-.49a3.9 3.9 0 0 0 3.38-3.86V69.35a3.92 3.92 0 0 0-1.33-2.93zM41.36 97.88a11 11 0 0 1-4.11 1.28 11.43 11.43 0 0 1-1.6.11 7 7 0 0 1-5.31-2c-1.92-1.93-2.08-4.39-2.08-7.18v-7.82l6.08-.82v8.66c0 2.11.29 3 1.17 3.45a2.4 2.4 0 0 0 1.67.31c2.72-.42 2.72-3.3 2.71-5.41v-.13a11.87 11.87 0 0 0-2.17-7.57c-.92-1.51-2-2.93-3-4.31-.85-1.13-1.72-2.3-2.52-3.52l-.07-.11a17.75 17.75 0 0 1-3.47-10.34c0-5.92 2.93-8.67 4.19-9.58a11.43 11.43 0 0 1 5.31-2c4-.55 6.56.67 7.54 3.61a9.94 9.94 0 0 1 .45 3.49v8.33l-6 .81v-8.4a1 1 0 0 1 0-.23 2.84 2.84 0 0 0-.68-2 1.77 1.77 0 0 0-1.47-.33c-2.57.34-2.78 2.39-2.78 4.83 0 3.65.93 5.61 3 8.62.6.89 1.22 1.72 1.88 2.6l.78 1.06c.67.82 1.31 1.69 2 2.73 3.18 4.58 3.61 8 3.61 10.77.05 2.43-.49 8.32-5.13 11.09zM69.48 94l-4.06.55-.5-1.77a7.42 7.42 0 0 1-5.53 3.29 9.5 9.5 0 0 1-1.36.1A6.66 6.66 0 0 1 54.15 95C51.23 92.94 51 89.58 51 85.73v-23c0-3.62.11-5.45.8-7.46a9.9 9.9 0 0 1 8.64-7c1.16-.15 4.68-.63 6.92 2.18 1.31 1.62 1.54 3.26 1.54 7v5l-6.07.81V56.3a2.9 2.9 0 0 0-.83-2.1 2.06 2.06 0 0 0-1.67-.3 3 3 0 0 0-1.69.7c-1.19 1-1.17 2.76-1.16 4.18v26.74a10.21 10.21 0 0 0 .42 3.91 2 2 0 0 0 2.28 1 3.2 3.2 0 0 0 1.65-.64c1.11-.91 1.2-2.35 1.2-3.62V76l-3.7.49v-6.05l10.17-1.37zm-8.3-27.5h-.07v-.05z"/></g></svg>