<svg id="Layer_1" data-name="Layer 1" xmlns="http://www.w3.org/2000/svg" viewBox="0 0 156 156"><defs><style>.cls-2{clip-path:url(#clip-path)}.cls-3{fill:#386db6}.cls-4{fill:#fff}</style><clipPath id="clip-path"><path fill="none" d="M0 0h156v156H0z"/></clipPath></defs><g class="cls-2"><g class="cls-2"><path class="cls-3" d="M78 2.4A75.6 75.6 0 1 1 2.4 78 75.68 75.68 0 0 1 78 2.4M78 0a78 78 0 1 0 78 78A78 78 0 0 0 78 0"/></g></g><path class="cls-4" d="M71 87.69a1.77 1.77 0 0 0-.28-.91 1.39 1.39 0 0 0-.71-.65l-1.65-.6v12.31l2.64 1zM55.89 104a8.39 8.39 0 0 0-2.61 1.61 8.52 8.52 0 0 0-2.06 2.79 8.77 8.77 0 0 0-.68 3.29 3.14 3.14 0 0 0 .32 1.65 4 4 0 0 0 1 1.23 2.52 2.52 0 0 0 1.43.55 2 2 0 0 0 1.32-.48 10.81 10.81 0 0 0 3-4.2 24 24 0 0 0 1.62-7 8.35 8.35 0 0 0-3.34.56zM36.7 86.5a1 1 0 0 0 .33.91 1 1 0 0 0 .77.37 2.75 2.75 0 0 0 .71-.1l.71-.2V76.1a50 50 0 0 0-1.64 5.47 35.67 35.67 0 0 0-.88 4.93zm66.66 6.58a5.36 5.36 0 0 0-1 1.49 4.72 4.72 0 0 0-.36 1.34c0 1 .35 1.29 1.16.94a13.61 13.61 0 0 0 3.77-2.51 22.78 22.78 0 0 0 2.49-2.75 16.65 16.65 0 0 0 1.94-3.24 7.72 7.72 0 0 0-3.85 1.32 18.81 18.81 0 0 0-4.15 3.41zm1.78 12.44a26.42 26.42 0 0 0-3.41 2.42 22.76 22.76 0 0 0-3 3 8.36 8.36 0 0 0-1.26 2.06 5.89 5.89 0 0 0-.47 1.9 2.25 2.25 0 0 0 .25 1.36 1 1 0 0 0 1 .47 6.11 6.11 0 0 0 2-.62 19.44 19.44 0 0 0 2.49-1.44c.86-.58 1.74-1.23 2.63-2s1.69-1.43 2.43-2.11a28.09 28.09 0 0 0 3.52-3.93 17.26 17.26 0 0 0 2.35-4.36 29.65 29.65 0 0 0-8.52 3.21zm.06-69.67l.33-1.53h-3.2l-.68 3.19h1.53a1.7 1.7 0 0 0 2.02-1.66zm-37.03 9.46a22.78 22.78 0 0 0 4.32-7.67H68l.6-2.81a22 22 0 0 0 3.5-5.63h-5.36l-.57 2.69a71.21 71.21 0 0 1-2 7.54h3.07a17.7 17.7 0 0 0 .93 5.88zm26.07-7.8h3.19l.68-3.19h-3.19l-.68 3.19z"/><path class="cls-4" d="M123.8 49.85s-2.45-3.79-11.07-5.72l-3.52-.78c-.3-.19-.61-.39-.88-.59a8 8 0 0 0 3.81-5.88l1-4.65a3.16 3.16 0 0 0 1.6-2.12l.65-3.07a3.12 3.12 0 0 0-3.06-3.77h-5.1a2.89 2.89 0 0 0-.39-.63 3.12 3.12 0 0 0-2.43-1.16h-4.22a3.12 3.12 0 0 0-2.83 1.79h-5.89a3.12 3.12 0 0 0-2.32-1h-4.34A3.14 3.14 0 0 0 81.74 26a25.61 25.61 0 0 1 .5 4.94h-.81A3.11 3.11 0 0 0 79 32.13l-.3-.13c.26-.4.5-.82.74-1.24a3.33 3.33 0 0 0 .33-.88l.65-3.06A3.13 3.13 0 0 0 77.36 23H61l-.19-.26a3.11 3.11 0 0 0-2.43-1.15H54a3.13 3.13 0 0 0-3 2.49l-.34 1.61h-.41a3.14 3.14 0 0 0-3.06 2.48l-.68 3.19A3.09 3.09 0 0 0 47.1 34a3.37 3.37 0 0 0 .8.71A54 54 0 0 1 43.79 42a3.22 3.22 0 0 0-.46 1.1l-.7 3.31c-1.76.88-3.6 1.83-5.53 2.87a19.58 19.58 0 0 0-8.3 9.78 20.46 20.46 0 0 0-1.29 9.77l2.39 31.91s-.22 15.58 13.47 22.14a201.44 201.44 0 0 0 33.2 12.91s11.89 3.78 20.48-2.76a196.7 196.7 0 0 0 18.63-15.87 36 36 0 0 0 9-13.1c-1.08-.47-1.9-.76-1.9-.76a5.69 5.69 0 0 0-1.41-.53l-1.52-.39a38.94 38.94 0 0 1-2.72 3.8 46.25 46.25 0 0 1-3.15 3.54q-1.66 1.7-3.35 3.14c-1.13 1-2.21 1.85-3.24 2.63a33.43 33.43 0 0 1-4.71 3.06 8.77 8.77 0 0 1-4.26 1.18 2.71 2.71 0 0 1-2.42-1.11 4.44 4.44 0 0 1-.61-2.8 11.27 11.27 0 0 1 .85-3.65 21.06 21.06 0 0 1 1.91-3.54 31.4 31.4 0 0 1 3.6-4.31 50.29 50.29 0 0 1 4.27-3.77 48 48 0 0 1 4.7-3.29q2.33-1.42 4.1-2.31a16.62 16.62 0 0 0-.2-2.6 11.22 11.22 0 0 0-.52-2.11c-.89 1-1.82 1.92-2.8 2.83s-1.94 1.74-2.88 2.47-1.83 1.38-2.68 1.93a14.19 14.19 0 0 1-2.27 1.23 2.2 2.2 0 0 1-2 .14 1.7 1.7 0 0 1-.72-1.51 6 6 0 0 1 .69-2.76 19.46 19.46 0 0 1 2.07-3.35 21.8 21.8 0 0 1 1.83-2c.7-.69 1.47-1.36 2.3-2s1.69-1.29 2.57-1.87a25.88 25.88 0 0 1 2.66-1.53c.18-.94.33-2 .44-3a23.23 23.23 0 0 0 .11-3.21 12.75 12.75 0 0 0-.36-2.78 3.54 3.54 0 0 0-.91-1.8 1.68 1.68 0 0 0-1.55-.39 4.92 4.92 0 0 0-2 1 15.5 15.5 0 0 0-2.32 2.25 10.48 10.48 0 0 0-1.97 3.11 17.52 17.52 0 0 0-.92 4.24 29.24 29.24 0 0 0-.14 4.4l-8.19 6.16A30 30 0 0 1 97 86a38.79 38.79 0 0 1 4.46-8.19 35.38 35.38 0 0 1 4.07-4.86 33.82 33.82 0 0 1 4.34-3.7 23.56 23.56 0 0 1 4.68-2.66 8.22 8.22 0 0 1 4-.75 3.27 3.27 0 0 1 2.45 1.64 8.07 8.07 0 0 1 .94 3.63 19.48 19.48 0 0 1-.55 5.2 33.39 33.39 0 0 1-1.94 5.79 4.23 4.23 0 0 1 3.9 3.07 15.34 15.34 0 0 1 .25 7 14.42 14.42 0 0 1 2.1-.08l.87.06c.53-7.64 1.29-19.26 1.32-24.45-.03.05 1.03-12.23-4.09-17.85zM91.62 26.39h8.18l.38-1.79h4.22l-.4 1.79h8.3l-.65 3.07h-8.31l-.4 1.92h7.15l-1 4.85c-.55 3-2.18 4.43-4.89 4.35h-1.66a12.65 12.65 0 0 0 5.32 5.62l-.6 2.81q-5.09-1.9-7-4.73l-1.12 5.24h-4.26L96 44.41A28.38 28.38 0 0 1 86.81 49l.59-2.81a28.17 28.17 0 0 0 7.72-5.62h-5.5l2-9.2h7.16l.41-1.92H91zm-2.47-1a25 25 0 0 1 .69 6.39h-4.47a29.69 29.69 0 0 0-.56-6.39zM81 47.61l2.2-10.35h-2.45l.68-3.2h7.15L86 46.2c-.5 2.73.61 4.13 3.32 4.22h18.15l-.66 3.07H88.15c-2.55 0-4.18-.77-4.87-2.3a10.08 10.08 0 0 1-6.07 2.68l.57-2.68A4.32 4.32 0 0 0 81 47.61zM61.26 26.14h16.1l-.65 3.06a23.69 23.69 0 0 1-4.27 5.63h5l-.6 2.81q-2.81 7.15-7 10.61a10 10 0 0 0 4.74 2.94L74 54.12a24.23 24.23 0 0 1-7.13-3.7 74.63 74.63 0 0 1-8.23 3.83l.65-3.06A18 18 0 0 0 65 48.12a15 15 0 0 1-1.74-6.26Q60.87 48.37 54.05 54l.82-3.84a27.39 27.39 0 0 0 4-7.28 82.27 82.27 0 0 0 3.08-11.5l.46-2.18h-1.8zM46.39 43.77A63.44 63.44 0 0 0 52.47 32h-2.94l.68-3.2h2.94l.85-4.07h4.34l-.87 4.09h2.69L59.5 32h-2.69a22.27 22.27 0 0 0 1.34 7.54l-1 4.6a1.44 1.44 0 0 0-.28-.51 16.23 16.23 0 0 1-1.74-3.84l-3 14.31h-4.37L50.35 42a38.65 38.65 0 0 1-4.89 6.14zm1.67 72.91l-8.84-3.22v-24a3.3 3.3 0 0 1-2.14.36 4.56 4.56 0 0 1-3.24-2.51 5.84 5.84 0 0 1-.49-2.22v-3.25c0-1.17.18-2.32.3-3.43s.29-2.17.47-3.15.35-1.8.5-2.44l4.55 1.66V65.1l8.84 3.22V78a50.54 50.54 0 0 1 3.77 4.42 34.35 34.35 0 0 1 2.82 4.46l-4.5 3.2c-.22-1.2-.5-2.39-.83-3.56a20.44 20.44 0 0 0-1.21-3.28zm25.7 9.54a47.83 47.83 0 0 0-2.27-10.09 34.46 34.46 0 0 0-4.1-8.36 20.7 20.7 0 0 1-1.78 4.44 16.12 16.12 0 0 1-2.72 3.67 11.34 11.34 0 0 1-5.71 3.12 6.38 6.38 0 0 1-2.88-.07 6.61 6.61 0 0 1-2.61-1.33 7.71 7.71 0 0 1-1.9-2.46 6.94 6.94 0 0 1-.63-3.47 11 11 0 0 1 1-4 10.71 10.71 0 0 1 2.31-3.3 9 9 0 0 1 3.15-2 9.32 9.32 0 0 1 3.82-.51 15.55 15.55 0 0 0 .11-1.84V98l-9.22-3.36v-3.39l9.22 3.37V82.31l-7.47-2.72v-3.38l7.47 2.72v-6.42l8.84 3.22v6.43l6.32 2.3a7.75 7.75 0 0 1 3.79 2.85 7.37 7.37 0 0 1 1.37 4.26V102l2.14.78v3.37l-13.67-5a26.71 26.71 0 0 1-.33 3.47 29.6 29.6 0 0 1 4.94 3.93 35.85 35.85 0 0 1 4.28 5.05 48.38 48.38 0 0 1 5.55 10.4zm19.78-51.1C89.7 84 88.75 114.6 88.75 114.6c-.53-18.22-3.07-32.79-6.64-38.37S48.53 61.1 48.53 61.1l27.86 7.38c14.51 2.53 22.5-3.07 22.5-3.07 13-9.65 17.71-10.76 17.71-10.76C95.79 69 93.54 75.12 93.54 75.12z"/><path class="cls-3" d="M71 87.69a1.77 1.77 0 0 0-.28-.91 1.39 1.39 0 0 0-.71-.65l-1.65-.6v12.31l2.64 1zM55.89 104a8.39 8.39 0 0 0-2.61 1.61 8.52 8.52 0 0 0-2.06 2.79 8.77 8.77 0 0 0-.68 3.29 3.14 3.14 0 0 0 .32 1.65 4 4 0 0 0 1 1.23 2.52 2.52 0 0 0 1.43.55 2 2 0 0 0 1.32-.48 10.81 10.81 0 0 0 3-4.2 24 24 0 0 0 1.62-7 8.35 8.35 0 0 0-3.34.56zM36.7 86.5a1 1 0 0 0 .33.91 1 1 0 0 0 .77.37 2.75 2.75 0 0 0 .71-.1l.71-.2V76.1a50 50 0 0 0-1.64 5.47 35.67 35.67 0 0 0-.88 4.93zm66.66 6.58a5.36 5.36 0 0 0-1 1.49 4.72 4.72 0 0 0-.36 1.34c0 1 .35 1.29 1.16.94a13.61 13.61 0 0 0 3.77-2.51 22.78 22.78 0 0 0 2.49-2.75 16.65 16.65 0 0 0 1.94-3.24 7.72 7.72 0 0 0-3.85 1.32 18.81 18.81 0 0 0-4.15 3.41zm1.78 12.44a26.42 26.42 0 0 0-3.41 2.42 22.76 22.76 0 0 0-3 3 8.36 8.36 0 0 0-1.26 2.06 5.89 5.89 0 0 0-.47 1.9 2.25 2.25 0 0 0 .25 1.36 1 1 0 0 0 1 .47 6.11 6.11 0 0 0 2-.62 19.44 19.44 0 0 0 2.49-1.44c.86-.58 1.74-1.23 2.63-2s1.69-1.43 2.43-2.11a28.09 28.09 0 0 0 3.52-3.93 17.26 17.26 0 0 0 2.35-4.36 29.65 29.65 0 0 0-8.52 3.21zm.06-69.67l.33-1.53h-3.2l-.68 3.19h1.53a1.7 1.7 0 0 0 2.02-1.66zm-37.03 9.46a22.78 22.78 0 0 0 4.32-7.67H68l.6-2.81a22 22 0 0 0 3.5-5.63h-5.36l-.57 2.69a71.21 71.21 0 0 1-2 7.54h3.07a17.7 17.7 0 0 0 .93 5.88zm26.07-7.8h3.19l.68-3.19h-3.19l-.68 3.19z"/><path class="cls-3" d="M123.8 49.85s-2.45-3.79-11.07-5.72l-3.52-.78c-.3-.19-.61-.39-.88-.59a8 8 0 0 0 3.81-5.88l1-4.65a3.16 3.16 0 0 0 1.6-2.12l.65-3.07a3.12 3.12 0 0 0-3.06-3.77h-5.1a2.89 2.89 0 0 0-.39-.63 3.12 3.12 0 0 0-2.43-1.16h-4.22a3.12 3.12 0 0 0-2.83 1.79h-5.89a3.12 3.12 0 0 0-2.32-1h-4.34A3.14 3.14 0 0 0 81.74 26a25.61 25.61 0 0 1 .5 4.94h-.81A3.11 3.11 0 0 0 79 32.13l-.3-.13c.26-.4.5-.82.74-1.24a3.33 3.33 0 0 0 .33-.88l.65-3.06A3.13 3.13 0 0 0 77.36 23H61l-.19-.26a3.11 3.11 0 0 0-2.43-1.15H54a3.13 3.13 0 0 0-3 2.49l-.34 1.61h-.41a3.14 3.14 0 0 0-3.06 2.48l-.68 3.19A3.09 3.09 0 0 0 47.1 34a3.37 3.37 0 0 0 .8.71A54 54 0 0 1 43.79 42a3.22 3.22 0 0 0-.46 1.1l-.7 3.31c-1.76.88-3.6 1.83-5.53 2.87a19.58 19.58 0 0 0-8.3 9.78 20.46 20.46 0 0 0-1.29 9.77l2.39 31.91s-.22 15.58 13.47 22.14a201.44 201.44 0 0 0 33.2 12.91s11.89 3.78 20.48-2.76a196.7 196.7 0 0 0 18.63-15.87 36 36 0 0 0 9-13.1c-1.08-.47-1.9-.76-1.9-.76a5.69 5.69 0 0 0-1.41-.53l-1.52-.39a38.94 38.94 0 0 1-2.72 3.8 46.25 46.25 0 0 1-3.15 3.54q-1.66 1.7-3.35 3.14c-1.13 1-2.21 1.85-3.24 2.63a33.43 33.43 0 0 1-4.71 3.06 8.77 8.77 0 0 1-4.26 1.18 2.71 2.71 0 0 1-2.42-1.11 4.44 4.44 0 0 1-.61-2.8 11.27 11.27 0 0 1 .85-3.65 21.06 21.06 0 0 1 1.91-3.54 31.4 31.4 0 0 1 3.6-4.31 50.29 50.29 0 0 1 4.27-3.77 48 48 0 0 1 4.7-3.29q2.33-1.42 4.1-2.31a16.62 16.62 0 0 0-.2-2.6 11.22 11.22 0 0 0-.52-2.11c-.89 1-1.82 1.92-2.8 2.83s-1.94 1.74-2.88 2.47-1.83 1.38-2.68 1.93a14.19 14.19 0 0 1-2.27 1.23 2.2 2.2 0 0 1-2 .14 1.7 1.7 0 0 1-.72-1.51 6 6 0 0 1 .69-2.76 19.46 19.46 0 0 1 2.07-3.35 21.8 21.8 0 0 1 1.83-2c.7-.69 1.47-1.36 2.3-2s1.69-1.29 2.57-1.87a25.88 25.88 0 0 1 2.66-1.53c.18-.94.33-2 .44-3a23.23 23.23 0 0 0 .11-3.21 12.75 12.75 0 0 0-.36-2.78 3.54 3.54 0 0 0-.91-1.8 1.68 1.68 0 0 0-1.55-.39 4.92 4.92 0 0 0-2 1 15.5 15.5 0 0 0-2.32 2.25 10.48 10.48 0 0 0-1.97 3.11 17.52 17.52 0 0 0-.92 4.24 29.24 29.24 0 0 0-.14 4.4l-8.19 6.16A30 30 0 0 1 97 86a38.79 38.79 0 0 1 4.46-8.19 35.38 35.38 0 0 1 4.07-4.86 33.82 33.82 0 0 1 4.34-3.7 23.56 23.56 0 0 1 4.68-2.66 8.22 8.22 0 0 1 4-.75 3.27 3.27 0 0 1 2.45 1.64 8.07 8.07 0 0 1 .94 3.63 19.48 19.48 0 0 1-.55 5.2 33.39 33.39 0 0 1-1.94 5.79 4.23 4.23 0 0 1 3.9 3.07 15.34 15.34 0 0 1 .25 7 14.42 14.42 0 0 1 2.1-.08l.87.06c.53-7.64 1.29-19.26 1.32-24.45-.03.05 1.03-12.23-4.09-17.85zM91.62 26.39h8.18l.38-1.79h4.22l-.4 1.79h8.3l-.65 3.07h-8.31l-.4 1.92h7.15l-1 4.85c-.55 3-2.18 4.43-4.89 4.35h-1.66a12.65 12.65 0 0 0 5.32 5.62l-.6 2.81q-5.09-1.9-7-4.73l-1.12 5.24h-4.26L96 44.41A28.38 28.38 0 0 1 86.81 49l.59-2.81a28.17 28.17 0 0 0 7.72-5.62h-5.5l2-9.2h7.16l.41-1.92H91zm-2.47-1a25 25 0 0 1 .69 6.39h-4.47a29.69 29.69 0 0 0-.56-6.39zM81 47.61l2.2-10.35h-2.45l.68-3.2h7.15L86 46.2c-.5 2.73.61 4.13 3.32 4.22h18.15l-.66 3.07H88.15c-2.55 0-4.18-.77-4.87-2.3a10.08 10.08 0 0 1-6.07 2.68l.57-2.68A4.32 4.32 0 0 0 81 47.61zM61.26 26.14h16.1l-.65 3.06a23.69 23.69 0 0 1-4.27 5.63h5l-.6 2.81q-2.81 7.15-7 10.61a10 10 0 0 0 4.74 2.94L74 54.12a24.23 24.23 0 0 1-7.13-3.7 74.63 74.63 0 0 1-8.23 3.83l.65-3.06A18 18 0 0 0 65 48.12a15 15 0 0 1-1.74-6.26Q60.87 48.37 54.05 54l.82-3.84a27.39 27.39 0 0 0 4-7.28 82.27 82.27 0 0 0 3.08-11.5l.46-2.18h-1.8zM46.39 43.77A63.44 63.44 0 0 0 52.47 32h-2.94l.68-3.2h2.94l.85-4.07h4.34l-.87 4.09h2.69L59.5 32h-2.69a22.27 22.27 0 0 0 1.34 7.54l-1 4.6a1.44 1.44 0 0 0-.28-.51 16.23 16.23 0 0 1-1.74-3.84l-3 14.31h-4.37L50.35 42a38.65 38.65 0 0 1-4.89 6.14zm1.67 72.91l-8.84-3.22v-24a3.3 3.3 0 0 1-2.14.36 4.56 4.56 0 0 1-3.24-2.51 5.84 5.84 0 0 1-.49-2.22v-3.25c0-1.17.18-2.32.3-3.43s.29-2.17.47-3.15.35-1.8.5-2.44l4.55 1.66V65.1l8.84 3.22V78a50.54 50.54 0 0 1 3.77 4.42 34.35 34.35 0 0 1 2.82 4.46l-4.5 3.2c-.22-1.2-.5-2.39-.83-3.56a20.44 20.44 0 0 0-1.21-3.28zm25.7 9.54a47.83 47.83 0 0 0-2.27-10.09 34.46 34.46 0 0 0-4.1-8.36 20.7 20.7 0 0 1-1.78 4.44 16.12 16.12 0 0 1-2.72 3.67 11.34 11.34 0 0 1-5.71 3.12 6.38 6.38 0 0 1-2.88-.07 6.61 6.61 0 0 1-2.61-1.33 7.71 7.71 0 0 1-1.9-2.46 6.94 6.94 0 0 1-.63-3.47 11 11 0 0 1 1-4 10.71 10.71 0 0 1 2.31-3.3 9 9 0 0 1 3.15-2 9.32 9.32 0 0 1 3.82-.51 15.55 15.55 0 0 0 .11-1.84V98l-9.22-3.36v-3.39l9.22 3.37V82.31l-7.47-2.72v-3.38l7.47 2.72v-6.42l8.84 3.22v6.43l6.32 2.3a7.75 7.75 0 0 1 3.79 2.85 7.37 7.37 0 0 1 1.37 4.26V102l2.14.78v3.37l-13.67-5a26.71 26.71 0 0 1-.33 3.47 29.6 29.6 0 0 1 4.94 3.93 35.85 35.85 0 0 1 4.28 5.05 48.38 48.38 0 0 1 5.55 10.4zm19.78-51.1C89.7 84 88.75 114.6 88.75 114.6c-.53-18.22-3.07-32.79-6.64-38.37S48.53 61.1 48.53 61.1l27.86 7.38c14.51 2.53 22.5-3.07 22.5-3.07 13-9.65 17.71-10.76 17.71-10.76C95.79 69 93.54 75.12 93.54 75.12z"/></svg>