<svg id="Layer_1" data-name="Layer 1" xmlns="http://www.w3.org/2000/svg" viewBox="0 0 156 156"><defs><style>.cls-2{clip-path:url(#clip-path)}.cls-3{fill:#386db6}</style><clipPath id="clip-path"><path fill="none" d="M0 0h156v156H0z"/></clipPath></defs><g class="cls-2"><g class="cls-2"><path class="cls-3" d="M78 2.4A75.6 75.6 0 1 1 2.4 78 75.68 75.68 0 0 1 78 2.4M78 0a78 78 0 1 0 78 78A78 78 0 0 0 78 0"/></g></g><path d="M40 72.81l-4.49.52v5.31c-.35-.27-.84-.67-1.45-1.22l-1.59-1.2V66.08l-5 .58v54.65l5-.58V115a17.58 17.58 0 0 1 1.06 2.19 39.79 39.79 0 0 1 2 4.15q6.21-7.64 7.66-14.73a26.47 26.47 0 0 0 8.59 12.15c.79-2.25 1.94-5 3.43-8.24a19.28 19.28 0 0 1-8.71-10.75l8.85-1v-8.83l-2.12.25V71.28l-7.92.92c.08-2.32.13-4.78.13-7.4l-5.44.63zm-.52 27.73q-.8 6.79-7 13v-27.4l2.38 2.49 1.85-6.9 3.3-.39c0 3.85 0 7.31-.13 10.4l-6.07.7v8.76zm-16.25-4.1l3.3.3q.66-13.68.93-19l-3.17-.1q-.54 9.75-1.06 18.81zm25-16v10.33l-3 .35q0-4.84.13-10.39zm40.92 13.19l-13.21 1.53v-3l2.64-.31V88.4l1.19 3.6a32.72 32.72 0 0 1 3.44-1.09 28.66 28.66 0 0 0 2.9-.8c.18.59.22.74.14.44.08.61.13 1 .13 1.14l3.17-2c-.09-.6-.31-1.58-.66-2.92a885.9 885.9 0 0 0-1.72-8.33l-1.85 1.13q.66-1.68 2.12-5.09 1.31-3.37 2-4.84l-3.7-1.87-1.59 4.33-1.85.22q.52-1.22 2.25-5.57 1.32-3.37 1.85-4.6l-4.23-2q-2 6.69-3.17 10a4.12 4.12 0 0 1-.4 1.2v-6.94l-2.9.34c.09-.47.22-1.1.4-1.89s.3-1.57.39-1.89l-5.15-.09c-.26 1.56-.53 3-.79 4.47l-2.12.24v5.54l-2.77-1.29c-.44 1.59-.92 3.1-1.45 4.55l-1.85.21q1-3.12 4-10.61L62 62.43a83.89 83.89 0 0 1-3 10.25 24.44 24.44 0 0 1-1.59 3.41l1.32 5.15a8.81 8.81 0 0 1 2.51-.75 2.6 2.6 0 0 1 .79-.32 7.54 7.54 0 0 0-.52 1.44c-.71 1.78-1.24 3-1.59 3.64A28.81 28.81 0 0 1 57.85 89l1.45 5.6q1.59-1.11 6.87-2.19c.17.75.31 1.35.39 1.8l2-1.15 2.37-.28v3l-13.08 1.48v6.92L68 103q-2.77 3.78-10.7 7.47 1.45 3.28 2.64 6.61a43.86 43.86 0 0 0 11-9.58v9.5l5-.59v-9.68c2.2 2.66 5.82 4.94 10.83 6.81q.66-1.92 2.78-7.47A17.29 17.29 0 0 1 79 101.72l10.17-1.18zm-23.77-12c.35-.81.87-2 1.58-3.65s1.1-2.81 1.45-3.62v13.37c-.17-.59-.39-1.57-.66-2.92-.44-1.94-.75-3.37-.92-4.27zm13.2 3.77v-9l.93 2.2a14.45 14.45 0 0 0 2.38-.73c-.18.48-.49 1.21-.93 2.18A22.06 22.06 0 0 0 79.77 83a11.66 11.66 0 0 1-1.19 2.45zm-3.83-14.78v4.85l-2.64.3v-4.84zm-2.64 15.53v-4.38l2.64-.31v4.38zm12.29-4.66c.26.9.53 2 .79 3.37l-2.51.29c.44-.82 1-2 1.72-3.66zm-20.08 2.57c.26.89.53 1.93.79 3.13a10.29 10.29 0 0 1-2.38.51c.53-1.29 1.06-2.5 1.59-3.64zM96.3 60.41a12.61 12.61 0 0 0-4.1 5 10.54 10.54 0 0 0 1.3 10.69 57.29 57.29 0 0 0 5.41 5.9c.82.78.85 1.46.06 2q-6.7 5.28-7 11.67a11 11 0 0 0 2.54 8.21c1.91 2 3.84 4 5.8 5.87a13.73 13.73 0 0 0 6 2.86 35.93 35.93 0 0 0 11.67.85 21.34 21.34 0 0 0 9.64-3.39 11.94 11.94 0 0 0 4.11-5 10.88 10.88 0 0 0-.78-10.16 34.13 34.13 0 0 0-6.76-7.91c-.6-.69-.6-1.26 0-1.69 2.22-1.61 4.41-3.17 6.59-4.7a3.19 3.19 0 0 0 1.43-3.61 7.64 7.64 0 0 0-1.5-1.83l-.65-.71c-.65-.65-.7-1.09-.13-1.31a4 4 0 0 0 1.95-2.41 5.16 5.16 0 0 0-1.43-5.41q-2.8-2.86-5.6-5.6a23 23 0 0 0-3.59-2 27.92 27.92 0 0 0-13-1.76 25.17 25.17 0 0 0-12 4.43zm28.35 1.24a3.59 3.59 0 0 1 .78 4.95 2.38 2.38 0 0 1-1.76.91 5.3 5.3 0 0 1-3.58-.91 15.79 15.79 0 0 0-7.24-2 18.82 18.82 0 0 0-11.53 2.54q-3.78 3.19 1.37 7a38.3 38.3 0 0 0 4.82 3.06c2 1.39 3.56 1.78 4.82 1.17a74.53 74.53 0 0 1 12.06-5.73c1-.44 1.65-.28 2 .45a1.7 1.7 0 0 1-.59 1.44l-8.41 6.06a2.4 2.4 0 0 0-1.11 1c0 .18.37.61 1.11 1.3q12.45 9.26 8 17.86a10.1 10.1 0 0 1-4.63 4.3 18.89 18.89 0 0 1-4.82 1.83q-4.24 1.17-11.8.13a18.94 18.94 0 0 1-4.82-1.44 9.59 9.59 0 0 1-4.63-3.91 10.91 10.91 0 0 1-1.24-6q.46-7 9.26-12.38c.78-.44.74-.94-.13-1.5a56.78 56.78 0 0 1-5.41-3.91l-1.11-1a11 11 0 0 1-3.19-6.19q-.46-5.67 4.82-9.32a24.73 24.73 0 0 1 16.16-3.84 18.82 18.82 0 0 1 10.82 4.17zm-3.32 10.56a58.25 58.25 0 0 0-8.74 4.3c-.82.52-1.43.72-1.82.58a20.35 20.35 0 0 1-3.91-2c-.7-.43-1-.76-1-1a2.82 2.82 0 0 1 1.57-1.57 18.88 18.88 0 0 1 13.68-1.17c.83.26.89.54.2.85zM99.1 95.86c0 3 1.55 5 4.63 5.87a18.48 18.48 0 0 0 10.82-.52q8.28-3.78.52-10.95a27.3 27.3 0 0 0-4.43-3.65 2.39 2.39 0 0 0-2.41-.13 28.11 28.11 0 0 0-4 2.41q-5 3.33-5.09 7zm15.78-3l1 .78a3.51 3.51 0 0 1 1.17 1.69q.91 2.8-2.61 4.24a16.44 16.44 0 0 1-8.27 1.17c-.78-.13-1.11-.56-1-1.3a8.58 8.58 0 0 1 2.35-3.13A28 28 0 0 1 112.4 93l.26-.2a2.12 2.12 0 0 1 2.22.07zm-14.63 33.81l-3.78-2-3.25 2.79.78-4.26-3.67-2.2 4.25-.57 1-4.16 1.86 3.86 4.27-.35-3.1 2.95zm-15.47 1.48l-3.78-2-3.26 2.79.78-4.21-3.67-2.23 4.26-.57 1-4.16 1.89 3.82 4.28-.35-3.11 3zm-15.49 1.66l-3.78-2-3.25 2.79.77-4.21-3.67-2.23 4.26-.56 1-4.17 1.85 3.87 4.28-.35-3.11 3zM48.73 38.65l.66-3.21 2.87-.38.85-4.1 4.24-.56-.85 4.1 2.63-.34-.67 3.2-2.62.35a20.3 20.3 0 0 0 1.3 7.19l-1 4.63a1.33 1.33 0 0 0-.27-.47 13.38 13.38 0 0 1-1.7-3.52l-3 14.37-4.17.57 2.52-12.2a44.54 44.54 0 0 1-4.77 6.63l.91-4.37a72.29 72.29 0 0 0 5.94-12.27zm8.86 20.55l.63-3.08a20.53 20.53 0 0 0 5.63-3.74 13.35 13.35 0 0 1-1.69-5.89q-2.35 6.67-9 13l.8-3.85a31.48 31.48 0 0 0 3.89-7.63 89 89 0 0 0 3-11.63l.45-2.18-1.74.23.63-3.08 15.73-2.08-.64 3.08a28 28 0 0 1-4.16 6L76 37.8l-.59 2.82Q72.66 48 68.57 51.88a8.28 8.28 0 0 0 4.63 2.26l-.61 3a20.31 20.31 0 0 1-7-2.7 83.83 83.83 0 0 1-8 4.76zM65 36.38A76.1 76.1 0 0 1 63 44l3-.39a16.13 16.13 0 0 0 .9 5.62 26.12 26.12 0 0 0 4.22-8l-4.37.58.59-2.82A26 26 0 0 0 70.78 33l-5.24.69zm10.77 20.05l.55-2.7a5 5 0 0 0 3.12-3.91l2.15-10.39-2.37.31.66-3.21 7-.92-2.53 12.19q-.73 4.1 3.24 3.69l17.73-2.34-.64 3.08-18.23 2.41q-3.74.49-4.76-1.62a11.43 11.43 0 0 1-5.92 3.41zm8-22.65a28 28 0 0 0-.54-6.17l4.24-.56a23.3 23.3 0 0 1 .67 6.15zm5.47-3l.64-3.08 8-1.06.37-1.8 4.12-.54-.37 1.8 8.11-1.07-.64 3.08-8.11 1.07-.4 1.92 7-.92-1 4.88q-.81 4.47-4.77 4.87l-1.62.22a10.18 10.18 0 0 0 5.2 4.8l-.59 2.82c-3.31-.81-5.61-2-6.88-3.7l-1.09 5.26-4.21.57 1.06-5.13a32.79 32.79 0 0 1-8.94 5.67l.58-2.82a33.17 33.17 0 0 0 7.54-6.49l-5.37.71 1.93-9.24 7-.92.4-1.93zm3.2 7.44l3.12-.41.66-3.21-3.16.4zm11-4.58l-3.12.41-.66 3.21 1.49-.2a1.93 1.93 0 0 0 2-1.88z" fill="#fff"/><path class="cls-3" d="M40 72.81l-4.49.52v5.31c-.35-.27-.84-.67-1.45-1.22l-1.59-1.2V66.08l-5 .58v54.65l5-.58V115a17.58 17.58 0 0 1 1.06 2.19 39.79 39.79 0 0 1 2 4.15q6.21-7.64 7.66-14.73a26.47 26.47 0 0 0 8.59 12.15c.79-2.25 1.94-5 3.43-8.24a19.28 19.28 0 0 1-8.71-10.75l8.85-1v-8.83l-2.12.25V71.28l-7.92.92c.08-2.32.13-4.78.13-7.4l-5.44.63zm-.52 27.73q-.8 6.79-7 13v-27.4l2.38 2.49 1.85-6.9 3.3-.39c0 3.85 0 7.31-.13 10.4l-6.07.7v8.76zm-16.25-4.1l3.3.3q.66-13.68.93-19l-3.17-.1q-.54 9.75-1.06 18.81zm25-16v10.33l-3 .35q0-4.84.13-10.39zm40.92 13.19l-13.21 1.53v-3l2.64-.31V88.4l1.19 3.6a32.72 32.72 0 0 1 3.44-1.09 28.66 28.66 0 0 0 2.9-.8c.18.59.22.74.14.44.08.61.13 1 .13 1.14l3.17-2c-.09-.6-.31-1.58-.66-2.92a885.9 885.9 0 0 0-1.72-8.33l-1.85 1.13q.66-1.68 2.12-5.09 1.31-3.37 2-4.84l-3.7-1.87-1.59 4.33-1.85.22q.52-1.22 2.25-5.57 1.32-3.37 1.85-4.6l-4.23-2q-2 6.69-3.17 10a4.12 4.12 0 0 1-.4 1.2v-6.94l-2.9.34c.09-.47.22-1.1.4-1.89s.3-1.57.39-1.89l-5.15-.09c-.26 1.56-.53 3-.79 4.47l-2.12.24v5.54l-2.77-1.29c-.44 1.59-.92 3.1-1.45 4.55l-1.85.21q1-3.12 4-10.61L62 62.43a83.89 83.89 0 0 1-3 10.25 24.44 24.44 0 0 1-1.59 3.41l1.32 5.15a8.81 8.81 0 0 1 2.51-.75 2.6 2.6 0 0 1 .79-.32 7.54 7.54 0 0 0-.52 1.44c-.71 1.78-1.24 3-1.59 3.64A28.81 28.81 0 0 1 57.85 89l1.45 5.6q1.59-1.11 6.87-2.19c.17.75.31 1.35.39 1.8l2-1.15 2.37-.28v3l-13.08 1.48v6.92L68 103q-2.77 3.78-10.7 7.47 1.45 3.28 2.64 6.61a43.86 43.86 0 0 0 11-9.58v9.5l5-.59v-9.68c2.2 2.66 5.82 4.94 10.83 6.81q.66-1.92 2.78-7.47A17.29 17.29 0 0 1 79 101.72l10.17-1.18zm-23.77-12c.35-.81.87-2 1.58-3.65s1.1-2.81 1.45-3.62v13.37c-.17-.59-.39-1.57-.66-2.92-.44-1.94-.75-3.37-.92-4.27zm13.2 3.77v-9l.93 2.2a14.45 14.45 0 0 0 2.38-.73c-.18.48-.49 1.21-.93 2.18A22.06 22.06 0 0 0 79.77 83a11.66 11.66 0 0 1-1.19 2.45zm-3.83-14.78v4.85l-2.64.3v-4.84zm-2.64 15.53v-4.38l2.64-.31v4.38zm12.29-4.66c.26.9.53 2 .79 3.37l-2.51.29c.44-.82 1-2 1.72-3.66zm-20.08 2.57c.26.89.53 1.93.79 3.13a10.29 10.29 0 0 1-2.38.51c.53-1.29 1.06-2.5 1.59-3.64zM96.3 60.41a12.61 12.61 0 0 0-4.1 5 10.54 10.54 0 0 0 1.3 10.69 57.29 57.29 0 0 0 5.41 5.9c.82.78.85 1.46.06 2q-6.7 5.28-7 11.67a11 11 0 0 0 2.54 8.21c1.91 2 3.84 4 5.8 5.87a13.73 13.73 0 0 0 6 2.86 35.93 35.93 0 0 0 11.67.85 21.34 21.34 0 0 0 9.64-3.39 11.94 11.94 0 0 0 4.11-5 10.88 10.88 0 0 0-.78-10.16 34.13 34.13 0 0 0-6.76-7.91c-.6-.69-.6-1.26 0-1.69 2.22-1.61 4.41-3.17 6.59-4.7a3.19 3.19 0 0 0 1.43-3.61 7.64 7.64 0 0 0-1.5-1.83l-.65-.71c-.65-.65-.7-1.09-.13-1.31a4 4 0 0 0 1.95-2.41 5.16 5.16 0 0 0-1.43-5.41q-2.8-2.86-5.6-5.6a23 23 0 0 0-3.59-2 27.92 27.92 0 0 0-13-1.76 25.17 25.17 0 0 0-12 4.43zm28.35 1.24a3.59 3.59 0 0 1 .78 4.95 2.38 2.38 0 0 1-1.76.91 5.3 5.3 0 0 1-3.58-.91 15.79 15.79 0 0 0-7.24-2 18.82 18.82 0 0 0-11.53 2.54q-3.78 3.19 1.37 7a38.3 38.3 0 0 0 4.82 3.06c2 1.39 3.56 1.78 4.82 1.17a74.53 74.53 0 0 1 12.06-5.73c1-.44 1.65-.28 2 .45a1.7 1.7 0 0 1-.59 1.44l-8.41 6.06a2.4 2.4 0 0 0-1.11 1c0 .18.37.61 1.11 1.3q12.45 9.26 8 17.86a10.1 10.1 0 0 1-4.63 4.3 18.89 18.89 0 0 1-4.82 1.83q-4.24 1.17-11.8.13a18.94 18.94 0 0 1-4.82-1.44 9.59 9.59 0 0 1-4.63-3.91 10.91 10.91 0 0 1-1.24-6q.46-7 9.26-12.38c.78-.44.74-.94-.13-1.5a56.78 56.78 0 0 1-5.41-3.91l-1.11-1a11 11 0 0 1-3.19-6.19q-.46-5.67 4.82-9.32a24.73 24.73 0 0 1 16.16-3.84 18.82 18.82 0 0 1 10.82 4.17zm-3.32 10.56a58.25 58.25 0 0 0-8.74 4.3c-.82.52-1.43.72-1.82.58a20.35 20.35 0 0 1-3.91-2c-.7-.43-1-.76-1-1a2.82 2.82 0 0 1 1.57-1.57 18.88 18.88 0 0 1 13.68-1.17c.83.26.89.54.2.85zM99.1 95.86c0 3 1.55 5 4.63 5.87a18.48 18.48 0 0 0 10.82-.52q8.28-3.78.52-10.95a27.3 27.3 0 0 0-4.43-3.65 2.39 2.39 0 0 0-2.41-.13 28.11 28.11 0 0 0-4 2.41q-5 3.33-5.09 7zm15.78-3l1 .78a3.51 3.51 0 0 1 1.17 1.69q.91 2.8-2.61 4.24a16.44 16.44 0 0 1-8.27 1.17c-.78-.13-1.11-.56-1-1.3a8.58 8.58 0 0 1 2.35-3.13A28 28 0 0 1 112.4 93l.26-.2a2.12 2.12 0 0 1 2.22.07zm-14.63 33.81l-3.78-2-3.25 2.79.78-4.26-3.67-2.2 4.25-.57 1-4.16 1.86 3.86 4.27-.35-3.1 2.95zm-15.47 1.48l-3.78-2-3.26 2.79.78-4.21-3.67-2.23 4.26-.57 1-4.16 1.89 3.82 4.28-.35-3.11 3zm-15.49 1.66l-3.78-2-3.25 2.79.77-4.21-3.67-2.23 4.26-.56 1-4.17 1.85 3.87 4.28-.35-3.11 3zM48.73 38.65l.66-3.21 2.87-.38.85-4.1 4.24-.56-.85 4.1 2.63-.34-.67 3.2-2.62.35a20.3 20.3 0 0 0 1.3 7.19l-1 4.63a1.33 1.33 0 0 0-.27-.47 13.38 13.38 0 0 1-1.7-3.52l-3 14.37-4.17.57 2.52-12.2a44.54 44.54 0 0 1-4.77 6.63l.91-4.37a72.29 72.29 0 0 0 5.94-12.27zm8.86 20.55l.63-3.08a20.53 20.53 0 0 0 5.63-3.74 13.35 13.35 0 0 1-1.69-5.89q-2.35 6.67-9 13l.8-3.85a31.48 31.48 0 0 0 3.89-7.63 89 89 0 0 0 3-11.63l.45-2.18-1.74.23.63-3.08 15.73-2.08-.64 3.08a28 28 0 0 1-4.16 6L76 37.8l-.59 2.82Q72.66 48 68.57 51.88a8.28 8.28 0 0 0 4.63 2.26l-.61 3a20.31 20.31 0 0 1-7-2.7 83.83 83.83 0 0 1-8 4.76zM65 36.38A76.1 76.1 0 0 1 63 44l3-.39a16.13 16.13 0 0 0 .9 5.62 26.12 26.12 0 0 0 4.22-8l-4.37.58.59-2.82A26 26 0 0 0 70.78 33l-5.24.69zm10.77 20.05l.55-2.7a5 5 0 0 0 3.12-3.91l2.15-10.39-2.37.31.66-3.21 7-.92-2.53 12.19q-.73 4.1 3.24 3.69l17.73-2.34-.64 3.08-18.23 2.41q-3.74.49-4.76-1.62a11.43 11.43 0 0 1-5.92 3.41zm8-22.65a28 28 0 0 0-.54-6.17l4.24-.56a23.3 23.3 0 0 1 .67 6.15zm5.47-3l.64-3.08 8-1.06.37-1.8 4.12-.54-.37 1.8 8.11-1.07-.64 3.08-8.11 1.07-.4 1.92 7-.92-1 4.88q-.81 4.47-4.77 4.87l-1.62.22a10.18 10.18 0 0 0 5.2 4.8l-.59 2.82c-3.31-.81-5.61-2-6.88-3.7l-1.09 5.26-4.21.57 1.06-5.13a32.79 32.79 0 0 1-8.94 5.67l.58-2.82a33.17 33.17 0 0 0 7.54-6.49l-5.37.71 1.93-9.24 7-.92.4-1.93zm3.2 7.44l3.12-.41.66-3.21-3.16.4zm11-4.58l-3.12.41-.66 3.21 1.49-.2a1.93 1.93 0 0 0 2-1.88z"/></svg>