<svg id="Layer_1" data-name="Layer 1" xmlns="http://www.w3.org/2000/svg" viewBox="0 0 156 156"><defs><style>.cls-3{fill:#386db6}</style><clipPath id="clip-path"><path class="cls-3" d="M0 0h156v156H0z"/></clipPath></defs><path class="cls-3" d="M-306.473 80.184l-6.293.485a7.471 7.471 0 0 0 1.64 4.757l6.09-.468a13.021 13.021 0 0 1-1.437-4.774zm23.767 3.056a15.016 15.016 0 0 0 2.826-5.1l-6.293.484a19.681 19.681 0 0 1-2.623 5.085z" transform="translate(347.153)"/><path class="cls-3" d="M-292.748 78.112l2.03-.157a59.385 59.385 0 0 0 14.789-2.562l.494-4.107a69.561 69.561 0 0 1-16.235 2.876l-24.157 1.858-.469 3.9 16.849-1.3-.816 6.777-19.082 1.468-.469 3.9 9.541-.734q-2.8 4.9-10.862 8.364l-.42 3.492q2.914-.836 5.02-1.607l-2.3 19.1 29.029-2.233q7.258-.153 7.693-7.1l1.507-12.528q1.953.46 4.521.873l.42-3.492q-7.167-2.295-9.235-6.818l9.947-.765.469-3.9-19.082 1.468zm-11.024 36.457l-8.526.656.544-4.519 8.526-.655zm.964-8.01l-8.526.656.543-4.518 8.527-.656zm14.582 4.169c-.1 1.909-1.149 2.868-3.163 2.889l-5.887.453.544-4.519 8.729-.672zm.643-5.34l-8.729.672.544-4.519 8.728-.671zm-3.608-16.815q1.919 5.757 8.453 8.3l-31.668 2.436a23.564 23.564 0 0 0 10.629-9.771l3.045-.234-.914 7.6 6.7-.515.914-7.6zm64.943-21.64l-5.075.39-.692 5.751-3.654.281a17.746 17.746 0 0 0 .6-1.674q1.2-3.345 1.609-5.007l-5.076.39a40.748 40.748 0 0 1-7.008 14.783 50.584 50.584 0 0 0 1.148-6.193l.519-4.313-11.977.921-.519 4.313 7.511-.577a93.682 93.682 0 0 1-3.854 16.982 76.073 76.073 0 0 1-.121-14.032l-4.263.328q-1 13.307 1.286 21.064-2.32 4.251-5.553 9.38l-.617 5.135a65.645 65.645 0 0 0 8.013-9.773 25.5 25.5 0 0 0 5.612 8.522l.618-5.135a51.912 51.912 0 0 1-3.428-8.283 57.031 57.031 0 0 0 4.577-12.968 15.748 15.748 0 0 0 1.8-1.563q1.112-.9 1.569-1.341l-3.608 29.986 5.075-.39.371-3.081 15.631-1.2.47-3.9-5.684.437.864-7.188 4.467-.343.519-4.314-4.467.344.816-6.778 4.466-.343.494-4.108-4.466.344.816-6.778 5.278-.406.518-4.313-5.277.406zm-9.8 39.619l-4.871.374.864-7.188 4.873-.374zm1.384-11.5l-4.872.375.816-6.778 4.872-.374zm1.31-10.885l-4.872.375.816-6.778 4.872-.375z" transform="translate(347.153)"/><path class="cls-3" d="M-258.753 93.037l.494-4.107a7.381 7.381 0 0 1-1.267.5c-.845.339-1.413.585-1.7.741l1.26-10.474 2.639-.2.494-4.108-2.639.2.89-7.394-5.278.406-.89 7.394-3.451.265-.494 4.108 3.451-.265-1.409 11.706a13.385 13.385 0 0 0-1.851.346 7.708 7.708 0 0 0-2.055.362l-.618 5.135.406-.032a21 21 0 0 0 3.55-1.087l-1.532 12.734c-.049 1.5-.873 2.236-2.481 2.226l-1.42.109-.495 4.108 3.045-.234q6.066-.267 6.579-6.2l1.78-14.788q1.294-.71 2.992-1.451zM-272.35 39.06a4.232 4.232 0 0 0-1.877-2.469 10.749 10.749 0 0 0-10.057-.675 3.6 3.6 0 0 0-2.217 2.86 24.961 24.961 0 0 1 14.151.284zm-2.369 7.74a10.011 10.011 0 0 1 3.68 3.718c2.638-2.351 2.256-5.7-1.257-8.122-4.138-2.846-11.034-3.309-15.4-1.034a6.727 6.727 0 0 0-2.857 2.57c5.653-.666 11.697.294 15.834 2.868zm-8.845 14.156a14.884 14.884 0 0 0 4.666-1.439c5.01-2.609 5.226-7.368.483-10.63s-12.649-3.793-17.659-1.185a9.255 9.255 0 0 0-2.05 1.432 25.061 25.061 0 0 1 9.4 3.242c3.854 2.401 5.541 5.516 5.16 8.58z" transform="translate(347.153)"/><path class="cls-3" d="M-316.242 67.055c6.371 4.12 16.808 4.522 23.311.9s6.609-9.9.237-14.023-16.809-4.523-23.311-.9-6.61 9.902-.237 14.023zm49.161-1.755l3.414-.262 2.149-11.3a11.544 11.544 0 0 0 1.433 2.872 1.132 1.132 0 0 1 .224.379l.691-3.63a16.571 16.571 0 0 1-1.177-5.773l2.108-.162.48-2.521-2.108.163.614-3.228-3.414.263-.614 3.227-2.31.178-.48 2.521 2.31-.178a52.042 52.042 0 0 1-4.577 9.495l-.653 3.429a32.5 32.5 0 0 0 3.733-5.057z" transform="translate(347.153)"/><path class="cls-3" d="M-256.335 46.783a66.232 66.232 0 0 1-2.229 9.115 22.567 22.567 0 0 1-3 5.9l-.575 3.025a24.45 24.45 0 0 0 7.044-9.983 11.125 11.125 0 0 0 1.469 4.757 15.137 15.137 0 0 1-4.477 2.729l-.46 2.42a63.248 63.248 0 0 0 6.4-3.473 18.155 18.155 0 0 0 5.669 2.446l.442-2.32a7.359 7.359 0 0 1-3.776-1.995 21.275 21.275 0 0 0 5.308-8.656l.422-2.219-3.916.3a19.9 19.9 0 0 0 3.254-4.622l.461-2.421-12.652.973-.461 2.421 1.406-.108zm3.337.141l.4-2.118 4.217-.324a18.36 18.36 0 0 1-2.651 4.576l-.423 2.219 3.515-.271a18.889 18.889 0 0 1-3.26 6.214 13.172 13.172 0 0 1-.825-4.508l-2.41.185A56.479 56.479 0 0 0-253 46.924zm18.598-1.53a18.631 18.631 0 0 0-.647-4.918l-3.414.262a21.994 21.994 0 0 1 .547 4.926zm-2.774 11.443l1.823-9.581-5.623.433-.479 2.521 1.907-.147-1.554 8.169a3.619 3.619 0 0 1-2.445 2.97l-.4 2.118a8.426 8.426 0 0 0 4.721-2.45q.859 1.724 3.871 1.491l14.66-1.127.461-2.421-14.259 1.1q-3.198.145-2.683-3.076z" transform="translate(347.153)"/><path class="cls-3" d="M-217.289 42.289l.46-2.42-6.526.5.269-1.412-3.314.255-.268 1.412-6.426.494-.461 2.42 6.426-.494-.288 1.513-5.623.432-1.382 7.262 4.318-.332a23.883 23.883 0 0 1-5.965 4.831l-.422 2.219a24.12 24.12 0 0 0 7.117-4.126l-.768 4.035 3.314-.255.786-4.135q1.586 2.064 5.616 3.245l.422-2.219a9.11 9.11 0 0 1-4.276-4.043l1.3-.1q3.194-.146 3.766-3.668l.729-3.832-5.623.432.288-1.513zm-11.049 7.111l-2.51.193.479-2.522 2.511-.193zm6.3-2.97l-.231 1.211a1.42 1.42 0 0 1-1.554 1.411l-1.205.093.48-2.522z" transform="translate(347.153)"/><path fill="none" d="M0 0h156v156H0z"/><path class="cls-3" d="M-269.153 2.4a75.686 75.686 0 0 1 75.6 75.6 75.686 75.686 0 0 1-75.6 75.6 75.686 75.686 0 0 1-75.6-75.6 75.686 75.686 0 0 1 75.6-75.6m0-2.4a78 78 0 0 0-78 78 78 78 0 0 0 78 78 78 78 0 0 0 78-78 78 78 0 0 0-78-78" transform="translate(347.153)"/></svg>