<svg id="Layer_1" data-name="Layer 1" xmlns="http://www.w3.org/2000/svg" viewBox="0 0 156 156"><defs><style>.cls-2{clip-path:url(#clip-path)}.cls-3{fill:#386db6}</style><clipPath id="clip-path"><path fill="none" d="M0 0h156v156H0z"/></clipPath></defs><g class="cls-2"><g class="cls-2"><path class="cls-3" d="M78 2.4A75.6 75.6 0 1 1 2.4 78 75.68 75.68 0 0 1 78 2.4M78 0a78 78 0 1 0 78 78A78 78 0 0 0 78 0"/></g></g><path class="cls-3" d="M40.91 69.81v4l-12.15 1.44v8l8.77-1-3.13 1.9 1.88 4.56-5.64.65v7.8L40.91 96v4.28l-12.4 1.44V110l12.4-1.44v8.55l5.51-.64v-8.55l12.41-1.44v-8.3l-12.41 1.43v-4.28l10.4-1.21v-7.8l-5.76.68 2-5.26-3.13-.89 8.65-1v-8l-12.16 1.34v-4L56.2 68v-7.51l-9.78 1.13v-5.28l-5.51.66v5.28l-9.77 1.12v7.54zm6.77 11.29l-2.38 6.56L42 88l-2.38-6zm33.57 2.14c.17.48.42 1.21.76 2.17.41 1.3.7 2.27.87 2.92a25.82 25.82 0 0 0-2.88.59 13.42 13.42 0 0 0-3 .6q1.64-4 3.89-10.52l9.65-1.12v-9l-20.8 2.41v9.01l5.39-.63A62.48 62.48 0 0 1 73 86a3.87 3.87 0 0 1-.26.78 19.32 19.32 0 0 1-2.88 5.11l1.88 8.34a1.46 1.46 0 0 0 .5-.31A13.18 13.18 0 0 1 76 98.69q5.64-1.16 9.27-1.83l1.13 3.64 4.26-5.27Q88 86.73 85.14 79zM68.47 97.3V73.65l-7.89.92v9.81l2.88-.38v14.38q-1.5 2.45-3 5.13l1.88 11.35a90 90 0 0 1 3.88-8.75q2.13 5.79 7 5.47c2.08-.07 4.3-.16 6.64-.26l9.77-1.14q.75-5.62 1.5-9.48-5.9.94-16.66 2.19-4.26.24-6-5.59zm2.89-32l17.54-2v-9l-17.54 2zm-10-6.63q2 6.3 2.88 9.22c.42 1.46.76 2.6 1 3.4l4.51-5.55-1.51-4.35c-1.17-3.39-2.08-6-2.75-7.73zm-1.72-25.8a4.83 4.83 0 0 1-.09.75 5.09 5.09 0 0 1-.18.85l-4.46.53v1c-1.08-.54-2.27-1.22-3.58-2l-2.14 2.4q2.33 1.5 3.57 2.44l2.15-2.56v10l3-.33v-.75l.72.84A19.63 19.63 0 0 0 61 44.35v1.16l2.68-.29V44l.36.13c.83.41 1.45.73 1.87 1L66.7 44v1l3.12-.33V33.34l-6.82.74.54-1.39zm-5.36 16.85l5.54-.6q-.54 1.07-6.16 2.25a2.44 2.44 0 0 1 .26.38 8.68 8.68 0 0 1 1.25 1.7q5.55-1.35 7.06-3.26 1.79 1.56 7.06 1.56c.35-.7.8-1.52 1.34-2.47-3.1.17-5.1-.05-6-.68l5.73-.6v-2.26l-6.43.7v-1l-3.4.37v1l-6.25.68zM50.44 47c-.66 2.9-1.16 5-1.52 6.15l3.31.47c.53-2.38 1.1-4.85 1.69-7.41l-3.21-.57c-.06.34-.15.8-.27 1.36zm14.11-8.25a6.82 6.82 0 0 1-.89.93v-1.5l2-.39-.53-1.68c-1 .21-2.86.53-5.72.95l-.89.09c.18.59.32 1.16.44 1.7.66-.07 1.31-.17 2-.3V40l-1.34-1.11-1.34 1 1.07 1-1.07.12v2l1.88-.2a9.92 9.92 0 0 1-2.24 1.49v-7.6l8.76-.94v7.3l-2-.86 1.66-.2v-2l-1.07.12L66.34 39 65 38.26l-.45.47zM48.74 42a4.27 4.27 0 0 0 .54.35c1.25.87 2.17 1.54 2.77 2l2.32-2.66c-.36-.24-.92-.59-1.7-1.06s-1.28-.83-1.69-1.06zm14.92 1.29v-1l1-.1zm0-3v-.58l.8.49zM61 40v.58l-.8.09zm15.61-.17c-.18-.37-.48-.91-.89-1.65L75 36.93l-2.94 1.48c.11.27.32.69.62 1.27.59 1.21 1 2 1.25 2.52l2.41-1.26a3.29 3.29 0 0 0-.18.44c-.17.4-.29.69-.35.86l2.23.68c.06-.29.18-.71.36-1.29.29-1.19.53-2.05.71-2.57v1.41a12.7 12.7 0 0 1-2.5 8.66c.89.57 1.79 1.19 2.68 1.87q3.21-4 2.95-10.61v-1.75c.18.37.41.9.71 1.59s.51 1.3.63 1.67l.71-.32V49l3.13-.34V38.08c.18.43.41 1.06.71 1.92.24.53.42 1 .54 1.27l.8-.42v8.47l3.22-.32V29.87l-3.22.35v7.56c-.42-.84-.8-1.66-1.16-2.45l-.89.43V31.1l-3.13.34v6.73c-.12-.26-.27-.64-.44-1.11s-.42-.9-.54-1.11l-1.07.53v-5.56l-3.13.34v5.48l-1.52-.34c-.3 1.14-.62 2.29-1 3.43zm-4.55 10.71l3.21.4c.24-.86.54-2 .89-3.59s.63-2.8.81-3.65l-3.13-.58a68.51 68.51 0 0 1-1.78 7.42zm.35-17.73c.18.37.51 1 1 1.89s.72 1.53.9 1.9L77.5 35c-.24-.47-.68-1.25-1.34-2.35a11.66 11.66 0 0 0-.71-1.25zm29.02 90.32l-4.23-2.28-3.65 3.15.87-4.72-4.11-2.5 4.77-.63 1.11-4.67 2.07 4.33 4.8-.38-3.48 3.3zm-17.34 1.66l-4.24-2.29-3.64 3.13.86-4.72-4.07-2.5 4.77-.63 1.11-4.67 2.08 4.33 4.8-.39-3.49 3.31zm-17.36 1.87l-4.23-2.29-3.65 3.13.87-4.72-4.11-2.5 4.77-.63 1.11-4.65 2.08 4.33 4.79-.39-3.48 3.31zm44.49-63.57a7.13 7.13 0 0 0 0-5.57 7 7 0 0 0-3.92-4 7.26 7.26 0 0 0-5.66 0 7.2 7.2 0 0 0-4 9.22 7.49 7.49 0 0 0 3.99 4.26 7.12 7.12 0 0 0 5.74 0 6.66 6.66 0 0 0 3.85-3.91zm-6.8-.33a2.53 2.53 0 1 1 2.6-2.48 2.54 2.54 0 0 1-2.6 2.48zm13.81 11.51a10.66 10.66 0 0 0-13.91 5.47 9.81 9.81 0 0 0-.17 7.94 10.71 10.71 0 0 0 5.7 6.11A10.82 10.82 0 0 0 124 88.21a10.71 10.71 0 0 0-.08-8.33 9.92 9.92 0 0 0-5.69-5.61zm-4.29 15.56a5.82 5.82 0 1 1 6-5.7 5.83 5.83 0 0 1-6 5.7z"/><path class="cls-3" d="M120.46 68.93a17.4 17.4 0 0 0-5.13-1.28 13.34 13.34 0 0 0 1.18-2.29 12.82 12.82 0 0 0 .07-10 12.53 12.53 0 0 0-7-7.22 13 13 0 0 0-10.14 0 12.89 12.89 0 0 0-7.14 16.49 13.37 13.37 0 0 0 7.06 7.64 12.44 12.44 0 0 0 2.37.79A17.06 17.06 0 0 0 99 77.38a15.15 15.15 0 0 0-.27 12.3 16.57 16.57 0 0 0 8.81 9.44 15.77 15.77 0 0 0 12.69.14 15.58 15.58 0 0 0 9.11-8.77 16.46 16.46 0 0 0-.12-12.88 15.3 15.3 0 0 0-8.76-8.68zm-19.21-1.07A8.45 8.45 0 0 1 96.78 63a8.16 8.16 0 0 1 4.52-10.45 8.18 8.18 0 0 1 6.42 0 8 8 0 0 1 4.45 4.57 8.2 8.2 0 0 1 0 6.32 7.58 7.58 0 0 1-4.37 4.4 8 8 0 0 1-6.55.02zm23.57 20.72a11 11 0 0 1-6.43 6.19 11.1 11.1 0 0 1-9-.1 11.68 11.68 0 0 1-6.17-6.67 10.72 10.72 0 0 1 .19-8.68 11.63 11.63 0 0 1 15.17-6 10.82 10.82 0 0 1 6.16 6.12 11.62 11.62 0 0 1 .08 9.14z"/><path class="cls-3" d="M134.66 75.39a20.65 20.65 0 0 0-4.42-7.09 26.58 26.58 0 0 0-7.74-4.9A16.09 16.09 0 0 0 122 53a17.53 17.53 0 0 0-9.8-10.22 18.82 18.82 0 0 0-14.5.24 18.37 18.37 0 0 0-10.59 9.72 17.35 17.35 0 0 0-.06 14 16.13 16.13 0 0 0 6.86 8 25.83 25.83 0 0 0-2.18 8.82 20.29 20.29 0 0 0 1.63 8.2 20.89 20.89 0 0 0 11.66 12 21.94 21.94 0 0 0 17.09-.08 21.69 21.69 0 0 0 12.43-11.6 20.7 20.7 0 0 0 .12-16.69zm-4.4 15.51a17.75 17.75 0 0 1-23.14 9.15 17.57 17.57 0 0 1-9.35-10 16.1 16.1 0 0 1 .28-13 18.82 18.82 0 0 1 2-3.42q-.54-.18-1.08-.42A14.35 14.35 0 0 1 91.4 65a13.83 13.83 0 0 1 7.66-17.7 13.88 13.88 0 0 1 10.88 0 13.49 13.49 0 0 1 7.53 7.7 13.81 13.81 0 0 1-.08 10.69c-.16.39-.33.76-.51 1.13a18.38 18.38 0 0 1 4 1.16 16.19 16.19 0 0 1 9.25 9.21 17.5 17.5 0 0 1 .13 13.71z"/></svg>