<svg id="Layer_1" data-name="Layer 1" xmlns="http://www.w3.org/2000/svg" xmlns:xlink="http://www.w3.org/1999/xlink" viewBox="0 0 156 156"><defs><style>.cls-1{fill:none;}.cls-2{clip-path:url(#clip-path);}.cls-3{fill:#2d69a9;}.cls-4{fill:#fff;}</style><clipPath id="clip-path"><rect class="cls-1" width="156" height="156"/></clipPath></defs><title>A_23 极速快3</title><g id="blue_circle" data-name="blue circle"><g class="cls-2"><g class="cls-2"><path class="cls-3" d="M156,78A78,78,0,1,1,78,0a78,78,0,0,1,78,78"/></g></g></g><path class="cls-4" d="M70.75,88a1.91,1.91,0,0,0-.28-1,1.43,1.43,0,0,0-.75-.67L68,85.79v12.8l2.74,1Z"/><path class="cls-4" d="M55,105a8.38,8.38,0,0,0-2.71,1.68,8.66,8.66,0,0,0-2.14,2.9,9.22,9.22,0,0,0-.72,3.42,3.16,3.16,0,0,0,.35,1.71,3.91,3.91,0,0,0,1,1.28,2.58,2.58,0,0,0,1.49.57,2.06,2.06,0,0,0,1.37-.49,11.33,11.33,0,0,0,3.17-4.37,24.38,24.38,0,0,0,1.68-7.23A8.64,8.64,0,0,0,55,105Z"/><path class="cls-4" d="M35.06,86.8a1.11,1.11,0,0,0,.34.94,1.05,1.05,0,0,0,.8.38A2.59,2.59,0,0,0,37,88l.74-.21V76A51.72,51.72,0,0,0,36,81.66,37.78,37.78,0,0,0,35.06,86.8Z"/><path class="cls-4" d="M104.39,93.64a5.35,5.35,0,0,0-1.07,1.55,4.75,4.75,0,0,0-.37,1.38c0,1,.36,1.35,1.21,1a14.1,14.1,0,0,0,3.91-2.62,22.86,22.86,0,0,0,2.59-2.85,16.8,16.8,0,0,0,2-3.38,8,8,0,0,0-4,1.37A19.61,19.61,0,0,0,104.39,93.64Z"/><path class="cls-4" d="M106.23,106.57a29.53,29.53,0,0,0-3.54,2.51,23.45,23.45,0,0,0-3.14,3.16,8.71,8.71,0,0,0-1.29,2.14,6.4,6.4,0,0,0-.49,2,2.43,2.43,0,0,0,.26,1.41,1,1,0,0,0,1,.48,6.14,6.14,0,0,0,2.11-.64,20.39,20.39,0,0,0,2.59-1.49,33.51,33.51,0,0,0,2.73-2c.92-.75,1.77-1.48,2.53-2.19a28.47,28.47,0,0,0,3.66-4.08,18.33,18.33,0,0,0,2.45-4.53A28.89,28.89,0,0,0,111,104.4,30.08,30.08,0,0,0,106.23,106.57Z"/><path class="cls-4" d="M106.3,34.12l.34-1.59h-3.33l-.7,3.32h1.59A1.78,1.78,0,0,0,106.3,34.12Z"/><path class="cls-4" d="M67.79,44a23.68,23.68,0,0,0,4.49-8H67.63l.62-2.92a23,23,0,0,0,3.63-5.85H66.3L65.71,30a71.92,71.92,0,0,1-2.07,7.84h3.19A18.28,18.28,0,0,0,67.79,44Z"/><polygon class="cls-4" points="94.9 35.85 98.22 35.85 98.93 32.53 95.61 32.53 94.9 35.85"/><path class="cls-4" d="M125.64,48.68s-2.54-3.94-11.51-5.94l-3.66-.82c-.32-.2-.63-.4-.91-.61a8.38,8.38,0,0,0,4-6.11l1-4.85a3.28,3.28,0,0,0,1.67-2.2l.67-3.19a3.21,3.21,0,0,0-.65-2.72A3.25,3.25,0,0,0,113.7,21h-5.3a3.18,3.18,0,0,0-.41-.66,3.27,3.27,0,0,0-2.53-1.2h-4.38A3.25,3.25,0,0,0,98.14,21H92A3.27,3.27,0,0,0,89.61,20H85.09a3.25,3.25,0,0,0-3.18,3.9A27.64,27.64,0,0,1,82.43,29h-.85A3.22,3.22,0,0,0,79,30.26a2.19,2.19,0,0,0-.29-.17c.27-.42.52-.85.77-1.29a3.34,3.34,0,0,0,.34-.91l.68-3.19A3.25,3.25,0,0,0,79.87,22a3.21,3.21,0,0,0-2.52-1.21h-17l-.19-.27a3.27,3.27,0,0,0-2.53-1.2H53.07a3.25,3.25,0,0,0-3.18,2.57l-.35,1.68h-.43a3.25,3.25,0,0,0-3.18,2.57l-.7,3.33a3.21,3.21,0,0,0,.65,2.72,3.38,3.38,0,0,0,.83.73,56.62,56.62,0,0,1-4.27,7.63A3.46,3.46,0,0,0,42,41.68l-.73,3.44c-1.83.92-3.75,1.91-5.75,3a20.37,20.37,0,0,0-8.63,10.16A21.38,21.38,0,0,0,25.5,68.44L28,101.63s-.24,16.19,14,23a210.06,210.06,0,0,0,34.53,13.43s12.36,3.93,21.29-2.88A203.32,203.32,0,0,0,117.2,118.7a37.52,37.52,0,0,0,9.31-13.63c-1.12-.48-2-.79-2-.79a6.18,6.18,0,0,0-1.47-.55c-.52-.12-1-.26-1.58-.41a39.3,39.3,0,0,1-2.83,4c-1,1.28-2.13,2.51-3.28,3.68s-2.31,2.26-3.48,3.27-2.29,1.92-3.37,2.73a37.36,37.36,0,0,1-4.89,3.18,9,9,0,0,1-4.43,1.22,2.81,2.81,0,0,1-2.54-1.17,4.64,4.64,0,0,1-.63-2.91,12,12,0,0,1,.89-3.8,21.7,21.7,0,0,1,2-3.68,31.11,31.11,0,0,1,3.74-4.47,49.25,49.25,0,0,1,4.43-3.93A53.35,53.35,0,0,1,112,98q2.42-1.47,4.26-2.4a17.85,17.85,0,0,0-.2-2.7,12,12,0,0,0-.55-2.2c-.92,1-1.89,2-2.91,2.95s-2,1.8-3,2.57-1.91,1.43-2.79,2a15,15,0,0,1-2.36,1.28,2.37,2.37,0,0,1-2.08.15,1.83,1.83,0,0,1-.75-1.58,6.45,6.45,0,0,1,.72-2.86,19.89,19.89,0,0,1,2.16-3.49,22.07,22.07,0,0,1,1.9-2.09c.73-.71,1.53-1.42,2.39-2.11s1.76-1.34,2.68-2A30,30,0,0,1,114.23,84c.19-1,.35-2,.46-3.17a23.49,23.49,0,0,0,.12-3.33,14.37,14.37,0,0,0-.38-2.9,3.7,3.7,0,0,0-1-1.87,1.77,1.77,0,0,0-1.61-.41,5.25,5.25,0,0,0-2.13,1,16.76,16.76,0,0,0-2.42,2.34,11,11,0,0,0-1.95,3.3,18.25,18.25,0,0,0-1,4.41,29,29,0,0,0-.15,4.57l-8.52,6.41a31.19,31.19,0,0,1,2-8.11,41,41,0,0,1,4.63-8.52,38.32,38.32,0,0,1,4.23-5,36.37,36.37,0,0,1,4.52-3.85A25.3,25.3,0,0,1,116,66.06a8.51,8.51,0,0,1,4.11-.77A3.36,3.36,0,0,1,122.69,67a8.15,8.15,0,0,1,1,3.78,19.79,19.79,0,0,1-.57,5.4,34.09,34.09,0,0,1-2,6,4.42,4.42,0,0,1,4.06,3.2,16,16,0,0,1,.26,7.33,14.24,14.24,0,0,1,2.19-.08l.9.06c.55-8,1.34-20,1.37-25.43C129.86,67.29,131,54.52,125.64,48.68ZM92.18,24.29h8.5l.4-1.86h4.38l-.39,1.86h8.63L113,27.48h-8.64l-.43,2h7.45l-1.08,5.05q-.85,4.65-5.08,4.52h-1.73a13.23,13.23,0,0,0,5.54,5.85l-.63,2.92c-3.52-1.33-6-3-7.32-4.92L100,48.34H95.56L96.69,43a29.54,29.54,0,0,1-9.52,4.78l.62-2.92a29.25,29.25,0,0,0,8-5.85H90.1l2-9.57h7.44l.42-2H91.5Zm-2.57-1.07a25.57,25.57,0,0,1,.71,6.65H85.67a30.22,30.22,0,0,0-.58-6.65ZM81.1,46.35l2.29-10.77H80.87l.71-3.32H89L86.33,44.89q-.78,4.24,3.45,4.38h18.87L108,52.46H88.57q-4,0-5.07-2.39a10.46,10.46,0,0,1-6.31,2.79l.6-2.79A4.48,4.48,0,0,0,81.1,46.35ZM60.6,24H77.35l-.68,3.19a24.91,24.91,0,0,1-4.43,5.85h5.18L76.8,36q-2.92,7.46-7.27,11a10.5,10.5,0,0,0,4.93,3.06l-.65,3.06a25.67,25.67,0,0,1-7.42-3.86,77.78,77.78,0,0,1-8.55,4l.68-3.19a18.62,18.62,0,0,0,6-3.19,15.68,15.68,0,0,1-1.8-6.51Q60.21,47.15,53.11,53L54,49a28.45,28.45,0,0,0,4.13-7.58,85.5,85.5,0,0,0,3.21-12l.48-2.26H59.92ZM45.14,42.36a64.91,64.91,0,0,0,6.32-12.23H48.4l.71-3.32h3.06l.9-4.25h4.52l-.9,4.25h2.79l-.71,3.32H56A23.18,23.18,0,0,0,57.37,38l-1,4.78a1.55,1.55,0,0,0-.29-.53,16.16,16.16,0,0,1-1.8-4L51.09,53.13H46.57L49.26,40.5a40,40,0,0,1-5.08,6.38Zm1.74,75.82-9.19-3.36v-25a3.51,3.51,0,0,1-2.23.38,4.74,4.74,0,0,1-3.37-2.62,6.23,6.23,0,0,1-.51-2.31,32.63,32.63,0,0,1,.06-3.38c.07-1.22.18-2.4.31-3.56s.29-2.26.49-3.28.36-1.87.51-2.53l4.74,1.73V64.54l9.19,3.35V78a49.36,49.36,0,0,1,3.91,4.6,36.15,36.15,0,0,1,3,4.64L49,90.52c-.23-1.25-.52-2.49-.86-3.71a20.64,20.64,0,0,0-1.26-3.4Zm26.73,9.91a49.77,49.77,0,0,0-2.37-10.49A35.54,35.54,0,0,0,67,108.91a21.34,21.34,0,0,1-1.85,4.62,16.42,16.42,0,0,1-2.83,3.81,11.74,11.74,0,0,1-5.94,3.22,6.86,6.86,0,0,1-5.71-1.46,7.85,7.85,0,0,1-2-2.56,7.23,7.23,0,0,1-.66-3.61,11.43,11.43,0,0,1,1-4.21,11.25,11.25,0,0,1,2.4-3.43,9.45,9.45,0,0,1,7.25-2.57,14.72,14.72,0,0,0,.12-1.91V98.74l-9.6-3.49V91.73l9.6,3.5V82.43L51.05,79.6V76.09l7.77,2.83V72.24L68,75.59v6.69l6.57,2.39a8,8,0,0,1,3.94,3A7.59,7.59,0,0,1,80,92.06v10.88l2.22.81v3.51L68,102.08a25.57,25.57,0,0,1-.34,3.61,31.54,31.54,0,0,1,5.14,4.08A38.74,38.74,0,0,1,77.2,115a48.25,48.25,0,0,1,3.17,5.15,50.4,50.4,0,0,1,2.6,5.67ZM94.18,75c-4,9.26-5,41.05-5,41.05-.54-18.94-3.2-34.09-6.91-39.9S47.37,60.38,47.37,60.38l29,7.68c15.08,2.62,23.4-3.2,23.4-3.2,13.49-10,18.42-11.19,18.42-11.19C96.51,68.58,94.18,75,94.18,75Z"/></svg>