<svg id="Layer_1" data-name="Layer 1" xmlns="http://www.w3.org/2000/svg" xmlns:xlink="http://www.w3.org/1999/xlink" viewBox="0 0 156 156"><defs><style>.cls-1{fill:none;}.cls-2{clip-path:url(#clip-path);}.cls-3{fill:#2d69a9;}.cls-4{fill:#fff;}</style><clipPath id="clip-path"><rect class="cls-1" width="156" height="156"/></clipPath></defs><title>A_21.8 极速六合彩</title><g id="blue_circle" data-name="blue circle"><g class="cls-2"><g class="cls-2"><path class="cls-3" d="M156,78A78,78,0,1,1,78,0a78,78,0,0,1,78,78"/></g></g></g><path class="cls-4" d="M74.38,43c-.41-.47-.84-.91-1.28-1.33s-.9-.84-1.37-1.24A23.52,23.52,0,0,0,72.9,38a21,21,0,0,0,.89-2.68,1.52,1.52,0,0,0-.26-1.44,1.56,1.56,0,0,0-.76-.48,2.51,2.51,0,0,0-1.18,0l-2.34.38c.79-.87,1.48-1.67,2.06-2.43a20.53,20.53,0,0,0,1.52-2.23,1.09,1.09,0,0,0,.17-.66,1,1,0,0,0-.25-.6,1.37,1.37,0,0,0-.53-.37,1.58,1.58,0,0,0-.8-.05l-12.76,2v1.29l2-.32v9.2a13.49,13.49,0,0,1-.34,3,15.18,15.18,0,0,0-.42-2.47,12.57,12.57,0,0,0-1-2.75A7.38,7.38,0,0,0,58,35.94a2.59,2.59,0,0,0-1.27-.84V33.37l3-.47V31.6l-3,.47v-2.6l-4.14.65v2.61l-3.44.55v1.29L52.58,34v1.69l-.41.24-.38.24V35l-2,.32,0,2.94a7.24,7.24,0,0,0-.89,2.07c-.18.72-.31,1.42-.41,2.1a12.52,12.52,0,0,0-.07,2.19,7,7,0,0,0,.38,1.87.77.77,0,0,0,.41.42,1,1,0,0,0,.58.05,1.13,1.13,0,0,0,.53-.28,2.29,2.29,0,0,0,.43-.52A5,5,0,0,0,51.27,45c.12-.42.23-.84.31-1.26a11.52,11.52,0,0,0,.17-1.2c0-.37,0-.68,0-.93V36.86a9.18,9.18,0,0,1,.79-.56V48.67L56.72,48V36.14a3.26,3.26,0,0,1,.51,1.35c.13.64.23,1.36.31,2.15.05.49.09,1,.11,1.54s0,1,0,1.56,0,1,0,1.43,0,.87,0,1.23l2.14-1a12.53,12.53,0,0,1-1.86,3.15l.87.19a18.42,18.42,0,0,0,2.61-2.82,19.91,19.91,0,0,0,2-3.18,15.71,15.71,0,0,0,1.24-3.09,10.07,10.07,0,0,0,.43-2.77V29.71l3.24-.52a.31.31,0,0,1,.28.07.32.32,0,0,1,0,.28A19.92,19.92,0,0,1,67.46,32c-.44.8-.91,1.64-1.42,2.49v1.07l2.71-.43a.38.38,0,0,1,.35.1.34.34,0,0,1,.1.29c0,.52-.09,1-.16,1.45a13,13,0,0,1-.24,1.3,2.6,2.6,0,0,0-1.1-.55,2.91,2.91,0,0,0-1.21,0,1.94,1.94,0,0,0-.88.41,3.33,3.33,0,0,0-.67.73,4.41,4.41,0,0,0-.43.87c-.13.32-.23.64-.33,1s-.16.61-.21.88-.09.5-.12.69a8.28,8.28,0,0,0-.1,1.79A7.69,7.69,0,0,0,64,45.73a1.05,1.05,0,0,0,.43.62,1.53,1.53,0,0,0,.73.22,2.83,2.83,0,0,0,1.75-.64,19.32,19.32,0,0,0,2.61-2.41c.21.41.41.82.6,1.24s.36.83.53,1.25ZM67,42.64c-.39.61-.83,1.27-1.34,2a.51.51,0,0,1-.46.21.46.46,0,0,1-.44-.2,2.81,2.81,0,0,1-.3-1.06,7.35,7.35,0,0,1,.07-1.42,11.48,11.48,0,0,1,.33-1.46,9,9,0,0,1,.52-1.37A.63.63,0,0,1,65.8,39a.59.59,0,0,1,.55.12,9.25,9.25,0,0,1,.8.76,11,11,0,0,1,.81.94A15.79,15.79,0,0,1,67,42.64Zm-17.11-.3q0,1,0,1.86c0,.58-.07,1.13-.14,1.65a.22.22,0,0,1-.2.2.17.17,0,0,1-.22-.13,7.12,7.12,0,0,1-.17-1.36,12.6,12.6,0,0,1,0-1.5,16.53,16.53,0,0,1,.19-1.74,8.45,8.45,0,0,1,.51-1.73Z"/><path class="cls-4" d="M102.29,35.67c-.14-.29,6.7-1.08,6.7-1.08s-7.68-.13-7.95-.31a6.6,6.6,0,0,0-1.91-.82,7.92,7.92,0,0,0-1.73-.27,17.26,17.26,0,0,0-1.9,0V32l3.21-.51a3.42,3.42,0,0,0,1.86-.75,1.81,1.81,0,0,0,.59-1.43V28a1.17,1.17,0,0,0-.65-1.08,2.52,2.52,0,0,0-1.8-.26l-3.21.51V26l15.42-3.86L95.5,24.73V23.35l-4.36.7v1.37l-6.45,1v1.29l6.45-1v1.1l-5.78.92v4.88l5.78-.92v1.15l-.51.12a4.91,4.91,0,0,0-.51.15v-.61l-3.49.55c0,.24,0,.48,0,.73v.75a6.65,6.65,0,0,0-1.07.77,3.11,3.11,0,0,0-.73.89,2.78,2.78,0,0,0-.31.86,1.39,1.39,0,0,0,0,.79,1.09,1.09,0,0,0,.42.55,1.77,1.77,0,0,0,.93.22,4.14,4.14,0,0,0,1.23-.19,3.63,3.63,0,0,0,1.08-.53,3.9,3.9,0,0,0,.9-.92,5.48,5.48,0,0,0,.57-1A4,4,0,0,0,90,35.84c0-.38.08-.76.1-1.14a4.59,4.59,0,0,1,.51-.1l.51-.1V39l4.36-.69V34.16a5.91,5.91,0,0,1,.9.24,2.25,2.25,0,0,1,.76.45,2.74,2.74,0,0,1,.76,1.09,5,5,0,0,1,.34,1.56Zm-18.93-9A13.56,13.56,0,0,0,81.52,26a12,12,0,0,0-1.85-.38L77,28.42A20.63,20.63,0,0,1,79,29c.68.25,1.3.51,1.89.78a.21.21,0,0,1,.12.32.83.83,0,0,1-.35.4l.76.36a13,13,0,0,0,2.31-2,2.22,2.22,0,0,0,.44-.69,1.24,1.24,0,0,0,.07-.65,1.2,1.2,0,0,0-.85-.88Zm21.26,10.73s-3.88.47-4.71.65-1.7.34-2.58.48l-9.66,1.53a7.76,7.76,0,0,1-2,.12,4.37,4.37,0,0,1-.79-.18l-.76-.22V33a1.76,1.76,0,0,0-.12-.66,1.06,1.06,0,0,0-.36-.5,2.4,2.4,0,0,0-1.86-.31l-4.62.74v1.29l1.83-.29a.69.69,0,0,1,.51.1.4.4,0,0,1,.22.35v5.38a4.2,4.2,0,0,0-.93.22,2.94,2.94,0,0,0-.84.48,2.75,2.75,0,0,0-1.07,1.65,3.84,3.84,0,0,0-.09,1A2,2,0,0,0,77.65,44a2.65,2.65,0,0,0,1.09.42,4.74,4.74,0,0,0,1.55,0,5.46,5.46,0,0,0,1.5-.47A5.62,5.62,0,0,0,83,43.16a3.07,3.07,0,0,0,.79-1.07q.36.18.72.33a5.35,5.35,0,0,0,.74.25,6.57,6.57,0,0,0,1.44.23,7.17,7.17,0,0,0,1.69-.1l33.41-7.86Zm-7.57-7.46a.61.61,0,0,1-.21.43,1,1,0,0,1-.52.25l-.82.13V28.4l.82-.13a1,1,0,0,1,.52.05.35.35,0,0,1,.21.34Zm-5.91,1.5-1.64.26V29.35l1.64-.26Zm-4.82,7a.63.63,0,0,1-.53.46.61.61,0,0,1-.36,0,.33.33,0,0,1-.18-.29,1.91,1.91,0,0,1,.23-1.21,3.52,3.52,0,0,1,1.15-1.16,10,10,0,0,1-.31,2.24Zm-6.65,3.85a.94.94,0,0,1-.56.88,1.35,1.35,0,0,1-.69.14.89.89,0,0,1-.63-.22,1.42,1.42,0,0,1-.3-.43,1.23,1.23,0,0,1-.1-.61A1.9,1.9,0,0,1,78,40.69a2.12,2.12,0,0,1,.71-.42,2.71,2.71,0,0,1,1-.12Z"/><path class="cls-4" d="M112.93,25a3.76,3.76,0,1,1-3.75,3.76A3.75,3.75,0,0,1,112.93,25Z"/><path class="cls-4" d="M41,36.93a3.76,3.76,0,1,1-3.76,3.75A3.75,3.75,0,0,1,41,36.93Z"/><path class="cls-4" d="M23.7,61.07v8.29l33.81-3.93,2.14-8.54L45,58.6l-.12-1.27a9.42,9.42,0,0,0-.51-1.93A5.05,5.05,0,0,0,43,53.27a2.49,2.49,0,0,0-2-.71,3.48,3.48,0,0,0-2,1.2,6.45,6.45,0,0,0-1.35,2.31,11.58,11.58,0,0,0-.5,2c-.06.44-.11.95-.15,1.51Zm5.13,12-5,45.1,6.8-.79,5-45.1ZM51.21,115l6.78-.79L53,70.27l-6.78.79Z"/><path class="cls-4" d="M61.7,75.06v7.15l32.88-3.82L96.31,71Zm.65,37.84,26.55-3,6.51-8.64V83.11L62.35,87ZM89,102l-20.22,2.35v-11L89,91ZM74.79,51,61.37,70.58l9.17-1.06,8.57-12.29L87.3,67.54l9.07-1.06L83.44,50Z"/><path class="cls-4" d="M100.81,82.79l8.07-.94v27.94l5.72-4.64v-24l6.37-.74,2-8-8.32,1V70.57l-5.72.66V74.1l-8.07.94ZM121,52.94l1.64-8.59-21.86,5.17v8.36Zm-14.35,5.84-5.63.66,1.58,11.27,5.62-.65ZM113.4,58l-5.5.64,1.56,11.28,5.49-.64Zm8.73-1-5.43.63-1.17,11.59,5.42-.62Zm7.1,6.59L135.53,43l-6.08.7-6.72,20.63Zm0,20,6.3-19.54-6.08.71-6.72,19.59Zm.08,22.61,6.43-21.92-6.08.71-6.74,22Zm-22.82.59,1.87-22.43-5.44.63-2.36,22.49Zm16-1.76-1.89-22-5.33.62,1.43,22Z"/><polygon class="cls-4" points="97.58 121.87 113.73 118.34 94.25 120.18 92.65 116.87 118.07 111.85 91.96 115.43 91.83 115.18 90.54 120.59 84.99 121.32 89.78 124.21 88.77 129.68 93.01 126.06 97.94 128.71 97.17 126.88 106.01 123.63 96.36 124.97 95.78 123.58 97.58 121.87"/><polygon class="cls-4" points="77.63 123.82 83.89 121.5 74.07 122.35 72.87 119.87 87.91 116.18 71.78 117.59 71.65 117.34 70.36 122.75 64.81 123.48 69.6 126.38 68.59 131.85 72.83 128.22 77.76 130.87 77.12 129.36 82.36 126.52 76.3 127.41 75.6 125.74 77.63 123.82"/><polygon class="cls-4" points="57.49 125.94 63.6 123.67 53.88 124.51 52.69 122.06 64.99 118.82 51.59 119.78 51.46 119.5 50.17 124.91 44.62 125.64 49.4 128.54 48.39 134.01 52.64 130.39 57.56 133.04 56.95 131.58 62.33 128.44 56.11 129.59 55.41 127.9 57.49 125.94"/><rect class="cls-1" width="156" height="156"/></svg>