<svg id="Layer_1" data-name="Layer 1" xmlns="http://www.w3.org/2000/svg" xmlns:xlink="http://www.w3.org/1999/xlink" viewBox="0 0 156 156"><defs><style>.cls-1{fill:none;}.cls-2{clip-path:url(#clip-path);}.cls-3{fill:#2d69a9;}.cls-4{fill:#fff;}</style><clipPath id="clip-path"><rect class="cls-1" width="156" height="156"/></clipPath></defs><title>A_17 lucky20</title><g id="blue_circle" data-name="blue circle"><g class="cls-2"><g class="cls-2"><path class="cls-3" d="M156,78A78,78,0,1,1,78,0a78,78,0,0,1,78,78"/></g></g></g><path class="cls-4" d="M61.57,29.36a4.89,4.89,0,0,1-.09.77,5.27,5.27,0,0,1-.18.86l-4.54.5v1.09c-1.09-.55-2.3-1.24-3.63-2L51,33q2.36,1.51,3.63,2.48l2.18-2.6V43l3.09-.34v-.76l.73.85A20,20,0,0,0,62.94,41v1.19l2.72-.3V40.65l.36.13c.85.42,1.49.74,1.91,1l.82-1.1v1l3.18-.34V29.84l-6.9.75.54-1.41ZM56.13,46.5l5.63-.61c-.37.71-2.46,1.48-6.27,2.28a1.68,1.68,0,0,1,.27.39A9.67,9.67,0,0,1,57,50.28q5.64-1.37,7.18-3.3,1.82,1.58,7.17,1.58c.36-.71.82-1.55,1.36-2.51q-4.71.26-6.08-.69l5.81-.63V42.45l-6.54.71v-1l-3.45.38v1l-6.35.69Zm-3.91-2.79c-.66,2.95-1.18,5-1.54,6.25l3.36.48c.54-2.42,1.12-4.93,1.72-7.53l-3.27-.58q-.09.53-.27,1.38Zm14.35-8.39a6.38,6.38,0,0,1-.91.94V34.74l2.09-.39-.55-1.71c-1,.21-2.9.54-5.81,1l-.9.1c.18.6.33,1.18.45,1.72.66-.07,1.33-.17,2-.3v1.44l-1.37-1.12-1.36,1,1.09,1-1.09.12v2l1.91-.21a10.06,10.06,0,0,1-2.27,1.51v-7.6l8.9-1v7.43l-2-.88,1.63-.18v-2l-1.08.12,1.08-1.21L67,34.85l-.45.47ZM50.5,38.67A4.14,4.14,0,0,0,51,39c1.27.87,2.21,1.56,2.82,2.06l2.36-2.71c-.37-.24-.94-.6-1.73-1.08s-1.3-.84-1.72-1.08ZM65.66,40V39l1-.11Zm0-3v-.59l.82.5Zm-2.72-.3v.59l-.82.09Z"/><path class="cls-4" d="M78.83,36.44c-.18-.37-.49-.93-.91-1.67l-.73-1.27-3,1.5c.12.27.33.7.63,1.28l1.27,2.57,2.45-1.28a4,4,0,0,0-.18.44c-.18.42-.3.71-.36.89l2.27.68c.06-.29.18-.72.36-1.31.31-1.21.55-2.08.73-2.61V37.1a13,13,0,0,1-2.54,8.8c.91.58,1.81,1.21,2.72,1.9q3.27-4.06,3-10.79V35.23c.18.38.42.92.72,1.61s.52,1.33.64,1.71l.73-.33v7.51l3.17-.34V34.66c.19.43.43,1.08.73,2,.24.54.42,1,.55,1.29l.81-.42v8.61l3.27-.35V26.32l-3.27.35v7.68c-.42-.85-.81-1.68-1.18-2.49l-.91.44V27.57l-3.17.35v6.83a12,12,0,0,1-.46-1.13c-.24-.53-.42-.91-.54-1.12L84.55,33V27.38l-3.18.35V33.3L79.83,33c-.31,1.16-.64,2.32-1,3.48ZM74.2,47.33l3.27.41c.24-.87.54-2.09.9-3.65s.64-2.85.82-3.72L76,39.79a70.14,70.14,0,0,1-1.81,7.54Zm.36-18c.18.37.51,1,1,1.91s.72,1.56.91,1.93l3.27-1.62c-.25-.48-.7-1.27-1.37-2.38a13.35,13.35,0,0,0-.72-1.28Z"/><path class="cls-4" d="M33.26,67.76v4.09L20.9,73.29v8.18l8.92-1-3.18,1.9L28.55,87l-5.74.66v7.93l10.45-1.21V98.7l-12.61,1.47v8.44l12.61-1.47v8.7l5.6-.65v-8.7L51.47,105V96.59L38.86,98.05V93.71l10.57-1.23V84.55l-5.85.68,2-5.35L42.43,79l8.79-1V69.77L38.86,71.2V67.11L48.8,66V58.29l-9.94,1.15V54.07l-5.6.65v5.37l-9.94,1.15v7.68Zm6.88,11.48-2.42,6.67-3.32.39L32,80.18Z"/><path class="cls-4" d="M74.27,81.41,75,83.63c.42,1.31.72,2.3.89,3a24.93,24.93,0,0,0-2.93.6,13.75,13.75,0,0,0-3.06.61q1.65-4,4-10.69L83.7,76v-9.2L62.55,69.22v9.21L68,77.79a60.48,60.48,0,0,1-2.16,6.39,5.37,5.37,0,0,1-.26.8,19.82,19.82,0,0,1-2.93,5.19l1.91,8.48a1.47,1.47,0,0,0,.51-.32,13.61,13.61,0,0,1,3.82-1.21q5.73-1.17,9.43-1.86L79.49,99l4.33-5.36Q81.15,85,78.22,77.12Zm-13,14.3v-24l-8,.93v10l2.93-.34V96.81q-1.53,2.47-3.06,5.21L55,113.56a90.62,90.62,0,0,1,4-8.89q2.16,5.88,7.13,5.56l6.75-.27,9.94-1.15c.5-3.81,1-7,1.52-9.64q-6,.94-16.94,2.22-4.32.26-6.11-5.68Zm2.93-32.56L82,61.08V51.87L64.21,53.94ZM54,56.4q2,6.42,2.93,9.38c.42,1.48.76,2.64,1,3.46l4.58-5.65c-.34-1-.85-2.45-1.52-4.42Q59.25,54,58.22,51.31Z"/><path class="cls-4" d="M104.06,121.13l-4.3-2.33L96.05,122l.88-4.8-4.18-2.54L97.6,114l1.13-4.74,2.11,4.4,4.88-.4-3.55,3.36Z"/><path class="cls-4" d="M86.43,122.81l-4.3-2.32-3.71,3.18.88-4.8-4.18-2.54,4.85-.64,1.13-4.75,2.11,4.4,4.87-.39-3.54,3.36Z"/><path class="cls-4" d="M68.78,124.71l-4.3-2.32-3.71,3.17.88-4.79-4.17-2.54,4.84-.64,1.13-4.75,2.12,4.4,4.87-.39-3.54,3.36Z"/><path class="cls-4" d="M90.6,103.6,88,95l12.77-28.59c1.23-2.86,1.55-4.72.82-7.14-1.18-3.89-4.28-5.85-8.34-4.63-3.18,1-5.94,3.54-4.4,8.61l-9.6,2.88C76.34,56.58,81.62,48.74,90.63,46c9.31-2.79,17.72,1,20.57,10.42,1.54,5.07.37,8.39-2,13.66L99.66,91.5,120,85.41l2.61,8.6Z"/><path class="cls-4" d="M132.92,50.26c-3-10-12.11-13.36-20.68-10.79a17.84,17.84,0,0,0-8.83,5.74,17.2,17.2,0,0,1,7.24,6.51,6.32,6.32,0,0,1,4.2-3.65c3.77-1.13,7.18.81,8.51,5.22L130,75.11c1.34,4.41-.45,7.83-4.21,9s-7.23-.72-8.57-5.13l-4.38-14.43A40.85,40.85,0,0,1,110.7,70l-4,8.92.9,3a17.41,17.41,0,0,0,3.3,6.24L121.41,85l2.53,8.45a19.11,19.11,0,0,0,4.43-.79c8.57-2.57,14.26-10.37,11.23-20.36Z"/><rect class="cls-1" width="156" height="156"/></svg>