<svg id="Layer_1" data-name="Layer 1" xmlns="http://www.w3.org/2000/svg" xmlns:xlink="http://www.w3.org/1999/xlink" viewBox="0 0 156 156"><defs><style>.cls-1{fill:none;}.cls-2{clip-path:url(#clip-path);}.cls-3{fill:#2d69a9;}.cls-4{fill:#fff;}</style><clipPath id="clip-path"><rect class="cls-1" width="156" height="156"/></clipPath></defs><title>A_19 福彩</title><g id="blue_circle" data-name="blue circle"><g class="cls-2"><g class="cls-2"><path class="cls-3" d="M156,78A78,78,0,1,1,78,0a78,78,0,0,1,78,78"/></g></g></g><path class="cls-4" d="M41.59,89V84.55l-3.84-4.22,5.77,3.46V89Z"/><path class="cls-4" d="M79.36,113.24V112H68.1v1.22Zm-.77,4.35v-1.47a1.51,1.51,0,0,0-.16-.71,1.46,1.46,0,0,0-.43-.53,2,2,0,0,0-1.29-.45H69.2v4.78h7.51a1.9,1.9,0,0,0,1.23-.43,1.81,1.81,0,0,0,.47-.52,1.27,1.27,0,0,0,.18-.67Zm.77,9.29v-4.63a1.43,1.43,0,0,0-.15-.64,2.46,2.46,0,0,0-.38-.57,2.66,2.66,0,0,0-.66-.48,1.55,1.55,0,0,0-.75-.21H68.59v1.12a3.6,3.6,0,0,0-.56-.73c-.21-.19-.44-.38-.67-.57a11.23,11.23,0,0,0,.69-1.77c.18-.63.32-1.23.43-1.79a2.22,2.22,0,0,0,0-.72,1.24,1.24,0,0,0-.25-.56A1.58,1.58,0,0,0,67,114.9h-.45a.88.88,0,0,0,.33-.57,1,1,0,0,0,0-.39,2.1,2.1,0,0,0-.19-.43c-.08-.14-.16-.31-.25-.49s-.19-.36-.29-.54-.19-.34-.29-.5a3.64,3.64,0,0,0-.29-.41L63,112.9l1.15,2h-2v1.22h2.9q.23,0,.27.15a.87.87,0,0,1,0,.32c-.05.36-.14.81-.27,1.34a11.29,11.29,0,0,1-.42,1.44,4.44,4.44,0,0,0-.84.08,2.18,2.18,0,0,0-.78.33,2.47,2.47,0,0,0-.7.67,3.09,3.09,0,0,0-.46.88,2.27,2.27,0,0,0-.1,1,1.62,1.62,0,0,0,.31.81,1.28,1.28,0,0,0,.69.49,1.64,1.64,0,0,0,1-.05v5.68h3.06v-6.94q.22.5.45,1.11a10.3,10.3,0,0,1,.35,1.3l.86-1.66v6h8.75a1.74,1.74,0,0,0,.82-.19,2.64,2.64,0,0,0,.65-.49,2.16,2.16,0,0,0,.55-1.47Zm-3.67-9.29a.36.36,0,0,1-.17.29.56.56,0,0,1-.34.12h-3v-2.35h3a.59.59,0,0,1,.36.11.41.41,0,0,1,.15.34Zm.67,6.47H75.3v-2.49h.43a.64.64,0,0,1,.45.16.53.53,0,0,1,.18.4Zm-3.73,0H71.57v-2.49h1.06Zm3.73,3.17a.51.51,0,0,1-.21.42.73.73,0,0,1-.46.17H75.3v-2.55h1.06Zm-3.73.59H71.57v-2.55h1.06Zm-8.82-6.2a6,6,0,0,1-.67,1,.49.49,0,0,1-.42.22.36.36,0,0,1-.32-.22,1.24,1.24,0,0,1-.06-.88,2,2,0,0,1,.69-1.23,1.66,1.66,0,0,1,1.31-.2A8.22,8.22,0,0,1,63.81,121.62Z"/><path class="cls-4" d="M99,116.51a2,2,0,0,0-.51-.78,2.59,2.59,0,0,0-.92-.55,12.67,12.67,0,0,0,.79-1.56,15.06,15.06,0,0,0,.62-1.76H95.49c-.08.5-.19,1-.33,1.54a13.46,13.46,0,0,1-.55,1.58,4.27,4.27,0,0,0-.84.2,4.83,4.83,0,0,0-.81.35,2.38,2.38,0,0,0-1,1,1.37,1.37,0,0,0-.11.8,1.13,1.13,0,0,0,.4.71,1.77,1.77,0,0,0,.71.3,2.1,2.1,0,0,0,.9,0,2.4,2.4,0,0,0,.59-.22,6.89,6.89,0,0,0,.62-.38,6.07,6.07,0,0,0,.57-.43c.19-.15.34-.28.47-.4a1.86,1.86,0,0,1-.05.9c-.1.3-.19.61-.3.93a9.46,9.46,0,0,1-.37,1,5.22,5.22,0,0,0-1,.08,3.51,3.51,0,0,0-.93.31,2.71,2.71,0,0,0-.84.57,2.24,2.24,0,0,0-.57.84,1.64,1.64,0,0,0-.14,1,1.39,1.39,0,0,0,.35.73,1.51,1.51,0,0,0,.87.45,1.87,1.87,0,0,0,1.13-.15,8.28,8.28,0,0,0,1.12-.62,8.07,8.07,0,0,0,1-.81,2.48,2.48,0,0,1-.59,1.62c-.37.49-.74,1-1.12,1.41s-.78.88-1.21,1.3-.9.83-1.41,1.24a18.91,18.91,0,0,1-1.71,1.23l.28.63c.94-.32,1.83-.66,2.67-1a17.28,17.28,0,0,0,2.34-1.25A12,12,0,0,0,97.29,126a8.24,8.24,0,0,0,1.2-1.32,3.69,3.69,0,0,0,.62-1.41A2.72,2.72,0,0,0,99,121.8a2.61,2.61,0,0,0-.42-.79,3.19,3.19,0,0,0-.68-.64,7.92,7.92,0,0,0,.69-1.19,6,6,0,0,0,.43-1.32,3,3,0,0,0-.08-1.35Zm-7.29-2.88-2.94-2.06c-.42.2-.86.38-1.32.56l-1.49.54c-.59.18-1.21.36-1.87.54s-1.39.33-2.19.48l.14.68c.84,0,1.67,0,2.5,0s1.64-.06,2.44-.13,1.69-.15,2.48-.26,1.54-.24,2.25-.38Zm0,2.2a1.37,1.37,0,0,0-.23-.73,1.13,1.13,0,0,0-.36-.36,1.67,1.67,0,0,0-.5-.19,1.57,1.57,0,0,0-.57,0,.91.91,0,0,0-.49.26c-.26.29-.51.56-.73.82a8.83,8.83,0,0,0-.6.73.14.14,0,0,1-.11,0s-.08,0-.11-.08-.1-.31-.16-.51l-.15-.57a.62.62,0,0,0-.25-.35.88.88,0,0,0-.4-.17.81.81,0,0,0-.8.21,14.59,14.59,0,0,0-1.3,1.53.17.17,0,0,1-.13.08.12.12,0,0,1-.14-.06c-.07-.22-.13-.47-.19-.74s-.1-.56-.14-.85l-2.38.85c.07.48.16,1,.27,1.43a7,7,0,0,0,.38,1.19.67.67,0,0,0,.31.35.73.73,0,0,0,.48.08,1.34,1.34,0,0,0,.43-.16,1.27,1.27,0,0,0,.37-.39,9,9,0,0,1,.53-.78c.19-.26.38-.51.57-.74a.09.09,0,0,1,.12,0c.06,0,.1,0,.11.08,0,.21.11.41.16.6a4.32,4.32,0,0,0,.21.6.81.81,0,0,0,.73.45,1.19,1.19,0,0,0,.4-.08.9.9,0,0,0,.36-.25l.85-1q.39-.5.78-.93a.06.06,0,0,1,.09,0,.08.08,0,0,1,0,.09c-.13.38-.27.74-.4,1.09s-.29.7-.44,1l2.33.81c.18-.36.35-.73.51-1.12s.3-.82.43-1.27A3.13,3.13,0,0,0,91.64,115.83ZM92,127.07a8.45,8.45,0,0,0-.68-2.06,7,7,0,0,0-1.22-1.78,2.72,2.72,0,0,0-.76-.6,5.49,5.49,0,0,0-.89-.4v-1.17h3.39v-1.22H88.47v-1.17h-3v1.17H81.86v1.22h3.63v1.11l-.3.09a2.8,2.8,0,0,1-.31.09c0-.12,0-.24,0-.36s0-.26,0-.4H82.81c0,.26,0,.55,0,.88s0,.68,0,1.06a4.42,4.42,0,0,0-1.06,1.64,5.17,5.17,0,0,0-.26,1,5.59,5.59,0,0,0,0,1.09c0,.6.26,1,.63,1.12a1,1,0,0,0,.76,0,1.61,1.61,0,0,0,.63-.48,3.76,3.76,0,0,0,.43-.68,7.51,7.51,0,0,0,.34-.77c.09-.26.16-.51.22-.74s.1-.42.13-.58c.06-.41.12-.8.16-1.16s.07-.74.09-1.15a6.48,6.48,0,0,1,.63-.18v6.59h3v-5.63a3.88,3.88,0,0,1,.51,1.2,12.23,12.23,0,0,1,.27,1.78,14,14,0,0,1,0,1.59Zm1.77-10.53a6.26,6.26,0,0,1-.63.81.54.54,0,0,1-.38.18.48.48,0,0,1-.33-.12.49.49,0,0,1-.16-.27.65.65,0,0,1,.06-.38,2.18,2.18,0,0,1,.34-.44,2.54,2.54,0,0,1,.56-.44,2.3,2.3,0,0,1,1.08-.29A10.72,10.72,0,0,1,93.79,116.54Zm.56,5.06a5.35,5.35,0,0,1-.88,1,.59.59,0,0,1-.45.18.61.61,0,0,1-.39-.13.68.68,0,0,1-.18-.8,2.12,2.12,0,0,1,.94-1.14,3.6,3.6,0,0,1,.84-.35,1.82,1.82,0,0,1,.89,0A11.57,11.57,0,0,1,94.35,121.6Zm-11.63,4.31a10,10,0,0,1-.17,1.36.88.88,0,0,1-.13.37.32.32,0,0,1-.18.14c-.17,0-.28-.09-.32-.35a3.43,3.43,0,0,1,.12-1.67c.09-.27.2-.54.32-.81a4.56,4.56,0,0,1,.45-.74C82.78,124.8,82.75,125.37,82.72,125.91Z"/><path class="cls-4" d="M65,31.89l13.07-8.26a3,3,0,0,1,3.65.19l12.5,8.26-9.42-4S82,26.32,81.76,29.78L80.61,95.7,78.5,29.59a2.06,2.06,0,0,0-3.08-1.73Z"/><path class="cls-4" d="M87.14,36.7l2.12-1.35.38,59.39,26,8.84s3.89.86,5.57.19a16.08,16.08,0,0,1-9.41,0L87.91,95.89Z"/><path class="cls-4" d="M28.91,104.35,28.33,113s-.53,2,3.08,2.69l27.48,5.19-22.68-6.53,41.52-10.19a7.48,7.48,0,0,1,3.65,0l40.17,10.57-19.61,5.77,27.1-4.81s1.88-.43,1.93-3.65v-9.61l-2.89,8.65s-1,2-4.23,1.34l-41.32-11s-.86-.92-6.73.57l-38.44,9.81-3.65,1s-3.07.67-3.46-1.54Z"/><path class="cls-4" d="M71,37.66a12.81,12.81,0,0,1,1.35,6v12.1a21.9,21.9,0,0,1-3.27,6.73l3.07,2.31a14.12,14.12,0,0,1,1.16,6s.23,11.75-.58,16a16.81,16.81,0,0,1-8.65,10.57l-21.14,7.69a12.22,12.22,0,0,1-5.58.38s2.31,1.84,6.16.58l20.75-7.11s9.5-3.39,10.38-13.26c0,0,.62-9.66.39-14.8,0,0,0-5.28-4-7.69,0,0,3.43-4.93,3.46-9.23V44.19S73.92,39.66,71,37.66Z"/><path class="cls-4" d="M105.4,50,106,80.52l16.91,7.3s2.32.88,2.31-2.3L124.62,67a10.35,10.35,0,0,0-5.19-8.58Zm15.38-2.88c11,6.84,11.34,17.29,11.34,17.29l1.15,29.22c.32,9.28-7.3,7.88-7.3,7.88l-29.22-11L95.6,32.66l1.54-.58Z"/><path class="cls-4" d="M30.06,67.45l7.11-4.23.19-4.42s-.91-3.09,5.39-6.73l10.76-6.53S57,43.94,57,47.27v6.15A9.26,9.26,0,0,1,52.16,60l-9.41,5v8.26l1.53.58,9.81-5.38s3.46-1.69,3.46,1.73v7.3s-.34,4-3.85,5.58L39.86,89.17s-3.46,1.29-3.46-1.92V82.44L35.25,80.9l-7.3,4v9.8s.48,9.5,7.68,6.92l22.88-8.84a15.87,15.87,0,0,0,9.41-15V65.14S67.3,60,61.2,60c0,0,5-6,5.76-9a41.58,41.58,0,0,0,.39-8.26s-.2-7.57-2.89-9.61c0,0-3.12-2.13-5.76-.58L37.56,45.15a16.28,16.28,0,0,0-7.5,11.34l-1,10.19Z"/><rect class="cls-1" width="156" height="156"/></svg>