<svg id="Layer_1" data-name="Layer 1" xmlns="http://www.w3.org/2000/svg" xmlns:xlink="http://www.w3.org/1999/xlink" viewBox="0 0 156 156"><defs><style>.cls-1{fill:none;}.cls-2{clip-path:url(#clip-path);}.cls-3{fill:#2d69a9;}.cls-4{fill:#fff;}.cls-5{isolation:isolate;}</style><clipPath id="clip-path"><rect class="cls-1" width="156" height="156"/></clipPath></defs><title>A_27 极速百家乐</title><g id="blue_circle" data-name="blue circle"><g class="cls-2"><g class="cls-2"><path class="cls-3" d="M156,78A78,78,0,1,1,78,0a78,78,0,0,1,78,78"/></g></g></g><polygon class="cls-4" points="54.15 110.49 48.45 111.27 48.45 113.43 55.81 112.42 55.81 72.33 54.15 72.56 54.15 110.49"/><path class="cls-4" d="M55,58.9v5l-13,1.78-1.23,5L39,70.89l1.62-6.63,13-1.77V55.35l-36.49,5v7.14l14.71-2-.39,1.62L20.2,68.64V70.8L31,69.33l-.66,2.75L18,73.76v40.09l24.72-3.38,2.65-7.28-17,2.32V99.69l17-2.32v11l-1.27,3.47L21.08,115v2.16l24.72-3.38,1-2.71v-1.16l6-.82V69L43,70.34l.68-2.75,13-1.78V58.67ZM26.78,97.75v8l-1.38.19V96.37l20-2.74V95.2Zm1.66-8.94V83l17-2.32v5.82Zm17-10.31L26.78,81.05v8l-1.38.19V79.67l20-2.74Z"/><path class="cls-4" d="M70.22,111s.64-1.87,2-.27a1.34,1.34,0,0,0-1.25-1A1.2,1.2,0,0,0,70.22,111Z"/><path class="cls-4" d="M87.55,124.59a6.85,6.85,0,0,1-1.68,3.79s1.08-.33,2.09-2.72S87.55,124.59,87.55,124.59Z"/><path class="cls-4" d="M74.87,110.88,80.08,115l2.75-2a6.82,6.82,0,0,0-2.46,3.24Z"/><path class="cls-4" d="M77.43,105.18l.39,3.34,3,2.85-3.93-2.26Z"/><path class="cls-4" d="M118.8,107.26a15.63,15.63,0,0,0,3.69,1l-2.6-1-1.42-.71.75-.83c.43-.52.06-.69.06-.69a2.52,2.52,0,0,0-1.31-.52l-2.34.32-7-3.73s-1.4-.77-5.33-.77a16.48,16.48,0,0,1,6.33,1.73S117.18,106.54,118.8,107.26Z"/><path class="cls-4" d="M75.66,109.7l-.49,1.18,1.08,1.27,3.34-.1.59,1.58s.58.57,1.47-.49l-.79-2s-.36-1.72-1.67-1.77Z"/><path class="cls-4" d="M112.3,110s4.89,2.47,7,5.21a18.86,18.86,0,0,0-6.19-5.6l-1.17-.59-1.48.2Z"/><path class="cls-4" d="M118.59,107.83a12.84,12.84,0,0,1,1.08,7.17s-1.29,1.79-5,2.85c0,0,3.77-.28,5.89-2.36C120.55,115.49,121,110.83,118.59,107.83Z"/><path class="cls-4" d="M95.7,122.27l10.9.59L120,120.8a69.51,69.51,0,0,0,6.48-3.34s-.89-5-2.94-7.66c0,0,3.62,3,3.73,10.9a6.2,6.2,0,0,0-1-2.16l-6.09,3L107,123.65l-11.1-.89Z"/><path class="cls-4" d="M97.46,111a74.1,74.1,0,0,1,3.93,6.68,24.09,24.09,0,0,0-3.24-6.87Z"/><path class="cls-4" d="M96.88,116.28a13.3,13.3,0,0,1,4,2.45l8.25.3,1-1.18,3.14-.49-3.83.1-.88.68h-7.18Z"/><path class="cls-4" d="M81.75,116.87s0-2.78,1.47-3c0,0,2.36-.19,3.83,4.62l8.74,3.73-9.62-3s-1.35-3.82-3-4.32c0,0-.62,0-.78,1.28Z"/><path class="cls-4" d="M82,125.91l-5.62-3s-1.53-.72-2.45-4.18a45.74,45.74,0,0,1-.65-7.18c-.09-1.41-2.91-1.61-3-3.15,0-.39-.17-1,.32-1.36A50.3,50.3,0,0,1,82,102.33s10.62-2,16.9-1.87c0,0-11.73,1.34-16.7,2.56a3,3,0,0,1,2.16,1.37l2.36,7a84.89,84.89,0,0,1,8,3.73s-7-2.3-9.43-3l-1.77-6s-.74-2.8-4.12-2.16c0,0-2.7.66-7.33,3.91l2.32,2.67a17.17,17.17,0,0,0,.69,5.21,46.55,46.55,0,0,0,6,7.56l-3.93-2.85-2.54-4,.25,3,1.6,2.86Z"/><path class="cls-4" d="M82.44,119.13s1-2,3.14-.3a2,2,0,0,0-2-1.08A1.45,1.45,0,0,0,82.44,119.13Z"/><path class="cls-4" d="M90.88,128.85l-.68.49-4.92.4s-2-.36-3.43-4-.5-2.26-.5-2.26,1.77,5.14,3.93,5.11l5.21-.4Z"/><path class="cls-4" d="M82.44,126.2l.49-2.16,1.27-1.18-1.47-.1-1.38-1.47a.36.36,0,0,1,.5-.3l1,1.18,1.47.2V122l-.29-.3-2.36-1.87s-.22-.48.49-.29L84,120.8l-.69-1.08-.1-3,.49.49.1,2.26.69.88L84.2,117l.49.39.3,2.75.1.79.29-.3,1-.29.1.29-.78.49-.1.3-.2.29a1.34,1.34,0,0,1,.3,1.08l.29.2.89-.69.09.59-.88.69v.69l.79,2.25v.59l-1.48-2.45-.19-.89-.1,1.67,1.37,2.46s-.2.52-.59,0l-1.27-2.16-.49,1.47-.5.49-.19-.29.59-2,.49-1.86-1,.78-.3,1.77-.49.39Z"/><path class="cls-4" d="M85.77,118.14s-1-1.85-2.75-1.37c0,0-1.48.41-1.67,4.22,0,0-.76-3.55,1.67-4.81,0,0,0-.54,2.56.59Z"/><path class="cls-4" d="M74.62,119.89l.11.46-2.69.26s-1.3-.33-2.2-3.69-.31-2.07-.31-2.07,1.12,4.71,2.51,4.68l2.15-.3Z"/><path class="cls-4" d="M70.22,117.37l.31-2,.82-1.07-.95-.09-.87-1.35s0-.38.31-.27l.63,1.08.94.18v-.36l-.19-.27-1.51-1.71s-.14-.45.32-.27l1.19,1.17-.44-1-.06-2.7.31.45.06,2.07.44.81-.18-3.15.31.36.19,2.52.06.72.19-.27.63-.27.06.27-.5.45-.07.27-.12.27a1.57,1.57,0,0,1,.19,1l.19.18.56-.63.06.54-.56.62v.63l.5,2.07v.54l-.94-2.25-.13-.81-.06,1.53.88,2.25s-.13.47-.38,0l-.81-2-.32,1.35-.31.45-.13-.27.38-1.8.31-1.71-.62.72-.19,1.62-.32.36Z"/><path class="cls-4" d="M72.55,110.12s-.8-1.85-2.21-1.38c0,0-1.2.41-1.35,4.23,0,0-.61-3.56,1.35-4.82,0,0,.6-.31,2,.59Z"/><path class="cls-4" d="M90,116.28l.1.39,3.73,3,5.11.49a13.43,13.43,0,0,0,1.47-1.47Z"/><path class="cls-4" d="M124,111.47s-2.41,3.4-3,4.12l1.67,1.08a13.32,13.32,0,0,0,2.46-1.67A10.57,10.57,0,0,0,124,111.47Z"/><path class="cls-4" d="M102.67,102s-10.77,1.24-17.48,2.46c0,0-.79.09-.69.59l2,6.48,9.33-.29,3.34-5-2.06,4.91,2.46-.2Zm.66,0,3.37-.19a6.31,6.31,0,0,1,1.18.33,11.51,11.51,0,0,1,0,2.42s.93-2,1.14-1.94a72.18,72.18,0,0,1,8.39,5l-5.9,1.77s-6.3.76-10.31,1.28Z"/><path class="cls-4" d="M127.12,121.05v1.67l-3.44,1.38-4.62-1.36-1,.39,2.16,1.08-2.16.79-7.85,1.29-4.22.4,1.76-1.47v-.59h-.39l-5.6,3.15-7.85.41-1.58-1.66A9.65,9.65,0,0,1,96,122.78l-.3-.49s-7-1.6-9.43-2.43a49.29,49.29,0,0,1,1.39,7.66l.29,1.08,6.19.67,8.94-.41,1.38-1,5.2-.31L120,125.88l2.85-1.19,1.47.39,3.64-1.48a1.12,1.12,0,0,0,.09-1.37A8.68,8.68,0,0,0,127.12,121.05Z"/><polygon class="cls-4" points="83.39 100.72 83.73 100.63 85.98 100.28 83.39 88.94 83.39 100.72"/><path class="cls-4" d="M78.33,102.18l2-.66V76.64l-2.43-4.38,13.46-1.84V66l2.8-.38v-13l-14.64,2V50.85l-7.36,1v3.75l-14.64,2v13l2.8-.38v4.42l9.82-1.35A31,31,0,0,1,58,79.18v7.95c6.1-1.21,11.84-4.49,14.82-7.7l.66,1.09A35,35,0,0,1,58,89v7.87a38.07,38.07,0,0,0,15.92-8.43v1.4A34.63,34.63,0,0,1,58,98.75v7.87c5.84-1.39,12.54-5.1,15.92-8.36v2.59A40.79,40.79,0,0,1,61,107.55v2.39a39.5,39.5,0,0,0,10.54-4.42l2.18-1.39ZM64.64,67.24V63.56l22.22-3V64.2Z"/><polygon class="cls-4" points="83.39 88.94 85.98 100.28 91.13 99.48 94.71 99.25 93.55 94.53 97.11 76.02 95.03 76.31 91.89 92.59 93.42 98.83 92.42 98.97 90.5 91.21 94.06 72.73 94.43 72.67 94.43 69.33 97.22 68.94 97.22 55.92 95.56 56.15 95.56 67.01 92.77 67.39 92.77 72.88 89.03 73.39 87.78 79.81 86.31 73.76 80.13 74.61 81.73 81.65 81.73 101.16 83.39 100.72 83.39 88.94"/><polygon class="cls-4" points="135.28 93 134.37 98.33 129.91 98.94 130.18 101.07 136.03 100.27 137.32 92.74 135.28 93"/><polygon class="cls-4" points="135.85 70.35 134.19 70.58 134.19 75.04 120.69 76.88 120.69 101.82 114.39 102.69 115.93 103.42 120.06 103.9 120.17 104.06 122.35 103.76 122.35 78.82 135.85 76.97 135.85 70.35"/><polygon class="cls-4" points="108.99 100.11 110.87 84.51 108.94 84.78 107.2 99.27 107.28 99.29 108.99 100.11"/><polygon class="cls-4" points="134 91.03 135.11 90.88 133.94 81.36 132.54 81.55 133.52 89.52 132.32 89.68 131.01 78.89 124.87 79.73 127.14 97.75 132.99 96.95 134 91.03"/><polygon class="cls-4" points="105.68 99 107.72 82.07 101.61 82.9 100.25 94.07 98.34 94.33 99.16 99.05 105.17 98.9 105.68 99"/><polygon class="cls-4" points="119.3 100.44 119.3 75.5 132.8 73.65 132.8 67.03 122.35 68.46 122.35 62.93 120.69 63.16 120.69 68.69 119.3 68.88 119.3 59.61 112.68 60.52 112.68 69.78 109.51 70.22 109.51 58.73 133.24 55.48 135.44 48.27 133.09 48.59 131.57 53.55 107.85 56.79 107.85 70.45 106.47 70.64 106.47 55.41 130.19 52.16 132.4 44.94 100.03 49.37 100.03 78.14 112.68 76.41 112.68 77.98 103.07 79.29 103.07 81.46 112.68 80.14 112.68 95.24 109.96 95.61 111.57 101.34 111.83 101.46 119.3 100.44"/><polygon class="cls-4" points="111.83 101.46 111.57 101.34 111.61 101.49 111.83 101.46"/><g class="cls-5"><path class="cls-4" d="M48.47,29.45l.63-3,2.72-.36.81-3.89,4-.53-.8,3.89,2.48-.33-.63,3-2.48.33a19.33,19.33,0,0,0,1.23,6.82l-.9,4.38a1.19,1.19,0,0,0-.26-.44A13,13,0,0,1,53.68,36L50.86,49.61l-4,.53,2.39-11.56a43.51,43.51,0,0,1-4.52,6.28l.86-4.14A68.47,68.47,0,0,0,51.2,29.09Zm8.4,19.48L57.48,46a19.64,19.64,0,0,0,5.33-3.54,12.64,12.64,0,0,1-1.6-5.59Q59,43.21,52.66,49.25l.76-3.65a29.77,29.77,0,0,0,3.68-7.23,85.18,85.18,0,0,0,2.86-11l.43-2.07-1.66.22.6-2.92,14.91-2-.6,2.92a26.11,26.11,0,0,1-4,5.73l4.62-.61-.56,2.68A28.05,28.05,0,0,1,67.28,42a7.87,7.87,0,0,0,4.39,2.14l-.57,2.8a19.48,19.48,0,0,1-6.61-2.56A79.48,79.48,0,0,1,56.87,48.93Zm7-21.63A71.58,71.58,0,0,1,62,34.52l2.84-.37a15.38,15.38,0,0,0,.85,5.33,24.87,24.87,0,0,0,4-7.63l-4.14.55.55-2.68a24.39,24.39,0,0,0,3.24-5.63l-5,.65Z"/><path class="cls-4" d="M74.1,46.3l.53-2.56a4.76,4.76,0,0,0,3-3.7l2-9.85-2.24.29.63-3,6.62-.87L82.24,38.12c-.46,2.59.57,3.75,3.07,3.5l16.81-2.22-.61,2.92L84.24,44.6q-3.55.48-4.52-1.53A10.82,10.82,0,0,1,74.1,46.3Zm7.55-21.47A26.34,26.34,0,0,0,81.14,19l4-.53a21.89,21.89,0,0,1,.64,5.83ZM86.84,22l.6-2.92,7.58-1,.35-1.7,3.9-.51-.35,1.7,7.69-1-.6,2.92-7.69,1-.38,1.82,6.63-.87-1,4.62q-.77,4.24-4.52,4.62l-1.54.2a9.66,9.66,0,0,0,4.92,4.56l-.55,2.68c-3.14-.77-5.32-1.94-6.52-3.52l-1,5-3.91.51,1-4.86A31.38,31.38,0,0,1,83,40.63L83.54,38a31.47,31.47,0,0,0,7.14-6.15l-5.08.67,1.81-8.76L94,22.84,94.41,21Zm3,7.05,3-.39.63-3-3,.39Zm10.45-4.34-3,.39-.63,3L98.15,28A1.85,1.85,0,0,0,100,26.19Z"/></g></svg>