<svg id="Layer_1" data-name="Layer 1" xmlns="http://www.w3.org/2000/svg" viewBox="0 0 156 156"><defs><style>.cls-2{clip-path:url(#clip-path)}.cls-3{fill:#386db6}</style><clipPath id="clip-path"><path fill="none" d="M0 0h156v156H0z"/></clipPath></defs><g class="cls-2"><g class="cls-2"><path class="cls-3" d="M78 2.4A75.6 75.6 0 1 1 2.4 78 75.68 75.68 0 0 1 78 2.4M78 0a78 78 0 1 0 78 78A78 78 0 0 0 78 0"/></g></g><path class="cls-3" d="M72.93 52.9c-.47-.52-1-1-1.45-1.5s-1-.95-1.55-1.4a25.62 25.62 0 0 0 1.32-2.74 23.4 23.4 0 0 0 1-3A1.73 1.73 0 0 0 72 42.6a1.86 1.86 0 0 0-.86-.55 2.92 2.92 0 0 0-1.34 0l-2.65.42c.9-1 1.67-1.89 2.33-2.74a23.13 23.13 0 0 0 1.72-2.53 1.15 1.15 0 0 0 .19-.75 1.12 1.12 0 0 0-.28-.67 1.51 1.51 0 0 0-.59-.42 1.79 1.79 0 0 0-.91-.05l-14.47 2.24V39l2.29-.36v10.42a15.3 15.3 0 0 1-.38 3.44 17.67 17.67 0 0 0-.48-2.8 14.81 14.81 0 0 0-1.11-3.11 7.9 7.9 0 0 0-1.09-1.67 3 3 0 0 0-1.43-1V42l3.35-.54V40l-3.35.53v-2.94l-4.69.74v3l-3.88.61v1.47l3.88-.62v1.91l-.46.26-.43.28v-1.38l-2.26.36v3.32a8 8 0 0 0-1 2.34 22.19 22.19 0 0 0-.47 2.38 13 13 0 0 0-.07 2.48 7 7 0 0 0 .44 2.11.89.89 0 0 0 .46.49 1.1 1.1 0 0 0 .65 0 1.47 1.47 0 0 0 .61-.31 2.46 2.46 0 0 0 .47-.6 5.12 5.12 0 0 0 .56-1.28 14 14 0 0 0 .35-1.42 10.07 10.07 0 0 0 .19-1.36V46a9.1 9.1 0 0 1 .89-.64v14l4.69-.74V45.15a3.67 3.67 0 0 1 .57 1.52 21.65 21.65 0 0 1 .35 2.44c.07.55.11 1.13.13 1.73s0 1.2 0 1.77v3.02l2.42-1.12a14 14 0 0 1-2.1 3.57l1 .22a21.87 21.87 0 0 0 3-3.2 23 23 0 0 0 2.24-3.6A18 18 0 0 0 61.9 48a11.76 11.76 0 0 0 .48-3.13v-7l3.62-.59c.15 0 .26 0 .32.08a.33.33 0 0 1 0 .31 22.89 22.89 0 0 1-1.29 2.76c-.5.91-1 1.86-1.61 2.83v1.2l3.13-.46a.42.42 0 0 1 .4.11.35.35 0 0 1 .11.32c0 .59-.1 1.14-.17 1.65s-.17 1-.28 1.47a3 3 0 0 0-1.24-.62 3.52 3.52 0 0 0-1.37 0 2.32 2.32 0 0 0-1 .47 3.51 3.51 0 0 0-.75.83 5.63 5.63 0 0 0-.5 1c-.13.37-.26.72-.36 1.08a7.07 7.07 0 0 0-.24 1q-.07.47-.15.78a10.58 10.58 0 0 0-.11 2 9.66 9.66 0 0 0 .31 2 1.17 1.17 0 0 0 .47.71 1.62 1.62 0 0 0 .83.24 3.09 3.09 0 0 0 2-.71 22.72 22.72 0 0 0 3-2.74c.24.47.46.94.67 1.41s.42.94.61 1.41zm-8.4-.4c-.44.69-.94 1.44-1.52 2.24a.57.57 0 0 1-.52.23.54.54 0 0 1-.5-.21 3.16 3.16 0 0 1-.33-1.21 7.86 7.86 0 0 1 .08-1.61 13.1 13.1 0 0 1 .36-1.65 11.53 11.53 0 0 1 .59-1.55.8.8 0 0 1 .53-.39.68.68 0 0 1 .62.14 11.87 11.87 0 0 1 .91.86 12.42 12.42 0 0 1 .91 1.07 18.43 18.43 0 0 1-1.13 2.08zm-19.37-.34v2.11a15.87 15.87 0 0 1-.16 1.87.24.24 0 0 1-.22.22.22.22 0 0 1-.26-.15 8.88 8.88 0 0 1-.19-1.54 16 16 0 0 1 0-1.69c.05-.67.12-1.32.23-2a8.2 8.2 0 0 1 .57-2zm59.35-7.55c-.16-.33 7.59-1.23 7.59-1.23s-8.69-.14-9-.34a7.54 7.54 0 0 0-2.16-.93 9.34 9.34 0 0 0-2-.31h-2.15v-1.33l3.64-.58a3.94 3.94 0 0 0 2.1-.85 2.05 2.05 0 0 0 .67-1.62v-1.53a1.33 1.33 0 0 0-.73-1.23 2.83 2.83 0 0 0-2-.29l-3.64.57v-1.25l17.45-4.36-17.45 2.9v-1.56l-4.94.79V33l-7.3 1.16v1.47l7.3-1.16v1.25l-6.53 1v5.52l6.53-1v1.3l-.57.14-.58.16v-.68l-3.95.62v1.68a7.73 7.73 0 0 0-1.21.86 3.88 3.88 0 0 0-.83 1 3.47 3.47 0 0 0-.35 1 1.59 1.59 0 0 0 .07.9 1.13 1.13 0 0 0 .48.62 1.93 1.93 0 0 0 1 .25 4.25 4.25 0 0 0 1.38-.21 3.93 3.93 0 0 0 1.23-.61 4.32 4.32 0 0 0 1-1 6.06 6.06 0 0 0 .64-1.17 4.53 4.53 0 0 0 .33-1.25c.06-.44.09-.87.11-1.3l.58-.11.57-.12v5.13l4.94-.79V42.9a6.35 6.35 0 0 1 1 .28 2.42 2.42 0 0 1 .86.51 3.06 3.06 0 0 1 .86 1.23 5.55 5.55 0 0 1 .39 1.76zm-21.42-10.2a17.89 17.89 0 0 0-2.09-.72 16.44 16.44 0 0 0-2.09-.44l-3.06 3.16a20.74 20.74 0 0 1 2.26.69c.77.28 1.48.57 2.14.88a.23.23 0 0 1 .14.36 1 1 0 0 1-.4.46l.86.4a15.24 15.24 0 0 0 1.39-1.08 11.84 11.84 0 0 0 1.23-1.2 2.27 2.27 0 0 0 .49-.77 1.35 1.35 0 0 0 .08-.73c-.06-.44-.38-.77-1-1zm24.06 12.14s-4.38.54-5.33.74-1.92.39-2.92.55L88 49.57a8.64 8.64 0 0 1-2.33.13 5 5 0 0 1-.89-.2c-.27-.09-.56-.17-.86-.25v-7.7a2 2 0 0 0-.13-.74 1.16 1.16 0 0 0-.41-.56 2.63 2.63 0 0 0-2.1-.35l-5.28.83v1.46l2.07-.33a.86.86 0 0 1 .57.11.48.48 0 0 1 .26.4v6.09a4.23 4.23 0 0 0-1 .25 3.28 3.28 0 0 0-1 .54 3.1 3.1 0 0 0-1.21 1.87 4 4 0 0 0-.1 1.13 2.28 2.28 0 0 0 .29 1 2.48 2.48 0 0 0 .73.79 3 3 0 0 0 1.25.48 5.14 5.14 0 0 0 1.75 0 6.14 6.14 0 0 0 1.7-.52 6.55 6.55 0 0 0 1.34-.93 3.48 3.48 0 0 0 .89-1.2l.81.37a7.07 7.07 0 0 0 .85.29 8.31 8.31 0 0 0 1.62.26 8.68 8.68 0 0 0 1.92-.12l37.82-8.9zm-8.56-8.44a.66.66 0 0 1-.24.49 1.05 1.05 0 0 1-.59.28l-.93.15v-2.65l.93-.14a1 1 0 0 1 .59.06.39.39 0 0 1 .24.37zm-6.7 1.7l-1.85.3v-2.65l1.85-.29zm-5.45 7.88a.76.76 0 0 1-1 .48.38.38 0 0 1-.21-.34 2.17 2.17 0 0 1 .26-1.36 4 4 0 0 1 1.3-1.31 11.17 11.17 0 0 1-.35 2.53zm-7.52 4.36a1.08 1.08 0 0 1-.64 1 1.56 1.56 0 0 1-.78.15 1 1 0 0 1-.72-.25 1.55 1.55 0 0 1-.33-.49 1.29 1.29 0 0 1-.11-.69 2.08 2.08 0 0 1 .7-1.48 2.38 2.38 0 0 1 .8-.47 3.13 3.13 0 0 1 1.08-.13zm21.92 61.2l15.58-3.41-18.8 1.78-1.54-3.2 24.53-4.84-25.2 3.46-.12-.25-1.24 5.22-5.36.71 4.62 2.79-.98 5.28 4.1-3.5 4.75 2.56-.74-1.77 8.53-3.13-9.3 1.29-.57-1.34 1.74-1.65z"/><path class="cls-3" d="M81.59 115.13l6.04-2.24-9.48.83-1.16-2.4 14.51-3.56-15.57 1.36-.11-.24-1.25 5.22-5.35.7 4.61 2.8-.97 5.28 4.09-3.5 4.76 2.56-.62-1.46 5.06-2.75-5.85.87-.68-1.62 1.97-1.85zm-19.45 2.04l5.9-2.19-9.38.82-1.14-2.37 11.86-3.12-12.93.92-.12-.27-1.25 5.23-5.35.7 4.61 2.8-.97 5.27 4.09-3.49 4.76 2.56-.59-1.41 5.19-3.03-6 1.11-.69-1.63 2.01-1.9z"/><path class="cls-3" d="M28.14 71.9l1.39-.2c1.58-.26 1.38.79 1.38.79v13.67l-2.77.39zm2.77 32.28V89.52l-2.77.4v15.64l1.78-.19c1.19-.28.99-1.19.99-1.19zm93.23-43.09a3.92 3.92 0 0 0-2.14 1.06 6.28 6.28 0 0 0-1.11 1.32 6.5 6.5 0 0 0-.66 1.27 2 2 0 0 0-.11 1 1.26 1.26 0 0 0 .3.7.75.75 0 0 0 .66.24 1.11 1.11 0 0 0 .73-.57 17.9 17.9 0 0 0 1.25-2.34c.39-.77.74-1.72 1.08-2.68zm1.54 12.55A2.51 2.51 0 0 0 124 74a6.47 6.47 0 0 0-3.51 4.44 2.21 2.21 0 0 0 .35 2.13 1 1 0 0 0 .77.25 1.25 1.25 0 0 0 .88-.62 14.82 14.82 0 0 0 1.74-2.88c.49-1.18.99-2.39 1.45-3.68zM100 91.49a12.51 12.51 0 0 0-.23 4.51c.08.7.29 1 .62.88a.87.87 0 0 0 .37-.42 3.58 3.58 0 0 0 .25-1 35.73 35.73 0 0 0 .32-3.72c.07-1.47.12-3 .18-4.59a12.71 12.71 0 0 0-.87 2.09c-.24.76-.46 1.49-.64 2.25zm-30.67 6.75V83.58l-2.77.4v15.64l1.78-.2c1.19-.27.99-1.18.99-1.18zm23.36-23.19v-8.69l2.18-.2V63l-2.18.4v-7.74l-5.94 1v7.53L75.67 66v3.17l11.08-1.78V76zM86.75 83v1.22l2.15 4.38a1.58 1.58 0 0 1 .24.83A1.6 1.6 0 0 1 87.56 91a1.64 1.64 0 0 1-.68-.15l-.13-.06v6.24c0 2-1 2-1 2-1.46 0-3.16-2.18-3.16-2.18l-1 1.39c2.17 4.94 5.94 4.55 5.94 4.55 5.14 0 5.14-5.94 5.14-5.94V80.38zm16.35-7.84a1.38 1.38 0 0 1-.41 1.25l-3 1.15v1.3l7.12-.88v3c-.21.09-.4.2-.6.31s-.39.21-.59.31v-2.09l-4.11.51v5.23A15.46 15.46 0 0 0 99.47 90a20 20 0 0 0-.5 2.78 18 18 0 0 0-.08 3c.1 1.6.51 2.56 1.23 2.86a1.52 1.52 0 0 0 1.5-.16 4.29 4.29 0 0 0 1.23-1.48 13.44 13.44 0 0 0 .85-2 21.35 21.35 0 0 0 .65-2.16q.27-1.1.45-2c.11-.63.2-1.16.25-1.59.13-1.14.23-2.2.31-3.18s.14-2 .19-3.12a11.83 11.83 0 0 1 1.23-.62v17.75l5.85-.72V84.18a10.79 10.79 0 0 1 1 3.09 37.62 37.62 0 0 1 .52 4.75c.06 1.51.07 2.93 0 4.28l5.43-3.68a27.21 27.21 0 0 0-1.33-5.42 18.05 18.05 0 0 0-2.41-4.48 5.39 5.39 0 0 0-1.48-1.46 8.05 8.05 0 0 0-1.75-.84v-3.17l6.66-.82v-3.27l-6.66.82v-3.17l-5.85.72v3.17zm-73.53 11a1.58 1.58 0 0 1 1.27-1.32l5.22-1V72.1s.67-5-4.16-4.16l-9.11 1.58v40.2l9.51-1.38s3.76-.51 3.76-5.15v-4.44a1.55 1.55 0 0 1-.76-1.55l.76-6.14v-.24l-5.67-3a1.58 1.58 0 0 1-.82-1.64zm54.61-9.86v-5.54l-4.18.68 2.82 5.08zm-38.42 5.96V76.7l-4.22.68 2.82 5.08zm8.52-10l2.18-.2v-3.13l-2.18.4V61.6l-5.94 1v7.53L37.25 71.9v3.17l11.09-1.78v8.61l5.94-.82zM48.34 89v1.19l2.15 4.39a1.57 1.57 0 0 1 .23.83A1.59 1.59 0 0 1 49.14 97a1.85 1.85 0 0 1-.68-.15l-.12-.06V103c0 2.05-1 2-1 2-1.47 0-3.17-2.18-3.17-2.18l-1 1.39c2.18 4.94 5.94 4.55 5.94 4.55 5.15 0 5.15-5.94 5.15-5.94V86.49zm18.22-8.35V66l1.38-.2c1.59-.26 1.39.79 1.39.79V78.9l5.15-1V66.16s.67-5-4.16-4.16l-9.11 1.58v16.55h.08l1.43-.2c.66-.09 1.76.16 1.76 1.09a1.7 1.7 0 0 1-1.14 1.71l-2.13.9v20.16l9.5-1.39s3.77-.5 3.77-5.14v-4.45a1.57 1.57 0 0 1-.77-1.55l.77-6.14v-.24l-5.67-3a1.54 1.54 0 0 1-.81-1.47zM113 67c-.27 1-.55 1.93-.86 2.85l4.58 1.6c.36-1 .69-2 1-3.13s.59-2.28.85-3.54a10.59 10.59 0 0 0 .25-2.38 4.2 4.2 0 0 0-.45-1.93 2.17 2.17 0 0 0-.71-.86 2.31 2.31 0 0 0-1-.41 2.23 2.23 0 0 0-1.12.11 2 2 0 0 0-1 .83l-1.44 2.37c-.45.74-.84 1.45-1.18 2.13a.27.27 0 0 1-.21.13c-.09 0-.16 0-.21-.19-.1-.37-.2-.82-.31-1.33s-.2-1-.31-1.5a1.53 1.53 0 0 0-.48-.89 1.5 1.5 0 0 0-.79-.38 1.54 1.54 0 0 0-1.57.78 45 45 0 0 0-2.54 4.43.47.47 0 0 1-.27.25.18.18 0 0 1-.27-.13c-.13-.58-.25-1.23-.37-2s-.21-1.47-.29-2.23l-4.65 2.84c.12 1.29.3 2.55.52 3.79a19.8 19.8 0 0 0 .75 3.13 1.5 1.5 0 0 0 .61.88 1 1 0 0 0 .93.1 2.57 2.57 0 0 0 .84-.56 3.11 3.11 0 0 0 .73-1.12c.31-.74.66-1.49 1-2.24s.76-1.47 1.12-2.14a.18.18 0 0 1 .25-.11.28.28 0 0 1 .21.21c.1.55.21 1.07.31 1.57a13 13 0 0 0 .42 1.56 1.62 1.62 0 0 0 .58.83 1.18 1.18 0 0 0 .85.21 1.83 1.83 0 0 0 .79-.31 2.42 2.42 0 0 0 .71-.77q.88-1.59 1.65-3c.52-1 1-1.86 1.54-2.7 0-.08.11-.1.18-.05s.08.12 0 .23C113.57 65 113.3 66 113 67zm19.48 7.66a6.26 6.26 0 0 0-1.33-1.55 27.2 27.2 0 0 0 1.35-3.39 20.6 20.6 0 0 0 .85-3.65 10.3 10.3 0 0 0-.16-3.62 4.86 4.86 0 0 0-1-2 4.44 4.44 0 0 0-1.81-1.26 43.77 43.77 0 0 0 1.62-4.37q.67-2.28 1.21-4.88l-6.77.83q-.22 2-.66 4.23c-.28 1.46-.64 2.93-1.07 4.39a8.1 8.1 0 0 0-1.64.73 9.88 9.88 0 0 0-1.6 1.15 7.08 7.08 0 0 0-1.88 2.87 5 5 0 0 0-.21 2.19 3 3 0 0 0 .79 1.81 2.51 2.51 0 0 0 1.38.65 3.28 3.28 0 0 0 1.77-.25 4.51 4.51 0 0 0 1.16-.75 16.12 16.12 0 0 0 1.21-1.15c.4-.42.77-.85 1.13-1.3s.67-.85.93-1.2a7.36 7.36 0 0 1-.12 2.44c-.18.84-.37 1.7-.58 2.58s-.44 1.78-.73 2.66a8.13 8.13 0 0 0-1.9.47 7 7 0 0 0-1.83 1 7.62 7.62 0 0 0-1.65 1.74 7.86 7.86 0 0 0-1.12 2.41 6.37 6.37 0 0 0-.27 2.6 3.93 3.93 0 0 0 .69 1.89 2.36 2.36 0 0 0 1.7 1 3 3 0 0 0 2.23-.67 18.25 18.25 0 0 0 2.19-1.93 21.54 21.54 0 0 0 2-2.45 9.13 9.13 0 0 1-1.15 4.53q-1.08 2.08-2.2 4c-.74 1.3-1.54 2.57-2.38 3.81s-1.77 2.46-2.77 3.69-2.12 2.47-3.35 3.72l.54 1.62a59.25 59.25 0 0 0 5.25-3.42 38.79 38.79 0 0 0 4.6-3.92 32.58 32.58 0 0 0 3-3.49 25 25 0 0 0 2.35-3.83 14.2 14.2 0 0 0 1.23-4 10.09 10.09 0 0 0-.19-4 7.11 7.11 0 0 0-.78-1.92zm-9.92 11.27a5.08 5.08 0 0 1-1 0 5.82 5.82 0 0 1-1.35-.36c.17.38.33.77.47 1.17s.35 1 .51 1.51c.48-.77.95-1.54 1.4-2.31zm-5.66-5.53a5.3 5.3 0 0 1 0-.69l-.7.08a8.29 8.29 0 0 1 .73.62zm-19.2-6.1a2.58 2.58 0 0 1 1.3-.8 5.09 5.09 0 0 1-.4-.91 24.77 24.77 0 0 1-.84-3.48c-.12-.68-.23-1.38-.32-2.07a2.59 2.59 0 0 1-2.13 2.06v5.55zm-2.43 5.12v17.83c0 3.4-2 8.45-7.62 8.51h-.3c-5 0-7.47-4.67-8.1-6.1a2.55 2.55 0 0 1 .26-2.53l1-1.39a2.57 2.57 0 0 1 3.68-.53v-5.6L81 88.14l-4 3.82v5.68c0 5.46-3.92 7.43-6 7.7l-9.48 1.38a2.31 2.31 0 0 1-.37 0 2.56 2.56 0 0 1-1.68-.63 2.53 2.53 0 0 1-.89-1.94V84.69l-1.79.74v17.76c0 3.4-2 8.45-7.62 8.51h-.29c-5 0-7.48-4.67-8.11-6.1a2.58 2.58 0 0 1 .27-2.53l1-1.39a2.57 2.57 0 0 1 2-1.08 2.6 2.6 0 0 1 1.64.55v-5.6l-3.15-1.47-4 3.82v5.68c0 5.46-3.93 7.43-6 7.7l-9.47 1.39h-.38a2.56 2.56 0 0 1-2.57-2.57V69.92a2.58 2.58 0 0 1 2.13-2.54l9.11-1.58a8.41 8.41 0 0 1 1.46-.13 5.4 5.4 0 0 1 4.26 1.81 5.53 5.53 0 0 1 1.13 2l7.45-1.2V63a2.58 2.58 0 0 1 2.16-2.54l5.94-1a2.57 2.57 0 0 1 2.08.58 2.54 2.54 0 0 1 .91 2v4.78a2.63 2.63 0 0 1 1.26.57 2.8 2.8 0 0 1 .53.61v-4a2.58 2.58 0 0 1 2.13-2.54l9.11-1.58a8.41 8.41 0 0 1 1.46-.13 5.45 5.45 0 0 1 4.26 1.8 5.8 5.8 0 0 1 1.13 2l7.45-1.2v-5.3a2.58 2.58 0 0 1 2.15-2.54l5.94-1a2.6 2.6 0 0 1 2.09.58 2.54 2.54 0 0 1 .91 2v4.78a2.59 2.59 0 0 1 2.18 2.55v.31a2.4 2.4 0 0 1 .58-.76 2.59 2.59 0 0 1-.65-1.36L97 59.79A2.57 2.57 0 0 1 98.76 57c1.48-.55 2.84-1.13 4.06-1.72s2.44-1.23 3.53-1.83 1.94-1.18 2.79-1.74 1.66-1.12 2.42-1.71a2.59 2.59 0 0 1 3.22.07l5.78 4.84a2.57 2.57 0 0 1-.27 4.14l.11.17a10.85 10.85 0 0 1 1.37-.91c.25-.15.51-.28.77-.41.27-1 .5-2 .69-3 .27-1.39.48-2.75.62-4a2.57 2.57 0 0 1 2.24-2.26l6.78-.84a2.57 2.57 0 0 1 2.83 3.08c-.37 1.8-.79 3.51-1.26 5.08-.26.89-.55 1.77-.86 2.63.21.2.41.4.6.62a7.54 7.54 0 0 1 1.53 3 12.8 12.8 0 0 1 .22 4.56 23.06 23.06 0 0 1-1 4.12c-.23.72-.49 1.42-.75 2.07q.25.34.48.72a9.79 9.79 0 0 1 1.14 2.76 12.74 12.74 0 0 1 .24 5 16.79 16.79 0 0 1-1.46 4.69 27.34 27.34 0 0 1-2.58 4.29 34.79 34.79 0 0 1-3.28 3.78 43 43 0 0 1-4.9 4.18 64.47 64.47 0 0 1-5.48 3.56 2.55 2.55 0 0 1-3.5-.9 2.59 2.59 0 0 1-1.91 1.25l-5.85.72h-.31a2.63 2.63 0 0 1-1.71-.64 2.59 2.59 0 0 1-.86-1.93v-.57a6.27 6.27 0 0 1-1.12 1 4.12 4.12 0 0 1-3.92.43c-1.73-.72-2.68-2.42-2.85-5.08a21 21 0 0 1 .09-3.39 22.2 22.2 0 0 1 .6-3.1 18.44 18.44 0 0 1 2-4.83v-3.13a2.57 2.57 0 0 1-1.89-2.48v-.67zm-36.63 1.06v-6.62A2.58 2.58 0 0 1 56.85 75v5.68zM48.74 95l-3.31-6.76 17.1-7.15-19.42 2.69-3.65-6.58-1.31 7.4-7.41 1.4 6.66 3.53-.93 7.47 5.43-5.21zm38.41-6l-3.31-6.75 17.7-7.25-20 2.81-3.65-6.58-1.31 7.4-7.41 1.42 6.67 3.53-.93 7.45 5.43-5.21zm12.51-30l.27 1.81c1.64-.09 3.28-.27 4.91-.52s3.22-.57 4.79-.94 3.31-.82 4.87-1.31 3-1 4.4-1.58l-5.77-4.83c-.82.63-1.68 1.24-2.58 1.82s-1.87 1.19-2.92 1.82-2.38 1.27-3.68 1.9A46.1 46.1 0 0 1 99.66 59z"/></svg>