<svg id="Layer_1" data-name="Layer 1" xmlns="http://www.w3.org/2000/svg" viewBox="0 0 156 156"><defs><style>.cls-2{clip-path:url(#clip-path)}.cls-3{fill:#386db6}</style><clipPath id="clip-path"><path fill="none" d="M0 0h156v156H0z"/></clipPath></defs><g class="cls-2"><g class="cls-2"><path class="cls-3" d="M78 2.4A75.6 75.6 0 1 1 2.4 78 75.68 75.68 0 0 1 78 2.4M78 0a78 78 0 1 0 78 78A78 78 0 0 0 78 0"/></g></g><path class="cls-3" d="M37.66 58.3l-4.78.56v5.64c-.37-.28-.89-.71-1.55-1.29l-1.68-1.28v-10.8l-5.34.62v58.17l5.34-.62v-6.14a20.77 20.77 0 0 1 1.12 2.32 42.52 42.52 0 0 1 2.11 4.42q6.61-8.13 8.15-15.67 2.25 7.09 9.14 12.93c.85-2.39 2.06-5.31 3.66-8.77A20.52 20.52 0 0 1 44.55 87L54 85.86v-9.33l-2.25.26V56.67l-8.44 1c.1-2.47.14-5.09.14-7.87l-5.76.67zm-.56 29.52q-.84 7.22-7.45 13.87V72.48l2.53 2.65 2-7.34 3.51-.41q0 6.14-.14 11.06l-6.47.75v9.33zm-17.29-4.38l3.51.33q.7-14.56 1-20.24l-3.38-.1q-.55 10.38-1.12 20zm26.57-17.07v11l-3.24.38c0-3.44 0-7.12.14-11.06zM90 80.45l-14.1 1.63v-3.19l2.81-.32v-3.68L80 78.67a32.32 32.32 0 0 1 3.66-1.16 28.91 28.91 0 0 0 3.09-.85c.19.63.23.79.14.47.09.65.14 1.05.14 1.21l3.38-2.11c-.1-.64-.33-1.68-.71-3.11q-1.26-6.23-1.82-8.87l-2 1.21c.47-1.19 1.22-3 2.25-5.41s1.64-4.12 2.11-5.15l-3.94-2c-.56 1.54-1.12 3.07-1.69 4.61l-2 .23q.55-1.29 2.39-5.92c.93-2.4 1.59-4 2-4.89l-4.5-2.18q-2.1 7.13-3.37 10.7a4.28 4.28 0 0 1-.42 1.28v-7.37l-3.09.36q.13-.75.42-2c.18-1 .33-1.67.42-2L71 45.6c-.28 1.67-.56 3.25-.85 4.76l-2.25.26v5.89l-2.95-1.38c-.47 1.7-1 3.31-1.54 4.85l-2 .23q1.13-3.33 4.22-11.29L61 47.25a89.58 89.58 0 0 1-3.1 10.91 25.23 25.23 0 0 1-1.68 3.63l1.4 5.48a9.38 9.38 0 0 1 2.67-.8 2.8 2.8 0 0 1 .85-.34 7.71 7.71 0 0 0-.57 1.54q-1.12 2.83-1.68 3.87a31.59 31.59 0 0 1-2.25 3.95l1.54 6c1.13-.78 3.57-1.56 7.31-2.32.19.8.33 1.43.43 1.91L68 79.81l2.53-.3v3.19l-13.89 1.62v7.36l10.82-1.25q-3 4-11.38 7.94c1 2.34 2 4.68 2.81 7a46.94 46.94 0 0 0 11.67-10.15v10.06l5.34-.62v-10.3q3.51 4.24 11.52 7.25.7-2.06 3-8-7-.66-11.25-4.59L90 87.81zM64.65 67.68c.37-.86.94-2.15 1.69-3.87s1.17-3 1.54-3.86v14.23c-.18-.63-.42-1.67-.7-3.11-.47-2.07-.8-3.59-1-4.55zm14.06 4v-9.56l1 2.34a14.66 14.66 0 0 0 2.53-.78c-.19.51-.51 1.29-1 2.32A22.31 22.31 0 0 0 80 69.09a12.21 12.21 0 0 1-1.26 2.61zM74.63 56v5.16l-2.81.32V56.3zm-2.81 16.5v-4.67l2.81-.32v4.66zm13.07-5a36.68 36.68 0 0 1 .85 3.59l-2.67.31c.46-.88 1.07-2.17 1.82-3.9zm-21.36 2.77c.28 1 .56 2.06.84 3.34a11.39 11.39 0 0 1-2.53.54c.56-1.38 1.12-2.67 1.69-3.88zM97.56 45.1a13.64 13.64 0 0 0-4.37 5.28 11.26 11.26 0 0 0 1.39 11.37 62.59 62.59 0 0 0 5.76 6.31c.88.83.9 1.55.07 2.15q-7.16 5.63-7.49 12.42a11.72 11.72 0 0 0 2.7 8.73q3.06 3.19 6.17 6.25a14.71 14.71 0 0 0 6.39 3 38.18 38.18 0 0 0 12.41.9A22.73 22.73 0 0 0 130.85 98a12.58 12.58 0 0 0 4.37-5.34 11.56 11.56 0 0 0-.83-10.82q-1.87-3.47-7.14-8.39-1-1.11 0-1.8 3.54-2.56 7-5 2.16-1.66 1.53-3.81a8.35 8.35 0 0 0-1.6-1.94l-.69-.76c-.69-.7-.74-1.16-.14-1.39a4.33 4.33 0 0 0 2.08-2.57 5.48 5.48 0 0 0-1.52-5.75q-3-3.06-6-6a24.65 24.65 0 0 0-3.81-2.15 29.74 29.74 0 0 0-13.8-1.87 26.84 26.84 0 0 0-12.74 4.69zm30.17 1.32a3.83 3.83 0 0 1 .84 5.27 2.55 2.55 0 0 1-1.88 1 5.66 5.66 0 0 1-3.81-1 16.88 16.88 0 0 0-7.7-2.15 20 20 0 0 0-12.28 2.71q-4 3.39 1.46 7.42a40.69 40.69 0 0 0 5.13 3.26q3.12 2.22 5.14 1.25a79.11 79.11 0 0 1 12.83-6.11c1.06-.46 1.75-.3 2.08.49a1.82 1.82 0 0 1-.63 1.53L120 66.54a2.45 2.45 0 0 0-1.18 1.1c0 .19.39.65 1.18 1.39q13.25 9.85 8.53 19a10.79 10.79 0 0 1-4.93 4.57 19.78 19.78 0 0 1-5.13 2q-4.51 1.25-12.55.13a20.2 20.2 0 0 1-5.14-1.52A10.32 10.32 0 0 1 95.83 89a11.56 11.56 0 0 1-1.32-6.38q.49-7.42 9.85-13.18c.83-.46.79-1-.14-1.6a58.84 58.84 0 0 1-5.75-4.16l-1.18-1.11a11.74 11.74 0 0 1-3.4-6.57c-.33-4 1.39-7.32 5.13-9.91a26.31 26.31 0 0 1 17.2-4.1 20.13 20.13 0 0 1 11.51 4.44zm-3.53 11.24a61 61 0 0 0-9.3 4.58c-.88.55-1.52.76-1.94.62a22.15 22.15 0 0 1-4.16-2.15c-.74-.46-1.09-.81-1-1a3 3 0 0 1 1.62-1.71A20.07 20.07 0 0 1 124 56.76q1.32.41.21.9zm-23.65 25.17q0 4.86 4.92 6.25a19.65 19.65 0 0 0 11.53-.56q8.82-4 .56-11.65a28.88 28.88 0 0 0-4.74-3.87 2.53 2.53 0 0 0-2.56-.14 29.84 29.84 0 0 0-4.3 2.56q-5.28 3.54-5.41 7.42zm16.78-3.19l1.11.84a3.71 3.71 0 0 1 1.25 1.8q1 3-2.78 4.51a17.56 17.56 0 0 1-8.8 1.25c-.84-.14-1.18-.6-1-1.39a9.14 9.14 0 0 1 2.49-3.33 30.73 30.73 0 0 1 5.13-3.54l.28-.21a2.28 2.28 0 0 1 2.36.07zm-15.56 35.98l-4-2.17-3.47 3 .83-4.48-3.91-2.37 4.53-.6 1.06-4.43 2 4.11 4.55-.37-3.3 3.14zm-16.47 1.57l-4-2.17-3.47 3 .83-4.48-3.91-2.38 4.53-.59 1.06-4.44 2 4.11 4.55-.36-3.35 3.12zM68.82 119l-4-2.17-3.47 3 .83-4.48-3.91-2.37 4.53-.6 1.06-4.44 2 4.12 4.55-.37-3.3 3.14z"/></svg>