<svg id="Layer_1" data-name="Layer 1" xmlns="http://www.w3.org/2000/svg" viewBox="0 0 156 156"><defs><style>.cls-2{clip-path:url(#clip-path)}.cls-3{fill:#386db6}</style><clipPath id="clip-path"><path fill="none" d="M0 0h156v156H0z"/></clipPath></defs><g class="cls-2"><g class="cls-2"><path class="cls-3" d="M78 2.4A75.6 75.6 0 1 1 2.4 78 75.68 75.68 0 0 1 78 2.4M78 0a78 78 0 1 0 78 78A78 78 0 0 0 78 0"/></g></g><path class="cls-3" d="M55.85 56.4h-.77a5.34 5.34 0 0 1-.44 2.25 1.54 1.54 0 0 1-.52.64 1.39 1.39 0 0 1-.72.2h-2.15a.66.66 0 0 1-.52-.28 1.43 1.43 0 0 1-.21-.86v-7.77c.49-.5 1-1 1.48-1.59s1-1.15 1.45-1.74.9-1.2 1.31-1.79.75-1.17 1.05-1.73l-3.63-2.46a31.13 31.13 0 0 1-.63 3.65 34.07 34.07 0 0 1-1 3.62V37.13h-3.74v23a10.17 10.17 0 0 0 .13 1.79 3.28 3.28 0 0 0 .49 1.27 2.44 2.44 0 0 0 2.14 1h3a2.47 2.47 0 0 0 1.2-.26 2.59 2.59 0 0 0 .86-.72 4 4 0 0 0 .67-1.31 10 10 0 0 0 .34-1.65 17.86 17.86 0 0 0 .16-2v-1.9zm-11.08 8.11V37.13h-3.71v6.32h-4.89v1.92h4.89v9.46a24.61 24.61 0 0 1-2.55 1 13.12 13.12 0 0 1-2.78.6l.86 5.43a15.45 15.45 0 0 0 1.18-1.14c.41-.43.81-.89 1.2-1.37s.76-1 1.11-1.45.68-.95 1-1.4v8zM77.86 41.7v-1.91h-7.81a1.39 1.39 0 0 0 0-.54 3.46 3.46 0 0 0-.12-.61 6.9 6.9 0 0 0-.33-1 6.81 6.81 0 0 0-.42-.81l-3.78.4c.16.35.33.74.51 1.18s.33.89.46 1.35h-8.31v1.94zm0 19.94a14.84 14.84 0 0 0-3.59-5 8.56 8.56 0 0 0-4.57-2.07V52.7h4.8a1.37 1.37 0 0 0 1.06-.46 2.61 2.61 0 0 0 .71-2v-4a3 3 0 0 0-.49-1.76 1.46 1.46 0 0 0-1.28-.71H59.32v8.93h6.62v1.95l-.67.07-.64.11.13-1.29H61.2c0 .41-.05.8-.06 1.18s0 .75-.07 1.1A5.59 5.59 0 0 0 58.84 58a9.65 9.65 0 0 0-1 3 4.26 4.26 0 0 0 0 1.51 1.63 1.63 0 0 0 .62 1.08 1.45 1.45 0 0 0 .87.23 3.17 3.17 0 0 0 1.3-.42 4.59 4.59 0 0 0 1.32-1A7.27 7.27 0 0 0 63 60.78a12.32 12.32 0 0 0 1-2.42 21.4 21.4 0 0 0 .59-2.85 8.7 8.7 0 0 1 1.4-.19v5.8a1.27 1.27 0 0 1-.38 1.06.89.89 0 0 1-.88.14 1.89 1.89 0 0 1-.61-.32 2.62 2.62 0 0 1-.54-.6l-.6.71a4.53 4.53 0 0 0 1.7 2 3.31 3.31 0 0 0 1.67.57 3.14 3.14 0 0 0 1.63-.35 3.38 3.38 0 0 0 1.27-1.3 4.4 4.4 0 0 0 .5-2.22v-5.09a4.37 4.37 0 0 1 1.11.82A6.9 6.9 0 0 1 71.93 58a13.18 13.18 0 0 1 1.24 2.69 17.93 17.93 0 0 1 .77 3.44zm-5.27-11.46a.6.6 0 0 1-.16.44.48.48 0 0 1-.37.17H63V45.7h9a.51.51 0 0 1 .41.21.8.8 0 0 1 .16.53zm-12.14 9.14a12.58 12.58 0 0 1-1 2.36 1.6 1.6 0 0 1-.41.47.43.43 0 0 1-.41.11.42.42 0 0 1-.23-.26 1.85 1.85 0 0 1 0-.76 5.31 5.31 0 0 1 .27-1.29 8.23 8.23 0 0 1 .53-1.3 7.27 7.27 0 0 1 .8-1.29 2.86 2.86 0 0 1 1-.8 15.67 15.67 0 0 1-.55 2.76zm39.1-17.07v-1.48a2.05 2.05 0 0 0-.44-1.51 1.48 1.48 0 0 0-1.11-.37h-6a.45.45 0 0 0 .12-.32.56.56 0 0 0-.1-.39c-.12-.18-.25-.39-.41-.61s-.34-.49-.56-.78l-3.58 1.05a9.44 9.44 0 0 1 .68 1h-7.77v3.42h3.34v-1.73h12.07c.28 0 .42.19.42.58v1.14zM100 53.1a12.72 12.72 0 0 0-2.67-1.61 13.29 13.29 0 0 0-2.64-.85 16.84 16.84 0 0 0-3-.36h-3.17l.21-.37c.07-.12.14-.24.21-.34h10.9V48h-5.09v-1.25h4v-1.54h-4v-1h3v-1.5h-3v-1.63h-3.27v1.63h-3.27v-1.63H85v1.63h-2.76v1.64H85v.95h-4v1.45h4V48h-4.84v1.63h5.11l-.27.47c-.09.17-.18.34-.29.51l-1.15.21a7.66 7.66 0 0 0-1.15.37 6.51 6.51 0 0 0-1.77 1.14 2 2 0 0 0-.47.62 2.14 2.14 0 0 0-.23.77 1.66 1.66 0 0 0 .14.88 1.46 1.46 0 0 0 .5.63 2 2 0 0 0 .76.34 1.88 1.88 0 0 0 .79.06v3.49h3.49v-4.41h8c.39 0 .59.25.59.77v3.64h3.5v-3.3l.44.49.46.52zm-.16 8.9a12.31 12.31 0 0 0-2.06-1.12 19.12 19.12 0 0 0-2.27-.82A21.75 21.75 0 0 0 91 59.3a12.75 12.75 0 0 0 .53-3.82h-3.48a12.36 12.36 0 0 1-.46 3.76l-1 .06a8 8 0 0 0-1 .12l-1.39.34a10.78 10.78 0 0 0-1.35.47c-.28.12-.6.27-.94.44a4.4 4.4 0 0 0-.9.6 2.23 2.23 0 0 0-.63.81 1.75 1.75 0 0 0-.16.92 1.67 1.67 0 0 0 .44.94 1.92 1.92 0 0 0 1 .57 7.83 7.83 0 0 0 2.14.16 8.48 8.48 0 0 0 2.3-.47 7.91 7.91 0 0 0 2.39-1.31 6.84 6.84 0 0 0 1.86-2.29A18.93 18.93 0 0 1 94 62.37a13.46 13.46 0 0 1 2.94 2.51zm-8.36-16.73h-3.27v-1h3.27zm0 2.56h-3.27v-.95h3.27zM94.67 53h-8.23a9.8 9.8 0 0 0 .84-.95l.77-1.05a16.14 16.14 0 0 1 3.35.55A11.77 11.77 0 0 1 94.67 53zM83 53.26a4.36 4.36 0 0 1-1.62 1.05.71.71 0 0 1-.6 0 .55.55 0 0 1-.3-.37.85.85 0 0 1 0-.54 1.54 1.54 0 0 1 .44-.6 4.65 4.65 0 0 1 .63-.48 3.81 3.81 0 0 1 .83-.42 5 5 0 0 1 .93-.27l.93-.19A8.68 8.68 0 0 1 83 53.26zm3.15 8.54a6.9 6.9 0 0 1-1.61 1.2 5.51 5.51 0 0 1-1.5.57 4.94 4.94 0 0 1-1.47.11 1 1 0 0 1-.65-.26.79.79 0 0 1 0-1.11 2.46 2.46 0 0 1 .53-.54 4.38 4.38 0 0 1 .78-.51l.87-.42a6.57 6.57 0 0 1 1-.37l.63-.18a8.16 8.16 0 0 1 2.59-.29 6.53 6.53 0 0 1-1.2 1.8zM122 58.59v-1.91h-7.77v-4.44h7.06v-1.91h-7.06v-5.49h-3.67v5.49h-4.88c.63-.93 1.31-2.08 2-3.45s1.43-2.85 2.08-4.41h12v-1.91h-11.24c.21-.6.4-1.18.58-1.75s.33-1.12.46-1.68h-4.29c-.15 1.07-.36 2.21-.64 3.43h-4.2v1.91h3.76a38.35 38.35 0 0 1-1.42 4.36 15.86 15.86 0 0 1-1.83 3.5v1.91h7.58v4.44h-8.31v1.91h8.31v6h3.67v-6z"/><path class="cls-3" d="M75.22 131a53.08 53.08 0 1 1 29.2-97.42s-39-21-69.15 12.68c0 0-11 13.81-10.81 35.71 0 .03.54 41.13 50.76 49.03z"/><path class="cls-3" d="M30.83 86.82l10.23 8.1 5.4-3.86s-3.82 2.66-4.82 6.37zm5.02-11.2l.77 6.56 5.79 5.6-7.72-4.44zm81.3 4.09a30.52 30.52 0 0 0 7.25 2l-5.12-1.86-2.78-1.41 1.5-1.67c.86-1 .13-1.36.13-1.36a5 5 0 0 0-2.57-1l-4.61.63-13.85-7.35s-2.75-1.52-10.46-1.52c0 0 7.53.46 12.43 3.41 0 0 14.93 8.72 18.08 10.13z"/><path class="cls-3" d="M32.37 84.5l-1 2.32 2.12 2.5 6.56-.19 1.16 3.09s1.16 1.13 2.9-1l-1.51-3.83s-.7-3.37-3.28-3.47zm72 .58s9.62 4.85 13.7 10.23a37.25 37.25 0 0 0-12.16-11l-2.31-1.16-2.9.38z"/><path class="cls-3" d="M116.72 80.83a25.2 25.2 0 0 1 2.13 14.09s-2.53 3.51-9.85 5.6c0 0 7.42-.55 11.58-4.63 0 0 .87-9.17-3.86-15.06z"/><path class="cls-3" d="M71.75 109.21l21.43 1.15 26.25-4s9.83-4.52 12.74-6.56c0 0-1.75-9.83-5.8-15.06 0 0 7.13 5.91 7.34 21.43a12.23 12.23 0 0 0-1.93-4.25l-12 6L94 111.91l-21.81-1.74zM75.22 87a146.65 146.65 0 0 1 7.72 13.12s-2.35-8.27-6.36-13.51z"/><path class="cls-3" d="M74.07 97.43a26.08 26.08 0 0 1 7.93 4.83l16.21.58 1.93-2.32 6.18-1-7.53.2L97 101.1H82.94zm-29.73 1.16s0-5.46 2.9-5.79c0 0 4.63-.38 7.52 9.07l17.18 7.34-18.94-5.8s-2.64-7.52-5.79-8.49c0 0-1.23-.06-1.55 2.51z"/><path class="cls-3" d="M44.92 116.35l-11-5s-11.36-14-11.39-32c0 0 11.22-6.54 22.39-9.27 0 0 20.87-4 33.2-3.66 0 0-23 2.62-32.81 5 0 0 3.18.41 4.24 2.71l4.64 13.7A167.85 167.85 0 0 1 70 95.11s-13.77-4.52-18.53-6L48 77.36s-1.46-5.51-8.11-4.25c0 0-2.68-.2-11.77 6.18L30.06 86a33.58 33.58 0 0 0 1.35 10.23s5.71 9.08 11.77 14.87l-7.72-5.6-3.28-5.21-2.32 1.73 4.25 7.15z"/><path class="cls-3" d="M45.69 103s2-4 6.18-.58a3.91 3.91 0 0 0-3.87-2.09 2.86 2.86 0 0 0-2.31 2.67zm16.6 19.14l-1.35 1-9.65.77s-4-.7-6.76-7.91-1-4.44-1-4.44 3.47 10.11 7.72 10l10.23-.77z"/><path class="cls-3" d="M45.69 116.93l1-4.25 2.51-2.32-2.9-.19-2.7-2.89a.69.69 0 0 1 1-.58l1.86 2.3 2.9.39v-.77l-.58-.58-4.63-3.67s-.44-1 1-.58l3.67 2.51-1.35-2.12-.19-5.79 1 1 .19 4.44 1.36 1.74-.58-6.76 1 .77.58 5.41.19 1.54.58-.58 1.93-.57.2.57-1.55 1-.19.58-.39.58a2.59 2.59 0 0 1 .58 2.12l.58.39 1.74-1.35.19 1.15-1.74 1.35v1.36l1.55 4.44v1.15l-2.9-4.82-.38-1.74-.2 3.28 2.71 4.83s-.41 1-1.16 0L49.94 116l-1 2.9-1 1-.39-.58 1.16-3.86 1-3.67-1.93 1.55-.58 3.47-1 .78z"/><path class="cls-3" d="M52.25 101.1s-2-3.64-5.4-2.7c0 0-2.92.79-3.28 8.3 0 0-1.5-7 3.28-9.46 0 0 0-1.07 5 1.16zm3.49 12.66s-.49 4.84-3.29 7.45c0 0 2.12-.64 4.09-5.35s-.8-2.1-.8-2.1zm4.81-16.33l.2.77 7.33 5.8 10 1a24.63 24.63 0 0 0 2.89-2.9zM127.34 88s-4.73 6.7-6 8.11l3.28 2.12s4.07-2.25 4.82-3.28a20.85 20.85 0 0 0-2.1-6.95zM85.45 69.44s-21.16 2.43-34.35 4.83c0 0-1.55.18-1.35 1.16l3.86 12.74 18.33-.58 6.57-9.85-4.06 9.65 4.83-.39zm1.3 0l6.62-.37a12.42 12.42 0 0 1 2.32.65c.34.13 0 4.75 0 4.75s1.85-4 2.25-3.81c6.87 3.17 16.48 9.8 16.48 9.8l-11.58 3.47s-12.4 1.47-20.28 2.5z"/><path class="cls-3" d="M133.52 106.89v3.28l-6.76 2.7-9.07-2.7-1.93.77 4.24 2.13-4.24 1.54-15.44 2.51-8.3.77 3.47-2.89v-1.16h-.77l-11 6.17-15.44.78-3.09-3.28a18.81 18.81 0 0 1 7.14-7.34l-.58-1s-13.7-3.18-18.53-4.83c0 0 2.62 10.24 2.7 15.06l.58 2.12 12.16 1.35 17.57-.77 2.7-1.93 10.23-.58 20.27-3.28L125 114l2.9.77 7.14-2.89a2.19 2.19 0 0 0 .19-2.7 17.35 17.35 0 0 0-1.71-2.29z"/></svg>