<svg id="Layer_1" data-name="Layer 1" xmlns="http://www.w3.org/2000/svg" xmlns:xlink="http://www.w3.org/1999/xlink" viewBox="0 0 156 156"><defs><style>.cls-1{fill:none;}.cls-2{clip-path:url(#clip-path);}.cls-3{fill:#2d69a9;}.cls-4{fill:#fff;}</style><clipPath id="clip-path"><rect class="cls-1" width="156" height="156"/></clipPath></defs><title>A_12 体彩3</title><g id="blue_circle" data-name="blue circle"><g class="cls-2"><g class="cls-2"><path class="cls-3" d="M156,78A78,78,0,1,1,78,0a78,78,0,0,1,78,78"/></g></g></g><path class="cls-4" d="M42.21,108.76l4.66-.54V98l5-.59V89.87l-5,.58V85.1l4.05-.47V77.35l-4.05.47V72.69l4.66-.55V64.65l-4.66.54V57.27l-4.66.54ZM31.91,74.42,35.84,74V79.1l-3.68.43v7.28l3.68-.43v5.36l-4.66.54v7.49l4.66-.54V109.5l4.53-.52V58l-4.53.52v7.92l-3.93.46ZM24.92,93v7.28c0,1.71-.41,2.62-1.22,2.71a4.12,4.12,0,0,1-1.47,0c.4,3,.69,5.55.85,7.82a9.14,9.14,0,0,0,1.48-.38,5,5,0,0,0,1.59-.4c2.21-.4,3.31-2.89,3.31-7.45v-12l2-1.09V81.12a5.53,5.53,0,0,0-2,1.08V76.42l1.59-.19V68.31l-1.59.19V59.29l-4.54.53V69l-2.08.24v7.92L24.92,77v7.28a15.92,15.92,0,0,1-2.45,1.14l-.37,0,.37,9A13.71,13.71,0,0,1,24.92,93Z"/><path class="cls-4" d="M58,86.59l.37.6c1.06,1.45,1.92,2.56,2.57,3.34a51.32,51.32,0,0,1-6.86,10.86,65.74,65.74,0,0,1,3.31,6Q68,94.86,69.56,76.05v-7.5l-7,.82c.08-.44.2-1.17.37-2.19.08-.86.16-1.52.24-2l6.87-.8V56.29L54.23,58.13v8.14l3.92-.46a60.4,60.4,0,0,1-4.66,16.6c.74,2,1.48,4.47,2.21,7.23a63.14,63.14,0,0,0,4.91-11.91l4-.47a59.34,59.34,0,0,1-1.22,6.13,23.1,23.1,0,0,0-2.7-2.89Zm19.25,5.9c.17,2.55-.45,3.76-1.84,3.64a37.84,37.84,0,0,1-4.53.31q.48,4.23.86,8.25c2.28-.27,4.21-.56,5.76-.88q4.78-.34,4.54-9.09V53.19l-4.79.55Zm-2-32.31-4.54.52V92l4.54-.53Z"/><path class="cls-4" d="M137.6,101.13q-2-1.75-3.6-3t-3.7-2.58a27.52,27.52,0,0,0-.43-12.31A20.14,20.14,0,0,0,123,73a26,26,0,0,0,3.4-7.35,24.77,24.77,0,0,0,1-8.13,22,22,0,0,0-1.65-7.39,15.9,15.9,0,0,0-4.38-6,21.09,21.09,0,0,0-7-3.85,30.72,30.72,0,0,0-8.22-1.51,28,28,0,0,0-7.64.69,22.22,22.22,0,0,0-7.15,3,23.69,23.69,0,0,0-7.83,8.18,28.22,28.22,0,0,0-3.36,10.8l14.4.09a43,43,0,0,1,.25-7.29,17.6,17.6,0,0,1,1.6-6,6.28,6.28,0,0,1,3.31-3,11.18,11.18,0,0,1,4.09-.83,7.22,7.22,0,0,1,6.32,3.6,13.52,13.52,0,0,1,1.61,4.23,30.94,30.94,0,0,1,.63,5.21,37.09,37.09,0,0,1-.19,5.3,41,41,0,0,1-.78,4.62,34.94,34.94,0,0,0-4.67-.83,30.22,30.22,0,0,0-4.53-.14,25.71,25.71,0,0,0-4,.48A13.13,13.13,0,0,0,95,68a11.06,11.06,0,0,0-3.65,3,5.72,5.72,0,0,0-1.21,3.8,6.2,6.2,0,0,0,1.26,3.5,6.92,6.92,0,0,0,3.51,2.33,18.81,18.81,0,0,0,4,.83,37.69,37.69,0,0,0,4.71.2,35.48,35.48,0,0,0,5.06-.49,32.76,32.76,0,0,0,4.92-1.22,30.57,30.57,0,0,1,.92,4.28,32,32,0,0,1,.34,4.68,71.07,71.07,0,0,0-7.2-1.37A49.46,49.46,0,0,0,99.36,87a37.35,37.35,0,0,0-7.49.92,18.62,18.62,0,0,0-6.33,2.68,12.31,12.31,0,0,0-3.35,3.55,10.71,10.71,0,0,0-1.51,5.11,11.46,11.46,0,0,0,1.07,5.54A12.9,12.9,0,0,0,86,109.88a19.44,19.44,0,0,0,7.49,3.51,38.74,38.74,0,0,0,8.27.87c1.82,0,3.72-.1,5.7-.29a42.3,42.3,0,0,0,5.88-1,31.39,31.39,0,0,0,5.55-2,22.26,22.26,0,0,0,4.77-3c.9.91,1.8,1.79,2.67,2.63a26.89,26.89,0,0,1,2.48,2.73ZM105.39,76.22a13.79,13.79,0,0,1-11,.87,2.79,2.79,0,0,1-2-3.11,3.89,3.89,0,0,1,.63-1.8A3.1,3.1,0,0,1,94.79,71a16,16,0,0,1,7.25-.48,15,15,0,0,1,6.76,2.72A9.49,9.49,0,0,1,105.39,76.22Zm3.36,28.12a18.22,18.22,0,0,1-6.18,2.14c-1.3.19-2.72.34-4.28.44a32.32,32.32,0,0,1-4.62,0,23.57,23.57,0,0,1-4.38-.78,12.36,12.36,0,0,1-3.55-1.56,4.49,4.49,0,0,1-1.7-2,5.52,5.52,0,0,1-.44-2.63,5.65,5.65,0,0,1,.83-2.58,4.86,4.86,0,0,1,2.18-1.9,15.84,15.84,0,0,1,5.31-1.26,27.12,27.12,0,0,1,6,.29,44.33,44.33,0,0,1,8,2.34,62.22,62.22,0,0,1,7,3.21A10.67,10.67,0,0,1,108.75,104.34Z"/><path class="cls-4" d="M41.66,45.59q.17,1.2.66,4a1.77,1.77,0,0,0,.33-.57c.49-.66.85-1.16,1.07-1.49v8l3-.33V49.85a11.38,11.38,0,0,1,.66,1.23A12.31,12.31,0,0,1,48,52.32c.66-.79,1.24-1.51,1.73-2.18v2.14L52.35,52v2.6l3.2-.35v-2.6l2.64-.28V48.84c.65.6,1.36,1.26,2.13,2,.17-.53.41-1.22.74-2.07.28-.64.47-1.12.58-1.44a15.74,15.74,0,0,1-5.18-5.4l4.27-.46V38.71l-5.18.56V36.14l-3.2.34v3.14l-4.44.48v2.75l3.54-.38a23,23,0,0,1-4.69,6.39v-7c.55-1.38.9-2.34,1.07-2.86s.46-1.12.57-1.44L45,37.2a40.84,40.84,0,0,1-3.37,8.39ZM55.55,49V45.23A15.78,15.78,0,0,0,58.1,48.7Zm-3.2.34-2.22.24a20,20,0,0,0,2.22-3.91Z"/><path class="cls-4" d="M63.86,52.43a16.93,16.93,0,0,0,3.45-3.35V52.9l3-.33v-4c1,.66,1.89,1.22,2.71,1.69L75,48c-.5-.3-1.24-.7-2.22-1.21-.61-.34-1.07-.6-1.4-.76L70.35,47.3V45.62l3.7-.4v-2.6l-3.7.4V41.87l-3,.33v1.15l-4.11.44v2.6L66.65,46a18.27,18.27,0,0,1-4,3.87,15.72,15.72,0,0,1,1.24,2.54ZM80.05,33.56a26.65,26.65,0,0,1-6,4.7l-2.38-.35a30.81,30.81,0,0,1-1.32,3.5l2.47.58a28.48,28.48,0,0,0,1.39-3.59,13.23,13.23,0,0,1,.91,1.12c.33.42.57.73.74.92a43,43,0,0,0,6.33-5.12ZM73.56,50c.16.18.46.51.9,1s.82,1,1,1.19a34.82,34.82,0,0,0,7.31-6.06l-2.22-1.9a29.43,29.43,0,0,1-7,5.8ZM63.36,38.58a.46.46,0,0,1,.09.22c.54-.06,1.28-.17,2.22-.32,3.56-.54,6.41-1,8.54-1.31l-.49-2.46q-5.43,1-10.85,1.7a11,11,0,0,1,.49,2.17Zm10.85,5.09a10.07,10.07,0,0,1,.66.85A16.12,16.12,0,0,1,76,46a41.33,41.33,0,0,0,6.41-5.28L80.3,38.89a28.25,28.25,0,0,1-6.09,4.78Zm-11-3.93c.16.49.38,1.16.66,2a6,6,0,0,0,.33,1.19l2.71-1c-.39-1.13-.77-2.13-1.15-3Zm3.7-.93c.27,1,.52,2,.74,3l2.71-.6c-.11-.39-.27-1-.49-1.7s-.28-1.09-.33-1.34Z"/><rect class="cls-1" width="156" height="156"/></svg>